<?xml version="1.0" encoding="utf-8"?>
<!-- Generator: Adobe Illustrator 16.0.0, SVG Export Plug-In . SVG Version: 6.00 Build 0)  -->
<!DOCTYPE svg PUBLIC "-//W3C//DTD SVG 1.1//EN" "http://www.w3.org/Graphics/SVG/1.1/DTD/svg11.dtd">
<svg version="1.1" id="Layer_1" xmlns="http://www.w3.org/2000/svg" xmlns:xlink="http://www.w3.org/1999/xlink" x="0px" y="0px"
	 width="355.475px" height="193.804px" viewBox="0 0 355.475 193.804" enable-background="new 0 0 355.475 193.804"
	 xml:space="preserve">
<g>
	<defs>
		<rect id="SVGID_1_" x="0.144" y="25.694" width="355.331" height="168.109"/>
	</defs>
	<clipPath id="SVGID_2_">
		<use xlink:href="#SVGID_1_"  overflow="visible"/>
	</clipPath>
	<path clip-path="url(#SVGID_2_)" fill="#00AEEF" d="M310.544,71.677c0.393,8.201-0.2,16.389-0.2,24.59
		c0,8.32,1.56,16.482,2.958,24.654c1.521,8.881,3.003,17.697,3.947,26.664c0.897,8.52,1.984,16.947,4.456,25.178
		c0.233,0.779,1.455,0.447,1.22-0.336c-4.828-16.072-5.203-33.451-8.079-49.963c-1.513-8.691-3.104-17.354-3.235-26.197
		c-0.124-8.203,0.593-16.383,0.199-24.59C311.771,70.864,310.504,70.86,310.544,71.677"/>
	<path clip-path="url(#SVGID_2_)" fill="#00AEEF" d="M320.669,69.989c2.971,28.26,2.06,56.699,3.038,85.055
		c0.027,0.813,1.293,0.816,1.266,0c-0.979-28.355-0.067-56.795-3.037-85.055C321.852,69.187,320.584,69.179,320.669,69.989"/>
	<path clip-path="url(#SVGID_2_)" fill="#00AEEF" d="M331.808,74.378c1.901,16.004,4.564,31.959,4.318,48.127
		c-0.121,7.953-1.096,15.955-3.984,23.396c-2.616,6.738-6.12,12.891-6.409,20.279c-0.032,0.816,1.234,0.814,1.265,0
		c0.305-7.744,4.222-14.422,6.966-21.49c2.694-6.939,3.205-14.816,3.43-22.186c0.489-16.119-2.424-32.18-4.319-48.127
		C332.979,73.577,331.711,73.569,331.808,74.378"/>
	<path clip-path="url(#SVGID_2_)" fill="#00AEEF" d="M326.745,68.978c0.346,12.791,1.42,25.547,1.908,38.33
		c0.48,12.514,3.083,25.541-0.536,37.779c-0.231,0.785,0.99,1.117,1.222,0.336c3.521-11.912,0.973-24.037,0.644-36.188
		c-0.361-13.434-1.609-26.824-1.972-40.258C327.988,68.163,326.723,68.161,326.745,68.978"/>
	<path clip-path="url(#SVGID_2_)" fill="#00AEEF" d="M338.896,81.128c0.538,14.021,1.423,28.029,1.204,42.068
		c-0.112,7.213-0.409,14.389-2.438,21.348c-1.678,5.76-4.127,11.221-5.493,17.082c-0.185,0.793,1.035,1.131,1.221,0.336
		c1.363-5.85,3.678-11.371,5.493-17.08c2.04-6.418,2.227-13.092,2.438-19.768c0.466-14.664-0.597-29.34-1.158-43.986
		C340.129,80.315,338.863,80.312,338.896,81.128"/>
	<path clip-path="url(#SVGID_2_)" fill="#00AEEF" d="M315.292,70.159c4.818,22.957-1.451,46.797,5.063,69.525
		c0.224,0.783,1.444,0.451,1.22-0.336c-6.509-22.717-0.243-46.568-5.063-69.525C316.346,69.022,315.125,69.362,315.292,70.159"/>
	<path clip-path="url(#SVGID_2_)" fill="#00AEEF" d="M305.481,79.103c-1.598,14.939-0.191,30.074,2.427,44.818
		c2.396,13.49,0.78,28.85,7.447,41.229c0.388,0.719,1.479,0.08,1.094-0.637c-6.475-12.021-4.42-26.328-7.025-39.338
		c-3.006-15.02-4.309-30.811-2.677-46.072C306.834,78.292,305.567,78.3,305.481,79.103"/>
	<path clip-path="url(#SVGID_2_)" fill="#414042" d="M324.702,25.743c-3.842,1.537-3.986,4.172-3.114,7.902
		c1.062,4.549,0.553,7.451-2.232,11.305c-0.914,1.268-2.203,2.871-1.251,4.494c0.52,0.885,1.603,0.293,2.306,0.148
		c1.77-0.365,1.449-0.404,2.446,1.297c0.526,0.898,1.536,0.523,2.19,0.148c0.389-0.223,0.54-0.773,0.673-1.17
		c0.41-1.219,2.152,0.051,2.791,0.23c0.208,0.059,0.469,0.004,0.616-0.162c1.866-2.09,0.23-4.791,0.12-7.396
		c-0.118-2.773,1.613-4.836,2.299-7.395c1.204-4.502-2.155-9.254-6.676-9.426c-0.817-0.031-0.814,1.234,0,1.266
		c7.96,0.303,5.027,8.33,3.492,12.512c-0.697,1.9-0.349,4.172-0.147,6.109c-0.008-0.074,0.956,3.57-0.507,2.746
		c-0.866-0.488-0.918-0.494-1.822-0.654c-0.285-0.051-0.559,0.029-0.715,0.291c-1.715,2.879-1.144,1.113-2.626-0.467
		c-0.154-0.164-0.402-0.219-0.616-0.162c-1.311,0.348-4.303,2.805-2.098-0.914c1.097-1.85,2.357-3.189,3.14-5.232
		c1.56-4.074-2.924-12.254,2.067-14.25C325.787,26.663,325.46,25.438,324.702,25.743"/>
	<path clip-path="url(#SVGID_2_)" fill="#414042" d="M308.256,37.794c-0.206,2.234-0.586,7.357,2.168,8.271
		c1.476,0.488,2.681-1.088,3.129-2.252c0.748-1.941,0.806-3.998,1.177-6.021c0.146-0.797-1.072-1.139-1.22-0.336
		c-0.259,1.412-0.4,7.762-2.749,7.389c-1.102-0.176-1.206-2.832-1.267-3.602c-0.09-1.143-0.077-2.309,0.027-3.449
		C309.597,36.981,308.33,36.987,308.256,37.794"/>
	<path clip-path="url(#SVGID_2_)" fill="#414042" d="M337.065,38.817c0.091,1.299,0.137,2.592,0.323,3.883
		c0.147,1.014,0.451,2.752,1.622,3.109c1.292,0.393,2.56-1.016,2.968-2.094c0.713-1.881,0.557-4.035,0.235-5.984
		c-0.133-0.803-1.352-0.461-1.22,0.336c0.238,1.453,0.316,2.973,0.038,4.424c-0.087,0.449-1.169,2.85-1.825,1.912
		c-1.011-1.443-0.76-3.906-0.875-5.586C338.274,38.007,337.01,38.001,337.065,38.817"/>
	<path clip-path="url(#SVGID_2_)" fill="#262262" d="M301.382,73.708c-0.476,5.582-0.726,11.182-1.241,16.76
		c-0.537,5.799-1.876,11.313-1.545,17.164c0.247,4.373,1.608,8.656,2.82,12.832c1.848,6.369,2.288,13.098,2.736,19.682
		c0.722,10.594,1.478,20.939,5.669,30.832c3.616,8.533,12.825,13.432,15.631,22.377c0.214,0.684,1.226,0.555,1.243-0.168
		c0.254-10.557,4.966-18.09,10.039-26.904c5.602-9.727,4.561-20.988,7.975-31.391c1.803-5.496,2.946-9.75,2.613-15.604
		c-0.339-5.938-1.356-11.639-1.16-17.613c0.33-9.998,1.942-20.656-3.1-29.807c-0.394-0.715-1.487-0.076-1.093,0.641
		c5.364,9.734,3.05,21.533,2.849,32.135c-0.102,5.488,1.025,10.9,1.336,16.369c0.42,7.363-3.121,13.514-4.455,20.563
		c-1.066,5.641-1.372,11.344-2.895,16.908c-1.088,3.975-3.345,7.561-5.48,11.039c-4.602,7.496-7.681,14.738-7.895,23.664
		c0.414-0.055,0.829-0.111,1.243-0.168c-2.386-7.607-9.247-12.629-13.691-18.973c-6.999-9.99-6.893-24.053-7.687-35.715
		c-0.335-4.914-0.868-9.785-1.805-14.623c-1.052-5.432-3.069-10.533-3.63-16.076c-0.518-5.137,0.708-10.236,1.346-15.305
		c0.775-6.174,0.915-12.424,1.441-18.619C302.717,72.894,301.449,72.899,301.382,73.708"/>
	<path clip-path="url(#SVGID_2_)" fill="#262262" d="M319.229,52.761c-13.986,2.66-25.666,17.049-26.116,31.154
		c-0.022,0.715,1.073,0.861,1.243,0.168c1.611-6.559,9.638-11.387,15.152-14.549c5.015-2.875,13.328-4.436,16.68-9.432
		c-0.385-0.051-0.771-0.102-1.157-0.152c1.633,4.758,7.399,6.828,11.545,8.814c7.741,3.709,14.97,10.236,17.313,18.693
		c0.156,0.564,1.12,0.646,1.22,0c1.539-9.91-1.835-18.574-8.875-25.57c-8.004-7.957-17.242-10.648-28.186-8.959
		c-0.805,0.123-0.461,1.342,0.337,1.219c10.25-1.58,18.018,0.914,25.919,7.68c7.463,6.391,11.092,15.584,9.585,25.295h1.22
		c-1.937-6.994-6.72-11.857-12.36-16.164c-4.718-3.604-14.409-5.258-16.497-11.344c-0.182-0.529-0.845-0.617-1.156-0.15
		c-2.182,3.252-7.875,4.898-11.248,6.48c-3.657,1.713-7.04,3.662-10.334,5.986c-4.172,2.941-9.098,6.609-10.377,11.816
		c0.414,0.055,0.829,0.111,1.243,0.168c0.433-13.574,11.765-27.381,25.186-29.936C320.365,53.827,320.025,52.608,319.229,52.761"/>
	<path clip-path="url(#SVGID_2_)" fill="#262262" d="M322.79,53.837c-9.487,4.969-24.361,10.988-28.136,22.148
		c-0.262,0.773,0.96,1.104,1.22,0.336c3.636-10.75,18.352-16.572,27.556-21.393C324.152,54.55,323.513,53.458,322.79,53.837"/>
	<path clip-path="url(#SVGID_2_)" fill="#262262" d="M322.563,54.231c-2.497,4.191-5.161,6.947-9.603,9.076
		c-2.942,1.408-5.986,2.48-8.863,4.027c-4.184,2.246-8.413,5.424-10.119,10c-0.286,0.766,0.939,1.094,1.221,0.336
		c2.335-6.266,9.565-9.504,15.305-11.932c6.343-2.682,9.679-5.039,13.152-10.869C324.075,54.167,322.98,53.53,322.563,54.231"/>
	<path clip-path="url(#SVGID_2_)" fill="#262262" d="M324.012,54.999c5.491,5.229,15.37,7.957,17.557,15.92
		c0.216,0.787,1.438,0.453,1.222-0.336c-2.29-8.334-12.189-11.057-17.883-16.48C324.316,53.542,323.421,54.435,324.012,54.999"/>
	<path clip-path="url(#SVGID_2_)" fill="#262262" d="M323.575,54.196c2.865,3.711,8.646,4.146,12.609,6.252
		c7.718,4.098,12.262,11.199,14.497,19.416c0.214,0.787,1.435,0.453,1.22-0.336c-1.602-5.896-4.116-10.9-8.452-15.254
		c-2.334-2.342-5.166-4.145-8.066-5.686c-3.261-1.73-8.369-1.994-10.713-5.031C324.178,52.921,323.077,53.55,323.575,54.196"/>
	<path clip-path="url(#SVGID_2_)" fill="#EC008C" d="M229.589,116.589c-7.443-8.652-18.238-6.785-26.769-0.469
		c-4.172,3.088-13.777,15.975-3.881,18.881c9.078,2.664,17.933-3.08,24.64-8.057c3.561-2.645,13.269-11.094,6.422-15.34
		c-8.623-5.35-17.812,1.584-21.914,8.723c-3.997,6.957,0.346,14.777,9.185,13.928c7.903-0.758,17.939-7.773,20.814-14.66
		c2.221-5.322-2.473-9.76-7.585-5.584c-3.758,3.072-9.101,14.459-2.905,17.762c7.281,3.879,14.841-3.035,17.423-8.996
		c2.963-6.844-4.875-7.482-9.004-3.775c-3.216,2.887-6.845,13.996,1.219,13.777c7.098-0.193,14.113-6.949,17.409-12.277
		c2.555-4.135-2.272-5.971-4.94-2.383c-3.654,4.914-5.46,15.676,3.884,15.686c6.887,0.008,13.095-8.902,10.182-14.523
		c-0.492-0.949-2.014-0.121-1.524,0.824c4.135,7.979-12.771,17.506-13.881,7.178c-0.271-2.525,0.878-5.193,2.137-7.365
		c2.919-2.053,3.792-2.133,2.617-0.24c-0.55,1.07-1.436,2.08-2.215,2.992c-2.544,2.975-5.813,5.502-9.374,7.354
		c-4.167,2.166-8.344,0.391-7.394-4.656c0.587-3.113,3.496-6.342,6.666-7.443c5.694-1.975,1.165,6.924,0.832,7.416
		c-1.84,2.721-4.828,4.807-8.092,5.803c-9.899,3.02-6.071-9.883-3.897-13.447c0.918-1.508,5.368-6.875,7.346-2
		c0.791,1.949-1.099,4.432-2.174,5.934c-2.877,4.02-7.481,7.084-12.029,9.277c-5.313,2.561-13.498,3.061-14.534-4.242
		c-0.747-5.268,4.542-10.551,8.747-13.332c3.826-2.533,14.985-3.336,13.256,3.584c-1.057,4.234-6.425,7.852-9.922,10.324
		c-2.954,2.088-6.169,3.896-9.526,5.369c-2.357,1.033-4.844,1.242-7.431,1.387c-6.32,0.354-7.493-5.871-5.406-9.943
		c5.404-10.543,21.597-16.508,30.369-6.309C229.049,118.567,230.289,117.403,229.589,116.589"/>
	<path clip-path="url(#SVGID_2_)" fill="#EC008C" d="M168.98,120.702c10.061-8.91,10.344,4.557,6.796,10.83
		c-5.569,9.848-21.446,2.629-19.989-7.186c1.069-7.189,10.773-12.764,18.107-12.57c5.092,0.135,6.789,4.439,6.838,8.486
		c0.106,8.584-5.422,16.949-13.194,21.354c-11.529,6.533-19.176-5.822-16.623-14.873c1.067-3.783,12.611-12.049,14.991-5.137
		c2.14,6.219-5.243,15.717-10.63,18.65c-5.424,2.953-8.963-3.824-8.293-7.994c0.599-3.729,3.521-7.305,6.813-9.365
		c5.333-3.34,7.724,1.84,6.12,5.17c-0.964,2.002-2.768,3.646-4.413,5.18c-3.48,3.246-7.573,6.02-12.899,3.852
		c-0.868-2.178-1.737-4.357-2.604-6.535c0.537-4.008,3.156-4.951,7.855-2.826c-0.454,3.072-3.169,5.602-5.404,7.672
		c-14.014,12.988-27.686-9.211-16.298-13.34c1.21,0.822,2.419,1.643,3.629,2.461c-0.737,2.078-2.253,3.4-4.553,3.967
		c-3.879,1.334-5.272-2.777-5.888-4.887c-1.953-6.689,2.998-15.98,12.461-11.934c1.025,0.439,1.922-0.967,0.89-1.408
		c-10.539-4.508-16.741,5.043-15.052,13.775c1.5,7.752,10.896,7.848,13.843,0.92c0.801-1.885-0.302-4.611-2.766-4.693
		c-4.21-0.139-6.961,1.771-8.114,5.475c-2.88,9.26,6.578,16.547,15.772,14.785c5.1-0.979,10.999-6.088,12.578-10.629
		c0.669-1.92,1.96-7.652-2.061-7.875c-8.369-0.457-13.078,15.309-3.549,17.143c8.232,1.586,18.303-6.201,19.193-13.854
		c0.298-2.566-2.97-5.016-5.552-4.857c-4.859,0.295-7.94,3.725-10.165,7.447c-2.768,4.635-2.055,13.637,4.961,14.688
		c5.609,0.84,10.36-5.674,12.701-9.412c2.365-3.779,5.355-10.254,1.857-14.184c-4.613-5.178-14.428,1.945-16.534,5.865
		c-3.683,6.855,0.107,19.072,9.497,19.842c12.954,1.063,21.379-11.535,22.992-21.965c2.448-15.828-15.396-14.289-24.091-5.922
		c-4.263,4.102-6.008,10.486-1.899,15.246c4.531,5.246,12.363,8.566,18.385,3.518c4.432-3.713,6.218-10.908,4.812-16.154
		c-1.716-6.406-8.451-2.816-11.769,0.121C166.908,120.276,168.158,121.429,168.98,120.702"/>
	<path clip-path="url(#SVGID_2_)" fill="#414042" d="M156.814,91.192c-1.232,1.018-3.326,3.025-1.989,4.668
		c0.977,1.203,2.951,1.141,4.291,0.557c3.81-1.656,2.771-8.244-1.908-6.359c-1.889,0.76-3.33,2.457-3.014,4.418
		c0.34,2.115,3.031,2.93,4.904,2.156c1.915-0.789,2.873-3.064,2.554-4.873c-0.342-1.934-3.003-3.051-4.86-2.285
		c-3.414,1.406-3.224,7.723,0.533,8.621c4.792,1.146,5.642-5.383,3.269-7.832c-1.565-1.615-3.927-0.723-5.351,0.537
		c-1.617,1.43-1.654,3.732-0.333,5.328c1.11,1.342,3.222,2.119,4.799,0.955c1.727-1.275,2.189-4.152,1.324-5.963
		c-0.689-1.445-2.597-1.285-3.851-0.703c-1.422,0.662-2.553,2.074-2.616,3.559c-0.069,1.611,1.766,2.988,3.416,2.943
		c1.742-0.049,2.714-1.777,2.998-3.158c0.281-1.367,0.019-3.061-1.565-3.596c-1.625-0.547-3.818,1.117-4.025,2.561
		c-0.204,1.42,1.141,2.512,2.568,2.639c2.334,0.205,2.371-2.58,2.095-3.975c-0.069-0.354-0.485-0.6-0.85-0.6
		c-3.383,0.002-3.308,5.287-0.352,4.332c1.439-0.463,1.932-2.055,0.892-3.082c-1.421-1.404-2.686,0.521-2.834,1.689
		c-0.132,1.045,1.634,1.031,1.765,0c0.159-1.264,0.008-0.18-0.107-0.451c-0.052,0.164-0.17,0.275-0.352,0.334
		c0.158,0.066,0.194,0.021,0.106-0.131c-0.064-0.555,0.256-1.059,0.882-1.059c-0.284-0.199-0.567-0.398-0.851-0.6
		c0.071,0.361,0.426,2.057-0.463,1.896c-0.663-0.119-0.956-0.746-0.525-1.229c0.358-0.404,1.427-1.156,1.821-0.477
		c0.358,0.617,0.087,1.656-0.189,2.252c-0.809,1.75-3.137,0.725-2.518-0.914c0.288-0.768,2.561-2.703,3.087-1.256
		c0.676,1.85-0.89,5.311-3.116,3.205c-0.72-0.68-0.942-1.748-0.521-2.615c0.411-0.848,1.851-2.045,2.948-1.594
		c1.726,0.713,1.691,3.697,0.641,4.848c-0.591,0.645-1.727,0.82-2.433,0.252c-0.774-0.625-0.912-1.762-0.903-2.648
		c0.011-0.961,0.389-2.299,1.492-2.641c1.537-0.477,2.5,1.037,2.23,2.23c-0.236,1.043-1.319,2.418-2.629,2.205
		c-1.74-0.287-1.55-2.021-0.654-2.947c0.566-0.584,2.251-1.635,2.926-0.666c0.664,0.947,0.141,2.418-0.787,3.016
		c-0.652,0.42-1.676,0.643-2.401,0.262c-0.944-0.496,1.398-2.402,1.705-2.656C158.914,91.646,157.661,90.495,156.814,91.192"/>
	<path clip-path="url(#SVGID_2_)" fill="#414042" d="M155.931,92.448c-1.853,1.576-1.68,4.656,1.154,4.984
		c0.745,0.086,1.197-0.967,0.624-1.395c-1.151-0.857-1.198-1.916-0.656-3.123c0.251-0.557-0.495-1.213-1.085-1.004
		c-2.073,0.734-2.579,2.719-1.256,4.342c1.317,1.611,3.633,2.061,5.291,0.613c0.828-0.723-0.421-1.875-1.249-1.154
		c-1.675,1.461-4.252-1.541-2.317-2.227c-0.361-0.334-0.724-0.668-1.085-1.004c-0.76,1.693-0.48,3.525,1.108,4.713
		c0.208-0.465,0.416-0.932,0.625-1.395c-1.241-0.143-0.436-1.748,0.095-2.197C158.019,92.888,156.768,91.737,155.931,92.448"/>
	<path clip-path="url(#SVGID_2_)" fill="#414042" d="M155.617,91.96c-0.758,1.217-1.056,2.172-0.794,3.566
		c0.135,0.721,1.256,0.766,1.613,0.195c0.553-0.887,0.728-1.51,0.649-2.533c-0.051-0.662-0.953-1.145-1.507-0.578
		c-2.166,2.219-0.829,5.785,2.624,5.283c0.727-0.107,0.889-1.221,0.21-1.492c-0.701-0.283-1.417-0.535-2.117-0.816
		c-0.641-0.258-1.571,0.166-1.296,0.922c0.533,1.453,1.621,1.854,3.203,1.549c0.831-0.16,0.858-1.434,0-1.574
		c-6.185-1.014-2.938-9.586,1.649-10.643c3.069-0.705,4.312,1.57,3.947,4.029c-0.323,2.188-1.701,4.318-3.806,5.391
		c-0.996,0.508-0.108,1.916,0.891,1.408c3.011-1.531,4.663-4.697,4.759-7.805c0.095-3.047-2.409-5.225-5.704-4.688
		c-6.573,1.074-10.459,12.527-2.205,13.881v-1.574c-0.345-0.135-0.688-0.273-1.033-0.408c-0.431,0.307-0.864,0.613-1.295,0.92
		c0.701,0.283,1.417,0.535,2.117,0.818c0.07-0.498,0.141-0.996,0.211-1.492c-2.098,0.305-1.538-1.908-0.906-2.555
		c-0.503-0.191-1.005-0.385-1.506-0.576c-0.137,0.568-0.273,1.139-0.41,1.709c0.538,0.064,1.075,0.131,1.613,0.195
		c0.205-0.77,0.411-1.539,0.618-2.309C157.711,91.87,156.185,91.048,155.617,91.96"/>
	<path clip-path="url(#SVGID_2_)" fill="#414042" d="M215.919,91.794c-1.103,0.879-3.194,2.48-2.612,4.078
		c0.46,1.264,2.16,1.242,3.316,1.063c3.329-0.52,6.419-3.605,4.421-6.711c-2.284-3.551-6.858,1.131-7.335,3.537
		c-0.347,1.754,0.822,3.068,2.672,3.354c1.852,0.287,3.476-0.662,4.211-2.221c0.671-1.424,0.682-3.213-0.222-4.555
		c-1.053-1.559-3.022-1.463-4.616-0.754c-1.882,0.836-3.451,2.734-2.72,4.715c0.579,1.57,2.398,2.559,4.135,2.557
		c3.902-0.004,5.467-6.891,1.219-7.363c-3.433-0.383-7.201,3.332-5.207,6.348c2.72,4.113,7.677-0.418,7.886-3.666
		c0.131-2.063-1.727-3.146-3.704-3.352c-1.765-0.184-3.166,0.889-3.68,2.383c-0.899,2.611,1.18,6.887,4.644,5.326
		c2.03-0.914,2.998-3.553,1.921-5.41c-1.315-2.273-4.076-1.715-5.648-0.041c-1.437,1.529-2.032,4.59,0.747,5.168
		c2.216,0.461,4.13-2.109,3.945-3.922c-0.23-2.246-3.042-2.441-4.432-1.002c-1.54,1.596-0.355,3.949,2.011,3.734
		c2.319-0.211,2.13-3.164,0.379-3.975c-0.897-0.416-1.933-0.129-2.209,0.793c-0.16,0.537,0.14,1.918,0.582,2.328
		c1.295,1.197,4.132-1.154,2.414-2.268c-1.776-1.152-3.723-0.121-2.916,1.857c0.995,2.443,3.691,0.373,3.228-1.596
		c-0.7-2.973-4.782-0.893-4.925,1.318c-0.183,2.811,4.219,3.449,6.273,2.371c2.394-1.258,3.272-4.938,0.257-5.938
		c-0.67-0.223-1.222,0.443-1.085,1.004c0.442,1.836-0.043,5.986-2.973,4.873c-0.156,0.525-0.313,1.049-0.469,1.574
		c2.555,0.52,5.305-0.822,5.672-3.346c-0.578-0.072-1.155-0.145-1.733-0.217c-0.063,0.865-0.602,1.561-1.588,1.633
		c-1.126,0.084-1.134,1.717,0,1.633c1.985-0.146,3.22-1.455,3.353-3.266c0.066-0.91-1.601-1.131-1.733-0.217
		c-0.236,1.613-1.786,2.553-3.502,2.205c-1.139-0.23-1.5,1.182-0.469,1.574c4.449,1.689,5.858-3.92,5.143-6.881
		c-0.362,0.336-0.724,0.67-1.085,1.004c1.544,0.512,0.149,2.416-0.678,2.955c-0.781,0.506-3.485,0.467-3.634-0.73
		c-0.123-0.975,2.105-2.117,1.376-0.605c-0.154,0.318,0.355,0.328,0.34,0.305c-0.095-0.127-0.138-0.268-0.184-0.414
		c-0.174-0.541,0.126,0.094-0.142,0.033c0.51,0.316,0.58,0.207,0.21-0.33c-0.101,0.074-0.215,0.127-0.34,0.158
		c0.448-0.135,0.773,0.896,0.589,0.158c-0.044-0.176-0.129-0.352-0.186-0.525c-0.16-0.479-0.221,0.045-0.065,0.26
		c0.122,0.166,0.121,0.41,0.031,0.586c-0.194,0.377-1.082-0.168-0.82-0.691c0.206-0.414,0.848-0.967,1.336-0.592
		c0.929,0.719-0.617,2.479-1.485,2.566c-0.938,0.094-0.725-1.014-0.569-1.479c0.246-0.734,0.914-1.381,1.595-1.785
		c1.58-0.938,2.196,1.08,1.957,2.152c-0.157,0.707-1.103,1.844-2.032,1.721c-1.376-0.184-1.663-2.322-1.485-3.295
		c0.299-1.643,2.759-2.195,3.793-0.721c1.034,1.479-0.977,3.955-2.44,4.457c-0.98,0.336-1.746-0.297-2.174-1.064
		c-0.408-0.73,0.067-1.602,0.579-2.158c0.683-0.738,3.058-2.217,3.89-0.93c0.51,0.789,0.046,2.195-0.399,2.908
		c-0.502,0.807-1.506,0.861-2.362,0.604c-0.766-0.23-1.37-0.854-1.566-1.563c-0.312-1.129,1.145-2.07,2.024-2.512
		c3.906-1.969,3.261,6.563-0.871,4.211c-1.461-0.832,0.874-3.359,1.566-3.92c0.433-0.35,1.229-0.824,1.823-0.553
		c0.75,0.338,0.87,1.477,0.696,2.129c-0.391,1.473-2.477,2.389-3.965,2.531c-0.315,0.029-0.914-0.08-0.922-0.025
		c0.148-0.963,1.472-1.842,2.197-2.42C218.031,92.261,216.778,91.112,215.919,91.794"/>
	<path clip-path="url(#SVGID_2_)" fill="#414042" d="M214.698,94.407c-4.568-3.473,2.783-10.721,7.337-9.871
		c6.723,1.256,0.943,10.74-3.727,11.1c-1.125,0.088-1.134,1.721,0,1.633c6.768-0.521,12.468-11.182,4.645-14.172
		c-6.287-2.404-15.428,7.957-9.504,12.465C214.322,96.224,215.578,95.075,214.698,94.407"/>
	<path clip-path="url(#SVGID_2_)" fill="#414042" d="M188.61,67.147c-4.509,8.014-2.862,17.918-4.139,26.652
		c-1.348,9.201-2.221,18.43-2.195,27.725c0.014,4.568,0.252,14.033,5.725,16.242c3.64,1.471,5.624-5.355,6.215-7.277
		c2.586-8.383,1.529-18.23,2.102-26.881c0.454-6.85,1.253-13.709,1.489-20.568c0.16-4.672,0.08-10.006-2.586-14.135
		c-1.102-1.707-4.612-3.645-6.473-1.924c-0.805,0.746,0.442,1.9,1.249,1.154c3.585-3.316,5.851,8.564,5.95,9.678
		c0.338,3.775,0.04,7.611-0.275,11.379c-0.923,11.023-1.695,22.051-2.154,33.102c-0.111,2.664-0.35,5.152-1.003,7.764
		c-1.247,4.984-4.775,7.295-7.232,0.949c-2.326-6.004-1.262-13.594-0.892-19.834c0.386-6.504,1.253-12.881,2.132-19.342
		c1.068-7.85-0.435-16.668,3.612-23.859C190.658,67.038,189.136,66.214,188.61,67.147"/>
	<path clip-path="url(#SVGID_2_)" fill="#FFF200" d="M51.818,130.31c7.119,6.902,18.801,14.451,28.758,9.098
		c0.626-0.336,0.196-1.35-0.482-1.143c-12.222,3.707-24.205-1.832-29.793-13.213c-0.361,0.209-0.72,0.42-1.081,0.631
		c4.062,8.18,37.84,24.166,35.143,6.52c-0.059-0.385-0.611-0.59-0.918-0.375c-11.92,8.385-25.666,4.33-35.742-4.902
		c-0.593-0.543-1.457,0.313-0.885,0.885c11.374,11.377,34.654,14.234,43.983-1.127c-0.361-0.211-0.72-0.422-1.081-0.631
		c-7.777,16.27-27.934,7.271-38.644-0.725c-0.21,0.359-0.421,0.719-0.631,1.08c9.956,7.215,31.111,10.977,39.758-0.098
		c0.48-0.617-0.302-1.475-0.885-0.885c-12.55,12.711-29.332,3.438-43.892,0.34c-0.365-0.078-0.633,0.107-0.768,0.438
		c-5.459,13.305-23.595,13.779-34.582,7.625c-0.16,0.381-0.321,0.762-0.482,1.143c7.416,1.904,15.717,1.232,23.136-0.275
		c6.186-1.258,14.201-4.166,15.155-11.326c0.07-0.525-0.569-0.705-0.94-0.541c-6.756,3.018-11.363,9.15-17.679,12.879
		c-8.033,4.744-20.13,3.639-28.19-0.379c-0.106,0.389-0.21,0.775-0.316,1.166c12.262,1.16,40.353,6.609,43.103-11.459
		c0.079-0.52-0.4-1.004-0.918-0.707c-5.216,2.994-10.381,6.352-16.197,8.051c-6.438,1.883-13.197-0.025-19.322-2.113
		c-0.667-0.227-1.123,0.838-0.481,1.143c11.524,5.449,25.76,0.236,35.631-6.5c0.661-0.451,0.037-1.535-0.631-1.08
		c-9.449,6.451-23.29,11.74-34.369,6.5c-0.16,0.381-0.321,0.762-0.482,1.143c6.194,2.111,12.401,3.637,18.926,2.373
		c6.316-1.223,12.086-5.299,17.556-8.436c-0.306-0.236-0.612-0.471-0.918-0.705c-2.613,17.17-30.102,11.656-41.898,10.541
		c-0.618-0.061-0.857,0.893-0.315,1.164c7.018,3.498,15.213,4.191,22.863,2.768c9.106-1.695,14.48-9.518,21.96-14.137
		c2.757-1.701-0.05,2.008-0.589,2.66c-1.046,1.264-2.503,2.141-3.916,2.934c-3.185,1.787-6.925,2.617-10.484,3.264
		c-6.484,1.18-13.916,1.521-20.353-0.131c-0.679-0.176-1.109,0.789-0.481,1.143c10.777,6.037,27.261,5.943,34.816-5.107
		c1.283-1.877,0.924-2.84,3.582-2.215c2.357,0.555,4.682,1.264,7.004,1.949c4.668,1.373,9.316,2.732,14.133,3.475
		c8.125,1.254,15.427-0.83,21.223-6.699c-0.295-0.295-0.59-0.59-0.885-0.885c-8.281,10.609-28.704,6.816-38.242-0.098
		c-0.657-0.477-1.266,0.605-0.631,1.08c11.292,8.428,32.264,17.197,40.356,0.275c0.343-0.721-0.657-1.328-1.081-0.631
		c-8.907,14.668-31.231,11.662-42.017,0.873c-0.295,0.295-0.59,0.59-0.885,0.885c6.066,5.557,13.204,9.416,21.504,10.035
		c3.387,0.252,7.189-0.408,10.278-1.799c1.03-0.465,4.73-3.338,4.718-1.361c-0.011,1.627-0.904,2.865-2.264,3.641
		c-4.869,2.775-13.221-1.061-17.671-3.109c-4.688-2.158-10.688-5.34-13.082-10.164c-0.36-0.723-1.434-0.09-1.081,0.631
		c5.827,11.863,18.486,17.646,31.206,13.787c-0.16-0.381-0.321-0.762-0.481-1.143c-9.388,5.049-20.577-2.439-27.242-8.902
		C52.124,128.864,51.239,129.747,51.818,130.31"/>
	<path clip-path="url(#SVGID_2_)" fill="#FFF200" d="M42.547,149.146c-2.336,4.104-4.639,8.111-8.607,10.869
		c0.253,0.326,0.505,0.654,0.758,0.982c4.571-5.688,9.29-11.168,8.937-18.877c-0.409,0.055-0.819,0.109-1.228,0.166
		c1.163,6.027-1.595,12.512-6.178,16.449c0.328,0.254,0.655,0.506,0.982,0.758c3.375-5.682,5.051-11.189,3.655-17.779
		c-0.144-0.684-1.293-0.539-1.227,0.166c0.714,7.732-1.525,15.1-7.074,20.645c0.295,0.295,0.59,0.592,0.885,0.887
		c2.598-2.834,4.374-5.949,5.859-9.484c0.991-2.359,1.778-4.807,2.687-7.199c0.439-1.213,0.959-2.389,1.56-3.525
		c1.346,1.158,1.366,2.984,1.132,4.551c-0.96,6.42-8.162,13.396-13.495,16.645c0.209,0.361,0.42,0.721,0.63,1.08
		c5.483-4.078,11.748-7.227,15.014-13.514c0.948-1.824,2.888-9.42,3.386-4.234c0.341,3.549-1.814,7.016-3.891,9.678
		c-3.756,4.814-9.453,8.506-15.276,10.234c-1.101,0.326-2.241,0.469-3.382,0.537c-1.096,0.16-1.097-0.068-0.003-0.689
		c0.699-1.018,1.409-2.027,2.132-3.027c2.844-3.992,5.771-7.896,8.33-12.084c-0.381-0.16-0.762-0.32-1.143-0.48
		c-1.146,6.705-5.064,12.355-10.794,15.988c0.253,0.328,0.505,0.656,0.758,0.984c4.399-3.566,8.777-7.109,12.301-11.576
		c1.459-1.85,2.551-3.904,3.473-6.063c1.255-2.938,0.201-8.965,6.039-6.031c0.16-0.381,0.321-0.762,0.481-1.143
		c-3.36-1.189-6.635-2.598-9.984-3.816c-0.111,0.4-0.222,0.803-0.332,1.205c3.805,0.871,7.535,1.811,11.149,3.311
		c0.11-0.402,0.222-0.803,0.332-1.205c-3.114-0.559-5.732-2.014-8.503-3.451c-0.715-0.369-1.346,0.709-0.631,1.08
		c2.892,1.498,5.574,2.996,8.802,3.576c0.807,0.145,1.069-0.9,0.332-1.205c-3.614-1.5-7.344-2.438-11.149-3.311
		c-0.794-0.184-1.083,0.932-0.332,1.205c3.348,1.221,6.623,2.627,9.984,3.816c0.669,0.236,1.112-0.826,0.481-1.143
		c-2.06-1.035-3.617-1.219-5.889-0.91c-0.285,0.039-0.44,0.354-0.459,0.604c-0.85,11.021-8.975,17.684-16.98,24.17
		c-0.555,0.451,0.166,1.357,0.758,0.982c5.982-3.793,10.169-9.723,11.368-16.736c0.117-0.678-0.754-1.117-1.142-0.482
		c-3.522,5.766-7.734,11.049-11.497,16.652c-0.288,0.432,0.106,0.898,0.54,0.941c11.389,1.135,29.626-13.186,24.359-25.578
		c-0.198-0.467-0.849-0.346-1.08,0c-2.386,3.576-3.229,7.834-5.985,11.207c-3.228,3.953-8.151,6.418-12.197,9.428
		c-0.63,0.471-0.075,1.51,0.63,1.08c5.652-3.441,19.969-16.836,11.96-23.725c-0.285-0.244-0.793-0.258-0.982,0.127
		c-3.419,6.977-4.844,14.768-10.236,20.645c-0.541,0.594,0.312,1.457,0.885,0.887c5.756-5.754,8.181-13.488,7.439-21.531
		c-0.409,0.055-0.819,0.111-1.228,0.166c1.316,6.211-0.352,11.467-3.53,16.816c-0.379,0.639,0.461,1.205,0.982,0.758
		c4.94-4.244,7.745-11.215,6.499-17.666c-0.133-0.697-1.259-0.535-1.227,0.166c0.34,7.393-4.207,12.563-8.571,17.992
		c-0.411,0.51,0.127,1.42,0.757,0.982c4.159-2.889,6.59-6.988,9.056-11.318C44.026,149.075,42.946,148.444,42.547,149.146"/>
	<path clip-path="url(#SVGID_2_)" fill="#414042" d="M36.543,99.087c0.22-0.086,0.611-0.387,0.834-0.332
		c-0.153-0.201-0.306-0.4-0.459-0.604c-0.012,0.348-0.152,0.6-0.459,0.764c-0.205,0.111-0.289,0.066-0.325-0.074
		c-0.058-0.223,0.124-0.508,0.329-0.586c0.143-0.055,0.16-0.039,0.241-0.016c-0.12-0.035-0.089-0.162-0.135,0.012
		c-0.028,0.107-0.093,0.201-0.148,0.293c0.01-0.018-0.213,0.291-0.05,0.096c0.173-0.207,0.495-0.145,0.679,0.002
		c-0.092-0.074,0.083,0.129,0.008,0.014c-0.102-0.156-0.024-0.014-0.075-0.17c-0.046-0.137-0.073-0.279-0.095-0.422
		c-0.015-0.094-0.005-0.475,0.018-0.58c0.04-0.182,0.021-0.107,0.094-0.219c-0.033,0.053,0.018,0.033-0.028,0.037
		c0.201-0.016,0.717,0.215,0.879,0.451c-0.006-0.008-0.103,0.146-0.181,0.223c-0.184,0.176-0.446,0.273-0.685,0.344
		c-0.165,0.049-0.331,0.043-0.502,0.031c0.12,0.008-0.038-0.014-0.055-0.02c0.122,0.033-0.002-0.033,0.111,0.07
		c0.128,0.117,0.147,0.273,0.117,0.428c0.022-0.115-0.073,0.137-0.007,0.027c-0.028,0.047,0.046-0.049,0.155-0.141
		c-0.085,0.07,0.153-0.102,0.201-0.131c0.104-0.064,0.215-0.121,0.326-0.172c0.087-0.041,0.451-0.135,0.487-0.137
		c0.167-0.006-0.046-0.035-0.009-0.012c-0.083-0.051-0.138-0.111-0.168-0.201c-0.046-0.141-0.006-0.061-0.01,0.014
		c0.006-0.113-0.06,0.16-0.09,0.223c-0.092,0.197-0.212,0.482-0.391,0.613c-0.175,0.129-0.325-0.08-0.407-0.223
		c-0.166-0.289,0.058-0.611,0.255-0.811c-0.001,0,0.068,0.01-0.04-0.01c0.075,0.014,0.065,0.018,0.137,0.082
		c0.181,0.168,0.263,0.41,0.311,0.652c0.076,0.381-0.381,0.59-0.731,0.307c-0.415-0.336-0.374-0.896,0.202-0.967
		c0.789-0.096,0.799-1.348,0-1.25c-0.959,0.117-1.774,0.697-1.732,1.748c0.033,0.877,0.725,1.672,1.59,1.811
		c0.948,0.152,1.829-0.438,1.912-1.416c0.068-0.777-0.335-1.559-0.963-2.002c-0.808-0.568-1.675,0.088-2.051,0.82
		c-0.463,0.898-0.025,2.135,0.952,2.469c1.082,0.369,1.823-0.605,2.17-1.5c0.244-0.627,0.119-1.301-0.564-1.549
		c-0.915-0.334-2.388,0.557-2.731,1.391c-0.299,0.727,0.538,1.098,1.094,1.141c0.922,0.07,2.169-0.52,2.475-1.445
		c0.353-1.066-0.761-1.873-1.687-2.07c-0.756-0.16-1.354,0.244-1.608,0.943c-0.299,0.826-0.006,3.203,1.35,2.623
		c0.374-0.162,0.624-0.82,0.716-1.168c0.13-0.492-0.032-1.006-0.447-1.301c-0.789-0.563-1.909,0.004-2.285,0.789
		c-0.477,0.996,0.017,2.139,1.155,2.229c1.133,0.088,1.911-1.045,1.945-2.055c0.01-0.27-0.196-0.537-0.459-0.602
		c-0.628-0.154-0.946,0.117-1.498,0.332C35.469,98.173,35.791,99.382,36.543,99.087"/>
	<path clip-path="url(#SVGID_2_)" fill="#414042" d="M63.44,99.317c0.034,0.211,0.153,0.389,0.339,0.496
		c0.097,0.059,0.203,0.086,0.315,0.086c0.191-0.008,0.303,0.066,0.064-0.027c-0.124-0.096-0.249-0.191-0.373-0.287
		c-0.011-0.033-0.023-0.066-0.034-0.1c0.061-0.146,0.123-0.295,0.183-0.441c-0.472,0.506-0.919,0.43-1.175-0.232
		c-0.058-0.15-0.093-0.617-0.121-0.445c-0.019,0.121-0.192,0.229-0.282,0.262c-0.057,0.018-0.157,0-0.087,0.02
		c0.051,0.014,0.354,0.209,0.487,0.324c0.238,0.209,0.41,0.406,0.553,0.658c0.003,0.006,0.065,0.229,0.055,0.115
		c0.004,0.041,0.142-0.189,0.085-0.156c0.044-0.025-0.177,0.012-0.292,0.01c-0.254-0.004-0.548-0.035-0.777-0.152
		c-0.225-0.115-0.038-0.35,0.09-0.473c0.327-0.314,0.864,0.072,1.095,0.307c0.193,0.197-0.343,0.379-0.448,0.404
		c-0.364,0.09-0.692-0.26-0.685-0.602c0.008-0.428,0.948-0.678,1.221-0.434c0.208,0.188,0.083,0.598-0.067,0.783
		c-0.267,0.336-0.692,0.512-1.114,0.512c-0.377-0.002-0.501-0.313-0.498-0.643c0.003-0.375,0.42-0.555,0.723-0.619
		c0.273-0.057,0.544,0.074,0.728,0.262c0.19,0.193,0.209,0.604,0.189,0.693c0.011-0.049,0.074-0.133,0.214-0.182
		c0.063-0.023,0.2,0.021,0.052-0.02c-0.029-0.008-0.004,0.008-0.137-0.068c-0.06-0.033-0.255-0.176-0.227-0.152
		c-0.352-0.283-0.588-0.531-0.757-0.871c0.035,0.086,0.04,0.098,0.02,0.037c-0.031-0.092-0.01,0.164-0.013,0.186
		c-0.031,0.199-0.253,0.346-0.437,0.357c0.132-0.008-0.15-0.035,0.016,0.004c0.314,0.076,0.607,0.27,0.882,0.43
		c-0.075-0.285-0.149-0.568-0.224-0.854c-0.07,0.105-0.139,0.213-0.209,0.32c0.152-0.23-0.136,0.057-0.233,0.119
		c0.306,0.125,0.612,0.25,0.918,0.375c0.062,0.281-0.24,0.289-0.27,0.291c0.803-0.033,0.807-1.283,0-1.25
		c-0.726,0.029-1.084,0.609-0.935,1.291c0.084,0.383,0.591,0.588,0.918,0.373c0.394-0.258,0.632-0.496,0.891-0.891
		c0.186-0.285,0.058-0.689-0.225-0.855c-0.584-0.34-1.445-0.898-2.085-0.395c-0.479,0.379-0.153,1.064,0.131,1.443
		c0.483,0.641,2.239,2.254,2.837,0.84c0.374-0.885-0.069-1.877-0.804-2.416c-0.799-0.584-1.969-0.328-2.654,0.291
		c-0.768,0.693-0.72,2.016,0.014,2.709c0.743,0.697,1.952,0.488,2.721-0.037c0.863-0.59,1.235-1.664,0.766-2.623
		c-0.393-0.805-1.47-0.908-2.221-0.652c-0.839,0.289-1.509,1.059-1.354,1.984c0.185,1.107,1.306,1.695,2.346,1.441
		c0.992-0.24,1.629-1.334,1.065-2.25c-0.562-0.91-1.94-1.303-2.833-0.684c-0.79,0.549-1.03,1.658-0.329,2.377
		c0.576,0.592,1.952,0.748,2.668,0.334c1.531-0.885-0.851-3.65-2.134-3.209c-1.351,0.465-0.185,2.514,0.533,2.998
		c0.718,0.484,1.584,0.158,2.162-0.363c0.346-0.311,0.389-0.711,0.177-1.113c-0.091-0.174-0.257-0.24-0.427-0.309
		c-0.045-0.018-0.479,0.01-0.343,0.004c0.148,0.063,0.295,0.121,0.443,0.184c0.036,0.051,0.072,0.102,0.108,0.152
		C64.518,98.192,63.313,98.53,63.44,99.317"/>
	<path clip-path="url(#SVGID_2_)" fill="#414042" d="M26.75,91.3c2.962-4.066,8.777-3.832,13.179-2.99
		c3.155,0.602,6.258,3.268,6.339,6.752c0.047,2.082-0.566,4.461-0.727,6.559c-0.222,2.896-0.401,5.598-2.997,7.588
		c-1.117,0.857-3.163,1.15-4.51,1.572c-1.9,0.594-4.448,1.514-5.593,3.268c-6.317,9.684,12.205,9.418,16.935,7.873
		c0.763-0.248,0.436-1.455-0.332-1.205c-2.739,0.895-5.616,1.145-8.484,1.102c-4.574-0.066-12.405-4.283-4.957-8.705
		c2.716-1.611,5.95-1.582,8.493-3.531c2-1.533,2.336-4.438,2.595-6.74c0.762-6.771,2.074-12.563-5.482-15.502
		c-4.901-1.908-12.328-1.078-15.539,3.33C25.195,91.323,26.28,91.946,26.75,91.3"/>
	<path clip-path="url(#SVGID_2_)" fill="#414042" d="M57.192,90.358c5.219-3.975,12.96-5.055,17.31,0.775
		c0.477,0.639,1.563,0.016,1.081-0.629c-4.729-6.338-13.167-5.684-19.022-1.227C55.929,89.761,56.55,90.847,57.192,90.358"/>
</g>
<g>
	<defs>
		<rect id="SVGID_3_" x="-75.271" y="-168.105" width="398.443" height="336.211"/>
	</defs>
	<clipPath id="SVGID_4_">
		<use xlink:href="#SVGID_3_"  overflow="visible"/>
	</clipPath>
</g>
</svg>
