<?xml version="1.0" encoding="utf-8"?>
<!-- Generator: Adobe Illustrator 16.0.0, SVG Export Plug-In . SVG Version: 6.00 Build 0)  -->
<!DOCTYPE svg PUBLIC "-//W3C//DTD SVG 1.1//EN" "http://www.w3.org/Graphics/SVG/1.1/DTD/svg11.dtd">
<svg version="1.1" id="Layer_1" xmlns="http://www.w3.org/2000/svg" xmlns:xlink="http://www.w3.org/1999/xlink" x="0px" y="0px"
	 width="161.992px" height="312.026px" viewBox="0 0 161.992 312.026" enable-background="new 0 0 161.992 312.026"
	 xml:space="preserve">
<g>
	<rect x="153.51" y="-5.67" fill="none" width="790.172" height="619.966"/>
</g>
<g>
	<defs>
		<rect id="SVGID_7_" x="41.586" y="34.318" width="76.344" height="228.407"/>
	</defs>
	<clipPath id="SVGID_2_">
		<use xlink:href="#SVGID_7_"  overflow="visible"/>
	</clipPath>
	<path clip-path="url(#SVGID_2_)" fill="#00AEEF" d="M54.063,253.92c-0.732,2.128-0.814,5.424-3.613,5.555
		c-3.28,0.153-3.374-4.812-2.204-6.749c1.388-2.298,6.275-0.417,5.196,2.151c-1.782,4.242-7.054-0.333-5.542-3.56
		c1.002-2.14,4.596-2.918,5.075-0.14c0.315,1.831-0.023,4.815-1.713,5.956c-1.371,0.925-4.366-2.826-3.707-4.063
		c0.563-1.056,3.649-1.051,4.151-0.328c0.029,0.041-3.485,4.396-4.012,1.297c-0.414-2.437,1.002-4.339,3.499-3.559
		c1.999,0.625,2.715-2.543,0.73-3.163c-3.128-0.977-6.121,0.437-7.144,3.597c-0.799,2.468-0.428,5.663,1.964,7.103
		c4.535,2.726,12.142-6.462,5.189-8.716c-2.186-0.709-4.858-0.127-6.564,1.363c-2.442,2.135-0.605,5.446,1.021,7.363
		c1.702,2.005,4.351,3.372,6.784,1.73c2.089-1.409,2.94-4.274,3.103-6.656c0.166-2.446-0.437-4.98-2.566-6.409
		c-2.526-1.696-6.601,0.285-8.2,2.377c-2.273,2.975-0.814,7.109,1.791,9.332c3.054,2.607,6.737,1.456,8.821-1.655
		c1.839-2.745-0.066-5.993-2.526-7.471c-2.927-1.756-6.302-0.729-8.206,1.905c-2.42,3.351-1.055,9.686,2.989,11.15
		c1.877,0.681,4.424,0.545,5.925-0.929c1.673-1.641,2.056-4.018,2.722-6.172c0.067-0.194,0.133-0.387,0.2-0.581
		C57.906,252.672,54.737,251.962,54.063,253.92"/>
	<path clip-path="url(#SVGID_2_)" fill="#2B3990" d="M44.946,248.108c-2.038,2.514-4.112,5.82-3.092,9.187
		c0.74,2.443,3.235,3.812,5.609,4.183c2.529,0.395,5.242-0.251,7.137-2.009c2.324-2.158,2.071-5.569,1.017-8.276
		c-0.378-0.969-1.931-0.495-1.55,0.483c0.848,2.176,1.209,4.674-0.499,6.528c-1.346,1.461-3.615,1.918-5.519,1.721
		c-1.853-0.192-3.834-1.097-4.574-2.914c-1.106-2.716,1.04-5.8,2.652-7.789C46.783,248.412,45.605,247.294,44.946,248.108"/>
	<path clip-path="url(#SVGID_2_)" fill="#00AEEF" d="M75.419,39.647c0.736,14.064-4.062,27.679-2.852,41.785
		c0.707,8.24,3.82,20.271,13.987,20.82c10.288,0.556,16.429-9.43,19.465-17.92c2.518-7.043,3.478-14.619,5.047-21.905
		c1.009-4.68,0.602-11.476,3.966-15.236c-0.934-0.348-1.868-0.696-2.803-1.045c0.805,5.626-1.279,11.417-2.334,16.892
		c-1.42,7.358-3.333,14.448-6.569,21.239c-5.244,11.004-13.411,19.594-25.606,22.313c-1.814,0.405-1.262,3.296,0.551,3.172
		c5.68-0.39,10.587-3.134,14.616-7.052c-0.869-0.628-1.739-1.257-2.609-1.887c-1.196,1.693-2.787,3.165-4.25,4.621
		c-0.796,0.792-1.613,1.563-2.44,2.32c-0.863,0.791-1.872,0.934-0.568,1.154c-2.054-0.347-2.796,2.814-0.73,3.163
		c1.752,0.295,3.468-1.902,4.588-2.95c2.228-2.081,4.492-4.266,6.256-6.763c1.106-1.566-1.353-3.107-2.609-1.887
		c-3.416,3.322-7.568,5.704-12.391,6.035c0.184,1.057,0.368,2.115,0.552,3.172c12.376-2.76,20.933-11.249,26.676-22.224
		c3.751-7.169,6.108-15.01,7.563-22.946c1.099-5.995,3.429-12.351,2.549-18.51c-0.187-1.304-1.787-2.181-2.804-1.044
		c-2.665,2.978-3.241,7.367-3.86,11.164c-0.854,5.248-1.94,10.436-2.959,15.656c-1.851,9.481-4.995,23.778-15.822,26.968
		c-11.864,3.493-14.063-13.498-14.494-21.233c-0.711-12.763,3.797-25.209,3.129-38.01C78.555,37.423,75.31,37.552,75.419,39.647"/>
	<path clip-path="url(#SVGID_2_)" fill="#00AEEF" d="M82.439,106.346c-11.7,3.207-14.304-12.927-14.782-21.107
		c-0.371-6.348,0.708-12.681,1.925-18.888c1.765-9.009,4.643-17.776,8.57-26.073c0.894-1.888-1.96-3.437-2.856-1.545
		c-4.412,9.322-7.45,19.152-9.336,29.285c-1.29,6.938-2.015,13.818-1.257,20.849c1.086,10.069,5.943,24.076,18.702,20.58
		C85.424,108.892,84.458,105.793,82.439,106.346"/>
	<path clip-path="url(#SVGID_2_)" fill="#00AEEF" d="M86.203,107.427c7.45-1.667,14.593-5.205,19.159-11.52
		c2.498-3.455,4.201-7.376,5.062-11.552c1.115-5.407,0.48-11.039,1.065-16.504c0.219-2.054-2.941-2.808-3.163-0.729
		c-0.932,8.713,0.211,17.152-4.357,25.063c-3.957,6.854-11.276,10.475-18.732,12.143C83.196,104.785,84.171,107.881,86.203,107.427"
		/>
	<path clip-path="url(#SVGID_2_)" fill="#00AEEF" d="M109.153,64.982c-0.387,3.353-0.313,6.771-1.315,10.023
		c-0.616,2.002,2.551,2.718,3.163,0.73c1.004-3.259,0.927-6.666,1.315-10.024C112.554,63.657,109.394,62.904,109.153,64.982"/>
	<path clip-path="url(#SVGID_2_)" fill="#00AEEF" d="M100.502,42.837c1.81,8.315-0.954,16.88-3.147,24.853
		c-2.608,9.485-4.273,19.138-8.269,28.194c-0.756,1.714,1.222,3.126,2.609,1.886c4.978-4.451,10.387-9.75,12.876-16.081
		c0.763-1.942-1.668-3.295-2.856-1.545c-1.929,2.841-4.401,5.334-6.522,8.033c-1.539,1.958-4.049,4.772-3.722,7.479
		c0.096,0.795,0.768,1.701,1.691,1.553c4.247-0.686,4.957-4.323,6.907-7.564c1.105-1.836-1.682-3.201-2.856-1.545
		c-1.777,2.511-3.755,4.887-6.646,6.132c-1.901,0.819-0.96,3.93,0.965,3.101c3.753-1.617,6.213-4.406,8.537-7.688
		c-0.952-0.515-1.904-1.029-2.856-1.545c-1.056,1.754-1.82,5.484-4.188,5.865c0.563,0.518,1.127,1.036,1.691,1.554
		c-0.274-2.254,3.005-5.349,4.287-6.921c1.866-2.289,3.906-4.461,5.568-6.908c-0.952-0.515-1.904-1.029-2.856-1.545
		c-2.394,6.092-7.587,11.11-12.382,15.399c0.87,0.628,1.739,1.257,2.609,1.886c4.115-9.327,5.906-19.232,8.576-29.009
		c2.357-8.628,5.037-17.573,3.083-26.549C103.156,39.828,100.059,40.804,100.502,42.837"/>
	<path clip-path="url(#SVGID_2_)" fill="#00AEEF" d="M74.513,80.077c6.751,6.401,10.253-11.004,11.033-14.521
		c0.769-3.471,1.435-6.971,2.125-10.458c0.535-2.707,1.147-5.396,1.957-8.036c0.443-1.443,1.551-5.574,3.466-5.835
		c-0.563-0.518-1.127-1.034-1.691-1.553c1.037,7.912-2.014,15.851-4.374,23.273c-1.938,6.096-4.577,13.07-2.276,19.429
		c2.316,6.403,8.239,2.112,10.734-1.62c3.88-5.8,5.671-13.047,6.239-19.931c0.171-2.079-3.075-1.924-3.245,0.138
		c-0.478,5.806-2.074,11.716-4.928,16.807c-1.105,1.971-4.475,7.028-5.936,2.99c-0.904-2.498-0.523-5.34-0.014-7.866
		c2.221-11.019,8.556-21.815,7.045-33.357c-0.106-0.811-0.758-1.68-1.691-1.554c-3.95,0.536-5.425,5.074-6.492,8.35
		c-1.298,3.983-1.941,8.15-2.809,12.24c-0.784,3.694-1.462,7.401-2.438,11.056c-0.319,1.197-2.645,9.825-4.478,8.086
		C75.217,76.27,72.996,78.636,74.513,80.077"/>
	<path clip-path="url(#SVGID_2_)" fill="#00AEEF" d="M89.643,44.154c-3.194,12.174-7.307,24.821-6.613,37.56
		c0.115,2.112,3.167,1.934,3.244-0.137c0.092-2.475-0.376-4.831-0.826-7.251c-0.305-1.644-2.808-1.363-3.131,0.117
		c-1.705,7.822-1.494,24.727,10.382,23.326c2.117-0.251,1.922-3.075-0.137-3.245c-8.549-0.705-13.006-8.202-10.805-16.212
		c0.482-1.754-2.244-2.811-3.009-1.139c-4.272,9.342,1.858,26.345,14.244,22.493c1.997-0.622,1.037-3.723-0.966-3.1
		c-9.395,2.922-13.523-11.069-10.422-17.848c-1.004-0.38-2.007-0.759-3.01-1.138c-2.817,10.255,3.549,19.315,14.105,20.188
		c-0.045-1.082-0.091-2.163-0.137-3.245c-9.125,1.078-8.329-13.632-7.082-19.351c-1.044,0.039-2.087,0.078-3.131,0.118
		c0.401,2.159,0.763,4.224,0.681,6.422c1.081-0.046,2.163-0.092,3.244-0.137c-0.678-12.432,3.413-24.809,6.532-36.693
		C93.338,42.857,90.173,42.132,89.643,44.154"/>
	<path clip-path="url(#SVGID_2_)" fill="#00AEEF" d="M83.165,83.282c4.205,1.94,8.597,1.668,12.484-0.878
		c1.782-1.167,0.123-3.673-1.72-2.752c-3.75,1.871-7.23,3.672-11.496,3.913c-1.868,0.105-2.045,2.71-0.296,3.203
		c5.128,1.445,12.874,0.557,15.661-4.603c1.023-1.896-1.68-3.2-2.856-1.546c-2.372,3.338-8.742,8.736-13.176,6.788
		c-1.906-0.837-3.46,2.015-1.546,2.855c6.391,2.807,14.049-3.134,17.578-8.098c-0.952-0.516-1.904-1.031-2.856-1.546
		c-2.067,3.827-8.401,4.021-12.075,2.986c-0.099,1.066-0.197,2.135-0.296,3.203c4.841-0.275,8.819-2.279,13.078-4.405
		c-0.574-0.918-1.147-1.835-1.72-2.752c-2.886,1.889-6.062,2.231-9.218,0.773C82.816,79.55,81.265,82.404,83.165,83.282"/>
	<path clip-path="url(#SVGID_2_)" fill="#00AEEF" d="M77.674,101.295c3.835,2.375,8.1,3,12.119,0.703
		c-0.681-0.829-1.361-1.659-2.041-2.489c-1.378,1.202-2.924,1.827-4.751,1.802c-1.572-0.021-2.168,2.397-0.705,3.05
		c3.091,1.378,6.152,0.341,8.62-1.773c1.593-1.363-0.79-3.572-2.361-2.228c-1.272,1.088-3.081,1.873-4.713,1.146
		c-0.235,1.017-0.47,2.033-0.704,3.05c2.697,0.037,4.977-1.075,6.976-2.82c1.444-1.261-0.508-3.364-2.041-2.488
		c-3.027,1.729-6.045,0.933-8.853-0.808C77.435,97.333,75.905,100.199,77.674,101.295"/>
	<path clip-path="url(#SVGID_2_)" fill="#00AEEF" d="M80.74,92.342c2.591,1.861,5.919,3.275,9.167,2.811
		c3.722-0.53,5.254-3.71,5.539-7.129c0.173-2.078-3.072-1.924-3.245,0.138c-0.493,5.923-6.712,3.626-9.915,1.324
		C80.586,88.265,79.066,91.14,80.74,92.342"/>
	<path clip-path="url(#SVGID_2_)" fill="#00AEEF" d="M82.997,90.257c3.952,1.218,7.771-0.177,9.53-4.019
		c0.868-1.897-1.985-3.448-2.856-1.546c-1.194,2.609-3.286,3.221-5.944,2.401C81.725,86.477,81.009,89.644,82.997,90.257"/>
	<path clip-path="url(#SVGID_2_)" fill="#00AEEF" d="M73.398,49.841c0.785,11.091-4.385,21.956-5.288,32.944
		c-0.403,4.892-0.08,9.848,2.343,14.217c2.773,5,8.345,7.402,13.686,8.51c2.046,0.424,2.781-2.738,0.73-3.163
		c-5.221-1.081-10.207-3.375-12.392-8.546c-1.893-4.478-1.406-9.734-0.71-14.411c1.457-9.79,5.583-19.674,4.876-29.688
		C76.496,47.623,73.25,47.748,73.398,49.841"/>
	<path clip-path="url(#SVGID_2_)" fill="#00AEEF" d="M72.888,48.455c0.209,0.462,0.417,1.012,0.823,1.348
		c0.831,0.687,2.123,0.594,2.661-0.426c0.394-0.745,0.258-1.662,0.077-2.446c-0.198-0.862-1.236-1.316-2.032-1.068
		c-0.891,0.28-1.266,1.172-1.067,2.033c0.013,0.059,0.026,0.118,0.038,0.178c-0.106-0.549-0.05-0.287-0.034-0.159
		c0.018,0.144,0.026,0.287,0.026,0.432c0,0.258,0.058-0.47,0.025-0.236c-0.002,0.013-0.005,0.026-0.008,0.039
		c-0.247,0.876,0.59,0.632,2.513-0.731c0.307,0.254,0.242,0.32,0.129,0.143c-0.049-0.077-0.226-0.454-0.052-0.07
		c-0.183-0.403-0.37-0.725-0.777-0.944c-0.382-0.206-0.841-0.251-1.255-0.122C73.188,46.662,72.521,47.647,72.888,48.455"/>
	<path clip-path="url(#SVGID_2_)" fill="#00AEEF" d="M71.247,76.218c-1.669,6.396-6.103,12.281-2.81,18.938
		c2.351,4.752,7.609,9.773,13.266,7.233c1.433-0.644,1.543-2.671-0.118-3.131c-3.233-0.896-6.905-2.162-8.028-5.66
		c-0.961-2.999,0.361-6.705,1.217-9.571c0.519-1.737-2.357-2.851-3.009-1.138c-0.974,2.562-1.781,5.034-1.801,7.8
		c-0.01,1.408,1.889,2.064,2.803,1.044c1.006-1.119,2.085-2.164,3.09-3.283c-0.869-0.628-1.739-1.258-2.609-1.887
		c-0.957,1.343-1.962,2.648-2.92,3.99c-1.215,1.704,1.658,3.223,2.857,1.545c0.957-1.341,1.962-2.647,2.919-3.989
		c1.083-1.519-1.405-3.229-2.609-1.886c-1.005,1.119-2.085,2.164-3.09,3.284c0.934,0.348,1.869,0.697,2.804,1.044
		c0.015-2.168,0.648-4.109,1.412-6.116c-1.004-0.38-2.007-0.759-3.01-1.138c-1.162,3.892-2.384,8.311-0.794,12.261
		c1.638,4.069,6.136,5.782,10.038,6.863c-0.04-1.044-0.079-2.087-0.118-3.132c-4.909,2.205-8.982-3.578-10.161-7.683
		c-1.358-4.725,2.667-10.188,3.834-14.659C74.939,74.921,71.774,74.197,71.247,76.218"/>
	<path clip-path="url(#SVGID_2_)" fill="#00AEEF" d="M78.003,144.849c-1.226,18.11-6.879,35.426-11.382,52.896
		c-4.498,17.448-10.192,34.558-17.499,51.039c-0.844,1.903,2.008,3.456,2.856,1.545c7.423-16.744,13.234-34.127,17.805-51.854
		c4.585-17.777,10.216-35.336,11.465-53.763C81.389,142.628,78.145,142.78,78.003,144.849"/>
	<path clip-path="url(#SVGID_2_)" fill="#00AEEF" d="M52.36,245.088c2.097-7.061,4.107-14.146,5.386-21.41
		c0.32-1.814-2.053-2.727-3.009-1.137c-4.262,7.084-5.008,15.396-6.773,23.308c-0.401,1.799,2.12,2.746,3.01,1.139
		c3.906-7.064,5.458-14.974,7.249-22.762c1.875-8.146,4.927-15.963,7.13-24.027c4.665-17.078,9.167-34.11,15.303-50.739
		c0.723-1.96-2.448-2.666-3.163-0.729c-5.85,15.854-10.326,32.077-14.672,48.394c-2.156,8.099-5.171,15.954-7.21,24.067
		c-2.072,8.243-3.327,16.718-7.494,24.252c1.004,0.379,2.007,0.758,3.01,1.138c1.7-7.62,2.361-15.672,6.466-22.494
		c-1.003-0.379-2.006-0.758-3.009-1.138c-1.279,7.263-3.289,14.348-5.387,21.41C48.601,246.368,51.767,247.085,52.36,245.088"/>
	<path clip-path="url(#SVGID_2_)" fill="#00AEEF" d="M53.432,228.901c1.387-11.569,1.441-23.297,3.973-34.711
		c2.461-11.096,9.641-19.801,15.603-29.174c0.981-1.544-1.499-3.353-2.609-1.886c-13.926,18.372-21.412,42.945-16.53,65.824
		c0.33,1.546,2.931,1.464,3.131-0.117c2.209-17.482,3.424-35.404,10.557-51.754c-1.004-0.379-2.007-0.759-3.01-1.139
		c-5.55,15.278-14.824,31.163-11.294,47.981c0.283,1.349,2.43,1.532,2.978,0.29c3.082-6.995,3.758-14.672,5.156-22.11
		c1.668-8.882,4.794-17.437,7.361-26.08c-1.054-0.242-2.108-0.486-3.163-0.729c-3.727,13.529-11.976,26.488-11.171,40.949
		c0.11,1.959,2.601,1.932,3.204,0.297c4.804-13.038,8.728-26.379,12.298-39.802c0.463-1.744-2.296-2.845-3.01-1.139
		c-8.292,19.823-17.744,40.091-18.301,61.955c-0.048,1.906,2.729,1.992,3.204,0.297c1.774-6.326,1.727-12.905,2.694-19.365
		c0.881-5.882,3.038-11.494,3.092-17.497c0.017-1.966-2.646-1.913-3.204-0.297c-4.949,14.342-3.917,29.817-7.595,44.441
		c1.055,0.244,2.109,0.487,3.163,0.73c1.378-13.398,4.353-26.554,6.103-39.899c0.27-2.057-2.565-2.762-3.163-0.73
		c-3.929,13.328-5.779,27.267-4.554,41.145c0.185,2.089,3.209,1.955,3.245-0.137c0.279-16.565,2.47-33.133,8.203-48.744
		c0.722-1.967-2.44-2.654-3.163-0.73c-1.22,3.245-2.831,6.585-2.28,10.133c0.222,1.43,2.309,2.317,3.05,0.704
		c5.556-12.097,5.303-25.817,7.229-38.75c0.306-2.05-2.82-2.805-3.163-0.729c-1.911,11.579-8.126,22.165-8.251,34.072
		c-0.017,1.676,2.28,2.024,3.05,0.703c3.965-6.803,5.154-14.708,6.948-22.262c2.152-9.06,6.912-16.783,10.671-25.194
		c0.849-1.9-1.986-3.452-2.856-1.546c-4.825,10.575-11.013,20.927-12.905,32.555c-0.232,1.425,1.72,2.891,2.762,1.478
		c6.812-9.234,8.506-20.838,13.129-31.124c-1.017-0.234-2.033-0.47-3.05-0.704c-0.605,7.727-4.728,14.685-7.326,21.852
		c-0.641,1.769,2.149,2.682,3.01,1.138c5.011-8.993,6.733-19.194,10.61-28.643c-1.003-0.38-2.006-0.76-3.009-1.139
		c-1.747,7.164-4.929,13.862-8.607,20.224c1.003,0.379,2.006,0.758,3.009,1.138c2.2-7.254,5.423-14.133,8.015-21.247
		c0.632-1.735-2.217-2.757-3.01-1.138c-2.413,4.936-4.9,9.834-7.397,14.726c0.952,0.517,1.904,1.031,2.856,1.546
		c2.708-5.651,4.872-11.536,5.929-17.729c0.306-1.789-2.08-2.77-3.009-1.138c-3.483,6.116-6.287,12.616-8.667,19.233
		c-2.334,6.495-4.709,14.001-3.728,20.988c0.194,1.388,2.403,2.369,3.05,0.705c5.21-13.414,5.332-28.132,10.481-41.555
		c0.726-1.893-1.861-3.455-2.856-1.546c-9.024,17.332-16.106,36.709-14.829,56.538c0.122,1.885,2.678,2.026,3.204,0.297
		c2.739-9.013,3.248-18.444,4.772-27.693c1.489-9.035,5.737-17.393,6.846-26.479c0.211-1.727-2.102-2.864-3.01-1.138
		c-9.024,17.183-14.03,36.966-13.466,56.409c0.053,1.826,2.832,2.1,3.203,0.297c4.044-19.65,6.143-39.734,12.268-58.909
		c0.554-1.734-2.364-2.847-3.009-1.138c-3.933,10.418-7.529,21.021-9.662,31.97c-0.41,2.107,2.464,2.65,3.163,0.731
		c4.504-12.377,8.228-25.014,14.61-36.605c-1.003-0.379-2.006-0.758-3.009-1.138c-0.453,1.71-1.089,3.337-1.956,4.88
		c0.847-0.135,1.694-0.272,2.541-0.408c-2.368-2.691-2.563-5.957-0.976-9.091c0.519-1.026,3.455-5.093,5.008-3.728
		c1.47,1.293,0.531,4.728-1.62,4.504c-3.813-0.393,0.971-3.42,2.105-4.018c1.862-0.982,0.126-3.69-1.72-2.752
		c-4.89,2.483-8.872,13.179-5.021,17.834c1.9,2.296,5.279,0.875,6.843-1.079c2.195-2.743,1.535-7.083-0.298-9.811
		c-4.91-7.305-15.787,4.132-9.377,9.991c3.562,3.258,8.559-0.255,10.789-3.263c3.091-4.17,2.896-9.77-0.083-13.903
		c-1.227-1.702-3.739-0.13-2.753,1.721c4.278,8.025-5.538,13.578-7.895,20.541c-0.276,0.815,0.41,1.794,1.216,1.945
		c8.765,1.656,19.282-5.783,19.665-15.01c0.2-4.806-2.302-7.169-5.337-10.471c-3.467-3.771,1.716-9.288,3.267-12.988
		c0.711-1.697-1.215-3.171-2.61-1.886c-5.847,5.391-3.705,11.364-0.914,17.759c1.653,3.789,2.118,7.2,0.924,11.215
		c-1.294,4.351-4.767,8.28-8.884,10.132c0.554,0.889,1.109,1.776,1.663,2.663c4.999-6.014,11.642-12.976,10.889-21.423
		c-0.165-1.848-2.691-2.066-3.204-0.296c-2.031,7.026-3.685,16.813-11.652,19.413c-1.987,0.648-1.029,3.75,0.966,3.099
		c9.31-3.038,11.451-13.488,13.849-21.781c-1.067-0.1-2.135-0.198-3.203-0.296c0.667,7.475-5.59,13.743-10.007,19.059
		c-0.932,1.121,0.05,3.389,1.664,2.663c6.864-3.089,11.3-9.679,11.924-17.142c0.674-8.066-9.17-15.907-1.652-22.838
		c-0.87-0.629-1.739-1.257-2.609-1.886c-1.437,3.428-3.63,6.471-4.768,10.036c-1.075,3.365,1.38,6.164,3.586,8.37
		c3.74,3.739,3.528,8.258,0.463,12.486c-2.929,4.04-8.262,6.908-13.29,5.959c0.405,0.648,0.811,1.298,1.217,1.946
		c1.471-4.348,5.339-7.521,7.611-11.448c2.189-3.781,1.877-7.785-0.126-11.543c-0.918,0.574-1.835,1.146-2.753,1.721
		c1.708,2.37,2.208,4.813,1.51,7.657c-0.642,2.615-4.016,6.885-7.083,5.506c-4.03-1.813,4.07-11.74,5.352-3.152
		c0.283,1.891-0.314,3.587-2.179,4.272c-0.835,0.306-0.761-2.825-0.75-3.222c0.084-3.392,1.546-8.163,4.77-9.8
		c-0.574-0.918-1.147-1.835-1.72-2.752c-2.144,1.13-5.134,2.928-5.179,5.718c-0.031,1.9,1.316,3.315,3.028,3.935
		c4.838,1.752,7.908-2.686,6.913-7.135c-1.224-5.471-6.704-3.714-9.556-0.679c-4.237,4.511-4.25,11.038-0.23,15.607
		c0.712,0.809,2.066,0.438,2.542-0.408c1.002-1.786,1.739-3.718,2.263-5.696c0.476-1.798-2.137-2.722-3.01-1.137
		c-6.521,11.844-10.314,24.775-14.917,37.419c1.054,0.244,2.108,0.487,3.163,0.731c2.076-10.658,5.526-21.014,9.355-31.156
		c-1.004-0.379-2.007-0.758-3.01-1.138c-6.124,19.176-8.224,39.26-12.267,58.908c1.067,0.1,2.135,0.198,3.203,0.297
		c-0.547-18.863,4.324-38.057,13.078-54.726c-1.003-0.379-2.006-0.759-3.009-1.138c-1.059,8.678-5.007,16.707-6.635,25.281
		c-1.826,9.624-2.118,19.468-4.983,28.892c1.068,0.098,2.136,0.197,3.204,0.296c-1.241-19.262,5.677-38.023,14.44-54.855
		c-0.952-0.515-1.904-1.03-2.856-1.546c-5.154,13.437-5.278,28.159-10.481,41.555c1.017,0.234,2.033,0.47,3.05,0.703
		c-0.906-6.451,1.285-13.208,3.341-19.243c2.265-6.655,5.187-13.185,8.666-19.295c-1.004-0.38-2.007-0.76-3.009-1.139
		c-1.01,5.92-3.033,11.513-5.623,16.914c-0.901,1.881,1.902,3.416,2.856,1.546c2.497-4.894,4.984-9.791,7.397-14.726
		c-1.003-0.38-2.006-0.759-3.009-1.138c-2.593,7.114-5.813,13.988-8.015,21.245c-0.548,1.811,2.122,2.674,3.01,1.139
		c3.818-6.604,7.101-13.603,8.914-21.038c0.424-1.74-2.302-2.86-3.01-1.138c-3.873,9.44-5.609,19.668-10.61,28.643
		c1.003,0.38,2.006,0.759,3.009,1.138c2.729-7.531,6.77-14.593,7.407-22.719c0.126-1.603-2.415-2.116-3.05-0.704
		c-4.475,9.958-6.054,21.521-12.634,30.444c0.92,0.493,1.841,0.984,2.762,1.478c1.847-11.348,7.889-21.417,12.598-31.738
		c-0.952-0.516-1.904-1.03-2.856-1.546c-3.413,7.639-7.796,14.759-10.153,22.841c-2.404,8.241-3.068,17.071-7.466,24.616
		c1.017,0.234,2.034,0.47,3.051,0.704c0.12-11.555,6.311-21.947,8.169-33.205c-1.054-0.243-2.108-0.486-3.163-0.729
		c-1.874,12.581-1.517,26.169-6.922,37.934c1.017,0.235,2.034,0.471,3.05,0.705c-0.503-3.234,1.087-6.307,2.199-9.266
		c-1.055-0.243-2.109-0.486-3.163-0.73c-5.829,15.875-8,32.771-8.285,49.611c1.082-0.046,2.163-0.092,3.245-0.137
		c-1.203-13.616,0.617-27.201,4.472-40.277c-1.055-0.244-2.109-0.487-3.163-0.73c-1.749,13.346-4.725,26.502-6.103,39.899
		c-0.208,2.025,2.638,2.817,3.163,0.73c3.678-14.624,2.646-30.1,7.595-44.441c-1.068-0.099-2.135-0.198-3.204-0.297
		c-0.05,5.666-2.09,11.081-3.009,16.63c-1.07,6.453-0.917,13.026-2.695,19.366c1.068,0.099,2.135,0.197,3.204,0.296
		c0.54-21.239,9.86-41.022,17.912-60.272c-1.003-0.38-2.006-0.759-3.009-1.138c-3.57,13.423-7.494,26.764-12.298,39.802
		c1.068,0.1,2.136,0.197,3.204,0.296c-0.785-14.092,7.451-26.876,11.089-40.082c0.558-2.026-2.572-2.722-3.163-0.729
		c-2.379,8.012-5.07,15.914-6.946,24.069c-1.784,7.749-2.02,15.944-5.264,23.305c0.992,0.097,1.985,0.194,2.978,0.29
		c-3.359-15.998,6.082-31.767,11.357-46.285c0.625-1.72-2.282-2.804-3.01-1.138c-7.267,16.66-8.612,34.752-10.863,52.568
		c1.044-0.039,2.087-0.078,3.131-0.116c-4.615-21.633,2.633-45.271,15.792-62.633c-0.869-0.629-1.739-1.258-2.609-1.887
		c-5.684,8.938-12.319,17.221-15.304,27.558c-3.463,11.987-3.104,24.846-4.578,37.144C50.023,230.227,53.183,230.978,53.432,228.901
		"/>
	<path clip-path="url(#SVGID_2_)" fill="#00AEEF" d="M76.481,124.509c-0.662,8.087-2.15,15.78-5.777,23.099
		c-0.929,1.875,1.927,3.42,2.856,1.546c3.893-7.857,5.454-16.101,6.166-24.781C79.896,122.292,76.65,122.448,76.481,124.509"/>
	<path clip-path="url(#SVGID_2_)" fill="#00AEEF" d="M76.165,126.611c2.874,8.578,0.039,19.659-6.804,25.619
		c-1.581,1.377,0.802,3.588,2.363,2.228c7.673-6.684,10.751-19.23,7.54-28.813C78.601,123.664,75.498,124.62,76.165,126.611"/>
	<path clip-path="url(#SVGID_2_)" fill="#00AEEF" d="M80.867,124.02c4.666,2.791,6.722,8.613,4.566,13.662
		c-0.816,1.912,2.035,3.469,2.856,1.546c2.87-6.725,0.402-14.307-5.876-18.063C80.61,120.086,79.079,122.951,80.867,124.02"/>
	<path clip-path="url(#SVGID_2_)" fill="#00AEEF" d="M76.904,125.051c3.26-4.73,3.391-9.943,4.923-15.297
		c-1.067-0.1-2.135-0.197-3.203-0.297c0.619,4.956-0.631,10.028-2.889,14.438c-0.954,1.864,1.902,3.407,2.856,1.546
		c2.505-4.895,3.965-10.612,3.277-16.12c-0.226-1.811-2.685-2.107-3.203-0.297c-1.446,5.054-1.537,10.014-4.617,14.481
		C72.859,125.231,75.73,126.753,76.904,125.051"/>
	<path clip-path="url(#SVGID_2_)" fill="#00AEEF" d="M71.923,124.946c-7.279,3.632-8.231,13.725-3.305,19.62
		c1.344,1.607,3.551-0.778,2.227-2.362c-3.712-4.442-2.43-11.896,2.798-14.506C75.518,126.762,73.78,124.018,71.923,124.946"/>
	<path clip-path="url(#SVGID_2_)" fill="#00AEEF" d="M73.48,123.972c-3.553,1.99-6.256,4.917-7.77,8.713
		c1.003,0.38,2.006,0.759,3.009,1.139c0.883-4.933,4.863-9.159,9.238-11.349c1.874-0.937,0.137-3.681-1.72-2.752
		c-5.085,2.543-9.66,7.668-10.681,13.369c-0.306,1.711,2.301,2.916,3.01,1.139c1.324-3.323,3.515-5.759,6.634-7.507
		C77.031,125.701,75.302,122.953,73.48,123.972"/>
	<path clip-path="url(#SVGID_2_)" fill="#2B3990" d="M75.713,35.951c-5.555,15.233-9.724,31.414-11.196,47.6
		c-0.413,4.533-0.296,9.495,1.792,13.648c2.486,4.946,6.985,8.019,11.905,10.271c0.948,0.434,1.724-0.992,0.772-1.427
		c-4.782-2.191-9.229-5.153-11.473-10.086c-2.049-4.504-1.698-9.816-1.154-14.598c1.743-15.331,5.657-30.567,10.935-45.043
		C77.653,35.334,76.067,34.981,75.713,35.951"/>
	<path clip-path="url(#SVGID_2_)" fill="#2B3990" d="M76.934,36.822c3.625-2.789,2.865,2.531,2.626,4.917
		c-0.584,5.831-1.909,11.597-2.991,17.349c-1.048,5.568-2.162,11.238-2.239,16.923c-0.034,2.549,0.172,7.015,3.469,7.477
		c0.45,0.063,0.851-0.152,0.973-0.608c3.71-13.84,8.163-27.469,11.423-41.429c0.238-1.02-1.344-1.385-1.581-0.365
		c-3.26,13.959-7.713,27.589-11.423,41.429c0.324-0.202,0.648-0.405,0.973-0.608c-3.597-0.503-2.095-8.99-1.843-11.175
		c0.734-6.385,2.115-12.691,3.296-19.003c0.87-4.646,2.183-9.784,1.65-14.546c-0.37-3.305-2.828-3.557-5.193-1.735
		C75.252,36.078,76.104,37.46,76.934,36.822"/>
	<path clip-path="url(#SVGID_2_)" fill="#2B3990" d="M97.321,86.711c2.762-14.057,4.813-28.245,8.004-42.217
		c0.233-1.021-1.348-1.386-1.581-0.366c-3.192,13.974-5.242,28.161-8.004,42.219C95.538,87.371,97.119,87.74,97.321,86.711"/>
	<path clip-path="url(#SVGID_2_)" fill="#2B3990" d="M97.489,87.249c2.638-0.952,4.137-3.739,5.29-6.114
		c1.917-3.948,3.144-8.252,4.324-12.465c1.307-4.669,2.427-9.389,3.663-14.076c0.851-3.229,1.594-6.809,3.323-9.706
		c0.439-0.736,0.693-0.979,1.198-0.264c1.829,2.589,0.791,6.695,0.465,9.578c-0.994,8.779-3.161,17.413-5.168,26.003
		c-1.481,6.337-3.002,12.989-6.117,18.751c-3.564,6.592-9.899,9.298-17.16,9.467c-0.333-0.001-0.666-0.003-1-0.005
		c-1.047-0.005-0.977,1.617,0.068,1.622c6.083,0.031,11.849-1.373,16.238-5.785c3.948-3.97,5.769-9.715,7.279-14.958
		c2.191-7.608,3.914-15.379,5.507-23.13c0.859-4.177,1.57-8.381,2.049-12.617c0.314-2.779,0.984-5.973-0.159-8.598
		c-2.752-6.322-5.896,1.745-6.77,4.548c-2.777,8.911-4.385,18.146-7.546,26.945c-1.053,2.934-2.68,8.066-5.967,9.254
		C96.026,86.053,96.502,87.605,97.489,87.249"/>
	<path clip-path="url(#SVGID_2_)" fill="#2B3990" d="M90.289,41.468c0.156-1.821,2.971-3.251,3.156-0.795
		c0.061,0.799-0.072,1.654-0.149,2.442c-0.247,2.53-0.943,4.951-1.506,7.421c-1.188,5.21-2.123,10.493-3.188,15.73
		c-0.941,4.628-2.424,9.159-2.909,13.866c-0.212,2.05-0.102,4.495,2.127,5.312c3.697,1.353,6.384-16.18,6.666-17.879
		c0.863-5.19,1.976-10.299,3.476-15.344c0.765-2.569,1.539-5.124,2.275-7.701c-0.042,0.149,1.461-5.049,2.863-3.222
		c0.733,0.955,0.679,2.36,0.586,3.485c-0.087,1.04,1.536,0.963,1.621-0.067c0.156-1.872-0.346-5.719-3.011-5.607
		c-3.371,0.139-4.176,7.125-4.819,9.351c-1.801,6.236-3.499,12.321-4.572,18.74c-0.546,3.264-1.121,6.5-2.026,9.688
		c-0.396,1.391-0.99,2.71-1.481,4.066c-0.076,0.207-1.739,4.613-2.16,1.041c-0.324-2.745,0.681-5.887,1.374-8.504
		c0.814-3.069,1.431-6.167,2.064-9.278c1.294-6.363,2.789-12.702,4.009-19.075c0.426-2.226,1.24-6.514-1.239-7.853
		c-2.965-1.602-4.582,1.951-4.778,4.25C88.578,42.575,90.201,42.498,90.289,41.468"/>
	<path clip-path="url(#SVGID_2_)" fill="#2B3990" d="M78.318,107.376c-0.515,4.489-0.892,9.202-3.168,13.206
		c-1.443,2.538-5.363,3.95-7.74,5.428c-4.874,3.025-7.506,7.151-2.703,11.703c0.042-0.427,0.084-0.854,0.126-1.279
		c-1.337,0.979-1.969,2.795-2.52,4.285c-1.116,3.016-1.905,6.146-2.648,9.271c-2.278,9.569-3.901,19.303-5.471,29.008
		c-3.266,20.191-5.948,40.48-8.412,60.783c-0.369,3.04-0.738,6.08-1.075,9.124c-0.114,1.028,1.466,1.405,1.581,0.365
		c1.707-15.42,3.759-30.81,5.923-46.172c2.757-19.58,5.033-39.85,10.643-58.87c0.536-1.818,1.177-5.202,2.839-6.418
		c0.419-0.307,0.527-0.9,0.127-1.279c-6.111-5.79,3.312-9.53,7.606-12.242c5.468-3.45,5.805-10.713,6.473-16.549
		C80.017,106.714,78.437,106.337,78.318,107.376"/>
	<path clip-path="url(#SVGID_2_)" fill="#2B3990" d="M85.55,109.045c-1.853,5.35-4.642,11.808-1.799,17.25
		c2.325,4.452,9.428,11.996,1.478,14.718c-0.53,0.182-0.679,0.731-0.446,1.204c0.745,1.512,0.107,4.086-0.112,5.64
		c-0.502,3.552-1.303,7.064-2.128,10.554c-2.362,9.997-5.252,19.874-8.197,29.714c-5.692,19.022-11.829,37.915-18.185,56.725
		c-0.701,2.073-1.4,4.146-2.124,6.212c-0.346,0.986,1.239,1.341,1.582,0.364c5.16-14.72,9.928-29.591,14.621-44.465
		c5.95-18.862,12.637-38.119,15.852-57.69c0.384-2.342,1.182-5.652,0.067-7.912c-0.149,0.401-0.298,0.803-0.447,1.205
		c5.975-2.045,5.538-6.645,2.848-11.46c-1.484-2.66-3.979-5.327-4.378-8.435c-0.563-4.391,1.541-9.192,2.949-13.258
		C87.474,108.421,85.89,108.068,85.55,109.045"/>
</g>
</svg>
