<?xml version="1.0" encoding="utf-8"?>
<!-- Generator: Adobe Illustrator 16.0.0, SVG Export Plug-In . SVG Version: 6.00 Build 0)  -->
<!DOCTYPE svg PUBLIC "-//W3C//DTD SVG 1.1//EN" "http://www.w3.org/Graphics/SVG/1.1/DTD/svg11.dtd">
<svg version="1.1" id="Layer_1" xmlns="http://www.w3.org/2000/svg" xmlns:xlink="http://www.w3.org/1999/xlink" x="0px" y="0px"
	 width="171px" height="269.501px" viewBox="0 0 171 269.501" enable-background="new 0 0 171 269.501" xml:space="preserve">
<g>
	<rect x="92.978" y="158.927" fill="#8ED8F8" width="1.302" height="2.565"/>
	<g>
		<defs>
			<rect id="SVGID_17_" x="-522.851" y="49.9" width="699.236" height="593.424"/>
		</defs>
		<clipPath id="SVGID_2_">
			<use xlink:href="#SVGID_17_"  overflow="visible"/>
		</clipPath>
		<path clip-path="url(#SVGID_2_)" fill="#00AEEF" d="M91.226,168.299c3.482,6.199-6.725,11.768-3.477,18.046
			c1.693,3.272,4.09,3.163,5.18-0.412c0.636-2.083,0.004-5.487-2.533-3.132c-2.332,2.165,0.098,7.811,2.783,8.572
			c4.181,1.188,5.853-5.529,5.54-8.562c-0.149-1.433-1.24-1.765-2.461-1.562c-1.892,0.313-1.628,3.306-1.454,4.57
			c0.516,3.756,4.592,6.055,5.992,1.557c0.601-1.926,0.439-4.27-0.362-6.1c-1.191-2.722-3.89-3.018-4.16-6.674
			c-0.154-2.057,0.606-4.115,0.4-6.162c-0.269-2.662-3.739-1.13-4.917-0.404c-0.504,0.311-0.043,1.106,0.462,0.795
			c0.247-0.154,0.498-0.301,0.755-0.442c3.597-2.06,2.808,1.116,2.683,2.147c-0.188,1.561-0.647,3.742-0.202,5.273
			c1.001,3.447,4.541,4.86,4.744,8.702c0.071,1.356-0.373,6.425-3.496,3.668c-0.629-0.554-0.841-1.81-1.017-2.604
			c-0.377-1.705,2.196-3.349,2.167-1.563c-0.057,3.637-3.358,9.299-6.424,4.523c-0.74-1.151-1.073-2.637-0.886-3.989
			c0.268-1.92,1.84-2.046,1.729-0.063c-0.054,0.946-0.404,1.904-0.857,2.723c-0.745,1.338-1.981,0.219-2.513-0.625
			c-0.775-1.227-0.878-2.487-0.658-3.885c0.793-5.041,6.779-9.511,3.772-14.863C91.726,167.318,90.937,167.781,91.226,168.299"/>
		<path clip-path="url(#SVGID_2_)" fill="#00AEEF" d="M92.719,167.423c-3.903,0.188-5.286,2.519-6.837,5.896
			c-2.029,4.416-6.638,7.388-7.056,12.545c-0.63,7.733,6.55,13.264,13.71,13.968c7.945,0.78,15.332-5.628,15.69-13.652
			c0.202-4.515-3.755-7.454-5.763-11.032c-1.636-2.914-2.38-7.143-6.451-7.172c-0.591-0.004-0.59,0.918,0,0.922
			c3.822,0.025,4.662,4.937,6.125,7.541c1.561,2.782,4.071,4.709,4.995,7.891c2.272,7.822-6.802,14.746-13.633,14.677
			c-6.588-0.065-13.763-5.244-13.838-12.174c-0.049-4.438,3.144-6.374,5.218-9.693c2.173-3.479,2.955-8.557,7.839-8.795
			C93.307,168.314,93.309,167.393,92.719,167.423"/>
		<path clip-path="url(#SVGID_2_)" fill="#00AEEF" d="M46.546,214.445c2.204-5.883,5.378-11.238,8.308-16.5
			c3.631-6.521,7.463-12.723,11.602-18.684c5.07-7.303,10.618-14.215,17.831-17.48c7.925-3.587,17.246-2.156,24.635,2.83
			c3.287,2.22,6.045,6.289,8.586,9.738c3.729,5.063,7.211,10.445,10.623,15.879c3.279,5.223,6.464,10.556,9.547,15.982
			c1.473,2.592,3.278,5.282,4.338,8.234c0.229,0.637,0.94,0.082,0.713-0.553c-1.137-3.168-3.095-6.045-4.673-8.826
			c-3.166-5.567-6.454-11.014-9.819-16.372c-3.533-5.63-7.181-11.147-11.063-16.358c-2.835-3.806-5.771-7.496-9.494-9.673
			c-6.942-4.062-14.297-4.72-21.678-2.646c-7.215,2.027-13.084,8.804-18.086,15.601c-4.397,5.976-8.399,12.353-12.203,18.997
			c-3.493,6.098-7.297,12.391-9.877,19.277C45.598,214.523,46.31,215.077,46.546,214.445"/>
		<path clip-path="url(#SVGID_2_)" fill="#00AEEF" d="M45.884,214.959c15.5-0.008,31.002-0.123,46.503-0.163
			c16.52-0.039,33.17-0.812,49.678,0.163c0.532,0.032,0.53-1.063,0-1.094c-16.275-0.963-32.692-0.204-48.978-0.164
			c-15.735,0.035-31.469,0.156-47.203,0.164C45.353,213.865,45.352,214.959,45.884,214.959"/>
		<path clip-path="url(#SVGID_2_)" fill="#00AEEF" d="M91.347,165.488c-0.146-1.463,0.169-3.701,1.746-4.32
			c2.365-0.926,2.354,3.489,2.113,4.752c-0.11,0.58,0.771,0.826,0.882,0.244c0.384-2.021,0.227-6.461-2.852-5.968
			c-2.292,0.368-2.999,3.339-2.805,5.292C90.49,166.074,91.405,166.08,91.347,165.488"/>
		<path clip-path="url(#SVGID_2_)" fill="#FFF200" d="M92.865,114.236c-0.211,0.867-0.371,1.754-0.183,2.64
			c0.124,0.58,1.006,0.334,0.882-0.245c-0.152-0.715,0.013-1.451,0.183-2.15C93.888,113.905,93.006,113.66,92.865,114.236"/>
		<path clip-path="url(#SVGID_2_)" fill="#FFF200" d="M92.412,120.135c0.015,1.107,0.169,2.207,0.184,3.314
			c0.008,0.594,0.922,0.594,0.916,0c-0.015-1.107-0.171-2.207-0.185-3.314C93.32,119.541,92.405,119.54,92.412,120.135"/>
		<path clip-path="url(#SVGID_2_)" fill="#FFF200" d="M92.412,127.25v2.945c0,0.594,0.915,0.594,0.915,0v-2.945
			C93.327,126.656,92.412,126.656,92.412,127.25"/>
		<path clip-path="url(#SVGID_2_)" fill="#FFF200" d="M92.647,134.572c-0.211,0.865-0.371,1.752-0.184,2.639
			c0.124,0.58,1.007,0.334,0.883-0.245c-0.152-0.715,0.013-1.452,0.183-2.149C93.67,134.24,92.788,133.995,92.647,134.572"/>
		<path clip-path="url(#SVGID_2_)" fill="#FFF200" d="M92.194,140.771c0.015,1.108,0.169,2.207,0.184,3.315
			c0.008,0.594,0.922,0.594,0.916,0c-0.015-1.108-0.171-2.207-0.185-3.315C93.103,140.178,92.188,140.177,92.194,140.771"/>
		<path clip-path="url(#SVGID_2_)" fill="#FFF200" d="M92.194,147.584v2.947c0,0.592,0.915,0.592,0.915,0v-2.947
			C93.109,146.99,92.194,146.99,92.194,147.584"/>
		<path clip-path="url(#SVGID_2_)" fill="#FFF200" d="M93.542,73.38c-0.211,0.866-0.371,1.753-0.184,2.64
			c0.124,0.58,1.006,0.334,0.882-0.246c-0.151-0.715,0.014-1.451,0.184-2.149C94.563,73.048,93.683,72.803,93.542,73.38"/>
		<path clip-path="url(#SVGID_2_)" fill="#FFF200" d="M93.089,79.578c0.014,1.108,0.169,2.207,0.183,3.315
			c0.009,0.594,0.923,0.594,0.916,0c-0.014-1.108-0.171-2.207-0.184-3.315C93.997,78.985,93.082,78.984,93.089,79.578"/>
		<path clip-path="url(#SVGID_2_)" fill="#FFF200" d="M93.089,86.393v2.945c0,0.594,0.915,0.594,0.915,0v-2.945
			C94.004,85.799,93.089,85.799,93.089,86.393"/>
		<path clip-path="url(#SVGID_2_)" fill="#FFF200" d="M93.323,94.107c-0.211,0.867-0.37,1.754-0.183,2.64
			c0.124,0.58,1.006,0.334,0.882-0.245c-0.151-0.715,0.014-1.451,0.184-2.15C94.346,93.776,93.465,93.531,93.323,94.107"/>
		<path clip-path="url(#SVGID_2_)" fill="#FFF200" d="M92.871,99.914c0.014,1.107,0.169,2.207,0.183,3.314
			c0.008,0.594,0.922,0.594,0.916,0c-0.014-1.107-0.171-2.207-0.184-3.314C93.779,99.32,92.864,99.319,92.871,99.914"/>
		<path clip-path="url(#SVGID_2_)" fill="#FFF200" d="M92.871,106.728v2.946c0,0.593,0.915,0.593,0.915,0v-2.946
			C93.786,106.133,92.871,106.133,92.871,106.728"/>
	</g>
</g>
</svg>
