<?xml version="1.0" encoding="utf-8"?>
<!-- Generator: Adobe Illustrator 16.0.0, SVG Export Plug-In . SVG Version: 6.00 Build 0)  -->
<!DOCTYPE svg PUBLIC "-//W3C//DTD SVG 1.1//EN" "http://www.w3.org/Graphics/SVG/1.1/DTD/svg11.dtd">
<svg version="1.1" id="Layer_1" xmlns="http://www.w3.org/2000/svg" xmlns:xlink="http://www.w3.org/1999/xlink" x="0px" y="0px"
	 width="355.475px" height="193.804px" viewBox="0 0 355.475 193.804" enable-background="new 0 0 355.475 193.804"
	 xml:space="preserve">
<g>
	<defs>
		<rect id="SVGID_9_" x="94.678" y="5.335" width="189.541" height="180.381"/>
	</defs>
	<clipPath id="SVGID_2_">
		<use xlink:href="#SVGID_9_"  overflow="visible"/>
	</clipPath>
	<path clip-path="url(#SVGID_2_)" fill="#FFF200" d="M123.313,180.098c13.475,1.718,26.481-12.369,27.781-24.949
		c0.658-6.362-0.608-13.958-7.979-15.631c-6.316-1.434-13.242,2.672-18.002,6.21c-7.15,5.314-16.646,15.793-14.5,25.618
		c1.62,7.424,11.005,8.838,17.245,8.458c13.943-0.846,37.84-11.941,30.07-29.532c-4.005-9.072-14.031-16.565-24.142-16.508
		c-9.115,0.051-16.596,6.477-21.317,13.582c-4.327,6.518-7.053,15.545-4.514,23.299c3.132,9.565,13.492,11.251,22.184,9.595
		c11.447-2.181,25.699-10.71,25.871-23.607c0.096-7.29-5.956-13.224-11.544-17.123c-6.602-4.604-15.299-4.984-22.637-2.431
		c-10.783,3.755-22.879,16.57-21.338,28.88c1.131,9.026,9.984,12.741,18.102,13.371c8.674,0.672,18.219-2.192,24.513-8.106
		c7.555-7.099,6.199-17.537,0.787-25.622c-4.53-6.77-11.742-11.188-20.018-10.668c-7.951,0.501-14.576,5.711-19.248,11.68
		c-3.873,4.949-7.262,11.227-5.889,17.718c1.474,6.982,10.202,8.098,15.976,7.482c9.661-1.03,24.44-9.67,23.525-20.837
		c-0.489-5.957-6.674-10.658-12.35-11.296c-6.907-0.78-13.686,2.28-18.851,6.518c-5.08,4.172-7.24,10.82-3.826,16.771
		c2.764,4.817,8.839,5.613,13.769,4.734c11.342-2.017,23.653-10.386,30.236-19.615c3.427-4.807,3.107-10.914,0.104-15.988
		c-3.362-5.681-10.111-8.398-16.405-8.872c-6.583-0.495-12.793,2.863-16.494,8.058c-3.894,5.47-6.421,13.961-0.96,19.497
		c5.678,5.753,13.885,3.069,20.025-0.131c7.22-3.765,13.335-9.627,17.323-16.665c4.354-7.682,4.472-17.084-0.229-24.758
		c-4.358-7.116-12.914-6.699-18.694-1.832c-7.413,6.245-11.994,20.753-7.488,29.863c2.416,4.889,8.244,4.227,12.03,1.719
		c6.604-4.381,11.535-11.797,12.972-19.525c2.226-11.981-3.638-24.605-12.503-32.736c-2.332-2.139-6.445-0.587-6.23,2.701
		c0.555,8.533,2.554,16.945,2.797,25.495c0.271,9.53-4.321,15.625-12.894,19.51c1.539,1.9,3.077,3.799,4.616,5.698
		c11.655-14.992,23.044-39.799,3.806-54.384c-2.799-2.12-7.217-0.184-6.071,3.625c3.398,11.294,5.719,23.16,4.841,34.924
		c2.076-0.901,4.153-1.801,6.231-2.702c-2.402-2.77-3.052-7.013-3.936-10.422c-1.09-4.211-2.317-8.426-4.76-12.104
		c-2.124-3.199-3.965-6.438-6.337-9.501c-2.291-2.955-4.672-5.944-6.034-9.442c-2.518-6.464-0.758-15.736,3.977-20.772
		c3.494-3.718,9.272-3.608,14.004-2.952c13.668,1.893,26.587,8.14,40.635,6.391c8.055-1.004,14.981-5.069,18.628-12.359
		c3.448-6.894,1.311-15.522,1.756-22.926c0.477-7.918,6.954-14.797,15.148-14.81c8.209-0.014,10.41,9.849,9.533,16.117
		c-1.807,12.9-12.197,28.882-0.685,40.595c6.619,6.735,17.235,1.978,24.198-1.146c7.304-3.273,16.729-9.551,25.187-7.757
		c3.917,0.83,7.152,4.965,7.583,8.96c0.551,5.096-4.128,9.417-7.445,12.587c-8.472,8.103-20.839,15.886-20.831,28.994
		c0.007,6.53,5.354,11.478,7.569,17.295c0.938,2.457,0.801,5.244-1.62,6.703c-2.326,1.399-6.411,0.487-8.969,0.304
		c-7.894-0.565-13.361,2.231-17.298,9.098c-2.149,3.746-3.385,7.921-5.711,11.585c-1.092,1.722-6.466,6.646-8.899,5.502
		c-1.933-0.909-3.125-5.174-4.043-6.934c-1.694-3.238-4.119-6.044-7.406-7.751c-7.482-3.887-17.391-2.47-25.215-0.944
		c-7.87,1.537-14.2,4.393-20.364,9.352c-3.003,2.415-5.819,4.685-9.892,4.559c-2.308-0.069-4.656-1.255-6.801-2.004
		c-2.373-0.828-3.695-1.065-3.601-3.721c0.168-4.707-7.21-4.513-7.378,0.175c-0.305,8.468,9.154,11.58,16.241,12.678
		c7.543,1.169,12.687-3.397,18.14-7.649c5.075-3.96,11.282-5.554,17.585-6.699c5.396-0.981,14.393-2.288,19.168,1.446
		c4.525,3.538,4.594,10.487,9.649,13.616c6.388,3.955,15.16-2.233,18.734-7.251c3.895-5.467,5.392-17.348,13.597-17.848
		c6.119-0.374,13.133,2.062,18.194-2.565c5.478-5.01,4.091-12.13,0.937-18.056c-2.757-5.181-6.852-9.569-4.365-15.628
		c2.267-5.521,7.318-9.674,11.682-13.534c4.607-4.076,9.307-8.031,12.775-13.154c6.358-9.395,1.311-22.396-9.487-25.978
		c-9.055-3.003-19.431,2.677-27.277,6.344c-4.075,1.906-8.152,3.883-12.537,5.024c-1.324,0.342-3.295,0.567-4.208,0.447
		c-1.753-0.231-2.187-0.549-3.396-1.9c-4.064-4.543-2.326-12.727-0.825-17.938c2.394-8.313,5.718-16.223,4.137-25.078
		c-1.273-7.112-6.526-13.143-13.68-14.797c-7.384-1.707-15.688,2.257-20.285,7.783c-5.344,6.418-5.48,14.464-5.168,22.428
		c0.137,3.511,0.491,7.647-0.941,10.939c-1.663,3.818-4.891,6.352-8.787,7.702c-11.352,3.933-24.584-1.355-35.76-4.014
		c-9.544-2.27-20.733-3.611-28.012,4.133c-4.103,4.362-6.043,10.979-6.5,16.828c-0.552,7.077,1.755,13.211,5.922,18.942
		c3.895,5.354,8.378,10.484,10.724,16.739c2.494,6.646,2.811,13.993,7.668,19.597c2.385,2.751,6.021,0.093,6.229-2.701
		c0.918-12.322-1.596-24.942-5.157-36.771c-2.024,1.208-4.048,2.415-6.073,3.624c15.604,11.828,5.298,31.979-4.082,44.044
		c-2.588,3.328,0.765,7.443,4.615,5.697c9.072-4.113,15.207-11.153,16.2-21.2c0.999-10.085-1.943-20.209-2.599-30.265
		c-2.076,0.901-4.153,1.802-6.23,2.703c6.51,5.969,10.574,14.025,10.634,22.813c0.05,7.389-4.859,15.426-11.448,18.859
		c-0.518,0.271-0.546,0.029-0.254,0.175c0.3,0.147,0.026-0.047-0.169-0.601c-0.729-2.068-0.481-4.513-0.179-6.621
		c0.687-4.765,2.566-10.774,6.566-13.83c3.093-2.361,5.742-2.367,7.825,1.034c2.578,4.209,2.33,9.242,0.894,13.693
		c-2.509,7.771-9.878,13.671-16.891,17.328c-2.521,1.313-6.39,3.02-9.23,1.647c-3.347-1.618-1.546-6.438-0.416-8.746
		c2.827-5.769,8.532-8.193,14.804-6.68c4.885,1.181,10.294,6.756,8.048,11.462c-2.171,4.552-7.214,8.13-11.242,10.934
		c-4.701,3.269-10.362,6.625-16.217,7.281c-4.722,0.528-7.464-3.131-4.293-7.209c3.094-3.979,11.026-8.396,16.302-6.272
		c5.553,2.232,4.861,6.307,1.416,9.974c-3.48,3.707-8.945,6.827-14.113,7.378c-2.188,0.233-6.354,0.625-7.805-1.565
		c-1.281-1.934,0.512-5.404,1.355-7.113c3.153-6.369,9.313-12.796,16.761-13.646c7.39-0.842,13.296,5.149,15.913,11.497
		c3.236,7.848-1.82,13.686-9.073,16.438c-6.419,2.438-16.215,3.154-21.135-1.109c-2.192-1.9-2.501-4.642-1.57-8.06
		c1.727-6.323,6.809-11.953,12.314-15.277c7.061-4.264,15.673-3.848,22.115,1.535c4.962,4.145,7.639,9.212,4.057,14.986
		c-4.739,7.642-19.994,14.462-28.397,10.273c-2.313-1.154-3.571-3.445-3.9-6.126c-0.424-3.457,0.343-6.97,1.682-10.221
		c2.705-6.574,8.418-13.831,15.989-14.959c8.163-1.214,17.605,5.867,19.619,13.677c0.678,2.632-0.44,5.47-2.064,7.497
		c-2.355,2.936-5.545,4.92-8.926,6.571c-6.103,2.979-14.39,4.855-20.691,2.784c-1.696-0.559-2.478-1.364-2.455-3.478
		c0.033-3.361,3.546-7.739,5.834-10.806c3.091-4.143,7.763-7.672,12.544-9.689c1.859-0.783,4.007-1.484,6.048-1.021
		c1.824,0.415,1.796,3.486,1.845,4.812c0.203,5.409-2.519,10.335-5.918,14.334c-3.014,3.549-7.953,7.738-13.063,7.088
		C120.258,172.393,118.579,179.494,123.313,180.098"/>
	<path clip-path="url(#SVGID_2_)" fill="#FFF200" d="M117.627,166.241c13.542,14.38,29.014-7.364,32.476-19.22
		c0.826-2.834,1.096-5.771-0.179-8.526c-1.532-3.31-5.657-3.059-8.385-1.853c-4.189,1.854-7.639,5.659-10.697,8.915
		c-4.079,4.338-8.537,8.803-11.478,14.011c-2.08,3.688-2.388,8.037,0.788,11.262c3.892,3.954,11.111,3.743,16.044,2.896
		c11.739-2.014,23.709-12.07,27.267-23.309c1.215-3.84-3.792-5.41-6.282-3.41c-7.769,6.237-14.839,13.204-21.364,20.704
		c-2.61,2.999,1.028,8.096,4.615,5.696c7.397-4.943,13.56-11.584,20.09-17.544c5.654-5.163,13.055-12.565,21.24-13.198
		c-1.134-1.808-2.268-3.616-3.402-5.423c-4.696,6.75-14.048,11.221-22.335,10.802c0.943,2.071,1.883,4.141,2.825,6.211
		c5.83-7.478,17.513-9.241,26.525-8.631c5.34,0.364,9.319,2.731,13.277,6.171c4.625,4.023,9.361,7.272,15.727,6.924
		c2.595-0.144,3.787-2.32,3.387-4.666c-1.887-11.036-17.143-14.503-26.521-13.392c-3.079,0.364-4.836,3.875-2.396,6.269
		c6.418,6.292,15.068,7.252,23.429,5.264c2.834-0.673,4.446-2.837,3.888-5.701c-0.178-0.912-0.995-1.784-1.616-2.422
		c-0.232-0.238-0.482-0.46-0.724-0.693c-0.515-0.494,0.214-0.178,0.016,1.26c0.646-4.672-5.742-6.184-7.204-1.71
		c-0.682,2.081-2.461,3.708-3.106,5.885c-0.978,3.296,0.038,6.024,2.17,8.634c4.855,5.943,13.353,1.138,16.394-3.771
		c2.423-3.911,1.694-11.198-2.666-13.738c-3.651-2.126-7.56-0.276-10.473,2.038c-2.566,2.04-4.5,5.392-3.693,8.726
		c1.178,4.86,7.55,4.105,11.06,3.254c5.919-1.437,10.594-7.234,14.154-11.723c4.064-5.124,7.941-10.837,9.984-17.103
		c0.641-1.966-1-3.87-2.794-4.409c-9.759-2.932-20.897,7.461-18.986,17.26c1.132,5.803,8.207,5.6,12.46,4.239
		c6.902-2.21,11.949-10.921,12.445-17.771c0.502-6.941-7.516-10.863-11.535-4.69c-1.907,2.928-1.619,7.563-0.772,10.804
		c0.991,3.793,4.627,6.182,8.392,6.498c6.805,0.573,13.91-5.521,12.918-12.722c-1.197-8.672-11.255-2.897-14.067,1.281
		c-2.828,4.2-0.617,10.124,4.729,10.82c6.639,0.865,8.903-5.328,7.648-10.783c-0.643-2.804-4.366-3.335-6.209-1.544
		c-3.808,3.694-6.376,10.236-0.399,13.51c4.619,2.529,10.15-0.416,11.3-5.195c1.721-7.148-4.731-13.248-11.252-14.485
		c-7.269-1.378-16.081,0.998-21.449,5.93c1.979,1.441,3.958,2.883,5.935,4.325c9.026-15.554,10.742-37.514,28.684-46.118
		c-1.731-1.637-3.463-3.272-5.194-4.91c-4.24,10.587-19.062,18.076-17.062,30.93c0.45,2.895,2.962,4.229,5.626,3.055
		c6.957-3.065,12.108-9.554,16.333-15.582c4.414-6.297,8.061-13.722,8.232-21.562c0.138-6.287-4.797-10.574-10.99-9.827
		c-6.774,0.817-12.965,5.366-17.371,10.242c-4.906,5.431-8.344,13.716-6.112,21.064c2.39,7.868,11.818,8.387,18.251,5.795
		c5.272-2.125,9.738-6.639,13.588-10.637c4.47-4.643,8.773-10.059,10.678-16.296c1.601-5.246-0.813-10.23-6.025-12.092
		c-5.355-1.912-12.313,0.542-17.206,2.521c-5.322,2.153-11.188,5.104-14.837,9.632c-2.973,3.684-4.578,10.369-0.236,13.809
		c4.496,3.557,11.288,2.162,16.308,0.902c5.47-1.372,11.392-3.568,15.521-7.46c3.388-3.19,9.56-9.864,4.933-14.64
		c-3.459-3.567-9.758-2.117-13.865-0.958c-10.812,3.046-18.643,11.548-28.975,15.544c-5.524,2.137-11.908,1.995-15.664-3.309
		c-3.804-5.375-1.039-12.929,1.652-18.027c-2.262-0.254-4.525-0.505-6.788-0.759c1.895,7.615,5.51,14.624,8.34,21.924
		c1.131-1.555,2.259-3.11,3.387-4.665c-4.757,0.593-8.865,0.104-11.132-4.42c-2.163-4.312-1.54-10.315-1.018-14.868
		c1.206-10.554,5.119-20.438,6.771-30.856c0.647-4.091-4.662-6.174-6.861-2.625c-6.137,9.907-8.859,22.26-8.547,33.895
		c0.096,3.638,5.254,4.868,6.946,1.682c5.345-10.063,12.536-29.998,0.179-38.141c-12.705-8.367-19.332,11.794-21.121,20.376
		c-1.384,6.636-1.328,18.495,8.822,16.425c7.3-1.489,13.206-9.874,16.615-15.768c5.637-9.74,7.644-23.673-4.243-29.97
		c-1.408-0.745-3.337-0.569-4.415,0.644c-6.942,7.823-11.518,21.58-4.804,31.061c1.138,1.604,3.321,2.391,5.081,1.271
		c4.095-2.601,7.537-6.346,10.504-10.115c3.163-4.022,6.271-8.821,6.203-14.141c-0.058-4.473-4.299-8.685-8.866-8.314
		c-4.708,0.383-7.819,4.834-10.011,8.478c-2.231,3.71-3.993,7.953-5.07,12.154c-1.844,7.191-0.73,14.736-0.624,22.078
		c0.051,3.35-0.026,7.168-1.751,10.12c-1.656,2.843-4.915,4.496-7.93,5.537c-6.356,2.188-13.474,1.984-20.143,1.915
		c0.405,2.389,0.813,4.777,1.22,7.166c10.301-2.425,20.588-4.87,30.615-8.226c-1.004-2.218-2.008-4.436-3.012-6.654
		c-8.867,6.09-17.946,5.901-28.124,3.194c-9.982-2.652-19.577-6.068-30.04-5.088c-9.399,0.881-16.763,6.743-15.554,16.678
		c1.18,9.687,8.017,18.696,14.708,25.524c2.927,2.987,8.069-1.027,5.685-4.482c-5.102-7.397-8.662-17.483,0.121-23.423
		c6.564-4.44,15.37-1.481,22.473-4.192c4.389-1.674,2.274-8.712-2.15-7.023c-4.018,1.534-9.096,1.03-13.348,1.531
		c-5.825,0.687-10.726,2.572-14.932,6.694c-8.578,8.406-4.452,21.45,1.548,30.151c1.895-1.495,3.79-2.989,5.685-4.484
		c-5.518-5.63-11.525-13.199-12.502-21.216c-1.203-9.896,12.559-9.177,19.144-8.123c8.597,1.376,16.707,4.891,25.311,6.258
		c9.313,1.48,18.16-0.437,25.851-5.715c3.284-2.255,1.127-8.04-3.012-6.653c-10.028,3.354-20.314,5.799-30.616,8.226
		c-4.193,0.986-2.862,7.124,1.219,7.166c11.159,0.116,24.828,0.11,32.659-8.95c8.466-9.796,1.855-25.186,4.805-36.684
		c0.895-3.489,2.494-6.837,4.281-9.942c0.908-1.582,1.967-3.001,3.313-4.24c0.695-0.641,0.883-0.737,1.431-0.002
		c1.75,2.343-2.684,7.909-3.945,9.57c-2.487,3.275-5.502,6.712-9.016,8.945c1.691,0.425,3.386,0.848,5.08,1.272
		c-4.743-6.696-0.986-16.735,3.873-22.21c-1.471,0.215-2.943,0.429-4.416,0.643c7.131,3.777,5.313,11.905,2.19,18.196
		c-1.815,3.652-4.213,6.962-7.061,9.88c-1.225,1.254-2.171,2.076-3.48,2.957c-0.588,0.396-1.209,0.737-1.848,1.046
		c0.732-0.354-1.87,0.338-0.712,0.216c-0.644,0.066,0.192,0.309,0.09,0.141c0.115,0.186-0.218-0.737-0.21-0.683
		c-0.164-1.05-0.131-2.123-0.079-3.177c0.265-5.388,1.984-11.226,4.5-15.946c0.948-1.779,2.292-3.975,4.356-4.582
		c2.209-0.649,4.113,3.226,4.541,4.758c1.79,6.446-1.313,14.746-3.778,20.577c-0.542,1.282-1.152,2.532-1.805,3.759
		c2.316,0.561,4.632,1.12,6.947,1.682c-0.28-10.416,2.196-21.324,7.685-30.184c-2.288-0.874-4.573-1.748-6.86-2.623
		c-0.763,4.816-2.324,9.529-3.51,14.249c-1.725,6.863-3.131,13.795-3.664,20.875c-0.448,5.925-0.076,12.574,3.311,17.745
		c3.69,5.631,10.457,7.078,16.739,6.295c2.182-0.273,4.315-2.269,3.386-4.666c-2.833-7.301-6.444-14.309-8.341-21.923
		c-0.784-3.148-5.357-3.471-6.789-0.758c-3.521,6.669-5.773,14.609-3.067,22.043c2.644,7.262,10.063,11.521,17.577,11.523
		c14.103,0.007,23.839-12.925,36.471-17.01c2.219-0.718,4.498-1.212,6.853-1.14c0.934,0.029,0.602,0.413,0.022-0.4
		c-0.357-0.502-0.117-1.554-0.308-0.695c-0.102,0.456-0.597,1.107-0.879,1.549c-3.274,5.1-8.841,7.408-14.451,9.091
		c-2.662,0.8-5.38,1.354-8.177,1.417c-0.727,0.018-1.777-0.017-2.383-0.264c-0.384-0.156-0.445,0.193-0.364-0.504
		c0.524-4.658,6.262-7.507,10.491-9.607c4.104-2.034,9.735-4.357,14.474-3.62c1.268,0.197,1.675,0.393,1.753,1.717
		c0.131,2.252-1.482,4.669-2.581,6.485c-3.152,5.219-7.718,9.745-12.353,13.674c-2.874,2.436-10.438,7.58-13.438,2.883
		c-1.454-2.28-0.313-6.11,0.561-8.332c1.414-3.602,3.873-6.51,6.74-9.052c1.623-1.439,10.142-7.675,12.211-4.438
		c1.399,2.188-0.264,6.547-0.949,8.67c-1.102,3.417-3.061,6.631-4.971,9.642c-3.595,5.66-8.488,11.72-14.805,14.503
		c1.876,1.018,3.75,2.036,5.626,3.055c-0.817-5.26,3.022-9.524,6.182-13.266c3.667-4.343,7.872-8.6,10.015-13.952
		c1.361-3.398-1.763-6.556-5.193-4.911c-19.593,9.396-21.506,31.947-31.324,48.863c-2.143,3.692,3.001,7.022,5.938,4.325
		c3.682-3.384,16.785-7.38,19.544-0.814c0.361,0.864,0.791,2.291,0.479,2.933c-0.048,0.094-0.028,0.073-0.562,0.087
		c0.607-0.016-0.643-0.263,0.057,0.035c-0.67-0.286,0.049,0.011,0.186,0.379c0.123,0.338-0.09,0.456,0.288-0.292
		c0.415-0.821,1.16-1.457,1.811-2.087c-2.071-0.515-4.142-1.03-6.212-1.546c0.121,0.528,0.166,1.015,0.18,1.555
		c0.014,0.591-0.251,0.521,0.079,0.109c0.193-0.24,0.276-0.044,0.419,0.011c-0.515-0.204,0.039,0.54,0.031,0.32
		c0.022,0.55-0.027,0.191,0.256-0.167c0.553-0.693,1.261-1.215,1.985-1.716c0.255-0.16,0.509-0.318,0.763-0.479
		c1.506-0.725,0.747-1.5-2.275-2.323c0.087,0.631-0.257,1.332-0.509,1.889c-1.046,2.308-2.784,3.305-5.344,2.79
		c-1.829-0.366-1.395-3.753-1.263-4.959c0.054-0.498,0.189-0.97,0.407-1.413c-0.782,0.622-1.648,0.563-2.602-0.178
		c0.473,0.616,0.222,1.699,0.109,2.362c-0.624,3.724-4.178,8.783-7.843,9.957c-0.608,0.194-2.621,0.457-2.568,0.478
		c-0.092-0.036,0.027,0.475,0.081-0.081c0.458-4.599,5.526-9.44,10.305-8.004c-0.932-1.47-1.861-2.939-2.793-4.409
		c-2.324,7.126-7.778,13.923-12.956,19.197c-2.195,2.236-4.562,4.238-7.789,4.671c-0.488,0.065-0.979,0.067-1.47,0.057
		c-0.084-0.001,0.065-0.2,0.645,0.323c0.615,0.556,0.665,1.89,0.717,1.639c0.096-0.463-0.216,0.353,0.274-0.504
		c0.331-0.576,2.069-2.08,2.635-2.305c0.793-0.315,0.762-0.149,0.368-0.325c-0.343-0.151,0.001,0.015,0.266,1.11
		c0.556,2.321-2.693,7.306-5.162,4.934c-1.268-1.217,2.596-6.16,3.059-7.58c-2.401-0.57-4.804-1.14-7.204-1.71
		c-0.223,1.604,0.002,3.111,1.034,4.434c0.417,0.536,0.834,1.017,1.322,1.485c2.014,1.938-2.601-2.092,1.625-3.825
		c-5.477,2.247-12.501,0.787-16.687-3.318c-0.8,2.089-1.599,4.18-2.396,6.269c6.164-0.73,17.864,0.479,19.17,8.104
		c1.127-1.554,2.256-3.11,3.386-4.665c-6.407,0.353-10.713-5.492-15.506-8.94c-4.404-3.169-10.226-4.043-15.482-4.262
		c-10.128-0.421-23.184,2.693-29.611,10.937c-1.994,2.559-0.591,6.038,2.823,6.209c11.039,0.559,22.436-5.771,28.561-14.574
		c1.567-2.252-0.793-5.624-3.402-5.422c-9.217,0.713-16.841,7.114-23.472,12.862c-7.153,6.203-13.525,13.615-21.438,18.906
		c1.538,1.899,3.075,3.797,4.614,5.697c6.525-7.5,13.595-14.468,21.363-20.705c-2.094-1.137-4.187-2.273-6.281-3.411
		c-2.209,6.98-8.909,12.294-15.178,15.583c-3.218,1.688-6.81,2.65-10.473,2.66c-0.961,0.003-5.675-0.542-5.535-1.673
		c0.59-4.764,6.362-9.323,9.369-12.678c3.087-3.441,6.423-7.479,10.691-9.551c-0.426,0.208,0.722-0.037,0.134-0.01
		c-0.773,0.036-1.109-0.232-1.811-1.099c0.229,0.282,0.001-0.021-0.043-0.338c0.032,0.236,0.036,0.477,0.042,0.715
		c0.024,1.01,0.073-0.243-0.007,0.425c-0.394,3.298-1.496,5.552-3.023,8.475c-1.735,3.319-3.73,6.137-6.387,8.756
		c-2.121,2.09-4.566,3.592-7.025,3.587c-1.311-0.001-2.773-0.921-4.303-2.544C119.428,157.529,114.374,162.788,117.627,166.241"/>
	<path clip-path="url(#SVGID_2_)" fill="#FFF200" d="M190.42,55.99c-3.723,5.706-11.075,7.771-17.469,8.965
		c-6.704,1.246-13.946,1.205-20.719,0.267c-0.222,2.403-0.443,4.808-0.663,7.21c16.709,0.58,36.239-2.316,49.69-12.607
		c3.645-2.788,0.215-8.844-3.871-6.283c-7.31,4.58-15.014,7.815-23.591,9.292c-8.743,1.507-17.61,0.474-26.427,0.698
		c-8.479,0.218-17.132,1.984-23.827,7.266c-7.516,5.928-6.856,16.192-3.747,24.323c1.688,4.411,8.273,2.591,7.063-2.021
		c-1.738-6.63-6.093-12.76-6.313-19.712c-0.228-7.254,11.229-10.894,16.566-6.73c0.201-1.918,0.403-3.837,0.604-5.755
		c-4.623,2.837-9.163,5.766-14.11,8.051c-2.244,1.037-4.761,1.972-7.273,2.012c-1.448,0.021-1.412-1.701-1.086-3.601
		c0.908-5.309,9.653-4.634,13.507-4.167c5.082,0.616,12.168,2.219,15.915,5.079c-0.047-1.723-0.093-3.447-0.14-5.17
		c-5.213,5.862-15.312,10.297-13.704,19.69c1.267,7.403,10.334,11.854,15.792,15.986c9.819,7.438,15.597,32.594-0.733,35.294
		c-3.249,0.537-3.335,5.345-0.661,6.709c6.179,3.152,14.084,3.85,20.183,0.417c6.143-3.454,7.477-12.079,3.034-17.443
		c-3.956-4.775-11.041-6.083-16.745-4.391c-5.498,1.63-8.993,7.145-9.979,12.531c-3.29,17.957,30.903,12.332,34.533-0.175
		c1.394-4.799-3.163-8.482-7.056-10.228c-1.776-0.797-4.08-0.459-4.994,1.43c-6.062,12.52,12.814,25.236,24.053,21.786
		c3.231-0.992,3.314-4.981,0.66-6.711c-5.998-3.908-14.63-8.831-12.277-17.23c0.917-3.274,4.964-5.663,7.942-6.698
		c3.317-1.155,7.319-0.59,10.432,1.006c9.051,4.638,7.799,22.775-2.046,25.508c-3.402,0.942-3.481,6.452,0.267,7.065
		c7.675,1.255,16.136,1.659,21.771-4.424c5.608-6.057,7.259-15.736,9.736-23.321c-2.4-0.57-4.803-1.142-7.205-1.712
		c-2.89,9.815-6.578,19.338-12.635,27.656c-1.34,1.84,0.255,4.998,2.447,5.323c13.741,2.038,24.938-12.937,31.066-23.013
		c3.366-5.532,6.747-12.853,5.316-19.502c-1.256-5.832-6.934-7.671-12.13-5.799c-6.59,2.375-26.252,21.846-12.769,26.76
		c4.021,1.465,8.924-1.684,11.825-3.997c3.551-2.834,5.881-7.679,4.208-12.179c-1.207-3.241-4.06-5.839-7.591-6.105
		c-3.484-0.264-6.479,1.957-8.941,4.075c-5.419,4.662-8.653,11.51-14.227,15.949c1.786,1.702,3.573,3.408,5.358,5.11
		c5.312-7.186,8.31-15.888,14.656-22.299c-1.979-1.441-3.96-2.884-5.938-4.325c-2.624,6.895-12.329,5.992-15.196,12.456
		c-1.337,3.005-0.175,6.723,0.626,9.748c0.993,3.762,2.669,7.642,2.721,11.555c0.057,4.074,6.752,4.924,7.294,0.769
		c1.224-9.409,10.462-26.993-4.754-30.323c-4.651-1.018-6.291,6.086-1.615,7.109c4.23,0.928,3.1,5.33,2.403,8.582
		c-0.928,4.341-2.666,8.505-3.239,12.921c2.429,0.256,4.861,0.514,7.291,0.768c-0.047-3.312-1.096-6.608-2.009-9.778
		c-0.512-1.774-1.025-3.548-1.472-5.34c-0.175-0.703-0.309-1.392-0.4-2.108c-0.048-0.366,0.267-1.714-0.125-0.833
		c0.742-1.67,5.634-3.021,7.19-3.84c3.422-1.803,6.412-4.503,7.8-8.148c1.384-3.633-2.822-7.469-5.937-4.324
		c-6.441,6.511-9.301,15.061-14.654,22.302c-2.8,3.789,1.651,8.064,5.358,5.11c3.707-2.951,6.393-7.273,9.411-10.871
		c1.636-1.949,3.362-3.826,5.296-5.488c0.604-0.521,1.388-1.056,2.137-1.343c0.387-0.146,0.974,0.013,0.575-0.277
		c2.792,2.033-0.006,4.907-2.065,6.344c-1.213,0.849-3.016,1.646-4.023,1.716c-1.006,0.069,0.525,0.173-0.345-0.043
		c0.697,0.173,1.045,0.548,1.337,1.251c0.147,0.354,0.079-0.47,0.354-1.149c2.14-5.23,7.127-11.424,12.779-13.113
		c4.012-1.2,0.325,8.633-0.541,10.519c-2.649,5.752-6.504,10.99-10.81,15.611c-3.352,3.598-9.037,9.263-14.604,8.436
		c0.815,1.774,1.631,3.549,2.447,5.323c6.419-8.816,10.265-19.085,13.326-29.481c1.338-4.54-5.765-6.12-7.205-1.712
		c-2.105,6.448-3.571,13.668-7.412,19.363c-3.228,4.788-10.358,3.789-15.272,2.984c0.089,2.357,0.179,4.713,0.267,7.066
		c16.902-4.688,17.728-32.48,2.045-39.564c-10.033-4.533-23.521-0.207-27.445,10.256c-4.53,12.082,6.892,20.342,15.727,26.099
		c0.222-2.238,0.44-4.475,0.661-6.711c-3.66,1.124-7.579-0.84-10.615-2.817c-2.409-1.566-6.295-5.262-4.771-8.406
		c-1.666,0.477-3.33,0.952-4.995,1.43c1.302,0.583,2.405,1.175,3.166,1.9c0.331,0.316,0.157,0.225,0.158,0.22
		c-0.037,0.176,0.136-0.159-0.39,0.645c0.449-0.689-0.567,0.526-0.764,0.708c-0.436,0.407-1.896,1.328-2.94,1.878
		c-2.45,1.296-5.281,2.068-8.057,2.572c-1.315,0.235-2.701,0.272-4.042,0.245c-0.656-0.014-2.649-0.432-2.644-0.43
		c-0.997-0.412-1.006-0.552-1.227-0.916c0.215,0.354-0.06-0.328-0.069-0.458c-0.059-0.729,0.021-0.784,0.191-1.533
		c0.938-4.107,3.615-6.762,7.937-6.785c4.287-0.023,8.221,3.319,5.955,7.565c-2.378,4.449-10.766,2.686-14.299,0.884
		c-0.219,2.238-0.439,4.474-0.66,6.71c18.538-3.065,17.003-25.158,10.975-38.33c-3.433-7.498-10.211-10.988-16.429-15.944
		c-2.981-2.377-5.836-4.765-3.539-8.552c2.464-4.059,7.694-6.512,10.847-10.057c1.204-1.353,1.517-3.905-0.137-5.169
		c-9.664-7.379-38.858-14.055-41.818,3.231c-0.59,3.443-0.041,7.803,2.954,10.118c3.122,2.412,7.046,2.067,10.621,1.128
		c7.307-1.919,13.755-6.459,20.079-10.342c1.854-1.137,2.541-4.244,0.605-5.755c-8.076-6.301-22.929-4.229-27.568,5.216
		c-4.698,9.568,2.777,19.348,5.171,28.476c2.354-0.674,4.709-1.349,7.063-2.021c-3.011-7.867-2.813-14.911,5.148-19.077
		c7.354-3.846,16.588-3.268,24.663-3.041c16.168,0.453,30.918-2.589,44.588-11.156c-1.29-2.094-2.581-4.189-3.871-6.283
		c-12.573,9.617-30.502,12.123-46.11,11.581c-4.146-0.144-4.835,6.631-0.664,7.21c15.325,2.124,37.068,1.377,46.321-12.805
		C199.504,55.593,192.97,52.086,190.42,55.99"/>
	<path clip-path="url(#SVGID_2_)" fill="#FFF200" d="M211.015,126.536c9.164-25.804-58.324-36.108-57.845-0.881
		c0.046,3.189,4.217,4.703,6.37,2.469c4.26-4.419,8.33-9.308,13.476-12.762c5.445-3.653,12.045-4.44,18.513-4.669
		c4.415-0.154,4.486-5.877,0.663-7.209c-14.254-4.966-35.218,8.545-30.305,24.429c0.767,2.482,4.416,3.704,6.209,1.544
		c3.278-3.948,4.514-8.857,5.888-13.702c1.42-5.018,2.99-9.854,9.075-9.659c3.04,0.097,4.092-3.219,2.998-5.525
		c-2.826-5.971-10.61-9.72-15.847-13.267c-3.216-2.177-12.757-7.72-8.939-12.079c-1.742,0.018-3.481,0.038-5.222,0.058
		c6.999,7.35,10.324,17.347,14.129,26.484c1.753-1.404,3.511-2.807,5.266-4.211c-7.94-3.253-15.723-15.337-11.597-23.691
		c-2.317-0.561-4.633-1.12-6.948-1.682c-0.776,12.12,3.881,24.05,2.741,36.116c1.152-0.933,2.305-1.867,3.458-2.799
		c-6.184-0.01-9.682-8.856-11.372-13.537c-2.185-6.054-4.161-13.996-2.04-20.261c-1.78,0.781-3.561,1.561-5.34,2.343
		c5.416,2.725,7.917,9.666,9.646,14.998c1.917,5.924,3.434,12.938,2.349,19.122c1.47-0.9,2.94-1.802,4.411-2.701
		c-8.316-2.402-11.168-10.73-10.795-18.525c0.13-2.798,1.148-6.582,2.494-8.353c0.893-1.172,0.946-1.156,1.729-1.355
		c-0.319,0.083-0.328-0.028,0.374,0.172c-0.233-0.065,0.62,0.443,1.036,0.822c3.232,2.955,4.294,7.145,4.206,11.3
		c-0.057,2.784-1.136,9.158-4.823,9.483c-5.337,0.469-7.735-6.472-8.082-10.461c-0.434-4.991,0.925-11.808,5.427-14.709
		c-1.823-0.71-3.645-1.421-5.468-2.132c4.221,11.475,13.32,21.138,22.933,28.533c10.426,8.02,23.254,14.382,36.642,14.085
		c10.032-0.225,27.412-7.456,24.742-19.958c-1.038-4.872-6.423-8.101-10.541-10.135c-5.113-2.524-10.676-4.17-16.136-5.738
		c-9.021-2.595-18.578-8.886-28.214-6.605c-5.14,1.218-9.764,5.389-10.199,10.763c-0.467,5.778,4.048,10.201,9.106,12.279
		c2.65,1.09,5.349-0.326,5.427-3.284c0.015-0.545,0.028-1.091,0.043-1.634c0.125-4.711-7.254-4.521-7.38,0.173
		c-0.014,0.545-0.027,1.091-0.043,1.634c1.811-1.095,3.619-2.189,5.426-3.286c-2.367-0.973-6.36-3.06-5.01-6.239
		c1.501-3.535,6.23-3.855,9.495-3.288c6.663,1.155,12.702,4.59,19.171,6.437c4.294,1.226,24.784,6.033,21.319,12.886
		c-2.475,4.895-9.431,7.733-14.616,8.458c-6.046,0.845-12.342-0.417-18.019-2.613c-12.19-4.718-23.29-13.592-31.098-23.974
		c-2.427-3.226-4.596-6.734-5.985-10.512c-0.79-2.146-3.395-3.468-5.468-2.131c-10.705,6.897-12.7,26.955-2.374,35.326
		c4.937,4.002,11.509,4.71,16.179,0.236c4.199-4.024,5.26-11.05,4.853-16.594c-0.542-7.435-8.905-21.708-17.979-14.944
		c-7.338,5.472-7.658,17.538-5.384,25.603c2.128,7.546,7.831,13.206,15.393,15.391c1.871,0.54,4.079-0.811,4.41-2.7
		c1.323-7.519-0.267-15.595-2.489-22.851c-2.21-7.218-6.058-15.765-13.235-19.375c-2.309-1.16-4.573,0.076-5.339,2.344
		c-2.684,7.926-0.101,18.032,2.788,25.624c2.965,7.795,8.642,17.179,18.119,17.193c1.493,0.002,3.311-1.227,3.459-2.799
		c1.205-12.772-3.387-25.229-2.568-38c0.234-3.684-5.412-4.794-6.947-1.684c-5.792,11.731,2.777,28.767,14.639,33.628
		c2.622,1.073,6.651-0.894,5.27-4.209c-4.321-10.385-8.163-21.347-16.107-29.691c-1.34-1.406-3.96-1.384-5.22,0.059
		c-6.14,7.013-1.441,14.237,4.854,19.272c3.603,2.884,7.538,5.344,11.352,7.933c2.729,1.854,6.212,3.946,7.655,6.993
		c0.999-1.841,2-3.683,2.999-5.523c-6.427-0.203-11.103,3.098-13.732,8.746c-2.453,5.267-2.519,12.256-6.302,16.811
		c2.071,0.516,4.14,1.032,6.211,1.546c-3.321-10.743,12.881-18.344,21.628-15.296c0.222-2.402,0.443-4.805,0.663-7.209
		c-7.543,0.266-14.975,1.398-21.479,5.303c-6.059,3.636-10.749,9.313-15.578,14.324c2.123,0.823,4.246,1.647,6.368,2.47
		c-0.329-24.073,48.8-16.257,43.26-0.655C202.241,129.241,209.46,130.916,211.015,126.536"/>
	<path clip-path="url(#SVGID_2_)" fill="#FFF200" d="M232.316,73.088c-10.758-3.029-22.044-2.289-32.921-4.622
		c-0.22,2.402-0.442,4.807-0.663,7.209c17.818-1.104,35.496,4.321,53.131,0.038c-1.001-2.218-2.006-4.435-3.009-6.654
		c-12.357,5.359-26.116,4.461-39.337,5.321c0.098,2.437,0.194,4.872,0.289,7.309c13.471-1.783,26.492-5.301,39.495-9.022
		c-0.717-2.342-1.435-4.685-2.15-7.024c-7.085,2.862-13.88,6.258-21.251,8.431c-6.201,1.828-16.072,3.85-19.136-3.854
		c-1.74-4.382-8.816-2.393-7.061,2.023c8.379,21.081,35.903,5.958,49.598,0.424c4.29-1.733,2.505-8.357-2.15-7.024
		c-12.376,3.542-24.811,7.04-37.634,8.738c-4.592,0.607-4.554,7.623,0.289,7.309c14.7-0.956,29.21-0.4,42.919-6.346
		c3.97-1.722,0.858-7.595-3.011-6.652c-16.877,4.099-34.179-1.384-51.271-0.324c-4.084,0.253-4.888,6.303-0.663,7.208
		c10.875,2.334,22.167,1.596,32.919,4.622C235.296,81.489,236.908,74.38,232.316,73.088"/>
	<path clip-path="url(#SVGID_2_)" fill="#FFF200" d="M185.488,150.925c10.644-1.257,20.464-11.434,21.478-22.006
		c0.355-3.693-5.197-6.793-6.859-2.622c-1.96,4.913-4.478,10.088-10.062,11.486c-4.608,1.153-2.443,8.174,2.15,7.023
		c7.501-1.877,11.735-8.225,14.426-14.974c-2.286-0.875-4.573-1.75-6.86-2.624c-0.678,7.072-7.016,15.516-14.561,16.407
		C180.527,144.169,180.761,151.484,185.488,150.925"/>
	<path clip-path="url(#SVGID_2_)" fill="#2E3192" d="M196.121,134.229c5.798-4.284,6.389-11.927,2.596-17.892
		c-4.219-6.63-13.656-7.035-19.353-2.277c-5.295,4.423-5.574,11.559-1.575,17.083C182.216,137.257,190.005,137.571,196.121,134.229
		c0.52-0.284,0.033-1.067-0.483-0.786c-5.501,3.004-11.668,2.863-16.256-1.815c-4.114-4.193-4.646-10.88-1.002-15.362
		c4.625-5.688,13.733-6.003,18.692-0.587c4.749,5.188,4.102,13.675-1.435,17.765C195.167,133.791,195.649,134.577,196.121,134.229"
		/>
	<path clip-path="url(#SVGID_2_)" fill="#EC008C" d="M222.691,173.389c2.73-2.559,5.031-5.258,6.497-8.72
		c1.308-3.091,2.033-6.267,3.806-9.166c4.126-6.742,13.125-6.8,20.169-7.958c6.193-1.016,11.881-3.146,14.761-8.984
		c2.062-4.181,0.536-8.205-2.274-11.633c-3.631-4.429-8.876-7.769-10.491-13.519c-2.289-8.144,8.876-15.509,14.152-19.804
		c5.265-4.283,9.177-8.839,12.351-14.846c2.19-4.143,3.894-9.388,1.102-13.717c-3.489-5.41-11.684-5.62-17.241-4.891
		c-8.772,1.151-16.958,4.814-25.701,6.122c-5.735,0.858-13.831,0.331-18.66-3.423c-3.288-2.557-3.304-6.808-2.709-10.49
		c1.302-8.029,5.637-16.014,4.098-24.364c-1.477-8.005-10.791-16.149-19.303-14.396c-8.701,1.79-10.926,15.587-12.629,22.478
		c-1.347,5.445-2.503,11.008-4.637,16.21c-2.028,4.948-5.154,7.702-10.54,8.769c-5.897,1.167-12.149-0.842-17.668-2.863
		c-5.905-2.163-11.61-4.84-17.589-6.809c-11.896-3.918-22.948-2.519-31.535,6.812c-15.539,16.885,6.965,33.166,17.166,45.778
		c2.832,3.501,5.468,7.481,6.169,11.973c0.813,5.223-2.048,9.555-5.682,12.973c-8.784,8.26-21.67,12.083-29.012,21.898
		c-7.219,9.648,1.97,20.003,10.065,25.688c10.14,7.118,25.788,14.226,36.057,4.362c5.968-5.732,9.044-13.952,13.725-20.643
		c4.231-6.046,15.397-17.093,23.38-10.734c6.735,5.364,3.483,14.079,1.714,20.634c-1.057,3.922-2.551,9.243,0.45,12.753
		c2.048,2.395,5.598,2.435,8.007,0.856c4.824-3.168,6.873-8.485,13.627-7.628C210.75,176.925,217.807,178.057,222.691,173.389
		c0.426-0.407-0.248-1.044-0.67-0.638c-2.854,2.725-5.689,3.096-9.755,3.065c-3.693-0.027-8.053-1.609-11.618-0.698
		c-2.814,0.72-4.875,2.596-6.883,4.572c-2.545,2.498-4.818,5.235-8.748,3.703c-3.395-1.324-3.331-5.328-2.934-8.265
		c0.728-5.383,3.257-10.409,3.546-15.864c0.306-5.685-3.874-12.035-9.798-12.524c-6.991-0.574-13.584,6.039-17.698,10.707
		c-5.659,6.417-8.556,14.799-14.065,21.354c-5.887,7.004-13.574,7.005-21.824,4.293c-10.681-3.514-32.271-15.808-25.463-29.716
		c2.637-5.391,8.542-9.016,13.413-12.187c5.135-3.341,10.468-6.406,15.221-10.277c7.078-5.767,9.631-13.23,5.178-21.572
		c-4.522-8.471-12.555-14.868-18.695-22.143c-6.835-8.096-10.875-17.551-3.923-26.76c4.183-5.539,10.304-9.541,17.339-10.312
		c6.183-0.678,12.454,1.266,18.214,3.383c10.311,3.787,21.484,10.541,32.807,8.298c9.96-1.971,11.934-12.379,14.025-20.793
		c1.402-5.631,2.617-11.347,4.707-16.769c1.634-4.234,4.254-9.177,9.252-9.914c5.462-0.809,11.891,3.713,14.931,7.914
		c2.828,3.911,2.971,8.843,2.296,13.378c-1.11,7.446-5.674,15.393-4.029,23.066c2.048,9.551,17.365,9.377,24.419,8.162
		c8.982-1.546,17.401-5.399,26.566-6.096c4.282-0.324,8.82,0.584,12.22,3.368c2.953,2.422,2.918,6.244,2.034,9.554
		c-1.695,6.349-6.33,12.629-11.216,16.878c-5.766,5.014-12.753,9.387-16.396,16.307c-6.03,11.459,11.315,16.823,12.804,26.557
		c1.289,8.436-8.527,12.098-15.053,13.247c-5.849,1.029-13.131,1.007-17.854,5.041c-2.635,2.251-4.197,5.389-5.328,8.609
		c-1.762,5.009-3.725,8.715-7.691,12.432C221.591,173.153,222.264,173.787,222.691,173.389"/>
	<path clip-path="url(#SVGID_2_)" fill="#2E3192" d="M202.042,103.941c7.081,2.22,20.915,4.985,18.814-6.849
		c-2.413-13.589-15.838-18.833-27.712-22.554c-7.854-2.462-16.994,2.049-19.318,10.046c-1.029,3.542,0.916,6.605,3.835,8.556
		C184.858,97.952,193.867,101.24,202.042,103.941c0.566,0.188,0.767-0.701,0.202-0.888c-6.452-2.133-12.672-4.824-18.754-7.853
		c-4.192-2.086-9.717-4.289-8.885-9.854c1.092-7.298,10.708-12.257,17.455-10.193c10.109,3.094,22.857,7.273,26.869,18.104
		c1.308,3.526,2.429,8.846-1.4,11.123c-4.193,2.491-11.07-0.007-15.285-1.327C201.674,102.875,201.476,103.765,202.042,103.941"/>
	<path clip-path="url(#SVGID_2_)" fill="#2E3192" d="M208.186,105.3c1.638-1.789,2.529-4.969,0.164-6.652
		c-2.99-2.13-5.746,2.583-6.613,4.629c-0.227,0.535,0.585,0.983,0.814,0.442c0.708-1.671,2.737-5.764,5.262-4.339
		c2.034,1.147,0.831,4.05-0.296,5.282C207.118,105.095,207.787,105.733,208.186,105.3"/>
	<path clip-path="url(#SVGID_2_)" fill="#2E3192" d="M185.771,96.175c-0.161,0.297-0.321,0.591-0.481,0.888
		c-0.279,0.516,0.535,0.957,0.815,0.441c1.534-2.827,3.809-7.183,0.265-9.679c-3.581-2.524-7.085,2.442-8.214,5.093
		c-0.227,0.536,0.584,0.982,0.813,0.442c0.998-2.341,3.584-6.536,6.794-4.843c3.375,1.781,0.67,6.438-0.474,8.545
		c-0.279,0.516,0.535,0.957,0.815,0.441c0.16-0.295,0.32-0.59,0.48-0.886C186.866,96.103,186.051,95.66,185.771,96.175"/>
	<path clip-path="url(#SVGID_2_)" fill="#2E3192" d="M190.625,122.477c-0.314,0.875-0.734,1.68-1.7,1.931
		c-0.627,0.16-1.915,0.22-2.313-0.405c-0.293-0.465,0.057-1.164,0.336-1.537c0.493-0.654,1.268-0.981,2.084-1.007
		c1.7-0.055,2.682,1.655,1.241,2.741c-1.221,0.918-3.377,0.14-3.548-1.441c-0.139-1.286,1.264-2.426,2.481-1.864
		c0.746,0.347,1.775,1.617,1.396,2.445c-0.383,0.836-2.011,0.817-2.764,0.813c-0.691-0.004-1.443-0.087-2.083-0.383
		c-0.04-0.02-0.221-0.142-0.208-0.108c0.037,0.082-0.023,0.063,0.091-0.051c0.564-0.556,1.619-0.766,2.36-0.954
		c0.651-0.167,1.321-0.283,1.995-0.332c0.247-0.019,0.495-0.021,0.742-0.001c0.243,0.019,0.301,0.176,0.217-0.033
		c-0.058-0.138-0.049-0.008-0.235,0.173c-0.441,0.425-0.893,0.833-1.417,1.158c-0.193,0.119-0.821,0.491-0.979,0.142
		c-0.289-0.644,0.08-1.616,0.26-2.233c-0.223,0.097-0.443,0.195-0.666,0.292c0.622,0.355,1.925,1.14,1.721,2.031
		c-0.18,0.789-2.104-0.575-2.29-0.723c0.029,0.182,0.058,0.363,0.089,0.548c0.326-0.591,0.671-1.345,1.228-1.764
		c0.142-0.107-0.047-0.114-0.017-0.043c0.084,0.188,0.103,0.395,0.121,0.593c0.044,0.458,0.019,0.925-0.032,1.379
		c-0.018,0.175-0.047,0.348-0.082,0.521c-0.102,0.532-0.146,0.018,0.363,0.111c0.112,0.105,0.227,0.213,0.34,0.319
		c-0.431-0.999-1.483-0.673-2.305-1.078c-0.737-0.361-0.417-1.749,0-2.234c0.3-0.353,0.844-0.198,1.222-0.081
		c0.509,0.158,1.187,0.692,1.741,0.533c0.719-0.205-0.387-0.205-0.293-0.136c0.072,0.057,0.112,0.249,0.139,0.328
		c0.151,0.426,0.224,0.875,0.248,1.32c0.012,0.228,0.032,0.702-0.189,0.646c-0.256-0.062-0.564-0.322-0.814-0.444
		c-0.641-0.314-1.846-0.795-2.096-1.521c-0.121-0.349,1.024-0.373,1.205-0.343c0.37,0.066,0.749,0.318,0.895,0.673
		c0.466,1.129-2.368,0.286-2.671,0.182c0.103,0.222,0.206,0.443,0.308,0.666c0.307-0.565,0.613-1.13,0.92-1.694
		c-0.207,0.059-0.416,0.119-0.626,0.177c0.461,0.251,0.922,0.5,1.382,0.751c0.234,0.127,0.49,0.029,0.624-0.18
		c0.008-0.01,0.016-0.021,0.021-0.032c-0.17,0.074-0.339,0.15-0.507,0.224c0.002,0.001,0.005,0.001,0.006,0.001
		c-0.115-0.183-0.23-0.367-0.349-0.551c-0.053,0.551-0.394,1.053-0.447,1.604c-0.025,0.252,0.082,0.479,0.35,0.551
		c0.003,0,0.005,0.001,0.007,0.002c0.21,0.057,0.401-0.055,0.509-0.224c0.008-0.01,0.014-0.021,0.021-0.032
		c-0.286-0.108-0.571-0.218-0.857-0.328c0.186-0.061,0.19-0.106,0.019-0.139c-0.087-0.044-0.169-0.091-0.249-0.146
		c-0.083-0.06-0.16-0.126-0.234-0.197c-0.121-0.184-0.196-0.106-0.224,0.233c0.261-0.137,0.287-0.525,0.075-0.72
		c-0.01-0.009-0.021-0.019-0.031-0.027c0.046,0.145,0.089,0.289,0.133,0.432c-0.184,0.192-0.192,0.251-0.023,0.176
		c0.139-0.041,0.285-0.061,0.431-0.078c0.1-0.01,0.198-0.016,0.298-0.019c0.449-0.018,0.058,0.114,0.218-0.305
		c0.129-0.079,0.258-0.158,0.39-0.236c-0.258-0.009-0.515-0.016-0.771-0.019c-0.233-0.002-0.137-0.026-0.066,0.039
		c-0.248-0.228-0.545-0.396-0.838-0.563c-0.105,0.281-0.213,0.563-0.318,0.844c0.253,0.05,0.501,0.102,0.748,0.167
		c0.336,0.088,0.286-0.343-0.038-0.103c0.188,0.021,0.374,0.043,0.561,0.066c-0.355,0.259-0.399,0.384-0.139,0.371
		c0.156,0.021,0.309,0.065,0.459,0.106c0.25,0.066,0.496,0.152,0.736,0.249c0.154,0.086,0.139,0.033-0.046-0.159
		c-0.073,0.168-0.202,0.328-0.313,0.472c-0.106,0.137-0.222,0.269-0.338,0.396c0.267,0.103,0.531,0.205,0.796,0.308
		c0.004-0.385,0.009-0.768-0.045-1.151c-0.063-0.451,0.035-0.206-0.108,0.014c-0.208,0.06-0.416,0.119-0.624,0.18
		c0.621,0.323,1.418-0.382,1.791-0.782c-0.146,0.042-0.29,0.083-0.437,0.124c-0.329-0.072-0.192-0.18-0.128,0.243
		c0.015,0.103,0.023,0.203,0.027,0.305c-0.04,0.253,0.095,0.251,0.406-0.006c-0.488-0.1-0.821,0.639-0.318,0.843
		c0.011,0.004,0.019,0.009,0.027,0.011c0.254,0.104,0.472,0.045,0.626-0.178c0.001-0.003,0.003-0.006,0.006-0.008
		c0.088-0.131,0.061-0.326-0.016-0.456c-0.419-0.716-1.355-1.098-1.771-1.807c0.004,0.15,0.011,0.303,0.017,0.454
		c0-0.002,0.002-0.006,0.004-0.008c-0.208,0.06-0.416,0.119-0.624,0.179c0.009,0.004,0.018,0.008,0.028,0.011
		c0.065-0.285,0.132-0.57,0.198-0.855c-0.044-0.001-0.087-0.008-0.13,0c-0.454,0.051-0.607,0.603-0.199,0.854
		c0.24,0.15,0.659,0.128,0.925,0.164c0.23,0.034,0.458,0.071,0.686,0.113c0.122,0.021,0.241,0.049,0.362,0.078
		c0.034,0.008,0.067,0.018,0.102,0.026c0.235,0.079,0.252-0.128,0.049-0.621c-0.318,0.107-0.452,0.521-0.185,0.766
		c0.011,0.01,0.022,0.018,0.032,0.028c-0.045-0.146-0.09-0.289-0.134-0.434c0.186-0.19,0.194-0.248,0.026-0.173
		c-0.141,0.04-0.286,0.058-0.432,0.076c-0.1,0.01-0.199,0.016-0.298,0.019c-0.539,0.021,0.102-0.086-0.28,0.392
		c0.097-0.121,0.202-0.235,0.307-0.349c0.099-0.104,0.204-0.202,0.312-0.297c0.046-0.033,0.091-0.065,0.136-0.098
		c0.14-0.087,0.148-0.09,0.026-0.008c0.188-0.151,0.375-0.304,0.564-0.455c-0.451-0.129-0.872,0.33-1.289,0.16
		c-0.065,0.286-0.132,0.572-0.199,0.856c0.171-0.016,0.344-0.024,0.515-0.023c-0.525,0.01-0.097-0.752-0.383-0.29
		c-0.106,0.173-0.132,0.384-0.104,0.582c0.078,0.579,0.999,0.564,0.923-0.021c-0.04-0.301,0.35-0.467,0.191-0.813
		c-0.207-0.463-0.755-0.374-1.177-0.346c-0.416,0.027-0.656,0.67-0.199,0.856c0.288,0.115,0.521,0.187,0.828,0.151
		c0.177-0.02,0.535-0.269,0.691-0.225c0.263,0.075,0.611-0.165,0.563-0.454c-0.132-0.806-0.683-1.197-1.435-0.757
		c-0.437,0.256-1.115,0.844-1.108,1.398c0.019,1.396,3.546,0.471,2.559-0.431c-0.061,0.257-0.121,0.51-0.182,0.767
		c0.657-0.223,0.638-0.904-0.027-1.118c-0.358-0.113-0.731-0.168-1.101-0.225c-0.206-0.031-0.414-0.061-0.619-0.087
		c-0.088-0.013-0.371-0.109-0.21-0.01c-0.067,0.287-0.133,0.572-0.199,0.857c0.042-0.005,0.087,0,0.13,0
		c0.441,0.017,0.631-0.681,0.199-0.855c-0.01-0.005-0.021-0.009-0.028-0.012c-0.255-0.104-0.471-0.044-0.623,0.18
		c-0.003,0.002-0.005,0.005-0.005,0.007c-0.092,0.131-0.064,0.325,0.012,0.455c0.421,0.717,1.357,1.1,1.771,1.809
		c-0.005-0.152-0.009-0.303-0.014-0.455c-0.003,0.002-0.004,0.005-0.006,0.007c0.207-0.059,0.416-0.117,0.624-0.178
		c-0.008-0.004-0.019-0.008-0.027-0.011c-0.105,0.281-0.213,0.563-0.319,0.844c0.969,0.194,0.719-1.233,0.589-1.751
		c-0.072-0.292-0.272-0.588-0.608-0.579c-0.243,0.005-0.428,0.242-0.59,0.387c-0.138,0.116-0.283,0.216-0.44,0.301
		c-0.188,0.111-0.088,0.011,0.027,0.071c-0.237-0.123-0.488-0.034-0.624,0.179c-0.197,0.304,0.05,1.285,0.045,1.602
		c-0.006,0.395,0.538,0.593,0.797,0.31c0.325-0.357,0.782-0.825,0.892-1.31c0.137-0.603-0.299-0.792-0.787-0.977
		c-0.5-0.19-1.187-0.462-1.722-0.296c-0.612,0.188-0.335,0.824-0.048,1.16c0.122,0.143,0.409,0.178,0.559,0.065
		c0.361-0.269,0.639-0.521,0.555-0.997c-0.099-0.556-1.152-0.663-1.546-0.74c-0.512-0.099-0.782,0.581-0.319,0.844
		c0.307,0.175,0.604,0.478,0.934,0.599c0.348,0.127,0.856,0.045,1.21,0.058c0.146,0.004,0.339-0.098,0.391-0.236
		c0.353-0.928-0.666-1.089-1.365-1.03c-0.425,0.033-1.864,0.371-1.107,1.063c0.024-0.24,0.05-0.479,0.076-0.719
		c-1.285,0.67,1.807,3.01,2.072,1.249c0.078-0.516-0.577-0.767-0.857-0.329c-0.006,0.012-0.014,0.021-0.021,0.032
		c0.17-0.074,0.339-0.148,0.509-0.222c-0.004-0.002-0.006-0.003-0.008-0.003c0.117,0.185,0.234,0.368,0.349,0.551
		c0.054-0.55,0.395-1.052,0.447-1.601c0.025-0.254-0.082-0.481-0.349-0.553c-0.002-0.001-0.005-0.001-0.006-0.001
		c-0.211-0.057-0.401,0.055-0.509,0.222c-0.007,0.012-0.015,0.021-0.021,0.033c0.207-0.06,0.415-0.119,0.624-0.179
		c-0.46-0.251-0.922-0.5-1.382-0.75c-0.223-0.12-0.505-0.038-0.624,0.18c-0.306,0.565-0.613,1.13-0.92,1.694
		c-0.151,0.28,0.024,0.567,0.306,0.664c1.062,0.368,2.551,0.813,3.494-0.017c0.611-0.536,0.306-1.427-0.139-1.954
		c-1.22-1.452-4.674-0.361-3.049,1.498c0.604,0.693,1.565,1.124,2.378,1.517c0.683,0.329,1.391,0.794,1.916-0.025
		c0.438-0.682,0.153-1.84-0.058-2.558c-0.161-0.555-0.743-1.504-1.306-0.712c0.13-0.079,0.259-0.158,0.389-0.236
		c-0.463,0.069-1.283-0.52-1.767-0.628c-0.813-0.184-1.506,0.097-1.965,0.763c-0.616,0.895-0.599,2.416,0.242,3.175
		c0.36,0.327,0.89,0.416,1.352,0.48c0.169,0.025,0.664,0.023,0.749,0.216c0.068,0.161,0.175,0.289,0.357,0.322
		c1.129,0.207,0.907-2.809,0.799-3.374c-0.096-0.499-0.386-1.107-1-1.033c-0.978,0.118-1.611,1.558-2.01,2.275
		c-0.091,0.166-0.067,0.423,0.092,0.549c0.795,0.635,2.93,2,3.701,0.579c0.759-1.397-1.016-2.745-2.063-3.339
		c-0.274-0.156-0.589,0.015-0.669,0.293c-0.263,0.902-0.915,3.416,0.784,3.493c1.179,0.052,2.479-1.103,3.15-1.956
		c0.437-0.554,0.227-1.158-0.448-1.372c-0.76-0.24-1.708-0.04-2.463,0.09c-0.939,0.161-4.261,0.715-4.07,2.181
		c0.117,0.906,1.478,1.133,2.185,1.232c1.349,0.19,3.676,0.242,4.515-1.068c0.857-1.347-0.482-3.154-1.694-3.821
		c-1.077-0.595-2.356-0.185-3.126,0.664c-2.048,2.259,0.674,5.292,3.319,4.657c1.084-0.26,2.09-1.301,2.107-2.439
		c0.021-1.374-1.247-2.298-2.539-2.408c-1.424-0.122-2.722,0.521-3.447,1.73c-0.551,0.921-0.487,2.123,0.464,2.757
		c0.794,0.527,2.26,0.414,3.107,0.131c1.112-0.373,1.636-1.48,2.001-2.497C191.726,122.14,190.822,121.931,190.625,122.477"/>
</g>
<g>
	<defs>
		
			<rect id="SVGID_11_" x="60.413" y="201.097" transform="matrix(-0.8929 0.4503 -0.4503 -0.8929 494.5625 524.8109)" width="248.874" height="240.283"/>
	</defs>
	<clipPath id="SVGID_4_">
		<use xlink:href="#SVGID_11_"  overflow="visible"/>
	</clipPath>
</g>
</svg>
