<?xml version="1.0" encoding="utf-8"?>
<!-- Generator: Adobe Illustrator 16.0.0, SVG Export Plug-In . SVG Version: 6.00 Build 0)  -->
<!DOCTYPE svg PUBLIC "-//W3C//DTD SVG 1.1//EN" "http://www.w3.org/Graphics/SVG/1.1/DTD/svg11.dtd">
<svg version="1.1" id="Layer_1" xmlns="http://www.w3.org/2000/svg" xmlns:xlink="http://www.w3.org/1999/xlink" x="0px" y="0px"
	 width="138px" height="269.501px" viewBox="0 0 138 269.501" enable-background="new 0 0 138 269.501" xml:space="preserve">
<g>
	<defs>
		
			<rect id="SVGID_11_" x="139.267" y="-257.138" transform="matrix(-0.8929 0.4503 -0.4503 -0.8929 437.4566 -378.0732)" width="248.874" height="240.283"/>
	</defs>
	<clipPath id="SVGID_2_">
		<use xlink:href="#SVGID_11_"  overflow="visible"/>
	</clipPath>
</g>
<path fill="#00AEEF" d="M70.258,198.989c-4.609,4.609-9.218,9.219-13.827,13.828c-0.625,0.626-0.167,1.73,0.717,1.73h27.657
	c0.885,0,1.343-1.104,0.717-1.73c-4.609-4.609-9.221-9.219-13.83-13.828c-0.926-0.926-2.358,0.508-1.434,1.434
	c4.61,4.609,9.221,9.219,13.831,13.828c0.239-0.576,0.477-1.154,0.716-1.73H57.147c0.239,0.576,0.479,1.154,0.718,1.73
	c4.608-4.609,9.218-9.219,13.826-13.828C72.617,199.497,71.183,198.063,70.258,198.989"/>
<path fill="#00AEEF" d="M68.806,131.46c0.033,23.02,2.113,46.016,1.081,69.039c-0.038,0.872,1.313,0.868,1.352,0
	c1.032-23.023-1.048-46.02-1.081-69.039C70.156,130.589,68.805,130.589,68.806,131.46"/>
<path fill="#00AEEF" d="M69.868,200.149c-1.679,2.795-4.216,5.13-6.505,7.419c-1.07,1.07-2.157,2.122-3.227,3.193
	c-0.392,0.394-1.003,0.868-1.17,1.426c-0.093,0.306,0.063,0.591,0.311,0.763l0.022,0.016c0.717,0.5,1.392-0.672,0.683-1.166
	l-0.023-0.016c0.104,0.254,0.207,0.508,0.31,0.762c0.084-0.275,1.246-1.25,1.627-1.627c1.066-1.056,2.139-2.105,3.196-3.17
	c2.116-2.129,4.387-4.328,5.943-6.918C71.485,200.083,70.316,199.403,69.868,200.149"/>
<path fill="#00AEEF" d="M69.974,201.509c3.618,3.67,6.777,7.832,10.948,10.916c0.701,0.52,1.374-0.654,0.682-1.166
	c-4.067-3.01-7.146-7.126-10.675-10.705C70.316,199.932,69.361,200.888,69.974,201.509"/>
<path fill="#00AEEF" d="M58.56,214.14c7.759-0.022,15.509-0.492,23.243-1.082c0.863-0.065,0.869-1.416,0-1.351
	c-7.734,0.589-15.484,1.06-23.243,1.081C57.688,212.79,57.688,214.142,58.56,214.14"/>
<path fill="#00AEEF" d="M59.703,212.319c0.764,0.874,1.29,1.563,2.46,1.795c0.427,0.086,0.856-0.188,0.856-0.65v-2.703
	c-0.443,0.06-0.885,0.119-1.327,0.18c0.18,0.721,0.36,1.441,0.54,2.162c0.115,0.462,0.802,0.695,1.129,0.298
	c1.727-2.093,2.823-2.36,2.901-5.342c-0.443,0.06-0.885,0.118-1.327,0.179c0.466,1.362,1.455,4.098,3.38,3.078
	c1.864-0.988,0.593-4.46,0.018-5.761c-0.253-0.568-1.08-0.345-1.235,0.161c-0.865,2.828-0.594,4.633,1.148,7.008
	c0.282,0.384,0.906,0.486,1.167,0c1.655-3.086,1.655-6.245,0-9.331c-0.282-0.528-1.077-0.384-1.234,0.162
	c-1.014,3.519-0.48,6.747,1.689,9.709c0.267,0.364,0.936,0.509,1.166,0c1.586-3.479,1.758-7.212-0.54-10.411
	c-0.332-0.463-1.06-0.438-1.234,0.161c-0.963,3.292-0.525,6.194,1.148,9.169c0.113,0.201,0.352,0.344,0.584,0.335
	c4.269-0.164,1.708-7.638,0.583-9.665c-0.26-0.469-1.153-0.438-1.234,0.161c-0.435,3.19-0.234,6.517,2.336,8.765
	c0.447,0.391,1.127,0.131,1.152-0.477c0.078-1.815,0.48-3.588,0.541-5.406H73.02c0.042,2.246,0.69,3.3,1.714,5.206
	c0.343,0.64,1.2,0.282,1.258-0.341c0.08-0.852,0.313-1.695,0.518-2.523c-0.443-0.061-0.885-0.119-1.327-0.179v2.162
	c0,0.353,0.307,0.694,0.675,0.675c1.286-0.068,0.878-0.751,1.222-1.656l-1.234,0.162c0.247,0.564,0.361,1.293,0.419,1.9
	c0.029,0.308,0.186,0.559,0.496,0.65c1.092,0.325,1.571-0.629,1.912-1.553c-0.442-0.059-0.886-0.12-1.327-0.179
	c0.013,1.153,0.18,1.991,0.633,3.043c0.154,0.358,0.624,0.384,0.924,0.243c1.02-0.481,0.857-1.043,1.622-1.623
	c0.686-0.518,0.013-1.692-0.682-1.166c-0.642,0.486-0.883,1.273-1.622,1.621c0.308,0.082,0.616,0.162,0.924,0.242
	c-0.349-0.758-0.498-1.545-0.448-2.36c-0.009-0.798-1.07-0.876-1.327-0.181c-0.188,0.512,0.32,1.492,0.115,0.322
	c-0.098-0.563-0.243-1.121-0.472-1.643c-0.26-0.596-1.055-0.315-1.234,0.162c-0.045,0.117-0.147,0.675,0.08,0.662
	c0.227,0.226,0.451,0.451,0.676,0.677v-2.162c0-0.759-1.142-0.929-1.327-0.181c-0.233,0.951-0.474,1.906-0.564,2.883
	c0.42-0.113,0.839-0.227,1.259-0.342c-0.891-1.66-1.492-2.53-1.529-4.523c-0.016-0.872-1.321-0.869-1.351,0
	c-0.062,1.818-0.463,3.591-0.541,5.406c0.384-0.16,0.769-0.319,1.153-0.479c-2.193-1.92-2.358-4.73-1.988-7.451
	c-0.412,0.055-0.823,0.108-1.235,0.162c0.614,1.106,1.089,2.215,1.406,3.442c0.222,1.088,0.191,2.17-0.092,3.244
	c-0.062,0.997-0.248,1.178-0.563,0.543c-1.313-2.337-1.335-4.873-0.598-7.392c-0.412,0.055-0.823,0.108-1.235,0.162
	c2.015,2.807,1.938,5.984,0.541,9.047h1.166c-1.965-2.683-2.476-5.463-1.553-8.668c-0.412,0.055-0.823,0.107-1.235,0.162
	c1.422,2.65,1.422,5.315,0,7.967h1.167c-1.482-2.02-1.759-3.531-1.013-5.967c-0.412,0.055-0.823,0.108-1.235,0.161
	c0.391,0.769,0.625,1.579,0.703,2.435c0.001,0.188,0.001,0.377,0.001,0.567c-1.097,0.384-1.64-0.069-1.631-1.36
	c-0.245-0.715-1.307-0.602-1.327,0.181c-0.063,2.427-1.156,2.75-2.505,4.387c0.376,0.099,0.752,0.198,1.129,0.298
	c-0.18-0.721-0.359-1.441-0.541-2.162c-0.187-0.748-1.326-0.578-1.326,0.18v2.703c0.284-0.217,0.569-0.436,0.854-0.651
	c-0.939-0.187-1.316-0.821-1.864-1.448C60.085,210.706,59.133,211.667,59.703,212.319"/>
<path fill="#EC008C" d="M43.782,130.938c17.863-1.336,35.807-0.934,53.699-0.533c0.575,0.014,0.708-0.883,0.124-0.896
	c-17.97-0.401-35.991-0.812-53.932,0.533C43.091,130.085,43.201,130.982,43.782,130.938"/>
<path fill="#EC008C" d="M56.287,96.644c9.484-0.856,18.981-0.844,28.453-0.834c0.303,0,0.388-0.448,0.079-0.449
	c-9.511-0.01-19.051-0.023-28.574,0.836C55.935,96.224,55.979,96.671,56.287,96.644"/>
<path fill="#EC008C" d="M43.881,129.677c3.511-11.22,8.109-22.115,12.693-32.98c0.147-0.348-0.371-0.62-0.521-0.266
	c-4.604,10.91-9.229,21.852-12.752,33.119C43.188,129.917,43.768,130.04,43.881,129.677"/>
<path fill="#EC008C" d="M83.59,95.714c5.442,10.971,9.89,22.564,14.325,34.123c0.143,0.37,0.7,0.16,0.555-0.217
	c-4.454-11.607-8.918-23.253-14.384-34.27C83.908,94.991,83.414,95.357,83.59,95.714"/>
<path fill="#EC008C" d="M76.401,112.955c0.305-4.046-2.936-7.722-7.023-7.753c-4.158-0.031-7.758,4.439-6.625,8.467
	c0.324,1.153,0.898,2.156,1.644,3.09c0.888,1.114,1.746,1.717,1.927,3.221c0.2,1.656-0.007,3.467,1.802,4.236
	c1.788,0.762,3.596,0.078,4.184-1.75c0.293-0.912,0.351-1.896,0.52-2.834c0.104-0.588,0.27-1.166,0.573-1.684
	c0.319-0.541,0.926-0.88,1.343-1.35C75.613,115.624,76.122,114.216,76.401,112.955c0.087-0.39-0.527-0.473-0.613-0.084
	c-0.152,0.688-0.407,1.353-0.696,1.993c-0.521,1.158-1.487,1.721-2.177,2.701c-0.976,1.385-0.749,3.326-1.249,4.881
	c-0.385,1.197-1.36,1.5-2.529,1.375c-1.27-0.137-1.881-0.876-2.053-2.078c-0.227-1.57-0.023-3.109-1.224-4.333
	c-1.751-1.782-3.052-3.873-2.597-6.464c0.378-2.154,2.169-3.883,4.111-4.71c4.28-1.825,8.735,2.337,8.413,6.635
	C75.759,113.267,76.372,113.354,76.401,112.955"/>
<path fill="#EC008C" d="M70.67,124.532c-0.052,0.65-0.053,1.381-0.68,1.738c-0.231,0.132-0.233,0.578-0.489,0.643
	c-0.317,0.079-0.425,0.053-0.516-0.197c-0.078-0.211-0.301-0.324-0.437-0.49c-0.415-0.51-0.255-1.467-0.202-2.049
	c0.018-0.197-0.289-0.242-0.307-0.043c-0.065,0.713-0.174,1.586,0.224,2.227c0.08,0.128,0.204,0.229,0.317,0.326
	c0.141,0.119,0.087,0.336,0.209,0.432c0.234,0.184,0.602,0.139,0.866,0.072c0.397-0.098,0.269-0.544,0.613-0.723
	c0.649-0.334,0.658-1.269,0.707-1.894C70.992,124.376,70.685,124.333,70.67,124.532"/>
<path fill="#EC008C" d="M69.904,124.078c-0.295-2.262,1.048-4.29,1.786-6.344c0.33-0.919,0.975-2.604,0.061-3.413
	c-2.042-1.805-3.844,1.717-2.161,3.18c0.653,0.568,1.211-0.52,1.315-1.027c0.197-0.969,0.262-2.442-0.585-3.141
	c-1.553-1.281-3.059,3.096-1.938,4.279c0.057,0.059,0.146,0.089,0.217,0.032c1.134-0.921,1.92-3.392,0.284-4.323
	c-1.543-0.878-3.255,1.029-2.785,2.568c0.313,1.021,0.9,1.929,1.432,2.845c0.586,1.01,0.72,1.729,0.755,2.864
	c0.009,0.281,0.01,3.426,0.902,2.654c0.15-0.131-0.033-0.381-0.185-0.25c-0.181,0.157-0.354-1.352-0.363-1.457
	c-0.046-0.611-0.055-1.226-0.071-1.836c-0.027-1.004-0.594-1.826-1.087-2.672c-0.384-0.656-0.757-1.313-1.021-2.025
	c-0.539-1.45,1.243-3.582,2.568-2.148c0.713,0.771,0.51,2.063,0.025,2.875c-0.886,1.486-0.834-0.96-0.671-1.544
	c0.187-0.672,0.627-1.532,1.371-1.692c1.031-0.222,0.97,1.953,0.928,2.448c-0.074,0.888-0.825,1.958-1.365,0.644
	c-0.387-0.938,0.211-2.563,1.375-2.481c2.368,0.165,0.563,4.002,0.094,5.097c-0.687,1.598-1.421,3.125-1.188,4.905
	C69.622,124.313,69.929,124.276,69.904,124.078"/>
<path fill="#00AEEF" d="M51.85,131.975c-0.098,0.399-0.173,0.81-0.085,1.22c0.059,0.268,0.469,0.154,0.41-0.113
	c-0.071-0.33,0.006-0.672,0.085-0.994C52.326,131.821,51.915,131.708,51.85,131.975"/>
<path fill="#00AEEF" d="M51.64,134.84c0.006,0.513,0.079,1.021,0.085,1.532c0.004,0.275,0.429,0.275,0.426,0
	c-0.006-0.512-0.079-1.02-0.085-1.532C52.062,134.565,51.637,134.565,51.64,134.84"/>
<path fill="#00AEEF" d="M51.64,137.661v1.361c0,0.273,0.426,0.273,0.426,0v-1.361C52.065,137.386,51.64,137.386,51.64,137.661"/>
<path fill="#00AEEF" d="M51.749,141.609c-0.099,0.4-0.174,0.81-0.086,1.22c0.059,0.269,0.469,0.154,0.41-0.113
	c-0.069-0.33,0.006-0.67,0.085-0.993C52.225,141.456,51.814,141.344,51.749,141.609"/>
<path fill="#00AEEF" d="M51.538,144.239c0.006,0.512,0.079,1.021,0.085,1.532c0.004,0.274,0.429,0.274,0.426,0
	c-0.006-0.512-0.079-1.021-0.086-1.532C51.96,143.966,51.535,143.964,51.538,144.239"/>
<path fill="#00AEEF" d="M51.538,147.39v1.361c0,0.274,0.425,0.274,0.425,0v-1.361C51.963,147.114,51.538,147.114,51.538,147.39"/>
<path fill="#00AEEF" d="M51.371,151.104c-1.695,0.609-1.05,3.116,0.639,3.16c1.979,0.051,2.093-2.896,0.307-3.344
	c-0.423-0.105-0.602,0.546-0.18,0.65c1.088,0.273,1.059,1.945-0.127,2.018c-0.924,0.057-1.404-1.493-0.46-1.833
	C51.957,151.61,51.781,150.957,51.371,151.104"/>
</svg>
