<?xml version="1.0" encoding="utf-8"?>
<!-- Generator: Adobe Illustrator 16.0.0, SVG Export Plug-In . SVG Version: 6.00 Build 0)  -->
<!DOCTYPE svg PUBLIC "-//W3C//DTD SVG 1.1//EN" "http://www.w3.org/Graphics/SVG/1.1/DTD/svg11.dtd">
<svg version="1.1" id="Layer_1" xmlns="http://www.w3.org/2000/svg" xmlns:xlink="http://www.w3.org/1999/xlink" x="0px" y="0px"
	 width="367.652px" height="374.063px" viewBox="0 0 367.652 374.063" enable-background="new 0 0 367.652 374.063"
	 xml:space="preserve">
<g>
	<rect x="367.652" y="-461.809" fill="none" width="790.172" height="619.966"/>
</g>
<g>
	<defs>
		<rect id="SVGID_13_" x="22.001" y="7.866" width="343.984" height="344.501"/>
	</defs>
	<clipPath id="SVGID_2_">
		<use xlink:href="#SVGID_13_"  overflow="visible"/>
	</clipPath>
	<path clip-path="url(#SVGID_2_)" fill="#FFF200" d="M232.602,42.714c-37.147,5.541-73.958,14.532-108.153,30.211
		c-31.055,14.239-59.93,36.254-72.258,68.874c-20.817,55.084,9.413,129.634,65.759,150.528
		c51.991,19.279,109.431-12.46,143.637-49.989c32.789-35.976,57.853-89.39,44.601-138.481
		c-15.398-57.037-83.88-75.592-136.587-69.658C114.719,40.377,60.423,75.25,41.515,128.217c-8.022,22.474-6.635,47.345,4.856,68.35
		c14.391,26.305,42.931,41.585,70.579,50.604c53.962,17.602,109.626-13.329,144.902-52.492
		c17.058-18.937,31.029-41.179,38.831-65.447c6.033-18.767,7.861-40.919-2.628-58.5c-12.152-20.368-37.648-25.321-59.7-24.384
		c-32.962,1.402-62.159,18.54-83.531,42.734c-20.425,23.12-34.205,51.931-42.44,81.395c-6.9,24.689-7.522,48.088-1.962,73.078
		c11.737,52.758,49.841,113.381,111.916,107.403c31.297-3.015,58.492-20.912,75.551-46.705
		c16.408-24.809,22.143-55.734,22.511-84.947c0.357-28.41-4.786-57.715-15.854-83.967c-10.386-24.637-28.334-43.875-48.369-61.343
		c-41.87-36.508-118.25-83.947-171.334-41.238c-36.62,29.463-51.99,77.747-39.114,122.426
		c12.739,44.198,46.94,80.187,83.374,106.898c36.374,26.667,80.594,46.857,126.096,50.396c37.904,2.947,76.396-11.166,92.212-47.617
		c9.921-22.863,10.845-48.824,8.496-73.284c-2.965-30.867-11.893-61.148-26.297-88.671c-29.6-56.564-92.558-98.395-157.374-73.624
		c-32.804,12.535-60.038,37.085-82.408,63.375c-20.642,24.262-38.212,51.482-50.615,80.776
		c-24.302,57.398,7.587,126.437,65.932,147.594c33.633,12.196,72.513,5.259,103.885-10.048c28.9-14.099,51.954-38.75,66.856-66.766
		c27.936-52.517,29.179-127.48-18.366-169.718c-54.605-48.513-142.882-7.243-185.4,37.591c-19.751,20.827-15.51,53.807-0.843,76.06
		c16.517,25.061,48.712,38.447,78.125,29.915c46.207-13.403,23.825-71.054,0.558-94.769c-11.251-11.47-29.257-21.342-44.022-10.008
		c-16.395,12.586-15.991,38.709-8.478,55.574c10.654,23.922,30.571,47.307,53.092,60.955c9.945,6.028,21.969,9.655,33.509,6.548
		c12.415-3.345,25.306-17.663,21.9-31.015c-4.785-18.757-30.203-24.703-46.528-18.668c-9.86,3.645-5.594,19.432,4.379,15.745
		c10.013-3.701,35.082,0.836,21.71,14.577c-7.136,7.333-17.632,3.697-25.366-0.541c-21.391-11.721-40.924-36.04-49.585-58.562
		c-3.122-8.12-2.364-16.876,1.424-25.606c1.318-3.034,3.705-6.034,4.539-6.612c2.04-1.414,0.846-0.693,2.616-1.156
		c-0.686,0.18,3.081,0.003,2.079-0.144c14.096,2.056,26.149,19.695,32.615,32.729c6.282,12.66,10.992,32.44-0.791,41.227
		c-9.511,7.092-23.46,6.934-34.493,4.5c-14.19-3.129-26.135-12.424-33.992-24.344c-6.995-10.611-10.935-24.182-8.975-36.861
		c2.217-14.336,12.89-23.499,23.539-32.414c26.523-22.204,61.812-38.703,96.875-39.592c34.6-0.876,60.465,19.843,74.005,50.289
		c12,26.981,11.017,58.832,3.284,86.748c-17.594,63.521-81.689,115.687-150.523,102.281c-30.476-5.935-55.59-27.716-67.428-55.939
		c-11.357-27.08-9.541-55.604,2.756-81.871c13.969-29.838,33.571-57.477,56.343-81.327C137.25,65.922,166.807,43,200.699,38.539
		c67.597-8.897,114.048,56.218,130.713,112.583c11.762,39.779,19.646,100.805-16.945,130.885
		c-28.743,23.628-74.595,14.728-106.927,3.466c-43.792-15.255-84.304-43.195-114.198-78.336
		c-26.496-31.148-44.522-72.68-31.536-113.328c7.036-22.026,23.913-45.233,44.969-55.655c27.442-13.581,61.748-0.889,86.71,12.151
		c28.158,14.71,53.811,35.152,75.021,58.632c17.095,18.926,25.964,41.905,31.166,66.551c11.421,54.119,3.114,126.147-53.204,152.479
		c-27.18,12.709-57.808,7.834-79.743-12.089c-20.54-18.658-32.522-45.718-39.308-72.032c-6.263-24.288-5.423-46.58,1.306-70.658
		c8.175-29.249,22.732-57.596,44.172-79.466c21.608-22.039,52.829-35.362,84.093-30.278c18.055,2.938,30.522,14.021,31.956,32.198
		c1.704,21.601-8.217,43.274-19.21,61.296c-13.722,22.499-32.669,42.294-54.674,56.963c-21.798,14.531-47.231,23.445-73.706,21.574
		c-27.167-1.919-58.577-17.032-75.242-38.71c-32.286-41.997-0.14-95.131,37.203-120.992c24.38-16.884,53.583-25.835,83.247-26.341
		c28.359-0.483,60.786,6.399,82.668,25.333c38.044,32.92,24.515,89.22,2.194,126.916c-25.404,42.906-71.879,80.846-124.335,79.47
		c-61.479-1.61-98.449-77.043-80.578-130.914c10.2-30.752,37.989-49.934,66.251-63.213c32.548-15.292,68.774-23.277,104.219-28.564
		C247.456,56.896,242.989,41.165,232.602,42.714"/>
</g>
</svg>
