<svg xmlns="http://www.w3.org/2000/svg" xmlns:xlink="http://www.w3.org/1999/xlink" width="355.475" height="193.804">
  <defs>
    <path id="a" d="M.144 25.694h355.331v168.109H.144z"/>
  </defs>
  <clipPath id="b">
    <use xlink:href="#a" overflow="visible"/>
  </clipPath>
  <path clip-path="url(#b)" fill="#00AEEF" d="M310.544 71.677c.393 8.201-.2 16.389-.2 24.59 0 8.32 1.56 16.482 2.958 24.654 1.521 8.881 3.003 17.697 3.947 26.664.897 8.52 1.984 16.947 4.456 25.178.233.779 1.455.447 1.22-.336-4.828-16.072-5.203-33.451-8.079-49.963-1.513-8.691-3.104-17.354-3.235-26.197-.124-8.203.593-16.383.199-24.59-.039-.813-1.306-.817-1.266 0M320.669 69.989c2.971 28.26 2.06 56.699 3.038 85.055.027.813 1.293.816 1.266 0-.979-28.355-.067-56.795-3.037-85.055-.084-.802-1.352-.81-1.267 0M331.808 74.378c1.901 16.004 4.564 31.959 4.318 48.127-.121 7.953-1.096 15.955-3.984 23.396-2.616 6.738-6.12 12.891-6.409 20.279-.032.816 1.234.814 1.265 0 .305-7.744 4.222-14.422 6.966-21.49 2.694-6.939 3.205-14.816 3.43-22.186.489-16.119-2.424-32.18-4.319-48.127-.096-.8-1.364-.808-1.267.001"/>
  <path clip-path="url(#b)" fill="#00AEEF" d="M326.745 68.978c.346 12.791 1.42 25.547 1.908 38.33.48 12.514 3.083 25.541-.536 37.779-.231.785.99 1.117 1.222.336 3.521-11.912.973-24.037.644-36.188-.361-13.434-1.609-26.824-1.972-40.258-.023-.814-1.288-.816-1.266.001M338.896 81.128c.538 14.021 1.423 28.029 1.204 42.068-.112 7.213-.409 14.389-2.438 21.348-1.678 5.76-4.127 11.221-5.493 17.082-.185.793 1.035 1.131 1.221.336 1.363-5.85 3.678-11.371 5.493-17.08 2.04-6.418 2.227-13.092 2.438-19.768.466-14.664-.597-29.34-1.158-43.986-.034-.813-1.3-.816-1.267 0M315.292 70.159c4.818 22.957-1.451 46.797 5.063 69.525.224.783 1.444.451 1.22-.336-6.509-22.717-.243-46.568-5.063-69.525-.166-.801-1.387-.461-1.22.336M305.481 79.103c-1.598 14.939-.191 30.074 2.427 44.818 2.396 13.49.78 28.85 7.447 41.229.388.719 1.479.08 1.094-.637-6.475-12.021-4.42-26.328-7.025-39.338-3.006-15.02-4.309-30.811-2.677-46.072.087-.811-1.18-.803-1.266 0"/>
  <path clip-path="url(#b)" fill="#414042" d="M324.702 25.743c-3.842 1.537-3.986 4.172-3.114 7.902 1.062 4.549.553 7.451-2.232 11.305-.914 1.268-2.203 2.871-1.251 4.494.52.885 1.603.293 2.306.148 1.77-.365 1.449-.404 2.446 1.297.526.898 1.536.523 2.19.148.389-.223.54-.773.673-1.17.41-1.219 2.152.051 2.791.23.208.059.469.004.616-.162 1.866-2.09.23-4.791.12-7.396-.118-2.773 1.613-4.836 2.299-7.395 1.204-4.502-2.155-9.254-6.676-9.426-.817-.031-.814 1.234 0 1.266 7.96.303 5.027 8.33 3.492 12.512-.697 1.9-.349 4.172-.147 6.109-.008-.074.956 3.57-.507 2.746-.866-.488-.918-.494-1.822-.654-.285-.051-.559.029-.715.291-1.715 2.879-1.144 1.113-2.626-.467a.633.633 0 00-.616-.162c-1.311.348-4.303 2.805-2.098-.914 1.097-1.85 2.357-3.189 3.14-5.232 1.56-4.074-2.924-12.254 2.067-14.25.749-.3.422-1.525-.336-1.22M308.256 37.794c-.206 2.234-.586 7.357 2.168 8.271 1.476.488 2.681-1.088 3.129-2.252.748-1.941.806-3.998 1.177-6.021.146-.797-1.072-1.139-1.22-.336-.259 1.412-.4 7.762-2.749 7.389-1.102-.176-1.206-2.832-1.267-3.602a20.475 20.475 0 01.027-3.449c.076-.813-1.191-.807-1.265 0M337.065 38.817c.091 1.299.137 2.592.323 3.883.147 1.014.451 2.752 1.622 3.109 1.292.393 2.56-1.016 2.968-2.094.713-1.881.557-4.035.235-5.984-.133-.803-1.352-.461-1.22.336.238 1.453.316 2.973.038 4.424-.087.449-1.169 2.85-1.825 1.912-1.011-1.443-.76-3.906-.875-5.586-.057-.81-1.321-.816-1.266 0"/>
  <path clip-path="url(#b)" fill="#262262" d="M301.382 73.708c-.476 5.582-.726 11.182-1.241 16.76-.537 5.799-1.876 11.313-1.545 17.164.247 4.373 1.608 8.656 2.82 12.832 1.848 6.369 2.288 13.098 2.736 19.682.722 10.594 1.478 20.939 5.669 30.832 3.616 8.533 12.825 13.432 15.631 22.377.214.684 1.226.555 1.243-.168.254-10.557 4.966-18.09 10.039-26.904 5.602-9.727 4.561-20.988 7.975-31.391 1.803-5.496 2.946-9.75 2.613-15.604-.339-5.938-1.356-11.639-1.16-17.613.33-9.998 1.942-20.656-3.1-29.807-.394-.715-1.487-.076-1.093.641 5.364 9.734 3.05 21.533 2.849 32.135-.102 5.488 1.025 10.9 1.336 16.369.42 7.363-3.121 13.514-4.455 20.563-1.066 5.641-1.372 11.344-2.895 16.908-1.088 3.975-3.345 7.561-5.48 11.039-4.602 7.496-7.681 14.738-7.895 23.664.414-.055.829-.111 1.243-.168-2.386-7.607-9.247-12.629-13.691-18.973-6.999-9.99-6.893-24.053-7.687-35.715-.335-4.914-.868-9.785-1.805-14.623-1.052-5.432-3.069-10.533-3.63-16.076-.518-5.137.708-10.236 1.346-15.305.775-6.174.915-12.424 1.441-18.619.071-.814-1.197-.809-1.264 0"/>
  <path clip-path="url(#b)" fill="#262262" d="M319.229 52.761c-13.986 2.66-25.666 17.049-26.116 31.154-.022.715 1.073.861 1.243.168 1.611-6.559 9.638-11.387 15.152-14.549 5.015-2.875 13.328-4.436 16.68-9.432l-1.157-.152c1.633 4.758 7.399 6.828 11.545 8.814 7.741 3.709 14.97 10.236 17.313 18.693.156.564 1.12.646 1.22 0 1.539-9.91-1.835-18.574-8.875-25.57-8.004-7.957-17.242-10.648-28.186-8.959-.805.123-.461 1.342.337 1.219 10.25-1.58 18.018.914 25.919 7.68 7.463 6.391 11.092 15.584 9.585 25.295h1.22c-1.937-6.994-6.72-11.857-12.36-16.164-4.718-3.604-14.409-5.258-16.497-11.344a.64.64 0 00-1.156-.15c-2.182 3.252-7.875 4.898-11.248 6.48a67.031 67.031 0 00-10.334 5.986c-4.172 2.941-9.098 6.609-10.377 11.816.414.055.829.111 1.243.168.433-13.574 11.765-27.381 25.186-29.936.799-.151.459-1.37-.337-1.217"/>
  <path clip-path="url(#b)" fill="#262262" d="M322.79 53.837c-9.487 4.969-24.361 10.988-28.136 22.148-.262.773.96 1.104 1.22.336 3.636-10.75 18.352-16.572 27.556-21.393.722-.378.083-1.47-.64-1.091"/>
  <path clip-path="url(#b)" fill="#262262" d="M322.563 54.231c-2.497 4.191-5.161 6.947-9.603 9.076-2.942 1.408-5.986 2.48-8.863 4.027-4.184 2.246-8.413 5.424-10.119 10-.286.766.939 1.094 1.221.336 2.335-6.266 9.565-9.504 15.305-11.932 6.343-2.682 9.679-5.039 13.152-10.869.419-.702-.676-1.339-1.093-.638"/>
  <path clip-path="url(#b)" fill="#262262" d="M324.012 54.999c5.491 5.229 15.37 7.957 17.557 15.92.216.787 1.438.453 1.222-.336-2.29-8.334-12.189-11.057-17.883-16.48-.592-.561-1.487.332-.896.896"/>
  <path clip-path="url(#b)" fill="#262262" d="M323.575 54.196c2.865 3.711 8.646 4.146 12.609 6.252 7.718 4.098 12.262 11.199 14.497 19.416.214.787 1.435.453 1.22-.336-1.602-5.896-4.116-10.9-8.452-15.254-2.334-2.342-5.166-4.145-8.066-5.686-3.261-1.73-8.369-1.994-10.713-5.031-.492-.636-1.593-.007-1.095.639"/>
  <path clip-path="url(#b)" fill="#EC008C" d="M229.589 116.589c-7.443-8.652-18.238-6.785-26.769-.469-4.172 3.088-13.777 15.975-3.881 18.881 9.078 2.664 17.933-3.08 24.64-8.057 3.561-2.645 13.269-11.094 6.422-15.34-8.623-5.35-17.812 1.584-21.914 8.723-3.997 6.957.346 14.777 9.185 13.928 7.903-.758 17.939-7.773 20.814-14.66 2.221-5.322-2.473-9.76-7.585-5.584-3.758 3.072-9.101 14.459-2.905 17.762 7.281 3.879 14.841-3.035 17.423-8.996 2.963-6.844-4.875-7.482-9.004-3.775-3.216 2.887-6.845 13.996 1.219 13.777 7.098-.193 14.113-6.949 17.409-12.277 2.555-4.135-2.272-5.971-4.94-2.383-3.654 4.914-5.46 15.676 3.884 15.686 6.887.008 13.095-8.902 10.182-14.523-.492-.949-2.014-.121-1.524.824 4.135 7.979-12.771 17.506-13.881 7.178-.271-2.525.878-5.193 2.137-7.365 2.919-2.053 3.792-2.133 2.617-.24-.55 1.07-1.436 2.08-2.215 2.992-2.544 2.975-5.813 5.502-9.374 7.354-4.167 2.166-8.344.391-7.394-4.656.587-3.113 3.496-6.342 6.666-7.443 5.694-1.975 1.165 6.924.832 7.416-1.84 2.721-4.828 4.807-8.092 5.803-9.899 3.02-6.071-9.883-3.897-13.447.918-1.508 5.368-6.875 7.346-2 .791 1.949-1.099 4.432-2.174 5.934-2.877 4.02-7.481 7.084-12.029 9.277-5.313 2.561-13.498 3.061-14.534-4.242-.747-5.268 4.542-10.551 8.747-13.332 3.826-2.533 14.985-3.336 13.256 3.584-1.057 4.234-6.425 7.852-9.922 10.324a54.465 54.465 0 01-9.526 5.369c-2.357 1.033-4.844 1.242-7.431 1.387-6.32.354-7.493-5.871-5.406-9.943 5.404-10.543 21.597-16.508 30.369-6.309.709.82 1.949-.344 1.249-1.158M168.98 120.702c10.061-8.91 10.344 4.557 6.796 10.83-5.569 9.848-21.446 2.629-19.989-7.186 1.069-7.189 10.773-12.764 18.107-12.57 5.092.135 6.789 4.439 6.838 8.486.106 8.584-5.422 16.949-13.194 21.354-11.529 6.533-19.176-5.822-16.623-14.873 1.067-3.783 12.611-12.049 14.991-5.137 2.14 6.219-5.243 15.717-10.63 18.65-5.424 2.953-8.963-3.824-8.293-7.994.599-3.729 3.521-7.305 6.813-9.365 5.333-3.34 7.724 1.84 6.12 5.17-.964 2.002-2.768 3.646-4.413 5.18-3.48 3.246-7.573 6.02-12.899 3.852L140 130.564c.537-4.008 3.156-4.951 7.855-2.826-.454 3.072-3.169 5.602-5.404 7.672-14.014 12.988-27.686-9.211-16.298-13.34 1.21.822 2.419 1.643 3.629 2.461-.737 2.078-2.253 3.4-4.553 3.967-3.879 1.334-5.272-2.777-5.888-4.887-1.953-6.689 2.998-15.98 12.461-11.934 1.025.439 1.922-.967.89-1.408-10.539-4.508-16.741 5.043-15.052 13.775 1.5 7.752 10.896 7.848 13.843.92.801-1.885-.302-4.611-2.766-4.693-4.21-.139-6.961 1.771-8.114 5.475-2.88 9.26 6.578 16.547 15.772 14.785 5.1-.979 10.999-6.088 12.578-10.629.669-1.92 1.96-7.652-2.061-7.875-8.369-.457-13.078 15.309-3.549 17.143 8.232 1.586 18.303-6.201 19.193-13.854.298-2.566-2.97-5.016-5.552-4.857-4.859.295-7.94 3.725-10.165 7.447-2.768 4.635-2.055 13.637 4.961 14.688 5.609.84 10.36-5.674 12.701-9.412 2.365-3.779 5.355-10.254 1.857-14.184-4.613-5.178-14.428 1.945-16.534 5.865-3.683 6.855.107 19.072 9.497 19.842 12.954 1.063 21.379-11.535 22.992-21.965 2.448-15.828-15.396-14.289-24.091-5.922-4.263 4.102-6.008 10.486-1.899 15.246 4.531 5.246 12.363 8.566 18.385 3.518 4.432-3.713 6.218-10.908 4.812-16.154-1.716-6.406-8.451-2.816-11.769.121-.823.727.427 1.88 1.249 1.153"/>
  <path clip-path="url(#b)" fill="#414042" d="M156.814 91.192c-1.232 1.018-3.326 3.025-1.989 4.668.977 1.203 2.951 1.141 4.291.557 3.81-1.656 2.771-8.244-1.908-6.359-1.889.76-3.33 2.457-3.014 4.418.34 2.115 3.031 2.93 4.904 2.156 1.915-.789 2.873-3.064 2.554-4.873-.342-1.934-3.003-3.051-4.86-2.285-3.414 1.406-3.224 7.723.533 8.621 4.792 1.146 5.642-5.383 3.269-7.832-1.565-1.615-3.927-.723-5.351.537-1.617 1.43-1.654 3.732-.333 5.328 1.11 1.342 3.222 2.119 4.799.955 1.727-1.275 2.189-4.152 1.324-5.963-.689-1.445-2.597-1.285-3.851-.703-1.422.662-2.553 2.074-2.616 3.559-.069 1.611 1.766 2.988 3.416 2.943 1.742-.049 2.714-1.777 2.998-3.158.281-1.367.019-3.061-1.565-3.596-1.625-.547-3.818 1.117-4.025 2.561-.204 1.42 1.141 2.512 2.568 2.639 2.334.205 2.371-2.58 2.095-3.975-.069-.354-.485-.6-.85-.6-3.383.002-3.308 5.287-.352 4.332 1.439-.463 1.932-2.055.892-3.082-1.421-1.404-2.686.521-2.834 1.689-.132 1.045 1.634 1.031 1.765 0 .159-1.264.008-.18-.107-.451a.504.504 0 01-.352.334c.158.066.194.021.106-.131-.064-.555.256-1.059.882-1.059-.284-.199-.567-.398-.851-.6.071.361.426 2.057-.463 1.896-.663-.119-.956-.746-.525-1.229.358-.404 1.427-1.156 1.821-.477.358.617.087 1.656-.189 2.252-.809 1.75-3.137.725-2.518-.914.288-.768 2.561-2.703 3.087-1.256.676 1.85-.89 5.311-3.116 3.205-.72-.68-.942-1.748-.521-2.615.411-.848 1.851-2.045 2.948-1.594 1.726.713 1.691 3.697.641 4.848-.591.645-1.727.82-2.433.252-.774-.625-.912-1.762-.903-2.648.011-.961.389-2.299 1.492-2.641 1.537-.477 2.5 1.037 2.23 2.23-.236 1.043-1.319 2.418-2.629 2.205-1.74-.287-1.55-2.021-.654-2.947.566-.584 2.251-1.635 2.926-.666.664.947.141 2.418-.787 3.016-.652.42-1.676.643-2.401.262-.944-.496 1.398-2.402 1.705-2.656.851-.699-.402-1.85-1.249-1.153"/>
  <path clip-path="url(#b)" fill="#414042" d="M155.931 92.448c-1.853 1.576-1.68 4.656 1.154 4.984.745.086 1.197-.967.624-1.395-1.151-.857-1.198-1.916-.656-3.123.251-.557-.495-1.213-1.085-1.004-2.073.734-2.579 2.719-1.256 4.342 1.317 1.611 3.633 2.061 5.291.613.828-.723-.421-1.875-1.249-1.154-1.675 1.461-4.252-1.541-2.317-2.227-.361-.334-.724-.668-1.085-1.004-.76 1.693-.48 3.525 1.108 4.713.208-.465.416-.932.625-1.395-1.241-.143-.436-1.748.095-2.197.839-.713-.412-1.864-1.249-1.153"/>
  <path clip-path="url(#b)" fill="#414042" d="M155.617 91.96c-.758 1.217-1.056 2.172-.794 3.566.135.721 1.256.766 1.613.195.553-.887.728-1.51.649-2.533-.051-.662-.953-1.145-1.507-.578-2.166 2.219-.829 5.785 2.624 5.283.727-.107.889-1.221.21-1.492-.701-.283-1.417-.535-2.117-.816-.641-.258-1.571.166-1.296.922.533 1.453 1.621 1.854 3.203 1.549.831-.16.858-1.434 0-1.574-6.185-1.014-2.938-9.586 1.649-10.643 3.069-.705 4.312 1.57 3.947 4.029-.323 2.188-1.701 4.318-3.806 5.391-.996.508-.108 1.916.891 1.408 3.011-1.531 4.663-4.697 4.759-7.805.095-3.047-2.409-5.225-5.704-4.688-6.573 1.074-10.459 12.527-2.205 13.881v-1.574c-.345-.135-.688-.273-1.033-.408l-1.295.92c.701.283 1.417.535 2.117.818l.211-1.492c-2.098.305-1.538-1.908-.906-2.555-.503-.191-1.005-.385-1.506-.576l-.41 1.709c.538.064 1.075.131 1.613.195.205-.77.411-1.539.618-2.309.569-.913-.957-1.735-1.525-.823M215.919 91.794c-1.103.879-3.194 2.48-2.612 4.078.46 1.264 2.16 1.242 3.316 1.063 3.329-.52 6.419-3.605 4.421-6.711-2.284-3.551-6.858 1.131-7.335 3.537-.347 1.754.822 3.068 2.672 3.354 1.852.287 3.476-.662 4.211-2.221.671-1.424.682-3.213-.222-4.555-1.053-1.559-3.022-1.463-4.616-.754-1.882.836-3.451 2.734-2.72 4.715.579 1.57 2.398 2.559 4.135 2.557 3.902-.004 5.467-6.891 1.219-7.363-3.433-.383-7.201 3.332-5.207 6.348 2.72 4.113 7.677-.418 7.886-3.666.131-2.063-1.727-3.146-3.704-3.352-1.765-.184-3.166.889-3.68 2.383-.899 2.611 1.18 6.887 4.644 5.326 2.03-.914 2.998-3.553 1.921-5.41-1.315-2.273-4.076-1.715-5.648-.041-1.437 1.529-2.032 4.59.747 5.168 2.216.461 4.13-2.109 3.945-3.922-.23-2.246-3.042-2.441-4.432-1.002-1.54 1.596-.355 3.949 2.011 3.734 2.319-.211 2.13-3.164.379-3.975-.897-.416-1.933-.129-2.209.793-.16.537.14 1.918.582 2.328 1.295 1.197 4.132-1.154 2.414-2.268-1.776-1.152-3.723-.121-2.916 1.857.995 2.443 3.691.373 3.228-1.596-.7-2.973-4.782-.893-4.925 1.318-.183 2.811 4.219 3.449 6.273 2.371 2.394-1.258 3.272-4.938.257-5.938-.67-.223-1.222.443-1.085 1.004.442 1.836-.043 5.986-2.973 4.873l-.469 1.574c2.555.52 5.305-.822 5.672-3.346l-1.733-.217c-.063.865-.602 1.561-1.588 1.633-1.126.084-1.134 1.717 0 1.633 1.985-.146 3.22-1.455 3.353-3.266.066-.91-1.601-1.131-1.733-.217-.236 1.613-1.786 2.553-3.502 2.205-1.139-.23-1.5 1.182-.469 1.574 4.449 1.689 5.858-3.92 5.143-6.881l-1.085 1.004c1.544.512.149 2.416-.678 2.955-.781.506-3.485.467-3.634-.73-.123-.975 2.105-2.117 1.376-.605-.154.318.355.328.34.305-.095-.127-.138-.268-.184-.414-.174-.541.126.094-.142.033.51.316.58.207.21-.33a.963.963 0 01-.34.158c.448-.135.773.896.589.158-.044-.176-.129-.352-.186-.525-.16-.479-.221.045-.065.26.122.166.121.41.031.586-.194.377-1.082-.168-.82-.691.206-.414.848-.967 1.336-.592.929.719-.617 2.479-1.485 2.566-.938.094-.725-1.014-.569-1.479.246-.734.914-1.381 1.595-1.785 1.58-.938 2.196 1.08 1.957 2.152-.157.707-1.103 1.844-2.032 1.721-1.376-.184-1.663-2.322-1.485-3.295.299-1.643 2.759-2.195 3.793-.721 1.034 1.479-.977 3.955-2.44 4.457-.98.336-1.746-.297-2.174-1.064-.408-.73.067-1.602.579-2.158.683-.738 3.058-2.217 3.89-.93.51.789.046 2.195-.399 2.908-.502.807-1.506.861-2.362.604-.766-.23-1.37-.854-1.566-1.563-.312-1.129 1.145-2.07 2.024-2.512 3.906-1.969 3.261 6.563-.871 4.211-1.461-.832.874-3.359 1.566-3.92.433-.35 1.229-.824 1.823-.553.75.338.87 1.477.696 2.129-.391 1.473-2.477 2.389-3.965 2.531-.315.029-.914-.08-.922-.025.148-.963 1.472-1.842 2.197-2.42.863-.684-.39-1.833-1.249-1.151"/>
  <path clip-path="url(#b)" fill="#414042" d="M214.698 94.407c-4.568-3.473 2.783-10.721 7.337-9.871 6.723 1.256.943 10.74-3.727 11.1-1.125.088-1.134 1.721 0 1.633 6.768-.521 12.468-11.182 4.645-14.172-6.287-2.404-15.428 7.957-9.504 12.465.873.662 2.129-.487 1.249-1.155M188.61 67.147c-4.509 8.014-2.862 17.918-4.139 26.652-1.348 9.201-2.221 18.43-2.195 27.725.014 4.568.252 14.033 5.725 16.242 3.64 1.471 5.624-5.355 6.215-7.277 2.586-8.383 1.529-18.23 2.102-26.881.454-6.85 1.253-13.709 1.489-20.568.16-4.672.08-10.006-2.586-14.135-1.102-1.707-4.612-3.645-6.473-1.924-.805.746.442 1.9 1.249 1.154 3.585-3.316 5.851 8.564 5.95 9.678.338 3.775.04 7.611-.275 11.379-.923 11.023-1.695 22.051-2.154 33.102-.111 2.664-.35 5.152-1.003 7.764-1.247 4.984-4.775 7.295-7.232.949-2.326-6.004-1.262-13.594-.892-19.834.386-6.504 1.253-12.881 2.132-19.342 1.068-7.85-.435-16.668 3.612-23.859.523-.934-.999-1.758-1.525-.825"/>
  <path clip-path="url(#b)" fill="#FFF200" d="M51.818 130.31c7.119 6.902 18.801 14.451 28.758 9.098.626-.336.196-1.35-.482-1.143-12.222 3.707-24.205-1.832-29.793-13.213-.361.209-.72.42-1.081.631 4.062 8.18 37.84 24.166 35.143 6.52-.059-.385-.611-.59-.918-.375-11.92 8.385-25.666 4.33-35.742-4.902-.593-.543-1.457.313-.885.885 11.374 11.377 34.654 14.234 43.983-1.127-.361-.211-.72-.422-1.081-.631-7.777 16.27-27.934 7.271-38.644-.725l-.631 1.08c9.956 7.215 31.111 10.977 39.758-.098.48-.617-.302-1.475-.885-.885-12.55 12.711-29.332 3.438-43.892.34-.365-.078-.633.107-.768.438-5.459 13.305-23.595 13.779-34.582 7.625l-.482 1.143c7.416 1.904 15.717 1.232 23.136-.275 6.186-1.258 14.201-4.166 15.155-11.326.07-.525-.569-.705-.94-.541-6.756 3.018-11.363 9.15-17.679 12.879-8.033 4.744-20.13 3.639-28.19-.379l-.316 1.166c12.262 1.16 40.353 6.609 43.103-11.459.079-.52-.4-1.004-.918-.707-5.216 2.994-10.381 6.352-16.197 8.051-6.438 1.883-13.197-.025-19.322-2.113-.667-.227-1.123.838-.481 1.143 11.524 5.449 25.76.236 35.631-6.5.661-.451.037-1.535-.631-1.08-9.449 6.451-23.29 11.74-34.369 6.5l-.482 1.143c6.194 2.111 12.401 3.637 18.926 2.373 6.316-1.223 12.086-5.299 17.556-8.436a281.54 281.54 0 00-.918-.705c-2.613 17.17-30.102 11.656-41.898 10.541-.618-.061-.857.893-.315 1.164 7.018 3.498 15.213 4.191 22.863 2.768 9.106-1.695 14.48-9.518 21.96-14.137 2.757-1.701-.05 2.008-.589 2.66-1.046 1.264-2.503 2.141-3.916 2.934-3.185 1.787-6.925 2.617-10.484 3.264-6.484 1.18-13.916 1.521-20.353-.131-.679-.176-1.109.789-.481 1.143 10.777 6.037 27.261 5.943 34.816-5.107 1.283-1.877.924-2.84 3.582-2.215 2.357.555 4.682 1.264 7.004 1.949 4.668 1.373 9.316 2.732 14.133 3.475 8.125 1.254 15.427-.83 21.223-6.699l-.885-.885c-8.281 10.609-28.704 6.816-38.242-.098-.657-.477-1.266.605-.631 1.08 11.292 8.428 32.264 17.197 40.356.275.343-.721-.657-1.328-1.081-.631-8.907 14.668-31.231 11.662-42.017.873l-.885.885c6.066 5.557 13.204 9.416 21.504 10.035 3.387.252 7.189-.408 10.278-1.799 1.03-.465 4.73-3.338 4.718-1.361-.011 1.627-.904 2.865-2.264 3.641-4.869 2.775-13.221-1.061-17.671-3.109-4.688-2.158-10.688-5.34-13.082-10.164-.36-.723-1.434-.09-1.081.631 5.827 11.863 18.486 17.646 31.206 13.787l-.481-1.143c-9.388 5.049-20.577-2.439-27.242-8.902-.579-.565-1.464.318-.885.881"/>
  <path clip-path="url(#b)" fill="#FFF200" d="M42.547 149.146c-2.336 4.104-4.639 8.111-8.607 10.869.253.326.505.654.758.982 4.571-5.688 9.29-11.168 8.937-18.877-.409.055-.819.109-1.228.166 1.163 6.027-1.595 12.512-6.178 16.449l.982.758c3.375-5.682 5.051-11.189 3.655-17.779-.144-.684-1.293-.539-1.227.166.714 7.732-1.525 15.1-7.074 20.645l.885.887c2.598-2.834 4.374-5.949 5.859-9.484.991-2.359 1.778-4.807 2.687-7.199a27.658 27.658 0 011.56-3.525c1.346 1.158 1.366 2.984 1.132 4.551-.96 6.42-8.162 13.396-13.495 16.645.209.361.42.721.63 1.08 5.483-4.078 11.748-7.227 15.014-13.514.948-1.824 2.888-9.42 3.386-4.234.341 3.549-1.814 7.016-3.891 9.678-3.756 4.814-9.453 8.506-15.276 10.234-1.101.326-2.241.469-3.382.537-1.096.16-1.097-.068-.003-.689a152.386 152.386 0 012.132-3.027c2.844-3.992 5.771-7.896 8.33-12.084l-1.143-.48c-1.146 6.705-5.064 12.355-10.794 15.988l.758.984c4.399-3.566 8.777-7.109 12.301-11.576 1.459-1.85 2.551-3.904 3.473-6.063 1.255-2.938.201-8.965 6.039-6.031l.481-1.143c-3.36-1.189-6.635-2.598-9.984-3.816l-.332 1.205c3.805.871 7.535 1.811 11.149 3.311l.332-1.205c-3.114-.559-5.732-2.014-8.503-3.451-.715-.369-1.346.709-.631 1.08 2.892 1.498 5.574 2.996 8.802 3.576.807.145 1.069-.9.332-1.205-3.614-1.5-7.344-2.438-11.149-3.311-.794-.184-1.083.932-.332 1.205 3.348 1.221 6.623 2.627 9.984 3.816.669.236 1.112-.826.481-1.143-2.06-1.035-3.617-1.219-5.889-.91-.285.039-.44.354-.459.604-.85 11.021-8.975 17.684-16.98 24.17-.555.451.166 1.357.758.982 5.982-3.793 10.169-9.723 11.368-16.736.117-.678-.754-1.117-1.142-.482-3.522 5.766-7.734 11.049-11.497 16.652-.288.432.106.898.54.941 11.389 1.135 29.626-13.186 24.359-25.578-.198-.467-.849-.346-1.08 0-2.386 3.576-3.229 7.834-5.985 11.207-3.228 3.953-8.151 6.418-12.197 9.428-.63.471-.075 1.51.63 1.08 5.652-3.441 19.969-16.836 11.96-23.725-.285-.244-.793-.258-.982.127-3.419 6.977-4.844 14.768-10.236 20.645-.541.594.312 1.457.885.887 5.756-5.754 8.181-13.488 7.439-21.531l-1.228.166c1.316 6.211-.352 11.467-3.53 16.816-.379.639.461 1.205.982.758 4.94-4.244 7.745-11.215 6.499-17.666-.133-.697-1.259-.535-1.227.166.34 7.393-4.207 12.563-8.571 17.992-.411.51.127 1.42.757.982 4.159-2.889 6.59-6.988 9.056-11.318.399-.704-.681-1.335-1.08-.633"/>
  <path clip-path="url(#b)" fill="#414042" d="M36.543 99.087c.22-.086.611-.387.834-.332-.153-.201-.306-.4-.459-.604-.012.348-.152.6-.459.764-.205.111-.289.066-.325-.074-.058-.223.124-.508.329-.586.143-.055.16-.039.241-.016-.12-.035-.089-.162-.135.012-.028.107-.093.201-.148.293.01-.018-.213.291-.05.096.173-.207.495-.145.679.002-.092-.074.083.129.008.014-.102-.156-.024-.014-.075-.17a2.526 2.526 0 01-.095-.422 2.988 2.988 0 01.018-.58c.04-.182.021-.107.094-.219-.033.053.018.033-.028.037.201-.016.717.215.879.451-.006-.008-.103.146-.181.223-.184.176-.446.273-.685.344a1.388 1.388 0 01-.502.031c.12.008-.038-.014-.055-.02.122.033-.002-.033.111.07.128.117.147.273.117.428.022-.115-.073.137-.007.027-.028.047.046-.049.155-.141-.085.07.153-.102.201-.131a3.07 3.07 0 01.326-.172c.087-.041.451-.135.487-.137.167-.006-.046-.035-.009-.012a.36.36 0 01-.168-.201c-.046-.141-.006-.061-.01.014.006-.113-.06.16-.09.223-.092.197-.212.482-.391.613-.175.129-.325-.08-.407-.223-.166-.289.058-.611.255-.811-.001 0 .068.01-.04-.01.075.014.065.018.137.082.181.168.263.41.311.652.076.381-.381.59-.731.307-.415-.336-.374-.896.202-.967.789-.096.799-1.348 0-1.25-.959.117-1.774.697-1.732 1.748.033.877.725 1.672 1.59 1.811.948.152 1.829-.438 1.912-1.416.068-.777-.335-1.559-.963-2.002-.808-.568-1.675.088-2.051.82-.463.898-.025 2.135.952 2.469 1.082.369 1.823-.605 2.17-1.5.244-.627.119-1.301-.564-1.549-.915-.334-2.388.557-2.731 1.391-.299.727.538 1.098 1.094 1.141.922.07 2.169-.52 2.475-1.445.353-1.066-.761-1.873-1.687-2.07-.756-.16-1.354.244-1.608.943-.299.826-.006 3.203 1.35 2.623.374-.162.624-.82.716-1.168.13-.492-.032-1.006-.447-1.301-.789-.563-1.909.004-2.285.789-.477.996.017 2.139 1.155 2.229 1.133.088 1.911-1.045 1.945-2.055a.624.624 0 00-.459-.602c-.628-.154-.946.117-1.498.332-.742.293-.42 1.502.332 1.207M63.44 99.317a.688.688 0 00.339.496.595.595 0 00.315.086c.191-.008.303.066.064-.027l-.373-.287-.034-.1.183-.441c-.472.506-.919.43-1.175-.232-.058-.15-.093-.617-.121-.445-.019.121-.192.229-.282.262-.057.018-.157 0-.087.02.051.014.354.209.487.324.238.209.41.406.553.658.003.006.065.229.055.115.004.041.142-.189.085-.156.044-.025-.177.012-.292.01-.254-.004-.548-.035-.777-.152-.225-.115-.038-.35.09-.473.327-.314.864.072 1.095.307.193.197-.343.379-.448.404-.364.09-.692-.26-.685-.602.008-.428.948-.678 1.221-.434.208.188.083.598-.067.783-.267.336-.692.512-1.114.512-.377-.002-.501-.313-.498-.643.003-.375.42-.555.723-.619.273-.057.544.074.728.262.19.193.209.604.189.693.011-.049.074-.133.214-.182.063-.023.2.021.052-.02-.029-.008-.004.008-.137-.068-.06-.033-.255-.176-.227-.152-.352-.283-.588-.531-.757-.871.035.086.04.098.02.037-.031-.092-.01.164-.013.186-.031.199-.253.346-.437.357.132-.008-.15-.035.016.004.314.076.607.27.882.43l-.224-.854c-.07.105-.139.213-.209.32.152-.23-.136.057-.233.119l.918.375c.062.281-.24.289-.27.291.803-.033.807-1.283 0-1.25-.726.029-1.084.609-.935 1.291.084.383.591.588.918.373.394-.258.632-.496.891-.891.186-.285.058-.689-.225-.855-.584-.34-1.445-.898-2.085-.395-.479.379-.153 1.064.131 1.443.483.641 2.239 2.254 2.837.84.374-.885-.069-1.877-.804-2.416-.799-.584-1.969-.328-2.654.291-.768.693-.72 2.016.014 2.709.743.697 1.952.488 2.721-.037.863-.59 1.235-1.664.766-2.623-.393-.805-1.47-.908-2.221-.652-.839.289-1.509 1.059-1.354 1.984.185 1.107 1.306 1.695 2.346 1.441.992-.24 1.629-1.334 1.065-2.25-.562-.91-1.94-1.303-2.833-.684-.79.549-1.03 1.658-.329 2.377.576.592 1.952.748 2.668.334 1.531-.885-.851-3.65-2.134-3.209-1.351.465-.185 2.514.533 2.998.718.484 1.584.158 2.162-.363.346-.311.389-.711.177-1.113-.091-.174-.257-.24-.427-.309-.045-.018-.479.01-.343.004.148.063.295.121.443.184l.108.152c-.127-.792-1.332-.454-1.205.333"/>
  <path clip-path="url(#b)" fill="#414042" d="M26.75 91.3c2.962-4.066 8.777-3.832 13.179-2.99 3.155.602 6.258 3.268 6.339 6.752.047 2.082-.566 4.461-.727 6.559-.222 2.896-.401 5.598-2.997 7.588-1.117.857-3.163 1.15-4.51 1.572-1.9.594-4.448 1.514-5.593 3.268-6.317 9.684 12.205 9.418 16.935 7.873.763-.248.436-1.455-.332-1.205-2.739.895-5.616 1.145-8.484 1.102-4.574-.066-12.405-4.283-4.957-8.705 2.716-1.611 5.95-1.582 8.493-3.531 2-1.533 2.336-4.438 2.595-6.74.762-6.771 2.074-12.563-5.482-15.502-4.901-1.908-12.328-1.078-15.539 3.33-.475.652.61 1.275 1.08.629M57.192 90.358c5.219-3.975 12.96-5.055 17.31.775.477.639 1.563.016 1.081-.629-4.729-6.338-13.167-5.684-19.022-1.227-.632.484-.011 1.57.631 1.081"/>
  <g>
    <defs>
      <path id="c" d="M-75.271-168.105h398.443v336.211H-75.271z"/>
    </defs>
  </g>
</svg>
