<svg xmlns="http://www.w3.org/2000/svg" xmlns:xlink="http://www.w3.org/1999/xlink" width="161.992" height="312.026">
  <path fill="none" d="M153.51-5.67h790.172v619.966H153.51z"/>
  <defs>
    <path id="a" d="M41.586 34.318h76.344v228.407H41.586z"/>
  </defs>
  <clipPath id="b">
    <use xlink:href="#a" overflow="visible"/>
  </clipPath>
  <path clip-path="url(#b)" fill="#00AEEF" d="M54.063 253.92c-.732 2.128-.814 5.424-3.613 5.555-3.28.153-3.374-4.812-2.204-6.749 1.388-2.298 6.275-.417 5.196 2.151-1.782 4.242-7.054-.333-5.542-3.56 1.002-2.14 4.596-2.918 5.075-.14.315 1.831-.023 4.815-1.713 5.956-1.371.925-4.366-2.826-3.707-4.063.563-1.056 3.649-1.051 4.151-.328.029.041-3.485 4.396-4.012 1.297-.414-2.437 1.002-4.339 3.499-3.559 1.999.625 2.715-2.543.73-3.163-3.128-.977-6.121.437-7.144 3.597-.799 2.468-.428 5.663 1.964 7.103 4.535 2.726 12.142-6.462 5.189-8.716-2.186-.709-4.858-.127-6.564 1.363-2.442 2.135-.605 5.446 1.021 7.363 1.702 2.005 4.351 3.372 6.784 1.73 2.089-1.409 2.94-4.274 3.103-6.656.166-2.446-.437-4.98-2.566-6.409-2.526-1.696-6.601.285-8.2 2.377-2.273 2.975-.814 7.109 1.791 9.332 3.054 2.607 6.737 1.456 8.821-1.655 1.839-2.745-.066-5.993-2.526-7.471-2.927-1.756-6.302-.729-8.206 1.905-2.42 3.351-1.055 9.686 2.989 11.15 1.877.681 4.424.545 5.925-.929 1.673-1.641 2.056-4.018 2.722-6.172l.2-.581c.68-1.976-2.489-2.686-3.163-.728"/>
  <path clip-path="url(#b)" fill="#2B3990" d="M44.946 248.108c-2.038 2.514-4.112 5.82-3.092 9.187.74 2.443 3.235 3.812 5.609 4.183 2.529.395 5.242-.251 7.137-2.009 2.324-2.158 2.071-5.569 1.017-8.276-.378-.969-1.931-.495-1.55.483.848 2.176 1.209 4.674-.499 6.528-1.346 1.461-3.615 1.918-5.519 1.721-1.853-.192-3.834-1.097-4.574-2.914-1.106-2.716 1.04-5.8 2.652-7.789.656-.81-.522-1.928-1.181-1.114"/>
  <path clip-path="url(#b)" fill="#00AEEF" d="M75.419 39.647c.736 14.064-4.062 27.679-2.852 41.785.707 8.24 3.82 20.271 13.987 20.82 10.288.556 16.429-9.43 19.465-17.92 2.518-7.043 3.478-14.619 5.047-21.905 1.009-4.68.602-11.476 3.966-15.236l-2.803-1.045c.805 5.626-1.279 11.417-2.334 16.892-1.42 7.358-3.333 14.448-6.569 21.239-5.244 11.004-13.411 19.594-25.606 22.313-1.814.405-1.262 3.296.551 3.172 5.68-.39 10.587-3.134 14.616-7.052a3340.6 3340.6 0 01-2.609-1.887c-1.196 1.693-2.787 3.165-4.25 4.621a80.878 80.878 0 01-2.44 2.32c-.863.791-1.872.934-.568 1.154-2.054-.347-2.796 2.814-.73 3.163 1.752.295 3.468-1.902 4.588-2.95 2.228-2.081 4.492-4.266 6.256-6.763 1.106-1.566-1.353-3.107-2.609-1.887-3.416 3.322-7.568 5.704-12.391 6.035l.552 3.172c12.376-2.76 20.933-11.249 26.676-22.224 3.751-7.169 6.108-15.01 7.563-22.946 1.099-5.995 3.429-12.351 2.549-18.51-.187-1.304-1.787-2.181-2.804-1.044-2.665 2.978-3.241 7.367-3.86 11.164-.854 5.248-1.94 10.436-2.959 15.656-1.851 9.481-4.995 23.778-15.822 26.968-11.864 3.493-14.063-13.498-14.494-21.233-.711-12.763 3.797-25.209 3.129-38.01-.109-2.086-3.354-1.957-3.245.138"/>
  <path clip-path="url(#b)" fill="#00AEEF" d="M82.439 106.346c-11.7 3.207-14.304-12.927-14.782-21.107-.371-6.348.708-12.681 1.925-18.888a110.733 110.733 0 018.57-26.073c.894-1.888-1.96-3.437-2.856-1.545-4.412 9.322-7.45 19.152-9.336 29.285-1.29 6.938-2.015 13.818-1.257 20.849 1.086 10.069 5.943 24.076 18.702 20.58 2.019-.555 1.053-3.654-.966-3.101"/>
  <path clip-path="url(#b)" fill="#00AEEF" d="M86.203 107.427c7.45-1.667 14.593-5.205 19.159-11.52a29.979 29.979 0 005.062-11.552c1.115-5.407.48-11.039 1.065-16.504.219-2.054-2.941-2.808-3.163-.729-.932 8.713.211 17.152-4.357 25.063-3.957 6.854-11.276 10.475-18.732 12.143-2.041.457-1.066 3.553.966 3.099"/>
  <path clip-path="url(#b)" fill="#00AEEF" d="M109.153 64.982c-.387 3.353-.313 6.771-1.315 10.023-.616 2.002 2.551 2.718 3.163.73 1.004-3.259.927-6.666 1.315-10.024.238-2.054-2.922-2.807-3.163-.729M100.502 42.837c1.81 8.315-.954 16.88-3.147 24.853-2.608 9.485-4.273 19.138-8.269 28.194-.756 1.714 1.222 3.126 2.609 1.886 4.978-4.451 10.387-9.75 12.876-16.081.763-1.942-1.668-3.295-2.856-1.545-1.929 2.841-4.401 5.334-6.522 8.033-1.539 1.958-4.049 4.772-3.722 7.479.096.795.768 1.701 1.691 1.553 4.247-.686 4.957-4.323 6.907-7.564 1.105-1.836-1.682-3.201-2.856-1.545-1.777 2.511-3.755 4.887-6.646 6.132-1.901.819-.96 3.93.965 3.101 3.753-1.617 6.213-4.406 8.537-7.688L97.213 88.1c-1.056 1.754-1.82 5.484-4.188 5.865l1.691 1.554c-.274-2.254 3.005-5.349 4.287-6.921 1.866-2.289 3.906-4.461 5.568-6.908l-2.856-1.545c-2.394 6.092-7.587 11.11-12.382 15.399l2.609 1.886c4.115-9.327 5.906-19.232 8.576-29.009 2.357-8.628 5.037-17.573 3.083-26.549-.445-2.044-3.542-1.068-3.099.965"/>
  <path clip-path="url(#b)" fill="#00AEEF" d="M74.513 80.077c6.751 6.401 10.253-11.004 11.033-14.521.769-3.471 1.435-6.971 2.125-10.458.535-2.707 1.147-5.396 1.957-8.036.443-1.443 1.551-5.574 3.466-5.835l-1.691-1.553c1.037 7.912-2.014 15.851-4.374 23.273-1.938 6.096-4.577 13.07-2.276 19.429 2.316 6.403 8.239 2.112 10.734-1.62 3.88-5.8 5.671-13.047 6.239-19.931.171-2.079-3.075-1.924-3.245.138-.478 5.806-2.074 11.716-4.928 16.807-1.105 1.971-4.475 7.028-5.936 2.99-.904-2.498-.523-5.34-.014-7.866 2.221-11.019 8.556-21.815 7.045-33.357-.106-.811-.758-1.68-1.691-1.554-3.95.536-5.425 5.074-6.492 8.35-1.298 3.983-1.941 8.15-2.809 12.24-.784 3.694-1.462 7.401-2.438 11.056-.319 1.197-2.645 9.825-4.478 8.086-1.523-1.445-3.744.921-2.227 2.362"/>
  <path clip-path="url(#b)" fill="#00AEEF" d="M89.643 44.154c-3.194 12.174-7.307 24.821-6.613 37.56.115 2.112 3.167 1.934 3.244-.137.092-2.475-.376-4.831-.826-7.251-.305-1.644-2.808-1.363-3.131.117-1.705 7.822-1.494 24.727 10.382 23.326 2.117-.251 1.922-3.075-.137-3.245-8.549-.705-13.006-8.202-10.805-16.212.482-1.754-2.244-2.811-3.009-1.139-4.272 9.342 1.858 26.345 14.244 22.493 1.997-.622 1.037-3.723-.966-3.1-9.395 2.922-13.523-11.069-10.422-17.848l-3.01-1.138c-2.817 10.255 3.549 19.315 14.105 20.188l-.137-3.245c-9.125 1.078-8.329-13.632-7.082-19.351l-3.131.118c.401 2.159.763 4.224.681 6.422l3.244-.137c-.678-12.432 3.413-24.809 6.532-36.693.532-2.025-2.633-2.75-3.163-.728"/>
  <path clip-path="url(#b)" fill="#00AEEF" d="M83.165 83.282c4.205 1.94 8.597 1.668 12.484-.878 1.782-1.167.123-3.673-1.72-2.752-3.75 1.871-7.23 3.672-11.496 3.913-1.868.105-2.045 2.71-.296 3.203 5.128 1.445 12.874.557 15.661-4.603 1.023-1.896-1.68-3.2-2.856-1.546-2.372 3.338-8.742 8.736-13.176 6.788-1.906-.837-3.46 2.015-1.546 2.855 6.391 2.807 14.049-3.134 17.578-8.098l-2.856-1.546c-2.067 3.827-8.401 4.021-12.075 2.986l-.296 3.203c4.841-.275 8.819-2.279 13.078-4.405l-1.72-2.752c-2.886 1.889-6.062 2.231-9.218.773-1.895-.873-3.446 1.981-1.546 2.859M77.674 101.295c3.835 2.375 8.1 3 12.119.703l-2.041-2.489c-1.378 1.202-2.924 1.827-4.751 1.802-1.572-.021-2.168 2.397-.705 3.05 3.091 1.378 6.152.341 8.62-1.773 1.593-1.363-.79-3.572-2.361-2.228-1.272 1.088-3.081 1.873-4.713 1.146l-.704 3.05c2.697.037 4.977-1.075 6.976-2.82 1.444-1.261-.508-3.364-2.041-2.488-3.027 1.729-6.045.933-8.853-.808-1.785-1.107-3.315 1.759-1.546 2.855"/>
  <path clip-path="url(#b)" fill="#00AEEF" d="M80.74 92.342c2.591 1.861 5.919 3.275 9.167 2.811 3.722-.53 5.254-3.71 5.539-7.129.173-2.078-3.072-1.924-3.245.138-.493 5.923-6.712 3.626-9.915 1.324-1.7-1.221-3.22 1.654-1.546 2.856"/>
  <path clip-path="url(#b)" fill="#00AEEF" d="M82.997 90.257c3.952 1.218 7.771-.177 9.53-4.019.868-1.897-1.985-3.448-2.856-1.546-1.194 2.609-3.286 3.221-5.944 2.401-2.002-.616-2.718 2.551-.73 3.164"/>
  <path clip-path="url(#b)" fill="#00AEEF" d="M73.398 49.841c.785 11.091-4.385 21.956-5.288 32.944-.403 4.892-.08 9.848 2.343 14.217 2.773 5 8.345 7.402 13.686 8.51 2.046.424 2.781-2.738.73-3.163-5.221-1.081-10.207-3.375-12.392-8.546-1.893-4.478-1.406-9.734-.71-14.411 1.457-9.79 5.583-19.674 4.876-29.688-.147-2.081-3.393-1.956-3.245.137"/>
  <path clip-path="url(#b)" fill="#00AEEF" d="M72.888 48.455c.209.462.417 1.012.823 1.348.831.687 2.123.594 2.661-.426.394-.745.258-1.662.077-2.446-.198-.862-1.236-1.316-2.032-1.068-.891.28-1.266 1.172-1.067 2.033l.038.178c-.106-.549-.05-.287-.034-.159.018.144.026.287.026.432 0 .258.058-.47.025-.236l-.008.039c-.247.876.59.632 2.513-.731.307.254.242.32.129.143-.049-.077-.226-.454-.052-.07-.183-.403-.37-.725-.777-.944a1.638 1.638 0 00-1.255-.122c-.767.236-1.434 1.221-1.067 2.029M71.247 76.218c-1.669 6.396-6.103 12.281-2.81 18.938 2.351 4.752 7.609 9.773 13.266 7.233 1.433-.644 1.543-2.671-.118-3.131-3.233-.896-6.905-2.162-8.028-5.66-.961-2.999.361-6.705 1.217-9.571.519-1.737-2.357-2.851-3.009-1.138-.974 2.562-1.781 5.034-1.801 7.8-.01 1.408 1.889 2.064 2.803 1.044 1.006-1.119 2.085-2.164 3.09-3.283l-2.609-1.887c-.957 1.343-1.962 2.648-2.92 3.99-1.215 1.704 1.658 3.223 2.857 1.545.957-1.341 1.962-2.647 2.919-3.989 1.083-1.519-1.405-3.229-2.609-1.886-1.005 1.119-2.085 2.164-3.09 3.284.934.348 1.869.697 2.804 1.044.015-2.168.648-4.109 1.412-6.116l-3.01-1.138c-1.162 3.892-2.384 8.311-.794 12.261 1.638 4.069 6.136 5.782 10.038 6.863a3157.8 3157.8 0 01-.118-3.132c-4.909 2.205-8.982-3.578-10.161-7.683-1.358-4.725 2.667-10.188 3.834-14.659.529-2.026-2.636-2.75-3.163-.729M78.003 144.849c-1.226 18.11-6.879 35.426-11.382 52.896-4.498 17.448-10.192 34.558-17.499 51.039-.844 1.903 2.008 3.456 2.856 1.545 7.423-16.744 13.234-34.127 17.805-51.854 4.585-17.777 10.216-35.336 11.465-53.763.141-2.084-3.103-1.932-3.245.137"/>
  <path clip-path="url(#b)" fill="#00AEEF" d="M52.36 245.088c2.097-7.061 4.107-14.146 5.386-21.41.32-1.814-2.053-2.727-3.009-1.137-4.262 7.084-5.008 15.396-6.773 23.308-.401 1.799 2.12 2.746 3.01 1.139 3.906-7.064 5.458-14.974 7.249-22.762 1.875-8.146 4.927-15.963 7.13-24.027 4.665-17.078 9.167-34.11 15.303-50.739.723-1.96-2.448-2.666-3.163-.729-5.85 15.854-10.326 32.077-14.672 48.394-2.156 8.099-5.171 15.954-7.21 24.067-2.072 8.243-3.327 16.718-7.494 24.252l3.01 1.138c1.7-7.62 2.361-15.672 6.466-22.494l-3.009-1.138c-1.279 7.263-3.289 14.348-5.387 21.41-.596 2.008 2.57 2.725 3.163.728"/>
  <path clip-path="url(#b)" fill="#00AEEF" d="M53.432 228.901c1.387-11.569 1.441-23.297 3.973-34.711 2.461-11.096 9.641-19.801 15.603-29.174.981-1.544-1.499-3.353-2.609-1.886-13.926 18.372-21.412 42.945-16.53 65.824.33 1.546 2.931 1.464 3.131-.117 2.209-17.482 3.424-35.404 10.557-51.754l-3.01-1.139c-5.55 15.278-14.824 31.163-11.294 47.981.283 1.349 2.43 1.532 2.978.29 3.082-6.995 3.758-14.672 5.156-22.11 1.668-8.882 4.794-17.437 7.361-26.08l-3.163-.729c-3.727 13.529-11.976 26.488-11.171 40.949.11 1.959 2.601 1.932 3.204.297 4.804-13.038 8.728-26.379 12.298-39.802.463-1.744-2.296-2.845-3.01-1.139-8.292 19.823-17.744 40.091-18.301 61.955-.048 1.906 2.729 1.992 3.204.297 1.774-6.326 1.727-12.905 2.694-19.365.881-5.882 3.038-11.494 3.092-17.497.017-1.966-2.646-1.913-3.204-.297-4.949 14.342-3.917 29.817-7.595 44.441l3.163.73c1.378-13.398 4.353-26.554 6.103-39.899.27-2.057-2.565-2.762-3.163-.73-3.929 13.328-5.779 27.267-4.554 41.145.185 2.089 3.209 1.955 3.245-.137.279-16.565 2.47-33.133 8.203-48.744.722-1.967-2.44-2.654-3.163-.73-1.22 3.245-2.831 6.585-2.28 10.133.222 1.43 2.309 2.317 3.05.704 5.556-12.097 5.303-25.817 7.229-38.75.306-2.05-2.82-2.805-3.163-.729-1.911 11.579-8.126 22.165-8.251 34.072-.017 1.676 2.28 2.024 3.05.703 3.965-6.803 5.154-14.708 6.948-22.262 2.152-9.06 6.912-16.783 10.671-25.194.849-1.9-1.986-3.452-2.856-1.546-4.825 10.575-11.013 20.927-12.905 32.555-.232 1.425 1.72 2.891 2.762 1.478 6.812-9.234 8.506-20.838 13.129-31.124l-3.05-.704c-.605 7.727-4.728 14.685-7.326 21.852-.641 1.769 2.149 2.682 3.01 1.138 5.011-8.993 6.733-19.194 10.61-28.643l-3.009-1.139c-1.747 7.164-4.929 13.862-8.607 20.224l3.009 1.138c2.2-7.254 5.423-14.133 8.015-21.247.632-1.735-2.217-2.757-3.01-1.138-2.413 4.936-4.9 9.834-7.397 14.726.952.517 1.904 1.031 2.856 1.546 2.708-5.651 4.872-11.536 5.929-17.729.306-1.789-2.08-2.77-3.009-1.138-3.483 6.116-6.287 12.616-8.667 19.233-2.334 6.495-4.709 14.001-3.728 20.988.194 1.388 2.403 2.369 3.05.705 5.21-13.414 5.332-28.132 10.481-41.555.726-1.893-1.861-3.455-2.856-1.546-9.024 17.332-16.106 36.709-14.829 56.538.122 1.885 2.678 2.026 3.204.297 2.739-9.013 3.248-18.444 4.772-27.693 1.489-9.035 5.737-17.393 6.846-26.479.211-1.727-2.102-2.864-3.01-1.138-9.024 17.183-14.03 36.966-13.466 56.409.053 1.826 2.832 2.1 3.203.297 4.044-19.65 6.143-39.734 12.268-58.909.554-1.734-2.364-2.847-3.009-1.138-3.933 10.418-7.529 21.021-9.662 31.97-.41 2.107 2.464 2.65 3.163.731 4.504-12.377 8.228-25.014 14.61-36.605l-3.009-1.138a20.723 20.723 0 01-1.956 4.88l2.541-.408c-2.368-2.691-2.563-5.957-.976-9.091.519-1.026 3.455-5.093 5.008-3.728 1.47 1.293.531 4.728-1.62 4.504-3.813-.393.971-3.42 2.105-4.018 1.862-.982.126-3.69-1.72-2.752-4.89 2.483-8.872 13.179-5.021 17.834 1.9 2.296 5.279.875 6.843-1.079 2.195-2.743 1.535-7.083-.298-9.811-4.91-7.305-15.787 4.132-9.377 9.991 3.562 3.258 8.559-.255 10.789-3.263 3.091-4.17 2.896-9.77-.083-13.903-1.227-1.702-3.739-.13-2.753 1.721 4.278 8.025-5.538 13.578-7.895 20.541-.276.815.41 1.794 1.216 1.945 8.765 1.656 19.282-5.783 19.665-15.01.2-4.806-2.302-7.169-5.337-10.471-3.467-3.771 1.716-9.288 3.267-12.988.711-1.697-1.215-3.171-2.61-1.886-5.847 5.391-3.705 11.364-.914 17.759 1.653 3.789 2.118 7.2.924 11.215-1.294 4.351-4.767 8.28-8.884 10.132l1.663 2.663c4.999-6.014 11.642-12.976 10.889-21.423-.165-1.848-2.691-2.066-3.204-.296-2.031 7.026-3.685 16.813-11.652 19.413-1.987.648-1.029 3.75.966 3.099 9.31-3.038 11.451-13.488 13.849-21.781-1.067-.1-2.135-.198-3.203-.296.667 7.475-5.59 13.743-10.007 19.059-.932 1.121.05 3.389 1.664 2.663 6.864-3.089 11.3-9.679 11.924-17.142.674-8.066-9.17-15.907-1.652-22.838l-2.609-1.886c-1.437 3.428-3.63 6.471-4.768 10.036-1.075 3.365 1.38 6.164 3.586 8.37 3.74 3.739 3.528 8.258.463 12.486-2.929 4.04-8.262 6.908-13.29 5.959l1.217 1.946c1.471-4.348 5.339-7.521 7.611-11.448 2.189-3.781 1.877-7.785-.126-11.543l-2.753 1.721c1.708 2.37 2.208 4.813 1.51 7.657-.642 2.615-4.016 6.885-7.083 5.506-4.03-1.813 4.07-11.74 5.352-3.152.283 1.891-.314 3.587-2.179 4.272-.835.306-.761-2.825-.75-3.222.084-3.392 1.546-8.163 4.77-9.8l-1.72-2.752c-2.144 1.13-5.134 2.928-5.179 5.718-.031 1.9 1.316 3.315 3.028 3.935 4.838 1.752 7.908-2.686 6.913-7.135-1.224-5.471-6.704-3.714-9.556-.679-4.237 4.511-4.25 11.038-.23 15.607.712.809 2.066.438 2.542-.408 1.002-1.786 1.739-3.718 2.263-5.696.476-1.798-2.137-2.722-3.01-1.137-6.521 11.844-10.314 24.775-14.917 37.419l3.163.731c2.076-10.658 5.526-21.014 9.355-31.156l-3.01-1.138c-6.124 19.176-8.224 39.26-12.267 58.908 1.067.1 2.135.198 3.203.297-.547-18.863 4.324-38.057 13.078-54.726l-3.009-1.138c-1.059 8.678-5.007 16.707-6.635 25.281-1.826 9.624-2.118 19.468-4.983 28.892l3.204.296c-1.241-19.262 5.677-38.023 14.44-54.855l-2.856-1.546c-5.154 13.437-5.278 28.159-10.481 41.555 1.017.234 2.033.47 3.05.703-.906-6.451 1.285-13.208 3.341-19.243a112.318 112.318 0 018.666-19.295l-3.009-1.139c-1.01 5.92-3.033 11.513-5.623 16.914-.901 1.881 1.902 3.416 2.856 1.546 2.497-4.894 4.984-9.791 7.397-14.726l-3.009-1.138c-2.593 7.114-5.813 13.988-8.015 21.245-.548 1.811 2.122 2.674 3.01 1.139 3.818-6.604 7.101-13.603 8.914-21.038.424-1.74-2.302-2.86-3.01-1.138-3.873 9.44-5.609 19.668-10.61 28.643l3.009 1.138c2.729-7.531 6.77-14.593 7.407-22.719.126-1.603-2.415-2.116-3.05-.704-4.475 9.958-6.054 21.521-12.634 30.444.92.493 1.841.984 2.762 1.478 1.847-11.348 7.889-21.417 12.598-31.738l-2.856-1.546c-3.413 7.639-7.796 14.759-10.153 22.841-2.404 8.241-3.068 17.071-7.466 24.616l3.051.704c.12-11.555 6.311-21.947 8.169-33.205l-3.163-.729c-1.874 12.581-1.517 26.169-6.922 37.934l3.05.705c-.503-3.234 1.087-6.307 2.199-9.266l-3.163-.73c-5.829 15.875-8 32.771-8.285 49.611l3.245-.137c-1.203-13.616.617-27.201 4.472-40.277l-3.163-.73c-1.749 13.346-4.725 26.502-6.103 39.899-.208 2.025 2.638 2.817 3.163.73 3.678-14.624 2.646-30.1 7.595-44.441l-3.204-.297c-.05 5.666-2.09 11.081-3.009 16.63-1.07 6.453-.917 13.026-2.695 19.366l3.204.296c.54-21.239 9.86-41.022 17.912-60.272l-3.009-1.138c-3.57 13.423-7.494 26.764-12.298 39.802 1.068.1 2.136.197 3.204.296-.785-14.092 7.451-26.876 11.089-40.082.558-2.026-2.572-2.722-3.163-.729-2.379 8.012-5.07 15.914-6.946 24.069-1.784 7.749-2.02 15.944-5.264 23.305l2.978.29c-3.359-15.998 6.082-31.767 11.357-46.285.625-1.72-2.282-2.804-3.01-1.138-7.267 16.66-8.612 34.752-10.863 52.568l3.131-.116c-4.615-21.633 2.633-45.271 15.792-62.633l-2.609-1.887c-5.684 8.938-12.319 17.221-15.304 27.558-3.463 11.987-3.104 24.846-4.578 37.144-.246 2.056 2.914 2.807 3.163.73"/>
  <path clip-path="url(#b)" fill="#00AEEF" d="M76.481 124.509c-.662 8.087-2.15 15.78-5.777 23.099-.929 1.875 1.927 3.42 2.856 1.546 3.893-7.857 5.454-16.101 6.166-24.781.17-2.081-3.076-1.925-3.245.136"/>
  <path clip-path="url(#b)" fill="#00AEEF" d="M76.165 126.611c2.874 8.578.039 19.659-6.804 25.619-1.581 1.377.802 3.588 2.363 2.228 7.673-6.684 10.751-19.23 7.54-28.813-.663-1.981-3.766-1.025-3.099.966M80.867 124.02c4.666 2.791 6.722 8.613 4.566 13.662-.816 1.912 2.035 3.469 2.856 1.546 2.87-6.725.402-14.307-5.876-18.063-1.803-1.079-3.334 1.786-1.546 2.855"/>
  <path clip-path="url(#b)" fill="#00AEEF" d="M76.904 125.051c3.26-4.73 3.391-9.943 4.923-15.297-1.067-.1-2.135-.197-3.203-.297.619 4.956-.631 10.028-2.889 14.438-.954 1.864 1.902 3.407 2.856 1.546 2.505-4.895 3.965-10.612 3.277-16.12-.226-1.811-2.685-2.107-3.203-.297-1.446 5.054-1.537 10.014-4.617 14.481-1.189 1.726 1.682 3.248 2.856 1.546"/>
  <path clip-path="url(#b)" fill="#00AEEF" d="M71.923 124.946c-7.279 3.632-8.231 13.725-3.305 19.62 1.344 1.607 3.551-.778 2.227-2.362-3.712-4.442-2.43-11.896 2.798-14.506 1.875-.936.137-3.68-1.72-2.752"/>
  <path clip-path="url(#b)" fill="#00AEEF" d="M73.48 123.972c-3.553 1.99-6.256 4.917-7.77 8.713l3.009 1.139c.883-4.933 4.863-9.159 9.238-11.349 1.874-.937.137-3.681-1.72-2.752-5.085 2.543-9.66 7.668-10.681 13.369-.306 1.711 2.301 2.916 3.01 1.139 1.324-3.323 3.515-5.759 6.634-7.507 1.831-1.023.102-3.771-1.72-2.752"/>
  <path clip-path="url(#b)" fill="#2B3990" d="M75.713 35.951c-5.555 15.233-9.724 31.414-11.196 47.6-.413 4.533-.296 9.495 1.792 13.648 2.486 4.946 6.985 8.019 11.905 10.271.948.434 1.724-.992.772-1.427-4.782-2.191-9.229-5.153-11.473-10.086-2.049-4.504-1.698-9.816-1.154-14.598 1.743-15.331 5.657-30.567 10.935-45.043.359-.982-1.227-1.335-1.581-.365"/>
  <path clip-path="url(#b)" fill="#2B3990" d="M76.934 36.822c3.625-2.789 2.865 2.531 2.626 4.917-.584 5.831-1.909 11.597-2.991 17.349-1.048 5.568-2.162 11.238-2.239 16.923-.034 2.549.172 7.015 3.469 7.477.45.063.851-.152.973-.608 3.71-13.84 8.163-27.469 11.423-41.429.238-1.02-1.344-1.385-1.581-.365-3.26 13.959-7.713 27.589-11.423 41.429l.973-.608c-3.597-.503-2.095-8.99-1.843-11.175.734-6.385 2.115-12.691 3.296-19.003.87-4.646 2.183-9.784 1.65-14.546-.37-3.305-2.828-3.557-5.193-1.735-.822.63.03 2.012.86 1.374M97.321 86.711c2.762-14.057 4.813-28.245 8.004-42.217.233-1.021-1.348-1.386-1.581-.366-3.192 13.974-5.242 28.161-8.004 42.219-.202 1.024 1.379 1.393 1.581.364"/>
  <path clip-path="url(#b)" fill="#2B3990" d="M97.489 87.249c2.638-.952 4.137-3.739 5.29-6.114 1.917-3.948 3.144-8.252 4.324-12.465 1.307-4.669 2.427-9.389 3.663-14.076.851-3.229 1.594-6.809 3.323-9.706.439-.736.693-.979 1.198-.264 1.829 2.589.791 6.695.465 9.578-.994 8.779-3.161 17.413-5.168 26.003-1.481 6.337-3.002 12.989-6.117 18.751-3.564 6.592-9.899 9.298-17.16 9.467l-1-.005c-1.047-.005-.977 1.617.068 1.622 6.083.031 11.849-1.373 16.238-5.785 3.948-3.97 5.769-9.715 7.279-14.958 2.191-7.608 3.914-15.379 5.507-23.13.859-4.177 1.57-8.381 2.049-12.617.314-2.779.984-5.973-.159-8.598-2.752-6.322-5.896 1.745-6.77 4.548-2.777 8.911-4.385 18.146-7.546 26.945-1.053 2.934-2.68 8.066-5.967 9.254-.98.354-.504 1.906.483 1.55M90.289 41.468c.156-1.821 2.971-3.251 3.156-.795.061.799-.072 1.654-.149 2.442-.247 2.53-.943 4.951-1.506 7.421-1.188 5.21-2.123 10.493-3.188 15.73-.941 4.628-2.424 9.159-2.909 13.866-.212 2.05-.102 4.495 2.127 5.312 3.697 1.353 6.384-16.18 6.666-17.879.863-5.19 1.976-10.299 3.476-15.344.765-2.569 1.539-5.124 2.275-7.701-.042.149 1.461-5.049 2.863-3.222.733.955.679 2.36.586 3.485-.087 1.04 1.536.963 1.621-.067.156-1.872-.346-5.719-3.011-5.607-3.371.139-4.176 7.125-4.819 9.351-1.801 6.236-3.499 12.321-4.572 18.74-.546 3.264-1.121 6.5-2.026 9.688-.396 1.391-.99 2.71-1.481 4.066-.076.207-1.739 4.613-2.16 1.041-.324-2.745.681-5.887 1.374-8.504.814-3.069 1.431-6.167 2.064-9.278 1.294-6.363 2.789-12.702 4.009-19.075.426-2.226 1.24-6.514-1.239-7.853-2.965-1.602-4.582 1.951-4.778 4.25-.09 1.04 1.533.963 1.621-.067M78.318 107.376c-.515 4.489-.892 9.202-3.168 13.206-1.443 2.538-5.363 3.95-7.74 5.428-4.874 3.025-7.506 7.151-2.703 11.703l.126-1.279c-1.337.979-1.969 2.795-2.52 4.285-1.116 3.016-1.905 6.146-2.648 9.271-2.278 9.569-3.901 19.303-5.471 29.008-3.266 20.191-5.948 40.48-8.412 60.783-.369 3.04-.738 6.08-1.075 9.124-.114 1.028 1.466 1.405 1.581.365 1.707-15.42 3.759-30.81 5.923-46.172 2.757-19.58 5.033-39.85 10.643-58.87.536-1.818 1.177-5.202 2.839-6.418.419-.307.527-.9.127-1.279-6.111-5.79 3.312-9.53 7.606-12.242 5.468-3.45 5.805-10.713 6.473-16.549.118-1.026-1.462-1.403-1.581-.364"/>
  <path clip-path="url(#b)" fill="#2B3990" d="M85.55 109.045c-1.853 5.35-4.642 11.808-1.799 17.25 2.325 4.452 9.428 11.996 1.478 14.718-.53.182-.679.731-.446 1.204.745 1.512.107 4.086-.112 5.64-.502 3.552-1.303 7.064-2.128 10.554-2.362 9.997-5.252 19.874-8.197 29.714-5.692 19.022-11.829 37.915-18.185 56.725-.701 2.073-1.4 4.146-2.124 6.212-.346.986 1.239 1.341 1.582.364 5.16-14.72 9.928-29.591 14.621-44.465 5.95-18.862 12.637-38.119 15.852-57.69.384-2.342 1.182-5.652.067-7.912l-.447 1.205c5.975-2.045 5.538-6.645 2.848-11.46-1.484-2.66-3.979-5.327-4.378-8.435-.563-4.391 1.541-9.192 2.949-13.258.343-.99-1.241-1.343-1.581-.366"/>
</svg>
