<svg xmlns="http://www.w3.org/2000/svg" xmlns:xlink="http://www.w3.org/1999/xlink" width="171" height="269.501">
  <path fill="#8ED8F8" d="M92.978 158.927h1.302v2.565h-1.302z"/>
  <defs>
    <path id="a" d="M-522.851 49.9h699.236v593.424h-699.236z"/>
  </defs>
  <clipPath id="b">
    <use xlink:href="#a" overflow="visible"/>
  </clipPath>
  <path clip-path="url(#b)" fill="#00AEEF" d="M91.226 168.299c3.482 6.199-6.725 11.768-3.477 18.046 1.693 3.272 4.09 3.163 5.18-.412.636-2.083.004-5.487-2.533-3.132-2.332 2.165.098 7.811 2.783 8.572 4.181 1.188 5.853-5.529 5.54-8.562-.149-1.433-1.24-1.765-2.461-1.562-1.892.313-1.628 3.306-1.454 4.57.516 3.756 4.592 6.055 5.992 1.557.601-1.926.439-4.27-.362-6.1-1.191-2.722-3.89-3.018-4.16-6.674-.154-2.057.606-4.115.4-6.162-.269-2.662-3.739-1.13-4.917-.404-.504.311-.043 1.106.462.795.247-.154.498-.301.755-.442 3.597-2.06 2.808 1.116 2.683 2.147-.188 1.561-.647 3.742-.202 5.273 1.001 3.447 4.541 4.86 4.744 8.702.071 1.356-.373 6.425-3.496 3.668-.629-.554-.841-1.81-1.017-2.604-.377-1.705 2.196-3.349 2.167-1.563-.057 3.637-3.358 9.299-6.424 4.523-.74-1.151-1.073-2.637-.886-3.989.268-1.92 1.84-2.046 1.729-.063-.054.946-.404 1.904-.857 2.723-.745 1.338-1.981.219-2.513-.625-.775-1.227-.878-2.487-.658-3.885.793-5.041 6.779-9.511 3.772-14.863-.29-.515-1.079-.052-.79.466"/>
  <path clip-path="url(#b)" fill="#00AEEF" d="M92.719 167.423c-3.903.188-5.286 2.519-6.837 5.896-2.029 4.416-6.638 7.388-7.056 12.545-.63 7.733 6.55 13.264 13.71 13.968 7.945.78 15.332-5.628 15.69-13.652.202-4.515-3.755-7.454-5.763-11.032-1.636-2.914-2.38-7.143-6.451-7.172-.591-.004-.59.918 0 .922 3.822.025 4.662 4.937 6.125 7.541 1.561 2.782 4.071 4.709 4.995 7.891 2.272 7.822-6.802 14.746-13.633 14.677-6.588-.065-13.763-5.244-13.838-12.174-.049-4.438 3.144-6.374 5.218-9.693 2.173-3.479 2.955-8.557 7.839-8.795.589-.031.591-.952.001-.922"/>
  <path clip-path="url(#b)" fill="#00AEEF" d="M46.546 214.445c2.204-5.883 5.378-11.238 8.308-16.5 3.631-6.521 7.463-12.723 11.602-18.684 5.07-7.303 10.618-14.215 17.831-17.48 7.925-3.587 17.246-2.156 24.635 2.83 3.287 2.22 6.045 6.289 8.586 9.738 3.729 5.063 7.211 10.445 10.623 15.879a424.19 424.19 0 019.547 15.982c1.473 2.592 3.278 5.282 4.338 8.234.229.637.94.082.713-.553-1.137-3.168-3.095-6.045-4.673-8.826a436.8 436.8 0 00-9.819-16.372c-3.533-5.63-7.181-11.147-11.063-16.358-2.835-3.806-5.771-7.496-9.494-9.673-6.942-4.062-14.297-4.72-21.678-2.646-7.215 2.027-13.084 8.804-18.086 15.601-4.397 5.976-8.399 12.353-12.203 18.997-3.493 6.098-7.297 12.391-9.877 19.277-.238.632.474 1.186.71.554"/>
  <path clip-path="url(#b)" fill="#00AEEF" d="M45.884 214.959c15.5-.008 31.002-.123 46.503-.163 16.52-.039 33.17-.812 49.678.163.532.032.53-1.063 0-1.094-16.275-.963-32.692-.204-48.978-.164-15.735.035-31.469.156-47.203.164-.531 0-.532 1.094 0 1.094M91.347 165.488c-.146-1.463.169-3.701 1.746-4.32 2.365-.926 2.354 3.489 2.113 4.752-.11.58.771.826.882.244.384-2.021.227-6.461-2.852-5.968-2.292.368-2.999 3.339-2.805 5.292.059.586.974.592.916 0"/>
  <path clip-path="url(#b)" fill="#FFF200" d="M92.865 114.236c-.211.867-.371 1.754-.183 2.64.124.58 1.006.334.882-.245-.152-.715.013-1.451.183-2.15.141-.576-.741-.821-.882-.245M92.412 120.135c.015 1.107.169 2.207.184 3.314.008.594.922.594.916 0-.015-1.107-.171-2.207-.185-3.314-.007-.594-.922-.595-.915 0M92.412 127.25v2.945c0 .594.915.594.915 0v-2.945c0-.594-.915-.594-.915 0M92.647 134.572c-.211.865-.371 1.752-.184 2.639.124.58 1.007.334.883-.245-.152-.715.013-1.452.183-2.149.141-.577-.741-.822-.882-.245M92.194 140.771c.015 1.108.169 2.207.184 3.315.008.594.922.594.916 0-.015-1.108-.171-2.207-.185-3.315-.006-.593-.921-.594-.915 0M92.194 147.584v2.947c0 .592.915.592.915 0v-2.947c0-.594-.915-.594-.915 0M93.542 73.38c-.211.866-.371 1.753-.184 2.64.124.58 1.006.334.882-.246-.151-.715.014-1.451.184-2.149.139-.577-.741-.822-.882-.245M93.089 79.578c.014 1.108.169 2.207.183 3.315.009.594.923.594.916 0-.014-1.108-.171-2.207-.184-3.315-.007-.593-.922-.594-.915 0M93.089 86.393v2.945c0 .594.915.594.915 0v-2.945c0-.594-.915-.594-.915 0M93.323 94.107c-.211.867-.37 1.754-.183 2.64.124.58 1.006.334.882-.245-.151-.715.014-1.451.184-2.15.14-.576-.741-.821-.883-.245M92.871 99.914c.014 1.107.169 2.207.183 3.314.008.594.922.594.916 0-.014-1.107-.171-2.207-.184-3.314-.007-.594-.922-.595-.915 0M92.871 106.728v2.946c0 .593.915.593.915 0v-2.946c0-.595-.915-.595-.915 0"/>
</svg>
