<svg xmlns="http://www.w3.org/2000/svg" width="108.591" height="291">
  <defs>
    <path id="a" transform="rotate(153.24 115.698 -115.5)" d="M-8.733-235.639h248.874V4.644H-8.733z"/>
  </defs>
  <path fill="#FFF200" d="M103.866 20.324c-15.287.006-30.576.092-45.864.121-16.291.029-32.714.605-48.995-.121-.525-.023-.523.789 0 .814 16.051.715 32.243.15 48.305.121 15.519-.027 31.037-.115 46.555-.121.524.001.525-.814-.001-.814M58.661 59.293c-3.097-5.479 5.979-10.398 3.092-15.947-1.507-2.893-3.637-2.793-4.606.365-.565 1.84-.003 4.85 2.253 2.768 2.073-1.914-.087-6.902-2.475-7.576-3.717-1.049-5.204 4.887-4.926 7.566.132 1.266 1.103 1.559 2.188 1.379 1.681-.275 1.447-2.92 1.292-4.037-.459-3.32-4.082-5.35-5.328-1.375-.534 1.699-.391 3.77.322 5.389 1.059 2.404 3.459 2.666 3.699 5.896.137 1.816-.538 3.637-.356 5.445.239 2.354 3.325.998 4.373.357.447-.273.038-.979-.411-.703-.22.137-.442.268-.671.391-3.199 1.82-2.498-.986-2.386-1.898.167-1.377.576-3.305.179-4.658-.89-3.047-4.037-4.295-4.218-7.689-.063-1.199.332-5.678 3.109-3.24.559.49.748 1.6.903 2.301.335 1.506-1.952 2.959-1.927 1.381.05-3.215 2.986-8.217 5.712-3.998.658 1.018.955 2.33.787 3.525-.237 1.697-1.635 1.809-1.537.057.048-.836.359-1.684.762-2.404.662-1.184 1.763-.195 2.234.551.69 1.084.781 2.199.586 3.434-.706 4.453-6.028 8.402-3.354 13.133.26.452.962.044.704-.413"/>
  <path fill="#FFF200" d="M57.333 60.066c3.471-.168 4.7-2.227 6.08-5.211 1.805-3.9 5.902-6.527 6.274-11.084.56-6.834-5.824-11.721-12.191-12.342-7.065-.691-13.633 4.971-13.952 12.063-.18 3.99 3.339 6.586 5.125 9.748 1.453 2.576 2.115 6.313 5.735 6.338.525.004.524-.811 0-.814-3.398-.023-4.145-4.361-5.446-6.664-1.388-2.457-3.619-4.16-4.441-6.971-2.021-6.912 6.048-13.031 12.123-12.971 5.857.061 12.238 4.635 12.304 10.758.044 3.924-2.796 5.633-4.639 8.566-1.934 3.074-2.628 7.561-6.972 7.771-.522.024-.524.839 0 .813"/>
  <path fill="#FFF200" d="M103.517 20.525c-2.172 4.373-5.303 8.354-8.192 12.266a165.53 165.53 0 01-11.442 13.887c-5.001 5.43-10.472 10.566-17.586 12.994-7.818 2.666-17.009 1.603-24.297-2.104-3.243-1.65-5.962-4.674-8.47-7.238-3.676-3.764-7.111-7.764-10.477-11.803a314.494 314.494 0 01-9.417-11.881c-1.451-1.926-3.233-3.926-4.277-6.121-.225-.473-.926-.061-.702.412 1.121 2.354 3.052 4.494 4.608 6.559a321.982 321.982 0 009.684 12.172c3.486 4.184 7.083 8.285 10.912 12.158 2.796 2.83 5.692 5.572 9.363 7.191 6.847 3.018 14.101 3.508 21.381 1.967 7.115-1.508 12.904-6.545 17.837-11.598 4.337-4.441 8.285-9.182 12.037-14.121 3.444-4.531 7.196-9.209 9.74-14.328.234-.47-.468-.88-.702-.412"/>
  <path fill="#FFF200" d="M58.554 61.775c.13 1.293-.15 3.271-1.554 3.816-2.103.82-2.092-3.082-1.879-4.197.099-.512-.685-.73-.783-.215-.342 1.785-.202 5.707 2.535 5.271 2.038-.324 2.667-2.949 2.493-4.676-.051-.516-.863-.522-.812.001"/>
  <path fill="#2E3192" d="M56.913 94.275c.188-.766.33-1.549.162-2.332-.11-.514-.895-.295-.784.217.136.633-.011 1.281-.162 1.898-.125.51.659.727.784.217M57.905 88.953c-.012-.979-.149-1.951-.162-2.93-.007-.525-.82-.525-.814 0 .012.979.151 1.951.164 2.93.006.524.818.526.812 0M57.741 82.932v-2.604c0-.523-.813-.523-.813 0v2.604c.001.525.813.525.813 0M57.726 76.461c.188-.764.33-1.549.163-2.332-.11-.512-.894-.295-.784.217.136.633-.012 1.283-.162 1.9-.126.51.658.725.783.215M57.237 71.4c.188-.766.33-1.549.163-2.332-.11-.514-.894-.295-.785.217.137.633-.011 1.281-.162 1.898-.125.51.659.727.784.217M56.692 130.533c.187-.766.329-1.551.161-2.332-.109-.514-.894-.295-.783.217.136.631-.012 1.283-.162 1.898-.125.51.659.727.784.217M56.929 125.055c-.013-.979-.15-1.951-.162-2.928-.007-.525-.821-.525-.815 0 .013.977.152 1.949.164 2.928.005.525.819.525.813 0M56.929 119.033v-2.602c0-.525-.813-.525-.813 0v2.602c-.001.526.813.526.813 0M56.692 112.564c.187-.766.329-1.549.161-2.332-.109-.514-.894-.295-.783.217.136.631-.012 1.283-.162 1.898-.125.51.659.727.784.217M56.929 107.086c-.013-.979-.15-1.949-.162-2.928-.007-.525-.821-.525-.815 0 .013.979.152 1.949.164 2.928.005.525.819.525.813 0M56.929 101.066v-2.604c0-.523-.813-.523-.813 0v2.604c-.001.524.813.524.813 0M56.691 166.148c.188-.766.33-1.549.163-2.332-.111-.512-.894-.295-.785.217.137.633-.011 1.283-.162 1.898-.125.512.659.727.784.217M56.929 160.672c-.013-.98-.15-1.951-.163-2.93-.007-.525-.82-.525-.814 0 .013.979.152 1.949.164 2.93.005.523.819.523.813 0M56.929 154.65v-2.604c0-.523-.813-.523-.813 0v2.604c-.001.526.813.526.813 0M56.691 148.18c.188-.766.33-1.549.163-2.332-.111-.514-.894-.295-.785.217.137.633-.011 1.283-.162 1.9-.125.51.659.724.784.215M56.929 142.703c-.012-.979-.15-1.951-.163-2.93-.007-.525-.82-.525-.813 0 .012.979.151 1.951.163 2.93.006.524.819.526.813 0M56.929 136.682v-2.604c0-.523-.813-.523-.813 0v2.604c-.001.525.813.525.813 0M56.586 202.25c.188-.764.329-1.549.162-2.332-.11-.512-.894-.293-.784.219.136.631-.012 1.281-.162 1.898-.125.51.659.727.784.215M56.988 196.773c-.013-.979-.15-1.951-.162-2.93-.007-.523-.821-.523-.815 0 .012.979.152 1.951.164 2.93.006.524.819.526.813 0M56.988 191.291v-2.604c0-.523-.813-.523-.813 0v2.604c0 .525.813.525.813 0M56.779 184.283c.188-.766.33-1.549.162-2.332-.11-.514-.895-.295-.784.217.136.631-.011 1.281-.162 1.898-.125.51.659.727.784.217M57.182 178.805c-.012-.979-.149-1.951-.162-2.928-.007-.525-.82-.525-.814 0 .012.977.151 1.949.164 2.928.005.525.818.525.812 0M57.182 172.783v-2.604c0-.523-.813-.523-.813 0v2.604c0 .526.813.526.813 0M56.174 237.539c.188-.764.33-1.549.162-2.332-.11-.512-.895-.295-.784.219.136.631-.011 1.281-.162 1.898-.125.51.659.727.784.215M56.576 232.063c-.012-.979-.149-1.951-.162-2.93-.007-.523-.82-.523-.814 0 .012.979.151 1.951.164 2.93.006.523.818.525.812 0M56.576 226.041v-2.602c0-.525-.813-.525-.813 0v2.602c.001.525.813.525.813 0M56.368 219.572c.187-.766.329-1.551.161-2.332-.109-.514-.894-.295-.783.217.135.631-.012 1.283-.162 1.898-.125.51.659.727.784.217M56.771 214.094c-.013-.979-.15-1.951-.163-2.928-.007-.525-.82-.525-.814 0 .013.977.152 1.949.164 2.928.005.525.818.525.813 0M56.771 208.072v-2.602c0-.525-.813-.525-.813 0v2.602c-.001.526.813.526.813 0M55.572 273.643c.188-.766.33-1.549.162-2.332-.11-.514-.894-.295-.784.217.135.633-.011 1.281-.162 1.898-.125.51.659.726.784.217M55.976 268.166c-.013-.98-.15-1.951-.163-2.93-.008-.525-.82-.525-.814 0 .012.979.152 1.949.164 2.93.005.523.818.523.813 0M55.976 262.145v-2.604c0-.523-.813-.523-.813 0v2.604c-.001.525.813.525.813 0M55.767 255.674c.188-.766.329-1.549.162-2.332-.11-.514-.894-.295-.784.217.136.633-.012 1.283-.162 1.898-.126.512.659.727.784.217M56.169 250.197c-.013-.98-.15-1.951-.162-2.93-.007-.525-.821-.525-.815 0 .013.979.152 1.949.164 2.93.005.524.819.526.813 0M56.169 244.176v-2.604c0-.523-.813-.523-.813 0v2.604c-.001.525.813.525.813 0"/>
</svg>
