<?xml version="1.0" encoding="utf-8"?>
<!-- Generator: Adobe Illustrator 16.0.0, SVG Export Plug-In . SVG Version: 6.00 Build 0)  -->
<!DOCTYPE svg PUBLIC "-//W3C//DTD SVG 1.1//EN" "http://www.w3.org/Graphics/SVG/1.1/DTD/svg11.dtd">
<svg version="1.1" id="Layer_1" xmlns="http://www.w3.org/2000/svg" xmlns:xlink="http://www.w3.org/1999/xlink" x="0px" y="0px"
	 width="108.591px" height="291px" viewBox="0 0 108.591 291" enable-background="new 0 0 108.591 291" xml:space="preserve">
<g>
	<defs>
		
			<rect id="SVGID_11_" x="-8.733" y="-235.639" transform="matrix(-0.8929 0.4503 -0.4503 -0.8929 166.9961 -270.7276)" width="248.874" height="240.283"/>
	</defs>
	<clipPath id="SVGID_2_">
		<use xlink:href="#SVGID_11_"  overflow="visible"/>
	</clipPath>
</g>
<path fill="#FFF200" d="M103.866,20.324c-15.287,0.006-30.576,0.092-45.864,0.121c-16.291,0.029-32.714,0.605-48.995-0.121
	c-0.525-0.023-0.523,0.789,0,0.814c16.051,0.715,32.243,0.15,48.305,0.121c15.519-0.027,31.037-0.115,46.555-0.121
	C104.391,21.139,104.392,20.324,103.866,20.324"/>
<path fill="#FFF200" d="M58.661,59.293c-3.097-5.479,5.979-10.398,3.092-15.947c-1.507-2.893-3.637-2.793-4.606,0.365
	c-0.565,1.84-0.003,4.85,2.253,2.768c2.073-1.914-0.087-6.902-2.475-7.576c-3.717-1.049-5.204,4.887-4.926,7.566
	c0.132,1.266,1.103,1.559,2.188,1.379c1.681-0.275,1.447-2.92,1.292-4.037c-0.459-3.32-4.082-5.35-5.328-1.375
	c-0.534,1.699-0.391,3.77,0.322,5.389c1.059,2.404,3.459,2.666,3.699,5.896c0.137,1.816-0.538,3.637-0.356,5.445
	c0.239,2.354,3.325,0.998,4.373,0.357c0.447-0.273,0.038-0.979-0.411-0.703c-0.22,0.137-0.442,0.268-0.671,0.391
	c-3.199,1.82-2.498-0.986-2.386-1.898c0.167-1.377,0.576-3.305,0.179-4.658c-0.89-3.047-4.037-4.295-4.218-7.689
	c-0.063-1.199,0.332-5.678,3.109-3.24c0.559,0.49,0.748,1.6,0.903,2.301c0.335,1.506-1.952,2.959-1.927,1.381
	c0.05-3.215,2.986-8.217,5.712-3.998c0.658,1.018,0.955,2.33,0.787,3.525c-0.237,1.697-1.635,1.809-1.537,0.057
	c0.048-0.836,0.359-1.684,0.762-2.404c0.662-1.184,1.763-0.195,2.234,0.551c0.69,1.084,0.781,2.199,0.586,3.434
	c-0.706,4.453-6.028,8.402-3.354,13.133C58.217,60.158,58.919,59.75,58.661,59.293"/>
<path fill="#FFF200" d="M57.333,60.066c3.471-0.168,4.7-2.227,6.08-5.211c1.805-3.9,5.902-6.527,6.274-11.084
	c0.56-6.834-5.824-11.721-12.191-12.342c-7.065-0.691-13.633,4.971-13.952,12.063c-0.18,3.99,3.339,6.586,5.125,9.748
	c1.453,2.576,2.115,6.313,5.735,6.338c0.525,0.004,0.524-0.811,0-0.814c-3.398-0.023-4.145-4.361-5.446-6.664
	c-1.388-2.457-3.619-4.16-4.441-6.971c-2.021-6.912,6.048-13.031,12.123-12.971c5.857,0.061,12.238,4.635,12.304,10.758
	c0.044,3.924-2.796,5.633-4.639,8.566c-1.934,3.074-2.628,7.561-6.972,7.771C56.811,59.277,56.809,60.092,57.333,60.066"/>
<path fill="#FFF200" d="M103.517,20.525c-2.172,4.373-5.303,8.354-8.192,12.266c-3.581,4.848-7.36,9.457-11.442,13.887
	c-5.001,5.43-10.472,10.566-17.586,12.994C58.479,62.338,49.288,61.275,42,57.568c-3.243-1.65-5.962-4.674-8.47-7.238
	c-3.676-3.764-7.111-7.764-10.477-11.803c-3.235-3.883-6.374-7.848-9.417-11.881c-1.451-1.926-3.233-3.926-4.277-6.121
	c-0.225-0.473-0.926-0.061-0.702,0.412c1.121,2.354,3.052,4.494,4.608,6.559c3.122,4.139,6.366,8.189,9.684,12.172
	c3.486,4.184,7.083,8.285,10.912,12.158c2.796,2.83,5.692,5.572,9.363,7.191c6.847,3.018,14.101,3.508,21.381,1.967
	c7.115-1.508,12.904-6.545,17.837-11.598c4.337-4.441,8.285-9.182,12.037-14.121c3.444-4.531,7.196-9.209,9.74-14.328
	C104.453,20.467,103.751,20.057,103.517,20.525"/>
<path fill="#FFF200" d="M58.554,61.775c0.13,1.293-0.15,3.271-1.554,3.816c-2.103,0.82-2.092-3.082-1.879-4.197
	c0.099-0.512-0.685-0.73-0.783-0.215c-0.342,1.785-0.202,5.707,2.535,5.271c2.038-0.324,2.667-2.949,2.493-4.676
	C59.315,61.258,58.503,61.252,58.554,61.775"/>
<path fill="#2E3192" d="M56.913,94.275c0.188-0.766,0.33-1.549,0.162-2.332c-0.11-0.514-0.895-0.295-0.784,0.217
	c0.136,0.633-0.011,1.281-0.162,1.898C56.004,94.568,56.788,94.785,56.913,94.275"/>
<path fill="#2E3192" d="M57.905,88.953c-0.012-0.979-0.149-1.951-0.162-2.93c-0.007-0.525-0.82-0.525-0.814,0
	c0.012,0.979,0.151,1.951,0.164,2.93C57.099,89.477,57.911,89.479,57.905,88.953"/>
<path fill="#2E3192" d="M57.741,82.932v-2.604c0-0.523-0.813-0.523-0.813,0v2.604C56.929,83.457,57.741,83.457,57.741,82.932"/>
<path fill="#2E3192" d="M57.726,76.461c0.188-0.764,0.33-1.549,0.163-2.332c-0.11-0.512-0.894-0.295-0.784,0.217
	c0.136,0.633-0.012,1.283-0.162,1.9C56.817,76.756,57.601,76.971,57.726,76.461"/>
<path fill="#2E3192" d="M57.237,71.4c0.188-0.766,0.33-1.549,0.163-2.332c-0.11-0.514-0.894-0.295-0.785,0.217
	c0.137,0.633-0.011,1.281-0.162,1.898C56.328,71.693,57.112,71.91,57.237,71.4"/>
<path fill="#2E3192" d="M56.692,130.533c0.187-0.766,0.329-1.551,0.161-2.332c-0.109-0.514-0.894-0.295-0.783,0.217
	c0.136,0.631-0.012,1.283-0.162,1.898C55.783,130.826,56.567,131.043,56.692,130.533"/>
<path fill="#2E3192" d="M56.929,125.055c-0.013-0.979-0.15-1.951-0.162-2.928c-0.007-0.525-0.821-0.525-0.815,0
	c0.013,0.977,0.152,1.949,0.164,2.928C56.121,125.58,56.935,125.58,56.929,125.055"/>
<path fill="#2E3192" d="M56.929,119.033v-2.602c0-0.525-0.813-0.525-0.813,0v2.602C56.115,119.559,56.929,119.559,56.929,119.033"/>
<path fill="#2E3192" d="M56.692,112.564c0.187-0.766,0.329-1.549,0.161-2.332c-0.109-0.514-0.894-0.295-0.783,0.217
	c0.136,0.631-0.012,1.283-0.162,1.898C55.783,112.857,56.567,113.074,56.692,112.564"/>
<path fill="#2E3192" d="M56.929,107.086c-0.013-0.979-0.15-1.949-0.162-2.928c-0.007-0.525-0.821-0.525-0.815,0
	c0.013,0.979,0.152,1.949,0.164,2.928C56.121,107.611,56.935,107.611,56.929,107.086"/>
<path fill="#2E3192" d="M56.929,101.066v-2.604c0-0.523-0.813-0.523-0.813,0v2.604C56.115,101.59,56.929,101.59,56.929,101.066"/>
<path fill="#2E3192" d="M56.691,166.148c0.188-0.766,0.33-1.549,0.163-2.332c-0.111-0.512-0.894-0.295-0.785,0.217
	c0.137,0.633-0.011,1.283-0.162,1.898C55.782,166.443,56.566,166.658,56.691,166.148"/>
<path fill="#2E3192" d="M56.929,160.672c-0.013-0.98-0.15-1.951-0.163-2.93c-0.007-0.525-0.82-0.525-0.814,0
	c0.013,0.979,0.152,1.949,0.164,2.93C56.121,161.195,56.935,161.195,56.929,160.672"/>
<path fill="#2E3192" d="M56.929,154.65v-2.604c0-0.523-0.813-0.523-0.813,0v2.604C56.115,155.176,56.929,155.176,56.929,154.65"/>
<path fill="#2E3192" d="M56.691,148.18c0.188-0.766,0.33-1.549,0.163-2.332c-0.111-0.514-0.894-0.295-0.785,0.217
	c0.137,0.633-0.011,1.283-0.162,1.9C55.782,148.475,56.566,148.689,56.691,148.18"/>
<path fill="#2E3192" d="M56.929,142.703c-0.012-0.979-0.15-1.951-0.163-2.93c-0.007-0.525-0.82-0.525-0.813,0
	c0.012,0.979,0.151,1.951,0.163,2.93C56.122,143.227,56.935,143.229,56.929,142.703"/>
<path fill="#2E3192" d="M56.929,136.682v-2.604c0-0.523-0.813-0.523-0.813,0v2.604C56.115,137.207,56.929,137.207,56.929,136.682"/>
<path fill="#2E3192" d="M56.586,202.25c0.188-0.764,0.329-1.549,0.162-2.332c-0.11-0.512-0.894-0.293-0.784,0.219
	c0.136,0.631-0.012,1.281-0.162,1.898C55.677,202.545,56.461,202.762,56.586,202.25"/>
<path fill="#2E3192" d="M56.988,196.773c-0.013-0.979-0.15-1.951-0.162-2.93c-0.007-0.523-0.821-0.523-0.815,0
	c0.012,0.979,0.152,1.951,0.164,2.93C56.181,197.297,56.994,197.299,56.988,196.773"/>
<path fill="#2E3192" d="M56.988,191.291v-2.604c0-0.523-0.813-0.523-0.813,0v2.604C56.175,191.816,56.988,191.816,56.988,191.291"/>
<path fill="#2E3192" d="M56.779,184.283c0.188-0.766,0.33-1.549,0.162-2.332c-0.11-0.514-0.895-0.295-0.784,0.217
	c0.136,0.631-0.011,1.281-0.162,1.898C55.87,184.576,56.654,184.793,56.779,184.283"/>
<path fill="#2E3192" d="M57.182,178.805c-0.012-0.979-0.149-1.951-0.162-2.928c-0.007-0.525-0.82-0.525-0.814,0
	c0.012,0.977,0.151,1.949,0.164,2.928C56.375,179.33,57.188,179.33,57.182,178.805"/>
<path fill="#2E3192" d="M57.182,172.783v-2.604c0-0.523-0.813-0.523-0.813,0v2.604C56.369,173.309,57.182,173.309,57.182,172.783"/>
<path fill="#2E3192" d="M56.174,237.539c0.188-0.764,0.33-1.549,0.162-2.332c-0.11-0.512-0.895-0.295-0.784,0.219
	c0.136,0.631-0.011,1.281-0.162,1.898C55.265,237.834,56.049,238.051,56.174,237.539"/>
<path fill="#2E3192" d="M56.576,232.063c-0.012-0.979-0.149-1.951-0.162-2.93c-0.007-0.523-0.82-0.523-0.814,0
	c0.012,0.979,0.151,1.951,0.164,2.93C55.77,232.586,56.582,232.588,56.576,232.063"/>
<path fill="#2E3192" d="M56.576,226.041v-2.602c0-0.525-0.813-0.525-0.813,0v2.602C55.764,226.566,56.576,226.566,56.576,226.041"/>
<path fill="#2E3192" d="M56.368,219.572c0.187-0.766,0.329-1.551,0.161-2.332c-0.109-0.514-0.894-0.295-0.783,0.217
	c0.135,0.631-0.012,1.283-0.162,1.898C55.459,219.865,56.243,220.082,56.368,219.572"/>
<path fill="#2E3192" d="M56.771,214.094c-0.013-0.979-0.15-1.951-0.163-2.928c-0.007-0.525-0.82-0.525-0.814,0
	c0.013,0.977,0.152,1.949,0.164,2.928C55.963,214.619,56.776,214.619,56.771,214.094"/>
<path fill="#2E3192" d="M56.771,208.072v-2.602c0-0.525-0.813-0.525-0.813,0v2.602C55.957,208.598,56.771,208.598,56.771,208.072"/>
<path fill="#2E3192" d="M55.572,273.643c0.188-0.766,0.33-1.549,0.162-2.332c-0.11-0.514-0.894-0.295-0.784,0.217
	c0.135,0.633-0.011,1.281-0.162,1.898C54.663,273.936,55.447,274.152,55.572,273.643"/>
<path fill="#2E3192" d="M55.976,268.166c-0.013-0.98-0.15-1.951-0.163-2.93c-0.008-0.525-0.82-0.525-0.814,0
	c0.012,0.979,0.152,1.949,0.164,2.93C55.168,268.689,55.981,268.689,55.976,268.166"/>
<path fill="#2E3192" d="M55.976,262.145v-2.604c0-0.523-0.813-0.523-0.813,0v2.604C55.162,262.67,55.976,262.67,55.976,262.145"/>
<path fill="#2E3192" d="M55.767,255.674c0.188-0.766,0.329-1.549,0.162-2.332c-0.11-0.514-0.894-0.295-0.784,0.217
	c0.136,0.633-0.012,1.283-0.162,1.898C54.857,255.969,55.642,256.184,55.767,255.674"/>
<path fill="#2E3192" d="M56.169,250.197c-0.013-0.98-0.15-1.951-0.162-2.93c-0.007-0.525-0.821-0.525-0.815,0
	c0.013,0.979,0.152,1.949,0.164,2.93C55.361,250.721,56.175,250.723,56.169,250.197"/>
<path fill="#2E3192" d="M56.169,244.176v-2.604c0-0.523-0.813-0.523-0.813,0v2.604C55.355,244.701,56.169,244.701,56.169,244.176"/>
</svg>
