<svg xmlns="http://www.w3.org/2000/svg" xmlns:xlink="http://www.w3.org/1999/xlink" width="355.475" height="193.804">
  <defs>
    <path id="a" d="M-75.271 43.384h398.443v336.211H-75.271z"/>
  </defs>
  <clipPath id="b">
    <use xlink:href="#a" overflow="visible"/>
  </clipPath>
  <path clip-path="url(#b)" fill="#2B3990" d="M211.129 82.394c-.164 3.193 3.663 4.563 6.021 2.512.552-.479 1.193-1.07 1.313-1.844-.149.961.533 1.221 1.392 1.627 1.6.756 3.377-.59 4.448-1.633-.381.371 3.538 1.367 4.105 1.328 2.038-.146 2.853-2.348 3.264-4.016-.102.412 3.607-.602 4.04-.924 2.09-1.549 2.934-4.391 4.487-6.391.413-.533-.203-1.148-.732-.736-3.918 3.055-8.092 3.719-12.407.977-1.623-1.029-3.268-1.949-5.067-2.625-1.457-.549-2.922-.529-4.372-.029-.409.141-2.658 1.939-2.561 2.115-1.696-3.029-5.246-2.738-8.017-1.764-1.853.654-3.563 1.76-5.244 2.76-4.28 2.547-8.874 1.221-12.616-1.514-.508-.373-.976.395-.627.816 1.739 2.098 3.181 6.488 6.183 7.184.44.102 2.894-.01 2.922.131.286 1.43.938 2.879 2.241 3.646 1.148.678 2.601.455 3.803.119 1.621-.453 1.048-1.77 2.529-.422 2.209 2.012 4.826 1.17 6.201-1.125.345-.576-.549-1.098-.894-.523-1.94 3.238-4.493 1.291-5.903-.52-.201-.258-.673-.17-.813.105-2.271 4.494-5.83.135-6.354-2.49-.07-.354-.479-.445-.76-.311-4.421 2.1-6.318-3.986-8.424-6.531-.209.271-.417.545-.627.816 3.393 2.48 6.964 3.564 11.102 2.637 4.918-1.102 10.961-8.643 14.989-1.445.187.33.711.346.894 0 3.481-6.635 9.618-.258 14.016 1.445 3.683 1.428 7.672-.482 10.538-2.717-.245-.244-.488-.49-.732-.736-1.866 2.402-3.744 8.617-7.858 6.531-.275-.141-.694-.039-.76.311l-.175.932c-.276 2.395-2.185 2.914-5.723 1.559-.193-.379-.681-.291-.894 0-2.029 2.777-3.306 2.525-5.612.176-.251-.256-.802-.168-.864.23-.38 2.424-5.633 4.51-5.418.338.035-.671-1-.667-1.034.001"/>
  <path clip-path="url(#b)" fill="#414042" d="M213.921 43.755c-1.357 5.625-.611 11.197 1.304 16.602.875 2.469 2.159 4.771 3.596 6.947-.01-.016-3.817-.119-4.241-.15-1.363-.1-2.617.111-3.938.381-.654.133-.377 1.137.273 1.004 3.058-.627 6.002-.074 9.074.018.366.012.68-.461.447-.781-4.904-6.754-7.518-15.463-5.518-23.744.157-.652-.839-.929-.997-.277M198.786 54.278c2.527 3.699 7.592 3.287 9.996-.322.373-.561-.523-1.08-.894-.525-1.954 2.936-6.131 3.367-8.21.324-.374-.551-1.271-.029-.892.523M220.82 54.142c3.28 2.488 7.488 3.229 10.481-.08.446-.496-.282-1.234-.732-.736-2.701 2.986-6.331 2.115-9.227-.082-.532-.405-1.046.499-.522.898"/>
  <path clip-path="url(#b)" fill="#EC008C" d="M192.453 85.669c-2.464 1.273-6.388 4.016-5.786 7.387.641 3.59 4.676 2.982 7.287 2.166l-.503-.869c-2.739 2.646-10.296 9.869-3.947 13.49 1.019.582 1.798.793 2.968.873.217.016-1.904 4.162-2.166 4.736-.97 2.131-.699 5.021 1.043 6.719 2.002 1.955 4.2 2.227 6.889 1.781 2.177-.363 2.26-1.195 2.076 1.355-.127 1.748-.094 3.416.295 5.123 1.678 7.367 10.836 3.787 13.977-.049-.294-.121-.588-.244-.882-.367 1.299 9.979 17.268 6.672 13.646-.539l-.708.711c4.06 2.396 9.475-.586 11.031-4.809.636-1.723.883-3.867-.412-5.391-.705-.828-.793-.348.296-.686.571-.178 1.061-.529 1.555-.854.981-.641 1.644-1.68 2.196-2.686 1.145-2.078 1.029-4.646.264-6.811-.031-.088-1.404-2.635-1.634-2.486.957-.617 1.651-1.553 2.287-2.477 2.748-3.992 1.002-8.418-3.741-8.9l.137 1.023c6.898-1.055 5.722-10.078.399-12.605-.599-.283-1.124.613-.521.898 4.456 2.117 5.958 9.771-.152 10.703-.62.096-.396.969.138 1.021 6.347.645 3.942 7.494.291 9.852-.266.172-.365.588-.105.816 4.22 3.725 2.687 10.963-3.08 11.895-.374.061-.509.631-.229.869 5.362 4.57-2.908 12.848-8.196 9.727-.468-.275-.936.26-.708.711 2.666 5.309-10.593 8.654-11.718.016-.051-.391-.559-.766-.883-.367-2.953 3.604-9.834 6.797-12.248.506-.879-2.285-.172-5.252-.104-7.631.009-.314-.341-.623-.653-.5-4.117 1.604-11.107 1.666-9.918-5.205.399-2.318 2.284-4.43 3.108-6.641.155-.414-.29-.691-.636-.641-6.719.99-5.329-5.969-2.979-8.807 1.105-1.336 2.514-2.439 3.758-3.643.368-.355-.008-1.023-.504-.869-2.158.676-6.552 1.461-5.908-2.369.428-2.537 3.146-4.219 5.205-5.281.591-.301.067-1.2-.525-.895"/>
  <path clip-path="url(#b)" fill="#EC008C" d="M198.884 89.741c-2.867 4.881 1.535 8.572 5.947 5.15-.254-.195-.508-.391-.761-.588-1.099 3.031-.067 9.268 4.728 7.699.951-.313 5.914-4.008 5.647-4.307 1.127 1.264 3.345 2.047 5.009 1.742 1.676-.307 3.415-1.225 3.965-3 .495-1.604.653-.785 2.104-.16.886.381 1.81.488 2.757.564 5.085.414 5.766-4.703 4.359-8.365-.237-.619-1.237-.35-.996.277 2.485 6.475-3.236 8.635-8.064 5.238-.359-.254-.731.1-.777.449-.638 4.869-5.544 4.854-8.216 1.854-.176-.197-.559-.211-.732 0-.782.951-1.551 1.906-2.382 2.816-3.792 4.156-8.048.004-6.403-4.531.146-.406-.402-.865-.759-.588-3.377 2.619-6.909.316-4.532-3.727.338-.577-.555-1.099-.894-.523M199.987 106.11c-3.239 5.35 1.938 6.781 5.774 3.684l-.882-.369c.749 7.65 9.88 5.51 11.768-.416l-.945.123c3.308 5.061 9.302 3.262 10.595-2.342l-.945.123c3.6 6.547 10.142-.732 7.787-6.074-.27-.613-1.161-.082-.894.525 1.781 4.039-3.113 10.275-6 5.023-.212-.387-.845-.313-.945.125-1.058 4.586-5.809 6.527-8.704 2.096a.52.52 0 00-.944.123c-1.461 4.582-9.086 7.344-9.737.693-.048-.471-.519-.662-.884-.367-2.504 2.021-6.246 1.039-4.15-2.422.347-.575-.547-1.097-.894-.525"/>
  <path clip-path="url(#b)" fill="#1C75BC" d="M138.237 108.698c-3.895.068-6.107 2.094-8.711 4.402-6.295 5.582-13.566.352-17.447-4.871-.18.209-.36.416-.541.623 4.727 1.752 8.894 2.367 12.476-1.359 2.033-2.117 3.202-4.693 5.38-6.756 2.143-2.029 4.838-2.586 7.657-1.248 1.69.803 1.265 1.473 2.583 1.473.262 0 .509.041.715-.123 2.835-2.271 5.706-2.861 8.835-.68 2.802 1.951 3.853 5.012 6.089 7.334 3.586 3.727 7.758 3.111 12.489 1.359l-.542-.623c-2.455 3.301-5.652 6.234-10.076 7.322-3.931.967-6.688-1.836-9.125-3.994-2.931-2.595-5.827-2.859-9.782-2.859a.426.426 0 000 .848c3.304 0 5.853.051 8.514 2.113 1.854 1.438 3.389 3.441 5.753 4.289 6.429 2.303 12.312-2.943 15.545-7.289.215-.291-.149-.77-.542-.623-3.411 1.264-7.002 2.373-10.241.107-2.584-1.807-3.914-5.125-6.028-7.369-1.442-1.531-3.277-2.631-5.51-2.945-1.008-.145-2.003.145-2.933.438-.71.223-2.457 1.848-3.161 1.848-.52 0-2.585-1.588-3.043-1.805-.915-.434-1.912-.49-2.917-.496-2.25-.018-4.222 1.627-5.631 2.961-2.15 2.035-3.328 4.686-5.358 6.795-2.964 3.084-7.346 1.781-10.892.467-.394-.146-.757.332-.542.623 2.625 3.531 7.594 8.576 13.06 7.875 5.816-.748 7.882-6.883 13.927-6.988.616-.013.618-.86-.001-.849"/>
</svg>
