<?xml version="1.0" encoding="utf-8"?>
<!-- Generator: Adobe Illustrator 16.0.0, SVG Export Plug-In . SVG Version: 6.00 Build 0)  -->
<!DOCTYPE svg PUBLIC "-//W3C//DTD SVG 1.1//EN" "http://www.w3.org/Graphics/SVG/1.1/DTD/svg11.dtd">
<svg version="1.1" id="Layer_1" xmlns="http://www.w3.org/2000/svg" xmlns:xlink="http://www.w3.org/1999/xlink" x="0px" y="0px"
	 width="355.475px" height="193.804px" viewBox="0 0 355.475 193.804" enable-background="new 0 0 355.475 193.804"
	 xml:space="preserve">
<g>
	<defs>
		<rect id="SVGID_3_" x="-75.271" y="43.384" width="398.443" height="336.211"/>
	</defs>
	<clipPath id="SVGID_2_">
		<use xlink:href="#SVGID_3_"  overflow="visible"/>
	</clipPath>
	<path clip-path="url(#SVGID_2_)" fill="#2B3990" d="M211.129,82.394c-0.164,3.193,3.663,4.563,6.021,2.512
		c0.552-0.479,1.193-1.07,1.313-1.844c-0.149,0.961,0.533,1.221,1.392,1.627c1.6,0.756,3.377-0.59,4.448-1.633
		c-0.381,0.371,3.538,1.367,4.105,1.328c2.038-0.146,2.853-2.348,3.264-4.016c-0.102,0.412,3.607-0.602,4.04-0.924
		c2.09-1.549,2.934-4.391,4.487-6.391c0.413-0.533-0.203-1.148-0.732-0.736c-3.918,3.055-8.092,3.719-12.407,0.977
		c-1.623-1.029-3.268-1.949-5.067-2.625c-1.457-0.549-2.922-0.529-4.372-0.029c-0.409,0.141-2.658,1.939-2.561,2.115
		c-1.696-3.029-5.246-2.738-8.017-1.764c-1.853,0.654-3.563,1.76-5.244,2.76c-4.28,2.547-8.874,1.221-12.616-1.514
		c-0.508-0.373-0.976,0.395-0.627,0.816c1.739,2.098,3.181,6.488,6.183,7.184c0.44,0.102,2.894-0.01,2.922,0.131
		c0.286,1.43,0.938,2.879,2.241,3.646c1.148,0.678,2.601,0.455,3.803,0.119c1.621-0.453,1.048-1.77,2.529-0.422
		c2.209,2.012,4.826,1.17,6.201-1.125c0.345-0.576-0.549-1.098-0.894-0.523c-1.94,3.238-4.493,1.291-5.903-0.52
		c-0.201-0.258-0.673-0.17-0.813,0.105c-2.271,4.494-5.83,0.135-6.354-2.49c-0.07-0.354-0.479-0.445-0.76-0.311
		c-4.421,2.1-6.318-3.986-8.424-6.531c-0.209,0.271-0.417,0.545-0.627,0.816c3.393,2.48,6.964,3.564,11.102,2.637
		c4.918-1.102,10.961-8.643,14.989-1.445c0.187,0.33,0.711,0.346,0.894,0c3.481-6.635,9.618-0.258,14.016,1.445
		c3.683,1.428,7.672-0.482,10.538-2.717c-0.245-0.244-0.488-0.49-0.732-0.736c-1.866,2.402-3.744,8.617-7.858,6.531
		c-0.275-0.141-0.694-0.039-0.76,0.311c-0.058,0.311-0.116,0.621-0.175,0.932c-0.276,2.395-2.185,2.914-5.723,1.559
		c-0.193-0.379-0.681-0.291-0.894,0c-2.029,2.777-3.306,2.525-5.612,0.176c-0.251-0.256-0.802-0.168-0.864,0.23
		c-0.38,2.424-5.633,4.51-5.418,0.338C212.198,81.722,211.163,81.726,211.129,82.394"/>
	<path clip-path="url(#SVGID_2_)" fill="#414042" d="M213.921,43.755c-1.357,5.625-0.611,11.197,1.304,16.602
		c0.875,2.469,2.159,4.771,3.596,6.947c-0.01-0.016-3.817-0.119-4.241-0.15c-1.363-0.1-2.617,0.111-3.938,0.381
		c-0.654,0.133-0.377,1.137,0.273,1.004c3.058-0.627,6.002-0.074,9.074,0.018c0.366,0.012,0.68-0.461,0.447-0.781
		c-4.904-6.754-7.518-15.463-5.518-23.744C215.075,43.38,214.079,43.103,213.921,43.755"/>
	<path clip-path="url(#SVGID_2_)" fill="#414042" d="M198.786,54.278c2.527,3.699,7.592,3.287,9.996-0.322
		c0.373-0.561-0.523-1.08-0.894-0.525c-1.954,2.936-6.131,3.367-8.21,0.324C199.304,53.204,198.407,53.726,198.786,54.278"/>
	<path clip-path="url(#SVGID_2_)" fill="#414042" d="M220.82,54.142c3.28,2.488,7.488,3.229,10.481-0.08
		c0.446-0.496-0.282-1.234-0.732-0.736c-2.701,2.986-6.331,2.115-9.227-0.082C220.81,52.839,220.296,53.743,220.82,54.142"/>
	<path clip-path="url(#SVGID_2_)" fill="#EC008C" d="M192.453,85.669c-2.464,1.273-6.388,4.016-5.786,7.387
		c0.641,3.59,4.676,2.982,7.287,2.166c-0.167-0.289-0.335-0.58-0.503-0.869c-2.739,2.646-10.296,9.869-3.947,13.49
		c1.019,0.582,1.798,0.793,2.968,0.873c0.217,0.016-1.904,4.162-2.166,4.736c-0.97,2.131-0.699,5.021,1.043,6.719
		c2.002,1.955,4.2,2.227,6.889,1.781c2.177-0.363,2.26-1.195,2.076,1.355c-0.127,1.748-0.094,3.416,0.295,5.123
		c1.678,7.367,10.836,3.787,13.977-0.049c-0.294-0.121-0.588-0.244-0.882-0.367c1.299,9.979,17.268,6.672,13.646-0.539
		c-0.235,0.236-0.472,0.473-0.708,0.711c4.06,2.396,9.475-0.586,11.031-4.809c0.636-1.723,0.883-3.867-0.412-5.391
		c-0.705-0.828-0.793-0.348,0.296-0.686c0.571-0.178,1.061-0.529,1.555-0.854c0.981-0.641,1.644-1.68,2.196-2.686
		c1.145-2.078,1.029-4.646,0.264-6.811c-0.031-0.088-1.404-2.635-1.634-2.486c0.957-0.617,1.651-1.553,2.287-2.477
		c2.748-3.992,1.002-8.418-3.741-8.9c0.046,0.342,0.091,0.682,0.137,1.023c6.898-1.055,5.722-10.078,0.399-12.605
		c-0.599-0.283-1.124,0.613-0.521,0.898c4.456,2.117,5.958,9.771-0.152,10.703c-0.62,0.096-0.396,0.969,0.138,1.021
		c6.347,0.645,3.942,7.494,0.291,9.852c-0.266,0.172-0.365,0.588-0.105,0.816c4.22,3.725,2.687,10.963-3.08,11.895
		c-0.374,0.061-0.509,0.631-0.229,0.869c5.362,4.57-2.908,12.848-8.196,9.727c-0.468-0.275-0.936,0.26-0.708,0.711
		c2.666,5.309-10.593,8.654-11.718,0.016c-0.051-0.391-0.559-0.766-0.883-0.367c-2.953,3.604-9.834,6.797-12.248,0.506
		c-0.879-2.285-0.172-5.252-0.104-7.631c0.009-0.314-0.341-0.623-0.653-0.5c-4.117,1.604-11.107,1.666-9.918-5.205
		c0.399-2.318,2.284-4.43,3.108-6.641c0.155-0.414-0.29-0.691-0.636-0.641c-6.719,0.99-5.329-5.969-2.979-8.807
		c1.105-1.336,2.514-2.439,3.758-3.643c0.368-0.355-0.008-1.023-0.504-0.869c-2.158,0.676-6.552,1.461-5.908-2.369
		c0.428-2.537,3.146-4.219,5.205-5.281C193.569,86.263,193.045,85.364,192.453,85.669"/>
	<path clip-path="url(#SVGID_2_)" fill="#EC008C" d="M198.884,89.741c-2.867,4.881,1.535,8.572,5.947,5.15
		c-0.254-0.195-0.508-0.391-0.761-0.588c-1.099,3.031-0.067,9.268,4.728,7.699c0.951-0.313,5.914-4.008,5.647-4.307
		c1.127,1.264,3.345,2.047,5.009,1.742c1.676-0.307,3.415-1.225,3.965-3c0.495-1.604,0.653-0.785,2.104-0.16
		c0.886,0.381,1.81,0.488,2.757,0.564c5.085,0.414,5.766-4.703,4.359-8.365c-0.237-0.619-1.237-0.35-0.996,0.277
		c2.485,6.475-3.236,8.635-8.064,5.238c-0.359-0.254-0.731,0.1-0.777,0.449c-0.638,4.869-5.544,4.854-8.216,1.854
		c-0.176-0.197-0.559-0.211-0.732,0c-0.782,0.951-1.551,1.906-2.382,2.816c-3.792,4.156-8.048,0.004-6.403-4.531
		c0.146-0.406-0.402-0.865-0.759-0.588c-3.377,2.619-6.909,0.316-4.532-3.727C200.116,89.687,199.223,89.165,198.884,89.741"/>
	<path clip-path="url(#SVGID_2_)" fill="#EC008C" d="M199.987,106.11c-3.239,5.35,1.938,6.781,5.774,3.684
		c-0.294-0.123-0.588-0.246-0.882-0.369c0.749,7.65,9.88,5.51,11.768-0.416c-0.314,0.041-0.629,0.082-0.945,0.123
		c3.308,5.061,9.302,3.262,10.595-2.342c-0.315,0.041-0.63,0.082-0.945,0.123c3.6,6.547,10.142-0.732,7.787-6.074
		c-0.27-0.613-1.161-0.082-0.894,0.525c1.781,4.039-3.113,10.275-6,5.023c-0.212-0.387-0.845-0.313-0.945,0.125
		c-1.058,4.586-5.809,6.527-8.704,2.096c-0.249-0.381-0.805-0.316-0.944,0.123c-1.461,4.582-9.086,7.344-9.737,0.693
		c-0.048-0.471-0.519-0.662-0.884-0.367c-2.504,2.021-6.246,1.039-4.15-2.422C201.228,106.06,200.334,105.538,199.987,106.11"/>
	<path clip-path="url(#SVGID_2_)" fill="#1C75BC" d="M138.237,108.698c-3.895,0.068-6.107,2.094-8.711,4.402
		c-6.295,5.582-13.566,0.352-17.447-4.871c-0.18,0.209-0.36,0.416-0.541,0.623c4.727,1.752,8.894,2.367,12.476-1.359
		c2.033-2.117,3.202-4.693,5.38-6.756c2.143-2.029,4.838-2.586,7.657-1.248c1.69,0.803,1.265,1.473,2.583,1.473
		c0.262,0,0.509,0.041,0.715-0.123c2.835-2.271,5.706-2.861,8.835-0.68c2.802,1.951,3.853,5.012,6.089,7.334
		c3.586,3.727,7.758,3.111,12.489,1.359c-0.181-0.207-0.36-0.414-0.542-0.623c-2.455,3.301-5.652,6.234-10.076,7.322
		c-3.931,0.967-6.688-1.836-9.125-3.994C145.088,108.962,142.192,108.698,138.237,108.698c-0.619,0-0.619,0.848,0,0.848
		c3.304,0,5.853,0.051,8.514,2.113c1.854,1.438,3.389,3.441,5.753,4.289c6.429,2.303,12.312-2.943,15.545-7.289
		c0.215-0.291-0.149-0.77-0.542-0.623c-3.411,1.264-7.002,2.373-10.241,0.107c-2.584-1.807-3.914-5.125-6.028-7.369
		c-1.442-1.531-3.277-2.631-5.51-2.945c-1.008-0.145-2.003,0.145-2.933,0.438c-0.71,0.223-2.457,1.848-3.161,1.848
		c-0.52,0-2.585-1.588-3.043-1.805c-0.915-0.434-1.912-0.49-2.917-0.496c-2.25-0.018-4.222,1.627-5.631,2.961
		c-2.15,2.035-3.328,4.686-5.358,6.795c-2.964,3.084-7.346,1.781-10.892,0.467c-0.394-0.146-0.757,0.332-0.542,0.623
		c2.625,3.531,7.594,8.576,13.06,7.875c5.816-0.748,7.882-6.883,13.927-6.988C138.854,109.534,138.856,108.687,138.237,108.698"/>
</g>
</svg>
