<svg xmlns="http://www.w3.org/2000/svg" xmlns:xlink="http://www.w3.org/1999/xlink" width="355.475" height="193.804">
  <defs>
    <path id="a" d="M94.678 5.335h189.541v180.381H94.678z"/>
  </defs>
  <clipPath id="b">
    <use xlink:href="#a" overflow="visible"/>
  </clipPath>
  <path clip-path="url(#b)" fill="#FFF200" d="M123.313 180.098c13.475 1.718 26.481-12.369 27.781-24.949.658-6.362-.608-13.958-7.979-15.631-6.316-1.434-13.242 2.672-18.002 6.21-7.15 5.314-16.646 15.793-14.5 25.618 1.62 7.424 11.005 8.838 17.245 8.458 13.943-.846 37.84-11.941 30.07-29.532-4.005-9.072-14.031-16.565-24.142-16.508-9.115.051-16.596 6.477-21.317 13.582-4.327 6.518-7.053 15.545-4.514 23.299 3.132 9.565 13.492 11.251 22.184 9.595 11.447-2.181 25.699-10.71 25.871-23.607.096-7.29-5.956-13.224-11.544-17.123-6.602-4.604-15.299-4.984-22.637-2.431-10.783 3.755-22.879 16.57-21.338 28.88 1.131 9.026 9.984 12.741 18.102 13.371 8.674.672 18.219-2.192 24.513-8.106 7.555-7.099 6.199-17.537.787-25.622-4.53-6.77-11.742-11.188-20.018-10.668-7.951.501-14.576 5.711-19.248 11.68-3.873 4.949-7.262 11.227-5.889 17.718 1.474 6.982 10.202 8.098 15.976 7.482 9.661-1.03 24.44-9.67 23.525-20.837-.489-5.957-6.674-10.658-12.35-11.296-6.907-.78-13.686 2.28-18.851 6.518-5.08 4.172-7.24 10.82-3.826 16.771 2.764 4.817 8.839 5.613 13.769 4.734 11.342-2.017 23.653-10.386 30.236-19.615 3.427-4.807 3.107-10.914.104-15.988-3.362-5.681-10.111-8.398-16.405-8.872-6.583-.495-12.793 2.863-16.494 8.058-3.894 5.47-6.421 13.961-.96 19.497 5.678 5.753 13.885 3.069 20.025-.131 7.22-3.765 13.335-9.627 17.323-16.665 4.354-7.682 4.472-17.084-.229-24.758-4.358-7.116-12.914-6.699-18.694-1.832-7.413 6.245-11.994 20.753-7.488 29.863 2.416 4.889 8.244 4.227 12.03 1.719 6.604-4.381 11.535-11.797 12.972-19.525 2.226-11.981-3.638-24.605-12.503-32.736-2.332-2.139-6.445-.587-6.23 2.701.555 8.533 2.554 16.945 2.797 25.495.271 9.53-4.321 15.625-12.894 19.51l4.616 5.698c11.655-14.992 23.044-39.799 3.806-54.384-2.799-2.12-7.217-.184-6.071 3.625 3.398 11.294 5.719 23.16 4.841 34.924l6.231-2.702c-2.402-2.77-3.052-7.013-3.936-10.422-1.09-4.211-2.317-8.426-4.76-12.104-2.124-3.199-3.965-6.438-6.337-9.501-2.291-2.955-4.672-5.944-6.034-9.442-2.518-6.464-.758-15.736 3.977-20.772 3.494-3.718 9.272-3.608 14.004-2.952 13.668 1.893 26.587 8.14 40.635 6.391 8.055-1.004 14.981-5.069 18.628-12.359 3.448-6.894 1.311-15.522 1.756-22.926.477-7.918 6.954-14.797 15.148-14.81 8.209-.014 10.41 9.849 9.533 16.117-1.807 12.9-12.197 28.882-.685 40.595 6.619 6.735 17.235 1.978 24.198-1.146 7.304-3.273 16.729-9.551 25.187-7.757 3.917.83 7.152 4.965 7.583 8.96.551 5.096-4.128 9.417-7.445 12.587-8.472 8.103-20.839 15.886-20.831 28.994.007 6.53 5.354 11.478 7.569 17.295.938 2.457.801 5.244-1.62 6.703-2.326 1.399-6.411.487-8.969.304-7.894-.565-13.361 2.231-17.298 9.098-2.149 3.746-3.385 7.921-5.711 11.585-1.092 1.722-6.466 6.646-8.899 5.502-1.933-.909-3.125-5.174-4.043-6.934-1.694-3.238-4.119-6.044-7.406-7.751-7.482-3.887-17.391-2.47-25.215-.944-7.87 1.537-14.2 4.393-20.364 9.352-3.003 2.415-5.819 4.685-9.892 4.559-2.308-.069-4.656-1.255-6.801-2.004-2.373-.828-3.695-1.065-3.601-3.721.168-4.707-7.21-4.513-7.378.175-.305 8.468 9.154 11.58 16.241 12.678 7.543 1.169 12.687-3.397 18.14-7.649 5.075-3.96 11.282-5.554 17.585-6.699 5.396-.981 14.393-2.288 19.168 1.446 4.525 3.538 4.594 10.487 9.649 13.616 6.388 3.955 15.16-2.233 18.734-7.251 3.895-5.467 5.392-17.348 13.597-17.848 6.119-.374 13.133 2.062 18.194-2.565 5.478-5.01 4.091-12.13.937-18.056-2.757-5.181-6.852-9.569-4.365-15.628 2.267-5.521 7.318-9.674 11.682-13.534 4.607-4.076 9.307-8.031 12.775-13.154 6.358-9.395 1.311-22.396-9.487-25.978-9.055-3.003-19.431 2.677-27.277 6.344-4.075 1.906-8.152 3.883-12.537 5.024-1.324.342-3.295.567-4.208.447-1.753-.231-2.187-.549-3.396-1.9-4.064-4.543-2.326-12.727-.825-17.938 2.394-8.313 5.718-16.223 4.137-25.078-1.273-7.112-6.526-13.143-13.68-14.797-7.384-1.707-15.688 2.257-20.285 7.783-5.344 6.418-5.48 14.464-5.168 22.428.137 3.511.491 7.647-.941 10.939-1.663 3.818-4.891 6.352-8.787 7.702-11.352 3.933-24.584-1.355-35.76-4.014-9.544-2.27-20.733-3.611-28.012 4.133-4.103 4.362-6.043 10.979-6.5 16.828-.552 7.077 1.755 13.211 5.922 18.942 3.895 5.354 8.378 10.484 10.724 16.739 2.494 6.646 2.811 13.993 7.668 19.597 2.385 2.751 6.021.093 6.229-2.701.918-12.322-1.596-24.942-5.157-36.771l-6.073 3.624c15.604 11.828 5.298 31.979-4.082 44.044-2.588 3.328.765 7.443 4.615 5.697 9.072-4.113 15.207-11.153 16.2-21.2.999-10.085-1.943-20.209-2.599-30.265l-6.23 2.703c6.51 5.969 10.574 14.025 10.634 22.813.05 7.389-4.859 15.426-11.448 18.859-.518.271-.546.029-.254.175.3.147.026-.047-.169-.601-.729-2.068-.481-4.513-.179-6.621.687-4.765 2.566-10.774 6.566-13.83 3.093-2.361 5.742-2.367 7.825 1.034 2.578 4.209 2.33 9.242.894 13.693-2.509 7.771-9.878 13.671-16.891 17.328-2.521 1.313-6.39 3.02-9.23 1.647-3.347-1.618-1.546-6.438-.416-8.746 2.827-5.769 8.532-8.193 14.804-6.68 4.885 1.181 10.294 6.756 8.048 11.462-2.171 4.552-7.214 8.13-11.242 10.934-4.701 3.269-10.362 6.625-16.217 7.281-4.722.528-7.464-3.131-4.293-7.209 3.094-3.979 11.026-8.396 16.302-6.272 5.553 2.232 4.861 6.307 1.416 9.974-3.48 3.707-8.945 6.827-14.113 7.378-2.188.233-6.354.625-7.805-1.565-1.281-1.934.512-5.404 1.355-7.113 3.153-6.369 9.313-12.796 16.761-13.646 7.39-.842 13.296 5.149 15.913 11.497 3.236 7.848-1.82 13.686-9.073 16.438-6.419 2.438-16.215 3.154-21.135-1.109-2.192-1.9-2.501-4.642-1.57-8.06 1.727-6.323 6.809-11.953 12.314-15.277 7.061-4.264 15.673-3.848 22.115 1.535 4.962 4.145 7.639 9.212 4.057 14.986-4.739 7.642-19.994 14.462-28.397 10.273-2.313-1.154-3.571-3.445-3.9-6.126-.424-3.457.343-6.97 1.682-10.221 2.705-6.574 8.418-13.831 15.989-14.959 8.163-1.214 17.605 5.867 19.619 13.677.678 2.632-.44 5.47-2.064 7.497-2.355 2.936-5.545 4.92-8.926 6.571-6.103 2.979-14.39 4.855-20.691 2.784-1.696-.559-2.478-1.364-2.455-3.478.033-3.361 3.546-7.739 5.834-10.806 3.091-4.143 7.763-7.672 12.544-9.689 1.859-.783 4.007-1.484 6.048-1.021 1.824.415 1.796 3.486 1.845 4.812.203 5.409-2.519 10.335-5.918 14.334-3.014 3.549-7.953 7.738-13.063 7.088-4.673-.594-6.352 6.507-1.618 7.111"/>
  <path clip-path="url(#b)" fill="#FFF200" d="M117.627 166.241c13.542 14.38 29.014-7.364 32.476-19.22.826-2.834 1.096-5.771-.179-8.526-1.532-3.31-5.657-3.059-8.385-1.853-4.189 1.854-7.639 5.659-10.697 8.915-4.079 4.338-8.537 8.803-11.478 14.011-2.08 3.688-2.388 8.037.788 11.262 3.892 3.954 11.111 3.743 16.044 2.896 11.739-2.014 23.709-12.07 27.267-23.309 1.215-3.84-3.792-5.41-6.282-3.41-7.769 6.237-14.839 13.204-21.364 20.704-2.61 2.999 1.028 8.096 4.615 5.696 7.397-4.943 13.56-11.584 20.09-17.544 5.654-5.163 13.055-12.565 21.24-13.198l-3.402-5.423c-4.696 6.75-14.048 11.221-22.335 10.802l2.825 6.211c5.83-7.478 17.513-9.241 26.525-8.631 5.34.364 9.319 2.731 13.277 6.171 4.625 4.023 9.361 7.272 15.727 6.924 2.595-.144 3.787-2.32 3.387-4.666-1.887-11.036-17.143-14.503-26.521-13.392-3.079.364-4.836 3.875-2.396 6.269 6.418 6.292 15.068 7.252 23.429 5.264 2.834-.673 4.446-2.837 3.888-5.701-.178-.912-.995-1.784-1.616-2.422-.232-.238-.482-.46-.724-.693-.515-.494.214-.178.016 1.26.646-4.672-5.742-6.184-7.204-1.71-.682 2.081-2.461 3.708-3.106 5.885-.978 3.296.038 6.024 2.17 8.634 4.855 5.943 13.353 1.138 16.394-3.771 2.423-3.911 1.694-11.198-2.666-13.738-3.651-2.126-7.56-.276-10.473 2.038-2.566 2.04-4.5 5.392-3.693 8.726 1.178 4.86 7.55 4.105 11.06 3.254 5.919-1.437 10.594-7.234 14.154-11.723 4.064-5.124 7.941-10.837 9.984-17.103.641-1.966-1-3.87-2.794-4.409-9.759-2.932-20.897 7.461-18.986 17.26 1.132 5.803 8.207 5.6 12.46 4.239 6.902-2.21 11.949-10.921 12.445-17.771.502-6.941-7.516-10.863-11.535-4.69-1.907 2.928-1.619 7.563-.772 10.804.991 3.793 4.627 6.182 8.392 6.498 6.805.573 13.91-5.521 12.918-12.722-1.197-8.672-11.255-2.897-14.067 1.281-2.828 4.2-.617 10.124 4.729 10.82 6.639.865 8.903-5.328 7.648-10.783-.643-2.804-4.366-3.335-6.209-1.544-3.808 3.694-6.376 10.236-.399 13.51 4.619 2.529 10.15-.416 11.3-5.195 1.721-7.148-4.731-13.248-11.252-14.485-7.269-1.378-16.081.998-21.449 5.93 1.979 1.441 3.958 2.883 5.935 4.325 9.026-15.554 10.742-37.514 28.684-46.118-1.731-1.637-3.463-3.272-5.194-4.91-4.24 10.587-19.062 18.076-17.062 30.93.45 2.895 2.962 4.229 5.626 3.055 6.957-3.065 12.108-9.554 16.333-15.582 4.414-6.297 8.061-13.722 8.232-21.562.138-6.287-4.797-10.574-10.99-9.827-6.774.817-12.965 5.366-17.371 10.242-4.906 5.431-8.344 13.716-6.112 21.064 2.39 7.868 11.818 8.387 18.251 5.795 5.272-2.125 9.738-6.639 13.588-10.637 4.47-4.643 8.773-10.059 10.678-16.296 1.601-5.246-.813-10.23-6.025-12.092-5.355-1.912-12.313.542-17.206 2.521-5.322 2.153-11.188 5.104-14.837 9.632-2.973 3.684-4.578 10.369-.236 13.809 4.496 3.557 11.288 2.162 16.308.902 5.47-1.372 11.392-3.568 15.521-7.46 3.388-3.19 9.56-9.864 4.933-14.64-3.459-3.567-9.758-2.117-13.865-.958-10.812 3.046-18.643 11.548-28.975 15.544-5.524 2.137-11.908 1.995-15.664-3.309-3.804-5.375-1.039-12.929 1.652-18.027-2.262-.254-4.525-.505-6.788-.759 1.895 7.615 5.51 14.624 8.34 21.924 1.131-1.555 2.259-3.11 3.387-4.665-4.757.593-8.865.104-11.132-4.42-2.163-4.312-1.54-10.315-1.018-14.868 1.206-10.554 5.119-20.438 6.771-30.856.647-4.091-4.662-6.174-6.861-2.625-6.137 9.907-8.859 22.26-8.547 33.895.096 3.638 5.254 4.868 6.946 1.682 5.345-10.063 12.536-29.998.179-38.141-12.705-8.367-19.332 11.794-21.121 20.376-1.384 6.636-1.328 18.495 8.822 16.425 7.3-1.489 13.206-9.874 16.615-15.768 5.637-9.74 7.644-23.673-4.243-29.97-1.408-.745-3.337-.569-4.415.644-6.942 7.823-11.518 21.58-4.804 31.061 1.138 1.604 3.321 2.391 5.081 1.271 4.095-2.601 7.537-6.346 10.504-10.115 3.163-4.022 6.271-8.821 6.203-14.141-.058-4.473-4.299-8.685-8.866-8.314-4.708.383-7.819 4.834-10.011 8.478-2.231 3.71-3.993 7.953-5.07 12.154-1.844 7.191-.73 14.736-.624 22.078.051 3.35-.026 7.168-1.751 10.12-1.656 2.843-4.915 4.496-7.93 5.537-6.356 2.188-13.474 1.984-20.143 1.915.405 2.389.813 4.777 1.22 7.166 10.301-2.425 20.588-4.87 30.615-8.226l-3.012-6.654c-8.867 6.09-17.946 5.901-28.124 3.194-9.982-2.652-19.577-6.068-30.04-5.088-9.399.881-16.763 6.743-15.554 16.678 1.18 9.687 8.017 18.696 14.708 25.524 2.927 2.987 8.069-1.027 5.685-4.482-5.102-7.397-8.662-17.483.121-23.423 6.564-4.44 15.37-1.481 22.473-4.192 4.389-1.674 2.274-8.712-2.15-7.023-4.018 1.534-9.096 1.03-13.348 1.531-5.825.687-10.726 2.572-14.932 6.694-8.578 8.406-4.452 21.45 1.548 30.151l5.685-4.484c-5.518-5.63-11.525-13.199-12.502-21.216-1.203-9.896 12.559-9.177 19.144-8.123 8.597 1.376 16.707 4.891 25.311 6.258 9.313 1.48 18.16-.437 25.851-5.715 3.284-2.255 1.127-8.04-3.012-6.653-10.028 3.354-20.314 5.799-30.616 8.226-4.193.986-2.862 7.124 1.219 7.166 11.159.116 24.828.11 32.659-8.95 8.466-9.796 1.855-25.186 4.805-36.684.895-3.489 2.494-6.837 4.281-9.942.908-1.582 1.967-3.001 3.313-4.24.695-.641.883-.737 1.431-.002 1.75 2.343-2.684 7.909-3.945 9.57-2.487 3.275-5.502 6.712-9.016 8.945 1.691.425 3.386.848 5.08 1.272-4.743-6.696-.986-16.735 3.873-22.21l-4.416.643c7.131 3.777 5.313 11.905 2.19 18.196-1.815 3.652-4.213 6.962-7.061 9.88-1.225 1.254-2.171 2.076-3.48 2.957-.588.396-1.209.737-1.848 1.046.732-.354-1.87.338-.712.216-.644.066.192.309.09.141.115.186-.218-.737-.21-.683-.164-1.05-.131-2.123-.079-3.177.265-5.388 1.984-11.226 4.5-15.946.948-1.779 2.292-3.975 4.356-4.582 2.209-.649 4.113 3.226 4.541 4.758 1.79 6.446-1.313 14.746-3.778 20.577a46.815 46.815 0 01-1.805 3.759c2.316.561 4.632 1.12 6.947 1.682-.28-10.416 2.196-21.324 7.685-30.184l-6.86-2.623c-.763 4.816-2.324 9.529-3.51 14.249-1.725 6.863-3.131 13.795-3.664 20.875-.448 5.925-.076 12.574 3.311 17.745 3.69 5.631 10.457 7.078 16.739 6.295 2.182-.273 4.315-2.269 3.386-4.666-2.833-7.301-6.444-14.309-8.341-21.923-.784-3.148-5.357-3.471-6.789-.758-3.521 6.669-5.773 14.609-3.067 22.043 2.644 7.262 10.063 11.521 17.577 11.523 14.103.007 23.839-12.925 36.471-17.01 2.219-.718 4.498-1.212 6.853-1.14.934.029.602.413.022-.4-.357-.502-.117-1.554-.308-.695-.102.456-.597 1.107-.879 1.549-3.274 5.1-8.841 7.408-14.451 9.091-2.662.8-5.38 1.354-8.177 1.417-.727.018-1.777-.017-2.383-.264-.384-.156-.445.193-.364-.504.524-4.658 6.262-7.507 10.491-9.607 4.104-2.034 9.735-4.357 14.474-3.62 1.268.197 1.675.393 1.753 1.717.131 2.252-1.482 4.669-2.581 6.485-3.152 5.219-7.718 9.745-12.353 13.674-2.874 2.436-10.438 7.58-13.438 2.883-1.454-2.28-.313-6.11.561-8.332 1.414-3.602 3.873-6.51 6.74-9.052 1.623-1.439 10.142-7.675 12.211-4.438 1.399 2.188-.264 6.547-.949 8.67-1.102 3.417-3.061 6.631-4.971 9.642-3.595 5.66-8.488 11.72-14.805 14.503l5.626 3.055c-.817-5.26 3.022-9.524 6.182-13.266 3.667-4.343 7.872-8.6 10.015-13.952 1.361-3.398-1.763-6.556-5.193-4.911-19.593 9.396-21.506 31.947-31.324 48.863-2.143 3.692 3.001 7.022 5.938 4.325 3.682-3.384 16.785-7.38 19.544-.814.361.864.791 2.291.479 2.933-.048.094-.028.073-.562.087.607-.016-.643-.263.057.035-.67-.286.049.011.186.379.123.338-.09.456.288-.292.415-.821 1.16-1.457 1.811-2.087l-6.212-1.546c.121.528.166 1.015.18 1.555.014.591-.251.521.079.109.193-.24.276-.044.419.011-.515-.204.039.54.031.32.022.55-.027.191.256-.167.553-.693 1.261-1.215 1.985-1.716.255-.16.509-.318.763-.479 1.506-.725.747-1.5-2.275-2.323.087.631-.257 1.332-.509 1.889-1.046 2.308-2.784 3.305-5.344 2.79-1.829-.366-1.395-3.753-1.263-4.959.054-.498.189-.97.407-1.413-.782.622-1.648.563-2.602-.178.473.616.222 1.699.109 2.362-.624 3.724-4.178 8.783-7.843 9.957-.608.194-2.621.457-2.568.478-.092-.036.027.475.081-.081.458-4.599 5.526-9.44 10.305-8.004l-2.793-4.409c-2.324 7.126-7.778 13.923-12.956 19.197-2.195 2.236-4.562 4.238-7.789 4.671a9.625 9.625 0 01-1.47.057c-.084-.001.065-.2.645.323.615.556.665 1.89.717 1.639.096-.463-.216.353.274-.504.331-.576 2.069-2.08 2.635-2.305.793-.315.762-.149.368-.325-.343-.151.001.015.266 1.11.556 2.321-2.693 7.306-5.162 4.934-1.268-1.217 2.596-6.16 3.059-7.58l-7.204-1.71c-.223 1.604.002 3.111 1.034 4.434a13.43 13.43 0 001.322 1.485c2.014 1.938-2.601-2.092 1.625-3.825-5.477 2.247-12.501.787-16.687-3.318-.8 2.089-1.599 4.18-2.396 6.269 6.164-.73 17.864.479 19.17 8.104 1.127-1.554 2.256-3.11 3.386-4.665-6.407.353-10.713-5.492-15.506-8.94-4.404-3.169-10.226-4.043-15.482-4.262-10.128-.421-23.184 2.693-29.611 10.937-1.994 2.559-.591 6.038 2.823 6.209 11.039.559 22.436-5.771 28.561-14.574 1.567-2.252-.793-5.624-3.402-5.422-9.217.713-16.841 7.114-23.472 12.862-7.153 6.203-13.525 13.615-21.438 18.906l4.614 5.697c6.525-7.5 13.595-14.468 21.363-20.705l-6.281-3.411c-2.209 6.98-8.909 12.294-15.178 15.583-3.218 1.688-6.81 2.65-10.473 2.66-.961.003-5.675-.542-5.535-1.673.59-4.764 6.362-9.323 9.369-12.678 3.087-3.441 6.423-7.479 10.691-9.551-.426.208.722-.037.134-.01-.773.036-1.109-.232-1.811-1.099.229.282.001-.021-.043-.338.032.236.036.477.042.715.024 1.01.073-.243-.007.425-.394 3.298-1.496 5.552-3.023 8.475-1.735 3.319-3.73 6.137-6.387 8.756-2.121 2.09-4.566 3.592-7.025 3.587-1.311-.001-2.773-.921-4.303-2.544-3.291-3.49-8.345 1.769-5.092 5.222"/>
  <path clip-path="url(#b)" fill="#FFF200" d="M190.42 55.99c-3.723 5.706-11.075 7.771-17.469 8.965-6.704 1.246-13.946 1.205-20.719.267-.222 2.403-.443 4.808-.663 7.21 16.709.58 36.239-2.316 49.69-12.607 3.645-2.788.215-8.844-3.871-6.283-7.31 4.58-15.014 7.815-23.591 9.292-8.743 1.507-17.61.474-26.427.698-8.479.218-17.132 1.984-23.827 7.266-7.516 5.928-6.856 16.192-3.747 24.323 1.688 4.411 8.273 2.591 7.063-2.021-1.738-6.63-6.093-12.76-6.313-19.712-.228-7.254 11.229-10.894 16.566-6.73l.604-5.755c-4.623 2.837-9.163 5.766-14.11 8.051-2.244 1.037-4.761 1.972-7.273 2.012-1.448.021-1.412-1.701-1.086-3.601.908-5.309 9.653-4.634 13.507-4.167 5.082.616 12.168 2.219 15.915 5.079l-.14-5.17c-5.213 5.862-15.312 10.297-13.704 19.69 1.267 7.403 10.334 11.854 15.792 15.986 9.819 7.438 15.597 32.594-.733 35.294-3.249.537-3.335 5.345-.661 6.709 6.179 3.152 14.084 3.85 20.183.417 6.143-3.454 7.477-12.079 3.034-17.443-3.956-4.775-11.041-6.083-16.745-4.391-5.498 1.63-8.993 7.145-9.979 12.531-3.29 17.957 30.903 12.332 34.533-.175 1.394-4.799-3.163-8.482-7.056-10.228-1.776-.797-4.08-.459-4.994 1.43-6.062 12.52 12.814 25.236 24.053 21.786 3.231-.992 3.314-4.981.66-6.711-5.998-3.908-14.63-8.831-12.277-17.23.917-3.274 4.964-5.663 7.942-6.698 3.317-1.155 7.319-.59 10.432 1.006 9.051 4.638 7.799 22.775-2.046 25.508-3.402.942-3.481 6.452.267 7.065 7.675 1.255 16.136 1.659 21.771-4.424 5.608-6.057 7.259-15.736 9.736-23.321l-7.205-1.712c-2.89 9.815-6.578 19.338-12.635 27.656-1.34 1.84.255 4.998 2.447 5.323 13.741 2.038 24.938-12.937 31.066-23.013 3.366-5.532 6.747-12.853 5.316-19.502-1.256-5.832-6.934-7.671-12.13-5.799-6.59 2.375-26.252 21.846-12.769 26.76 4.021 1.465 8.924-1.684 11.825-3.997 3.551-2.834 5.881-7.679 4.208-12.179-1.207-3.241-4.06-5.839-7.591-6.105-3.484-.264-6.479 1.957-8.941 4.075-5.419 4.662-8.653 11.51-14.227 15.949l5.358 5.11c5.312-7.186 8.31-15.888 14.656-22.299l-5.938-4.325c-2.624 6.895-12.329 5.992-15.196 12.456-1.337 3.005-.175 6.723.626 9.748.993 3.762 2.669 7.642 2.721 11.555.057 4.074 6.752 4.924 7.294.769 1.224-9.409 10.462-26.993-4.754-30.323-4.651-1.018-6.291 6.086-1.615 7.109 4.23.928 3.1 5.33 2.403 8.582-.928 4.341-2.666 8.505-3.239 12.921 2.429.256 4.861.514 7.291.768-.047-3.312-1.096-6.608-2.009-9.778-.512-1.774-1.025-3.548-1.472-5.34a18.08 18.08 0 01-.4-2.108c-.048-.366.267-1.714-.125-.833.742-1.67 5.634-3.021 7.19-3.84 3.422-1.803 6.412-4.503 7.8-8.148 1.384-3.633-2.822-7.469-5.937-4.324-6.441 6.511-9.301 15.061-14.654 22.302-2.8 3.789 1.651 8.064 5.358 5.11 3.707-2.951 6.393-7.273 9.411-10.871 1.636-1.949 3.362-3.826 5.296-5.488.604-.521 1.388-1.056 2.137-1.343.387-.146.974.013.575-.277 2.792 2.033-.006 4.907-2.065 6.344-1.213.849-3.016 1.646-4.023 1.716-1.006.069.525.173-.345-.043.697.173 1.045.548 1.337 1.251.147.354.079-.47.354-1.149 2.14-5.23 7.127-11.424 12.779-13.113 4.012-1.2.325 8.633-.541 10.519-2.649 5.752-6.504 10.99-10.81 15.611-3.352 3.598-9.037 9.263-14.604 8.436l2.447 5.323c6.419-8.816 10.265-19.085 13.326-29.481 1.338-4.54-5.765-6.12-7.205-1.712-2.105 6.448-3.571 13.668-7.412 19.363-3.228 4.788-10.358 3.789-15.272 2.984l.267 7.066c16.902-4.688 17.728-32.48 2.045-39.564-10.033-4.533-23.521-.207-27.445 10.256-4.53 12.082 6.892 20.342 15.727 26.099.222-2.238.44-4.475.661-6.711-3.66 1.124-7.579-.84-10.615-2.817-2.409-1.566-6.295-5.262-4.771-8.406-1.666.477-3.33.952-4.995 1.43 1.302.583 2.405 1.175 3.166 1.9.331.316.157.225.158.22-.037.176.136-.159-.39.645.449-.689-.567.526-.764.708-.436.407-1.896 1.328-2.94 1.878-2.45 1.296-5.281 2.068-8.057 2.572-1.315.235-2.701.272-4.042.245-.656-.014-2.649-.432-2.644-.43-.997-.412-1.006-.552-1.227-.916.215.354-.06-.328-.069-.458-.059-.729.021-.784.191-1.533.938-4.107 3.615-6.762 7.937-6.785 4.287-.023 8.221 3.319 5.955 7.565-2.378 4.449-10.766 2.686-14.299.884-.219 2.238-.439 4.474-.66 6.71 18.538-3.065 17.003-25.158 10.975-38.33-3.433-7.498-10.211-10.988-16.429-15.944-2.981-2.377-5.836-4.765-3.539-8.552 2.464-4.059 7.694-6.512 10.847-10.057 1.204-1.353 1.517-3.905-.137-5.169-9.664-7.379-38.858-14.055-41.818 3.231-.59 3.443-.041 7.803 2.954 10.118 3.122 2.412 7.046 2.067 10.621 1.128 7.307-1.919 13.755-6.459 20.079-10.342 1.854-1.137 2.541-4.244.605-5.755-8.076-6.301-22.929-4.229-27.568 5.216-4.698 9.568 2.777 19.348 5.171 28.476 2.354-.674 4.709-1.349 7.063-2.021-3.011-7.867-2.813-14.911 5.148-19.077 7.354-3.846 16.588-3.268 24.663-3.041 16.168.453 30.918-2.589 44.588-11.156l-3.871-6.283c-12.573 9.617-30.502 12.123-46.11 11.581-4.146-.144-4.835 6.631-.664 7.21 15.325 2.124 37.068 1.377 46.321-12.805 2.572-3.939-3.962-7.446-6.512-3.542"/>
  <path clip-path="url(#b)" fill="#FFF200" d="M211.015 126.536c9.164-25.804-58.324-36.108-57.845-.881.046 3.189 4.217 4.703 6.37 2.469 4.26-4.419 8.33-9.308 13.476-12.762 5.445-3.653 12.045-4.44 18.513-4.669 4.415-.154 4.486-5.877.663-7.209-14.254-4.966-35.218 8.545-30.305 24.429.767 2.482 4.416 3.704 6.209 1.544 3.278-3.948 4.514-8.857 5.888-13.702 1.42-5.018 2.99-9.854 9.075-9.659 3.04.097 4.092-3.219 2.998-5.525-2.826-5.971-10.61-9.72-15.847-13.267-3.216-2.177-12.757-7.72-8.939-12.079-1.742.018-3.481.038-5.222.058 6.999 7.35 10.324 17.347 14.129 26.484 1.753-1.404 3.511-2.807 5.266-4.211-7.94-3.253-15.723-15.337-11.597-23.691-2.317-.561-4.633-1.12-6.948-1.682-.776 12.12 3.881 24.05 2.741 36.116l3.458-2.799c-6.184-.01-9.682-8.856-11.372-13.537-2.185-6.054-4.161-13.996-2.04-20.261-1.78.781-3.561 1.561-5.34 2.343 5.416 2.725 7.917 9.666 9.646 14.998 1.917 5.924 3.434 12.938 2.349 19.122 1.47-.9 2.94-1.802 4.411-2.701-8.316-2.402-11.168-10.73-10.795-18.525.13-2.798 1.148-6.582 2.494-8.353.893-1.172.946-1.156 1.729-1.355-.319.083-.328-.028.374.172-.233-.065.62.443 1.036.822 3.232 2.955 4.294 7.145 4.206 11.3-.057 2.784-1.136 9.158-4.823 9.483-5.337.469-7.735-6.472-8.082-10.461-.434-4.991.925-11.808 5.427-14.709l-5.468-2.132c4.221 11.475 13.32 21.138 22.933 28.533 10.426 8.02 23.254 14.382 36.642 14.085 10.032-.225 27.412-7.456 24.742-19.958-1.038-4.872-6.423-8.101-10.541-10.135-5.113-2.524-10.676-4.17-16.136-5.738-9.021-2.595-18.578-8.886-28.214-6.605-5.14 1.218-9.764 5.389-10.199 10.763-.467 5.778 4.048 10.201 9.106 12.279 2.65 1.09 5.349-.326 5.427-3.284l.043-1.634c.125-4.711-7.254-4.521-7.38.173-.014.545-.027 1.091-.043 1.634 1.811-1.095 3.619-2.189 5.426-3.286-2.367-.973-6.36-3.06-5.01-6.239 1.501-3.535 6.23-3.855 9.495-3.288 6.663 1.155 12.702 4.59 19.171 6.437 4.294 1.226 24.784 6.033 21.319 12.886-2.475 4.895-9.431 7.733-14.616 8.458-6.046.845-12.342-.417-18.019-2.613-12.19-4.718-23.29-13.592-31.098-23.974-2.427-3.226-4.596-6.734-5.985-10.512-.79-2.146-3.395-3.468-5.468-2.131-10.705 6.897-12.7 26.955-2.374 35.326 4.937 4.002 11.509 4.71 16.179.236 4.199-4.024 5.26-11.05 4.853-16.594-.542-7.435-8.905-21.708-17.979-14.944-7.338 5.472-7.658 17.538-5.384 25.603 2.128 7.546 7.831 13.206 15.393 15.391 1.871.54 4.079-.811 4.41-2.7 1.323-7.519-.267-15.595-2.489-22.851-2.21-7.218-6.058-15.765-13.235-19.375-2.309-1.16-4.573.076-5.339 2.344-2.684 7.926-.101 18.032 2.788 25.624 2.965 7.795 8.642 17.179 18.119 17.193 1.493.002 3.311-1.227 3.459-2.799 1.205-12.772-3.387-25.229-2.568-38 .234-3.684-5.412-4.794-6.947-1.684-5.792 11.731 2.777 28.767 14.639 33.628 2.622 1.073 6.651-.894 5.27-4.209-4.321-10.385-8.163-21.347-16.107-29.691-1.34-1.406-3.96-1.384-5.22.059-6.14 7.013-1.441 14.237 4.854 19.272 3.603 2.884 7.538 5.344 11.352 7.933 2.729 1.854 6.212 3.946 7.655 6.993l2.999-5.523c-6.427-.203-11.103 3.098-13.732 8.746-2.453 5.267-2.519 12.256-6.302 16.811 2.071.516 4.14 1.032 6.211 1.546-3.321-10.743 12.881-18.344 21.628-15.296.222-2.402.443-4.805.663-7.209-7.543.266-14.975 1.398-21.479 5.303-6.059 3.636-10.749 9.313-15.578 14.324l6.368 2.47c-.329-24.073 48.8-16.257 43.26-.655-1.571 4.412 5.648 6.087 7.203 1.707"/>
  <path clip-path="url(#b)" fill="#FFF200" d="M232.316 73.088c-10.758-3.029-22.044-2.289-32.921-4.622l-.663 7.209c17.818-1.104 35.496 4.321 53.131.038-1.001-2.218-2.006-4.435-3.009-6.654-12.357 5.359-26.116 4.461-39.337 5.321.098 2.437.194 4.872.289 7.309 13.471-1.783 26.492-5.301 39.495-9.022l-2.15-7.024c-7.085 2.862-13.88 6.258-21.251 8.431-6.201 1.828-16.072 3.85-19.136-3.854-1.74-4.382-8.816-2.393-7.061 2.023 8.379 21.081 35.903 5.958 49.598.424 4.29-1.733 2.505-8.357-2.15-7.024-12.376 3.542-24.811 7.04-37.634 8.738-4.592.607-4.554 7.623.289 7.309 14.7-.956 29.21-.4 42.919-6.346 3.97-1.722.858-7.595-3.011-6.652-16.877 4.099-34.179-1.384-51.271-.324-4.084.253-4.888 6.303-.663 7.208 10.875 2.334 22.167 1.596 32.919 4.622 4.597 1.291 6.209-5.818 1.617-7.11M185.488 150.925c10.644-1.257 20.464-11.434 21.478-22.006.355-3.693-5.197-6.793-6.859-2.622-1.96 4.913-4.478 10.088-10.062 11.486-4.608 1.153-2.443 8.174 2.15 7.023 7.501-1.877 11.735-8.225 14.426-14.974l-6.86-2.624c-.678 7.072-7.016 15.516-14.561 16.407-4.673.554-4.439 7.869.288 7.31"/>
  <path clip-path="url(#b)" fill="#2E3192" d="M196.121 134.229c5.798-4.284 6.389-11.927 2.596-17.892-4.219-6.63-13.656-7.035-19.353-2.277-5.295 4.423-5.574 11.559-1.575 17.083 4.427 6.114 12.216 6.428 18.332 3.086.52-.284.033-1.067-.483-.786-5.501 3.004-11.668 2.863-16.256-1.815-4.114-4.193-4.646-10.88-1.002-15.362 4.625-5.688 13.733-6.003 18.692-.587 4.749 5.188 4.102 13.675-1.435 17.765-.47.347.012 1.133.484.785"/>
  <path clip-path="url(#b)" fill="#EC008C" d="M222.691 173.389c2.73-2.559 5.031-5.258 6.497-8.72 1.308-3.091 2.033-6.267 3.806-9.166 4.126-6.742 13.125-6.8 20.169-7.958 6.193-1.016 11.881-3.146 14.761-8.984 2.062-4.181.536-8.205-2.274-11.633-3.631-4.429-8.876-7.769-10.491-13.519-2.289-8.144 8.876-15.509 14.152-19.804 5.265-4.283 9.177-8.839 12.351-14.846 2.19-4.143 3.894-9.388 1.102-13.717-3.489-5.41-11.684-5.62-17.241-4.891-8.772 1.151-16.958 4.814-25.701 6.122-5.735.858-13.831.331-18.66-3.423-3.288-2.557-3.304-6.808-2.709-10.49 1.302-8.029 5.637-16.014 4.098-24.364-1.477-8.005-10.791-16.149-19.303-14.396-8.701 1.79-10.926 15.587-12.629 22.478-1.347 5.445-2.503 11.008-4.637 16.21-2.028 4.948-5.154 7.702-10.54 8.769-5.897 1.167-12.149-.842-17.668-2.863-5.905-2.163-11.61-4.84-17.589-6.809-11.896-3.918-22.948-2.519-31.535 6.812-15.539 16.885 6.965 33.166 17.166 45.778 2.832 3.501 5.468 7.481 6.169 11.973.813 5.223-2.048 9.555-5.682 12.973-8.784 8.26-21.67 12.083-29.012 21.898-7.219 9.648 1.97 20.003 10.065 25.688 10.14 7.118 25.788 14.226 36.057 4.362 5.968-5.732 9.044-13.952 13.725-20.643 4.231-6.046 15.397-17.093 23.38-10.734 6.735 5.364 3.483 14.079 1.714 20.634-1.057 3.922-2.551 9.243.45 12.753 2.048 2.395 5.598 2.435 8.007.856 4.824-3.168 6.873-8.485 13.627-7.628 6.434.818 13.491 1.95 18.375-2.718.426-.407-.248-1.044-.67-.638-2.854 2.725-5.689 3.096-9.755 3.065-3.693-.027-8.053-1.609-11.618-.698-2.814.72-4.875 2.596-6.883 4.572-2.545 2.498-4.818 5.235-8.748 3.703-3.395-1.324-3.331-5.328-2.934-8.265.728-5.383 3.257-10.409 3.546-15.864.306-5.685-3.874-12.035-9.798-12.524-6.991-.574-13.584 6.039-17.698 10.707-5.659 6.417-8.556 14.799-14.065 21.354-5.887 7.004-13.574 7.005-21.824 4.293-10.681-3.514-32.271-15.808-25.463-29.716 2.637-5.391 8.542-9.016 13.413-12.187 5.135-3.341 10.468-6.406 15.221-10.277 7.078-5.767 9.631-13.23 5.178-21.572-4.522-8.471-12.555-14.868-18.695-22.143-6.835-8.096-10.875-17.551-3.923-26.76 4.183-5.539 10.304-9.541 17.339-10.312 6.183-.678 12.454 1.266 18.214 3.383 10.311 3.787 21.484 10.541 32.807 8.298 9.96-1.971 11.934-12.379 14.025-20.793 1.402-5.631 2.617-11.347 4.707-16.769 1.634-4.234 4.254-9.177 9.252-9.914 5.462-.809 11.891 3.713 14.931 7.914 2.828 3.911 2.971 8.843 2.296 13.378-1.11 7.446-5.674 15.393-4.029 23.066 2.048 9.551 17.365 9.377 24.419 8.162 8.982-1.546 17.401-5.399 26.566-6.096 4.282-.324 8.82.584 12.22 3.368 2.953 2.422 2.918 6.244 2.034 9.554-1.695 6.349-6.33 12.629-11.216 16.878-5.766 5.014-12.753 9.387-16.396 16.307-6.03 11.459 11.315 16.823 12.804 26.557 1.289 8.436-8.527 12.098-15.053 13.247-5.849 1.029-13.131 1.007-17.854 5.041-2.635 2.251-4.197 5.389-5.328 8.609-1.762 5.009-3.725 8.715-7.691 12.432-.431.404.242 1.038.669.64"/>
  <path clip-path="url(#b)" fill="#2E3192" d="M202.042 103.941c7.081 2.22 20.915 4.985 18.814-6.849-2.413-13.589-15.838-18.833-27.712-22.554-7.854-2.462-16.994 2.049-19.318 10.046-1.029 3.542.916 6.605 3.835 8.556 7.197 4.812 16.206 8.1 24.381 10.801.566.188.767-.701.202-.888-6.452-2.133-12.672-4.824-18.754-7.853-4.192-2.086-9.717-4.289-8.885-9.854 1.092-7.298 10.708-12.257 17.455-10.193 10.109 3.094 22.857 7.273 26.869 18.104 1.308 3.526 2.429 8.846-1.4 11.123-4.193 2.491-11.07-.007-15.285-1.327-.57-.178-.768.712-.202.888"/>
  <path clip-path="url(#b)" fill="#2E3192" d="M208.186 105.3c1.638-1.789 2.529-4.969.164-6.652-2.99-2.13-5.746 2.583-6.613 4.629-.227.535.585.983.814.442.708-1.671 2.737-5.764 5.262-4.339 2.034 1.147.831 4.05-.296 5.282-.399.433.27 1.071.669.638M185.771 96.175l-.481.888c-.279.516.535.957.815.441 1.534-2.827 3.809-7.183.265-9.679-3.581-2.524-7.085 2.442-8.214 5.093-.227.536.584.982.813.442.998-2.341 3.584-6.536 6.794-4.843 3.375 1.781.67 6.438-.474 8.545-.279.516.535.957.815.441l.48-.886c.282-.514-.533-.957-.813-.442M190.625 122.477c-.314.875-.734 1.68-1.7 1.931-.627.16-1.915.22-2.313-.405-.293-.465.057-1.164.336-1.537.493-.654 1.268-.981 2.084-1.007 1.7-.055 2.682 1.655 1.241 2.741-1.221.918-3.377.14-3.548-1.441-.139-1.286 1.264-2.426 2.481-1.864.746.347 1.775 1.617 1.396 2.445-.383.836-2.011.817-2.764.813-.691-.004-1.443-.087-2.083-.383-.04-.02-.221-.142-.208-.108.037.082-.023.063.091-.051.564-.556 1.619-.766 2.36-.954a11.368 11.368 0 011.995-.332c.247-.019.495-.021.742-.001.243.019.301.176.217-.033-.058-.138-.049-.008-.235.173-.441.425-.893.833-1.417 1.158-.193.119-.821.491-.979.142-.289-.644.08-1.616.26-2.233l-.666.292c.622.355 1.925 1.14 1.721 2.031-.18.789-2.104-.575-2.29-.723l.089.548c.326-.591.671-1.345 1.228-1.764.142-.107-.047-.114-.017-.043.084.188.103.395.121.593a6.69 6.69 0 01-.032 1.379 5.424 5.424 0 01-.082.521c-.102.532-.146.018.363.111l.34.319c-.431-.999-1.483-.673-2.305-1.078-.737-.361-.417-1.749 0-2.234.3-.353.844-.198 1.222-.081.509.158 1.187.692 1.741.533.719-.205-.387-.205-.293-.136.072.057.112.249.139.328.151.426.224.875.248 1.32.012.228.032.702-.189.646-.256-.062-.564-.322-.814-.444-.641-.314-1.846-.795-2.096-1.521-.121-.349 1.024-.373 1.205-.343.37.066.749.318.895.673.466 1.129-2.368.286-2.671.182.103.222.206.443.308.666l.92-1.694c-.207.059-.416.119-.626.177l1.382.751c.234.127.49.029.624-.18a.16.16 0 00.021-.032c-.17.074-.339.15-.507.224l.006.001c-.115-.183-.23-.367-.349-.551-.053.551-.394 1.053-.447 1.604-.025.252.082.479.35.551l.007.002c.21.057.401-.055.509-.224.008-.01.014-.021.021-.032-.286-.108-.571-.218-.857-.328.186-.061.19-.106.019-.139a2.134 2.134 0 01-.249-.146 2.197 2.197 0 01-.234-.197c-.121-.184-.196-.106-.224.233.261-.137.287-.525.075-.72l-.031-.027c.046.145.089.289.133.432-.184.192-.192.251-.023.176.139-.041.285-.061.431-.078.1-.01.198-.016.298-.019.449-.018.058.114.218-.305.129-.079.258-.158.39-.236a33.33 33.33 0 00-.771-.019c-.233-.002-.137-.026-.066.039-.248-.228-.545-.396-.838-.563l-.318.844c.253.05.501.102.748.167.336.088.286-.343-.038-.103.188.021.374.043.561.066-.355.259-.399.384-.139.371.156.021.309.065.459.106.25.066.496.152.736.249.154.086.139.033-.046-.159-.073.168-.202.328-.313.472a6.411 6.411 0 01-.338.396l.796.308c.004-.385.009-.768-.045-1.151-.063-.451.035-.206-.108.014l-.624.18c.621.323 1.418-.382 1.791-.782l-.437.124c-.329-.072-.192-.18-.128.243.015.103.023.203.027.305-.04.253.095.251.406-.006-.488-.1-.821.639-.318.843.011.004.019.009.027.011.254.104.472.045.626-.178a.016.016 0 01.006-.008c.088-.131.061-.326-.016-.456-.419-.716-1.355-1.098-1.771-1.807.004.15.011.303.017.454l.004-.008-.624.179.028.011.198-.855c-.044-.001-.087-.008-.13 0-.454.051-.607.603-.199.854.24.15.659.128.925.164.23.034.458.071.686.113.122.021.241.049.362.078l.102.026c.235.079.252-.128.049-.621-.318.107-.452.521-.185.766l.032.028-.134-.434c.186-.19.194-.248.026-.173a2.85 2.85 0 01-.432.076c-.1.01-.199.016-.298.019-.539.021.102-.086-.28.392.097-.121.202-.235.307-.349.099-.104.204-.202.312-.297l.136-.098c.14-.087.148-.09.026-.008.188-.151.375-.304.564-.455-.451-.129-.872.33-1.289.16-.065.286-.132.572-.199.856a5.22 5.22 0 01.515-.023c-.525.01-.097-.752-.383-.29a.88.88 0 00-.104.582c.078.579.999.564.923-.021-.04-.301.35-.467.191-.813-.207-.463-.755-.374-1.177-.346-.416.027-.656.67-.199.856.288.115.521.187.828.151.177-.02.535-.269.691-.225.263.075.611-.165.563-.454-.132-.806-.683-1.197-1.435-.757-.437.256-1.115.844-1.108 1.398.019 1.396 3.546.471 2.559-.431l-.182.767c.657-.223.638-.904-.027-1.118-.358-.113-.731-.168-1.101-.225a27.066 27.066 0 00-.619-.087c-.088-.013-.371-.109-.21-.01l-.199.857c.042-.005.087 0 .13 0 .441.017.631-.681.199-.855l-.028-.012c-.255-.104-.471-.044-.623.18-.003.002-.005.005-.005.007-.092.131-.064.325.012.455.421.717 1.357 1.1 1.771 1.809l-.014-.455-.006.007c.207-.059.416-.117.624-.178l-.027-.011c-.105.281-.213.563-.319.844.969.194.719-1.233.589-1.751-.072-.292-.272-.588-.608-.579-.243.005-.428.242-.59.387a2.616 2.616 0 01-.44.301c-.188.111-.088.011.027.071-.237-.123-.488-.034-.624.179-.197.304.05 1.285.045 1.602-.006.395.538.593.797.31.325-.357.782-.825.892-1.31.137-.603-.299-.792-.787-.977-.5-.19-1.187-.462-1.722-.296-.612.188-.335.824-.048 1.16.122.143.409.178.559.065.361-.269.639-.521.555-.997-.099-.556-1.152-.663-1.546-.74-.512-.099-.782.581-.319.844.307.175.604.478.934.599.348.127.856.045 1.21.058.146.004.339-.098.391-.236.353-.928-.666-1.089-1.365-1.03-.425.033-1.864.371-1.107 1.063.024-.24.05-.479.076-.719-1.285.67 1.807 3.01 2.072 1.249.078-.516-.577-.767-.857-.329-.006.012-.014.021-.021.032l.509-.222-.008-.003.349.551c.054-.55.395-1.052.447-1.601.025-.254-.082-.481-.349-.553l-.006-.001c-.211-.057-.401.055-.509.222-.007.012-.015.021-.021.033l.624-.179c-.46-.251-.922-.5-1.382-.75a.464.464 0 00-.624.18l-.92 1.694c-.151.28.024.567.306.664 1.062.368 2.551.813 3.494-.017.611-.536.306-1.427-.139-1.954-1.22-1.452-4.674-.361-3.049 1.498.604.693 1.565 1.124 2.378 1.517.683.329 1.391.794 1.916-.025.438-.682.153-1.84-.058-2.558-.161-.555-.743-1.504-1.306-.712l.389-.236c-.463.069-1.283-.52-1.767-.628-.813-.184-1.506.097-1.965.763-.616.895-.599 2.416.242 3.175.36.327.89.416 1.352.48.169.025.664.023.749.216.068.161.175.289.357.322 1.129.207.907-2.809.799-3.374-.096-.499-.386-1.107-1-1.033-.978.118-1.611 1.558-2.01 2.275-.091.166-.067.423.092.549.795.635 2.93 2 3.701.579.759-1.397-1.016-2.745-2.063-3.339-.274-.156-.589.015-.669.293-.263.902-.915 3.416.784 3.493 1.179.052 2.479-1.103 3.15-1.956.437-.554.227-1.158-.448-1.372-.76-.24-1.708-.04-2.463.09-.939.161-4.261.715-4.07 2.181.117.906 1.478 1.133 2.185 1.232 1.349.19 3.676.242 4.515-1.068.857-1.347-.482-3.154-1.694-3.821-1.077-.595-2.356-.185-3.126.664-2.048 2.259.674 5.292 3.319 4.657 1.084-.26 2.09-1.301 2.107-2.439.021-1.374-1.247-2.298-2.539-2.408-1.424-.122-2.722.521-3.447 1.73-.551.921-.487 2.123.464 2.757.794.527 2.26.414 3.107.131 1.112-.373 1.636-1.48 2.001-2.497.193-.551-.711-.76-.908-.214"/>
  <g>
    <defs>
      <path id="c" transform="rotate(153.24 184.856 321.227)" d="M60.413 201.097h248.874V441.38H60.413z"/>
    </defs>
  </g>
</svg>
