<svg xmlns="http://www.w3.org/2000/svg" xmlns:xlink="http://www.w3.org/1999/xlink" width="161.992" height="312.026">
  <defs>
    <path id="a" d="M25.729 47.928h98.868V266.46H25.729z"/>
  </defs>
  <clipPath id="b">
    <use xlink:href="#a" overflow="visible"/>
  </clipPath>
  <path clip-path="url(#b)" fill="#27AAE1" d="M112.889 256.651c1.972 2.5 3.672 5.132 4.124 8.355l2.688-.925c-3.398-4.509-3.597-10.498-7.222-14.936l-1.492 2.314c1.546.391 9.525 5.765 5.733 7.547-.656.308-3.622-5.107-.468-5.729 3.235-.636 4.107 4.994 3.739 7.114-.735 4.224-5.771 2.862-6.839-.402-1.432-4.38 4.252-6.926 7.276-4.209 1.94 1.743 1.362 4.582.034 6.425-1.912 2.649-5.484.806-5.975-1.963-.556-3.14 4.797-7.722 6.189-3.712.636 1.831-.644 3.487-2.148 4.196-1.75.824-3.282.502-2.805-1.699.412-1.893-2.492-2.492-2.9-.608-.994 4.572 2.772 6.64 6.687 5.156 3.613-1.369 5.97-6.756 2.854-9.95-2.922-2.996-8.124-1.209-9.898 2.159-2.213 4.199-.108 10.656 5.265 10.674 5.296.017 8.347-6.163 6.141-10.826-2.164-4.575-8.067-5.435-11.547-2.063-3.173 3.073-2.841 7.961.314 10.996 3.083 2.965 8.197 1.386 9.846-2.24 1.759-3.867-.144-10.293-4.313-11.792-4.734-1.7-7.031 3.193-5.845 7.135 1.051 3.492 5.618 6.491 7.618 1.976 2.243-5.067-4.111-10.043-8.399-11.13-1.201-.304-2.335 1.284-1.493 2.313 3.607 4.414 3.807 10.406 7.221 14.936.832 1.104 2.907.645 2.688-.925-.531-3.787-2.31-6.907-4.646-9.871-1.191-1.508-3.63.159-2.427 1.684"/>
  <path clip-path="url(#b)" fill="#27AAE1" d="M70.456 140.818c4.171 9.647 7.963 19.549 13.596 28.46.92 1.456 3.146.272 2.606-1.32-4.246-12.524-6.455-26.069-13.742-37.333-.653-1.012-2.569-.8-2.662.537-.464 6.604 1.78 13.111 4.229 19.169 2.598 6.426 5.863 12.563 9.067 18.695.836 1.601 3.002.212 2.606-1.32-2.854-11.056-5.191-23.36-11.801-32.902-.896-1.295-2.662-.512-2.688.925-.164 9.568 5.285 18.171 9.106 26.607.786 1.735 3.43.909 2.786-.96-3.32-9.64-6.65-19.398-11.847-28.212-.624-1.058-2.576-.764-2.664.536-.227 3.325.749 6.401 1.818 9.525.549 1.6 3.024 1.144 2.868-.563-.276-3.024-1.128-5.771-2.455-8.501-.844-1.737-3.248-.955-2.787.959 4.454 18.5 12.449 35.843 18.879 53.688 6.081 16.877 7.177 35.389 15.669 51.383 2.177 4.099 4.697 7.892 6.693 12.107 1.405 2.969 3.412 5.769 4.254 8.914.522 1.95 3.094 2.301 4.686 1.839 2.576-.747 4.175-2.978 4.11-5.753-.077-3.304-2.168-5.075-3.892-7.666-1.334-2.003-.392-4.726-.011-6.841.387-2.154.414-4.454.476-6.646.238-8.376-2.625-15.942-6.766-23.107-3.629-6.278-8.13-11.994-11.924-18.169-4.132-6.728-6.31-14.365-9.738-21.452-3.256-6.731-6.244-13.547-9.396-20.321-2.595-5.581-6.621-12.306-6.22-18.669l-2.844.175c5.05 12.139 10.719 24.028 15.047 36.459.647 1.859 3.263.896 2.787-.96-3.237-12.633-8.784-24.436-13.06-36.719-.638-1.835-3.425-.876-2.787.96 4.275 12.283 9.822 24.086 13.06 36.719l2.787-.96c-4.328-12.43-9.997-24.32-15.047-36.459-.515-1.234-2.742-1.446-2.845.175-.413 6.556 2.921 12.938 5.624 18.721 3.557 7.607 6.928 15.269 10.587 22.834 3.699 7.647 6.104 15.606 10.65 22.843 4.486 7.141 9.822 13.729 13.481 21.38 1.849 3.865 3.148 7.999 3.517 12.267.415 4.813-.336 9.355-.935 14.076-.421 3.308 1.198 5.631 3.177 8.062 1.325 1.627 2.098 4.257.228 5.821-2.129 1.783-2.031-.487-2.544-1.661-.65-1.489-1.716-2.876-2.47-4.33-1.084-2.092-2.03-4.257-3.073-6.367-2.125-4.302-4.936-8.16-6.963-12.524-3.782-8.143-5.636-17.051-7.584-25.761-2.877-12.868-7.203-24.987-11.996-37.252-4.842-12.39-9.712-24.807-12.832-37.762-.929.318-1.857.639-2.787.959 1.212 2.492 2.04 4.932 2.294 7.709l2.867-.563c-.873-2.547-1.89-5.226-1.705-7.956-.888.178-1.775.357-2.663.537 5.056 8.575 8.257 18.11 11.487 27.488l2.786-.96c-3.699-8.166-9.104-16.558-8.944-25.814l-2.687.925c6.434 9.289 8.66 21.411 11.439 32.179l2.606-1.321c-2.947-5.642-5.881-11.285-8.367-17.153-2.404-5.677-4.892-12.16-4.454-18.42l-2.664.537c7.121 11.007 9.231 24.366 13.381 36.61l2.606-1.322c-5.488-8.685-9.168-18.334-13.234-27.737-.761-1.774-3.554-.829-2.782.956"/>
  <path clip-path="url(#b)" fill="#27AAE1" d="M84.436 172.972c3.623 9.399 6.295 19.182 11.346 27.96.889 1.543 3.044.237 2.606-1.321-3.635-12.933-8.73-25.452-14.987-37.328-.832-1.578-3.042-.226-2.606 1.32 3.171 11.259 9.724 21.293 12.123 32.792l2.787-.959c-3.764-7.588-5.936-15.813-9.355-23.548-.779-1.761-3.568-.822-2.787.96 2.683 6.113 5.704 12.07 8.221 18.258 2.79 6.858 3.958 13.598 4.395 20.94.84 14.167 6.244 26.852 13.505 38.911l2.426-1.684c-6.188-9.599-10.554-21.011-10.375-32.546-.982.057-1.966.112-2.948.168 1.842 13.516 7.622 25.43 16.9 35.35l1.594-2.479c-4.262-1.648-8.092-4.759-10.117-8.985-.817-1.703-3.457-.917-2.787.959 1.686 4.723 4.106 9.437 8.229 12.417l1.594-2.48c-5.549-3.597-8.488-10.609-10.76-16.583-1.933-5.086-4.165-10.882-4.52-16.348-.347-5.331.104-10.67-.326-16.004-.316-3.916-1.097-9.214-5.061-11.083-1.049-.494-2.131.296-2.112 1.43.15 9.304 3.276 18.237 5.475 27.203 2.193 8.941 4.014 18.148 9.1 25.988l2.17-1.975c-8.993-8.59-9.813-22.735-10.029-34.41-.982.057-1.965.112-2.948.167.276 8.571.671 17.42 5.267 24.953.898 1.472 3.156.265 2.607-1.32-.809-2.333-1.645-4.587-3.147-6.564-.87-1.146-2.81-.624-2.688.926.227 2.868 1.322 5.152 2.987 7.467.792 1.103 2.989.632 2.687-.925a29.894 29.894 0 00-2.746-7.975c-.693-1.363-2.827-.474-2.687.925.679 6.81 5.579 12.117 9.01 17.716.898 1.466 3.164.266 2.606-1.322-2.436-6.932-5.6-13.583-7.777-20.608-2.391-7.709-2.294-15.943-3.84-23.83l-2.688.925c5.18 7.239 10.456 14.51 14.081 22.702 3.961 8.952 4.716 18.428 2.225 27.817-.441 1.66 2.104 2.502 2.782.973 10.607-23.91-10.797-45.689-21.962-64.947-.717-1.234-2.979-.544-2.687.926 2.064 10.387 6.308 19.939 10.79 29.473 4.447 9.457 6.784 19.18 7.866 29.538l2.867-.564c-3.696-14.88-2.157-30.868-10.37-44.44-.923-1.523-3.038-.247-2.606 1.32 3.372 12.251 6.741 24.542 7.886 37.227.982-.057 1.965-.111 2.948-.167-1.192-10.842-2.552-21.526-7.491-31.411l-2.426 1.683c3.309 6.544 6.367 13.275 7.576 20.561.937 5.646-.568 11.622 2.379 16.803.96 1.686 3.381-.004 2.426-1.683-1.651-2.903-1.421-6.166-1.381-9.378.035-2.841-.341-5.738-.955-8.517-1.519-6.876-4.457-13.217-7.619-19.469-.875-1.731-3.281-.027-2.426 1.683 4.67 9.348 5.844 19.66 6.969 29.896.211 1.925 3.123 1.769 2.948-.167-1.168-12.947-4.606-25.515-8.048-38.019l-2.606 1.321c7.987 13.199 6.406 29.212 10.011 43.718.413 1.664 3.041 1.103 2.866-.563-1.021-9.773-3.027-19.199-7.043-28.221-4.492-10.092-9.438-19.856-11.612-30.79-.896.31-1.792.617-2.688.926 10.496 18.103 31.722 39.39 21.724 61.928.928.324 1.855.647 2.782.972 2.464-9.28 1.84-18.579-1.598-27.592-3.512-9.203-9.51-17.29-15.182-25.219-.791-1.105-2.992-.629-2.688.925 1.462 7.458 1.555 15.131 3.406 22.511 1.964 7.835 5.703 15.123 8.373 22.722.868-.44 1.736-.882 2.605-1.321-3.101-5.062-7.875-10.052-8.487-16.201l-2.688.926a24.554 24.554 0 012.224 6.459l2.688-.925c-1.331-1.85-2.282-3.633-2.465-5.952-.896.31-1.791.617-2.688.925 1.342 1.767 2.066 3.761 2.787 5.841l2.606-1.321c-4.286-7.026-4.488-15.461-4.745-23.438-.063-1.947-2.984-1.759-2.948.167.234 12.576 1.421 27.297 11.065 36.51 1.258 1.2 3.08-.57 2.169-1.976-4.914-7.573-6.654-16.615-8.739-25.264-2.105-8.732-5.167-17.357-5.314-26.411l-2.111 1.43c4.026 1.899 3.546 9.813 3.621 13.457.094 4.608-.616 9.679.496 14.21 1.505 6.136 3.391 12.229 5.897 18.03 2.379 5.505 5.555 11.017 10.651 14.321 1.42.921 2.966-1.487 1.594-2.479-3.723-2.692-5.831-6.846-7.353-11.109-.93.318-1.858.639-2.787.959 2.371 4.946 6.575 8.766 11.628 10.719 1.606.622 2.776-1.215 1.594-2.479-8.688-9.291-14.14-20.601-15.863-33.251-.264-1.938-2.918-1.762-2.948.168-.187 12.05 4.436 24.039 10.897 34.062 1.055 1.637 3.422-.028 2.426-1.684-3.66-6.076-6.881-12.356-9.326-19.032-2.48-6.775-3.352-13.431-3.791-20.567-.396-6.467-1.704-12.423-4.012-18.49-2.506-6.588-5.801-12.848-8.63-19.296l-2.787.96c3.42 7.734 5.592 15.959 9.355 23.547.865 1.747 3.186.954 2.787-.959-2.4-11.5-8.952-21.535-12.123-32.792l-2.606 1.321c6.128 11.631 11.067 23.941 14.626 36.605l2.607-1.322c-4.909-8.531-7.464-18.101-10.985-27.236-.698-1.816-3.488-.863-2.788.952"/>
  <path clip-path="url(#b)" fill="#27AAE1" d="M88.19 186.127c.767 4.534 1.42 9.086 2.246 13.61.748 4.101 2.021 8.087 2.652 12.202 1.026 6.69.748 14.301 4.329 20.296.76 1.273 2.854.533 2.687-.925-.873-7.571-2.93-14.953-3.609-22.552-.175-1.961-2.921-1.743-2.948.167-.029 2.094.191 4.136.476 6.21.264 1.912 3.188 1.764 2.948-.167-.184-1.488-.511-2.948-.695-4.436-.236-1.916-3.092-1.776-2.947.168.213 2.882.675 5.736.889 8.617l2.948-.168-.849-6.081c-.265-1.904-3.133-1.778-2.947.167.322 3.4.733 6.784 1.412 10.138l2.867-.564c-1.408-5.439-2.181-10.981-2.439-16.582l-2.948.168c1.317 9.259 1.252 19.377 6.554 27.483.927 1.415 3.213.278 2.606-1.321-.773-2.04-1.798-3.918-2.885-5.804-.636-1.101-2.523-.728-2.664.537-.378 3.388 1.233 6.451 3.355 8.995 1.039 1.245 3.196.382 2.606-1.32-.667-1.926-1.406-3.765-2.383-5.553-.736-1.35-2.795-.479-2.688.926.728 9.405 7.943 16.636 13.961 23.189 1.308 1.424 3.208-.854 1.911-2.267-5.418-5.901-12.269-12.605-12.924-21.091l-2.688.926c.849 1.553 1.445 3.16 2.022 4.828l2.607-1.321c-1.535-1.84-3.162-4.175-2.882-6.703l-2.663.537c.951 1.65 1.848 3.293 2.525 5.08l2.606-1.322c-4.971-7.599-4.798-17.286-6.032-25.968-.272-1.907-3.039-1.787-2.948.168a84.69 84.69 0 002.602 17.374c.423 1.635 3.203 1.099 2.866-.564-.678-3.353-1.089-6.736-1.412-10.136l-2.947.167c.282 2.028.564 4.056.848 6.082.265 1.904 3.092 1.784 2.948-.168-.214-2.881-.676-5.735-.89-8.617-.981.057-1.965.112-2.947.168.184 1.487.511 2.947.694 4.435.983-.057 1.967-.111 2.948-.167-.285-2.075-.505-4.116-.476-6.21l-2.948.167c.681 7.6 2.737 14.981 3.61 22.553l2.687-.926c-3.365-5.634-2.968-13.31-3.935-19.613-.588-3.836-1.796-7.557-2.524-11.37-.863-4.517-1.479-9.078-2.246-13.609-.319-1.9-3.268-1.745-2.946.167M32.426 77.007l.012-.254c-.026.506-.012.2-.001.085.037-.414.194-.139-.283.464l-.636.437.005-.002c-.376-.025-.753-.051-1.129-.078a.014.014 0 01.004.003l-.574-.506c-.157-.211-.202-.468-.229-.638a10.326 10.326 0 01.059.878c.009.252.012.503.009.756a10.06 10.06 0 01-.009.345c-.01.239.028-.418.012-.19a4.931 4.931 0 01-.014.127c-.093.813.338 1.601 1.171 1.776.746.157 1.638-.355 1.73-1.168.098-.846.091-1.742.001-2.593-.021-.202-.036-.426-.12-.607-.176-.382-.37-.682-.764-.875a1.475 1.475 0 00-1.487.102c-.708.491-.673 1.336-.706 2.106-.036.819.842 1.46 1.577 1.418.873-.052 1.336-.77 1.372-1.586"/>
  <path clip-path="url(#b)" fill="#27AAE1" d="M33.167 78.406c.229-1.095.304-2.263.691-3.315a3067.4 3067.4 0 01-2.782-.973c-.351 1.395-.701 2.791-1.053 4.186l2.926.222c.014-2.367.524-4.466 1.48-6.605.794-1.773-1.724-2.988-2.664-1.336-1.45 2.553-2.09 5.284-2.137 8.237-.031 1.965 2.851 1.719 2.949-.168.095-1.849.391-3.518 1.13-5.21.778-1.781-1.72-2.988-2.664-1.336-1.238 2.169-1.85 4.452-2.004 6.961.975.073 1.95.146 2.925.221.045-5.107 2.069-9.88 3.716-14.599.629-1.801-2.028-3.155-2.663-1.336-1.83 5.238-3.951 10.436-4.001 16.102-.015 1.696 2.82 1.917 2.924.221.14-2.267.646-4.27 1.768-6.233l-2.664-1.336c-.95 2.176-1.292 4.339-1.415 6.714l2.949-.168c.038-2.438.663-4.641 1.852-6.733l-2.664-1.336c-1.17 2.618-1.747 5.218-1.765 8.109-.011 1.789 2.531 1.786 2.924.221l1.053-4.187c.411-1.64-2.195-2.568-2.782-.973-.485 1.316-.642 2.67-.93 4.042-.398 1.894 2.504 2.495 2.901.608"/>
  <path clip-path="url(#b)" fill="#00BBDF" d="M29.277 79.93c.434 17.305 7.141 43.968 28.282 44.995 10.471.508 22.086-4.014 26.848-13.926 4.586-9.544.258-21.652-3.962-30.555-4.56-9.611-10.9-19.672-20.192-25.132-8.787-5.164-19.098-.359-24.074 7.733-11.209 18.23-3.699 47.997 17.291 55.584 8.29 2.994 17.141.488 23.222-5.601 6.874-6.886 7.52-17.793 4.905-26.817-2.655-9.166-8.25-17.906-14.247-25.174-4.961-6.007-11.646-12.263-19.725-12.559-7.871-.288-12.894 8.283-14.817 14.907-2.349 8.073-1.285 17.229.381 25.362 3.031 14.815 12.592 35.784 30.337 34.636 39.052-2.528 14.237-84.647-18.563-68.726-15.777 7.659-12.179 33.513-7.258 46.895 2.674 7.275 7.219 14.876 14.396 18.25 5.876 2.765 14.935 3.979 19.895-1.097 16.753-17.144-13.312-84.271-33.927-65.001-5.541 5.179-5.837 15.234-5.62 22.313.292 9.517 2.806 19.412 7.78 27.579 3.902 6.406 11.615 12.426 19.186 12.697 6.403.23 9.591-6.345 10.87-11.708 3.783-15.852-1.696-39.201-13.803-50.501-4.546-4.244-12.051-7.492-17.44-3.271-5.413 4.235-5.959 13.197-6.119 19.545-.426 16.889 4.081 38.678 20.453 46.778 16.666 8.248 22.202-13.591 21.736-25.886-.574-15.1-9.324-36.218-27.105-35.512-13.652.543-11.672 20.374-9.551 29.354 2.15 9.11 9.261 27.592 21.479 24.503 18.238-4.605 4.354-36.052-2.318-44.924-3.665-4.871-13.854-10.511-17.576-2.796-4.384 9.086-.697 21.636 3.383 30.248 2.37 5 7.08 12.132 13.448 9.7 5.596-2.139 7.67-10.159 8.461-15.477 1.002-6.755.111-15.151-4.688-20.428-3.551-3.903-10.4-7.059-15.039-3.37-9.012 7.164-.741 27.413 4.44 34.607 8.181 11.354 18.048.694 17.452-10.16-.393-7.13-5.053-13.832-10.113-18.49-3.051-2.807-8.739-6.678-12.733-3.697-5.412 4.035.16 15.905 2.09 20.181 1.968 4.36 6.153 11.725 11.8 8.79 4.752-2.47 4.672-11.1 4.03-15.541-1.045-7.249-5.733-13.094-12.981-14.281-.656-.107-1.417.175-1.683.839-2.842 7.117-1.276 30.32 9.926 29.439 13.574-1.067-.582-24.127-6.777-26.977-.74-.34-1.723-.095-2.057.708-4.16 10.016-1.072 24.7 8.729 30.388.568.329 1.458.161 1.843-.375 7.016-9.751.094-23.86-9.018-29.66-.735-.468-1.696.017-2.057.709-3.187 6.136-2.73 33.795 9.041 30.694 12.986-3.421-2.026-28.143-7.974-32.498-.69-.507-1.586-.53-2.174.15-4.751 5.53-3.771 15.229-2.287 21.876 1.176 5.248 4.068 15.655 10.931 15.846 16.542.455 6.71-31.87 1.956-38.876-3.069-4.518-9.861-6.818-12.991-1.021-4.17 7.727-1.024 18.993 2.569 26.417 2.096 4.329 8.986 12.945 14.316 7.668 5.037-4.992.909-15.632-1.264-21.093-2.287-5.747-5.872-13.388-12.887-13.511-6.635-.112-6.187 10.582-5.778 14.82.732 7.583 3.209 16.861 8.834 22.312 4.493 4.354 9.914.911 11.37-4.14 2.289-7.939-1.052-18.292-4.156-25.595-2.081-4.899-6.188-12.368-12.485-11.674-12.386 1.366 1.146 33.874 3.857 38.904 1.815 3.366 4.878 8.107 9.215 7.896 4.27-.208 5.912-4.081 5.988-8.003.205-10.588-5.625-28.512-16.395-32.727-.72-.281-1.761-.147-2.057.708-3.959 11.359 1.388 26.912 10.036 34.92.674.624 1.579.417 2.172-.152 8.521-8.148-.78-25.283-6.91-32.311-.998-1.146-2.83-.692-2.803.965.124 7.858 2.639 16.059 7.643 22.196.946 1.161 2.9.681 2.804-.965-.342-5.908-2.187-11.229-4.768-16.538-.722-1.483-3.184-1.317-2.991.589.37 3.705.85 7.401 1.223 11.108l2.991-.588c-1.52-3.681-3.854-6.884-5.372-10.566-.64-1.55-3.313-1.248-2.992.588.901 5.188 1.914 10.175 4.222 14.952.585 1.212 2.849 1.572 2.967-.183.327-4.771-.549-9.441-1.24-14.16l-2.805.965c2.748 3.818 4.958 7.591 5.145 12.422l2.803-.965c-2.77-3.502-4.696-7.056-4.87-11.629l-2.805.971c1.81 3.063 2.977 6.319 4.134 9.663.907-.458 1.814-.919 2.72-1.378-1.854-3.413-2.909-6.479-3.55-10.31-.845.425-1.688.847-2.534 1.27 1.997 2.139 2.51 5.105 3.321 7.773.592 1.94 3.499.934 2.909-1.002-1.063-3.492-1.725-6.448-4.237-9.137-.896-.962-2.752-.031-2.534 1.271.716 4.285 2.02 8.073 4.095 11.889.863 1.591 3.287.257 2.719-1.378-1.256-3.627-2.555-7.111-4.511-10.416-.827-1.401-2.86-.504-2.804.965.195 5.143 2.258 9.224 5.414 13.208.95 1.202 2.866.653 2.804-.965-.207-5.421-2.571-9.672-5.688-14.002-.851-1.181-3.042-.649-2.803.965.645 4.407 1.595 8.886 1.289 13.351.989-.063 1.979-.122 2.968-.184-2.191-4.539-3.194-9.172-4.055-14.126-.996.198-1.995.393-2.991.588 1.518 3.683 3.852 6.885 5.372 10.566.653 1.584 3.176 1.25 2.992-.588-.372-3.707-.852-7.402-1.224-11.109l-2.991.589c2.464 5.063 4.271 10.036 4.601 15.711l2.803-.965c-4.683-5.744-6.981-13.26-7.099-20.617l-2.803.966c5.201 5.966 14.375 21.526 7.089 28.495.726-.053 1.448-.102 2.173-.152-7.506-6.95-12.711-21.222-9.249-31.161l-2.056.708c8.668 3.392 12.942 16.803 14.334 25.185.463 2.786 1.312 9.946-3.136 9.572-3.538-.297-6.027-6.123-7.353-8.847-3.932-8.087-6.828-17.777-6.685-26.807.063-3.94 1.416-5.726 5.126-3.858 3.785 1.906 5.879 8.132 7.247 11.783 1.192 3.187 7.424 27.677-2.24 24.054-7.351-2.755-9.291-18.836-9.342-25.271-.034-4.28 1.242-8.813 6.197-6.353 3.612 1.795 5.784 8.122 7.15 11.552 1.712 4.3 3.184 9.224 2.753 13.881-.717 7.789-8.299.102-10.046-2.864-2.341-3.979-9.632-28.178.84-26.439 7.774 1.289 9.811 19.164 10.14 24.946.202 3.545.224 8.465-2.642 10.956-4.035 3.51-7.328-1.72-8.878-5.102-3.08-6.719-5.893-20.052-.576-26.236-.724.052-1.449.102-2.173.151 5.729 4.198 14.272 18.456 11.222 25.599-1.752 4.099-5.514-.063-6.487-2.146-1.265-2.711-1.684-5.82-2.021-8.751-.48-4.188-1-10.027.995-13.869l-2.058.709c7.026 4.474 12.4 14.697 9.16 22.925-1.037 2.637-6.658-8.412-6.968-9.365-1.602-4.913-1.598-10.596.368-15.328l-2.058.708c4.19 1.927 7.205 7.261 9.079 11.301 1.11 2.396 2.012 5.35 1.039 7.904-2.039 5.355-6.507-.745-7.496-3.049-1.991-4.64-2.448-10.05-2.422-15.032.015-2.337-.327-4.11 1.234-3.723 2.826.701 4.927 2.924 6.412 5.341 2.246 3.649 2.567 8.523 1.972 12.639-.603 4.173-3.057 8.049-6.749 3.756-2.925-3.405-12.989-27.177-1.264-21.132 7.592 3.914 13.918 14.018 12.77 22.668-.39 2.949-2.597 8.04-5.947 8.546-2.83.428-5.287-3.132-6.642-5.138-4.106-6.075-6.319-14.091-6.481-21.369-.192-8.663 6.483-11.278 12.826-5.152 6.166 5.955 5.275 17.626 2.56 24.849-1.01 2.685-2.899 6.27-6.007 6.723-4.733.688-8.14-7.663-9.544-10.865-2.454-5.601-3.609-11.668-3.702-17.751-.045-2.978.354-6.808 2.772-8.779 2.835-2.313 7.817 1.281 9.878 3.355 7.528 7.577 12.37 22.686 11.386 33.183-.758 8.067-8.663 10.567-14.185 5.479-5.341-4.923-8.111-12.857-9.849-19.73-1.687-6.662-2.634-14.967.636-21.217 4.08-7.8 14.871-2.78 19.598 1.583 7.455 6.88 10.111 18.373 10.481 28.119.289 7.615-1.129 19.63-9.284 22.683-8.995 3.368-18.028-7.771-21.176-14.977-4.08-9.336-5.69-19.995-5.619-30.102.048-6.844 1.493-20.154 11.104-17.942 9.86 2.27 14.991 13.99 17.78 22.679 3.021 9.402 4.455 20.301 2.152 29.95-2.822 11.83-12.665 8.173-19.896 2.226-7.911-6.506-10.592-19.13-11.466-28.786-.66-7.294-.737-21.553 7.84-24.345 8.338-2.715 16.831 8.825 20.337 15.099 4.682 8.382 7.788 18.005 9.235 27.474 1.065 6.964 1.726 18.165-5.825 21.634-8.988 4.131-18.89-3.311-23.398-10.741-7.978-13.146-14.195-49.713 8.411-51.468 10.645-.829 18.381 10.446 22.435 19 4.566 9.632 6.816 21.237 4.313 31.658-2.466 10.258-13.355 16.354-23.235 12.508-8.858-3.448-14.005-13.696-17.087-22.144-3.362-9.212-4.957-19.613-3.62-29.327 1.374-9.981 8.584-19.546 19.059-14.188 9.18 4.695 15.801 15.255 20.519 24.146 5.429 10.227 8.168 22.811.454 32.487-6.188 7.764-16.876 8.112-25.092 3.523-9.821-5.487-14.612-16.896-15.682-27.642-1.115-11.192 2.594-24.08 13.351-28.878 10.648-4.749 20.229 8.192 25.186 15.959 5.397 8.455 9.995 18.389 10.283 28.558.367 13.03-11.899 19.593-23.218 20.225-20.853 1.163-27.179-25.894-27.586-42.094-.048-2.031-3.123-1.84-3.072.173"/>
  <path clip-path="url(#b)" fill="#E6E7E8" d="M73.883 128.13c.325.542.828.855 1.384 1.104.324.144.667.252.998.383.225.091.442.197.654.319.503-.65.457-.807-.14-.472.591.204 1.185.406 1.776.609-1.176-1.967-.583-4.107-1.221-6.234l-2.451 1.684c1.23 1.056 2.461 2.109 3.692 3.164l1.289-2.719c-.564-.185-1.903-.571-2.043-.695.218.192-.304-.495-.384-.61-.408-.604-.873-1.167-1.34-1.725l-1.558 2.414c1.553.336 3.187.758 4.502 1.719.136.104.265.218.384.341.185.222.549-.907.082-.739-.707.253-1.641.113-2.371.067.072 1.046.145 2.088.215 3.133.409-.021.818-.027 1.229-.013.784.242.805-.168.063-1.234-.126.356-.533.698-.776.978-.681.775-1.316 1.577-1.546 2.615-.438 1.975 2.593 2.599 3.026.637.307-1.375 2.106-2.014 2.284-3.567.297-2.555-2.813-2.599-4.495-2.548-2.036.061-1.713 3.013.215 3.133 1.979.125 5.838-.202 5.07-3.239-.713-2.822-4.974-3.851-7.298-4.354-1.231-.268-2.472 1.317-1.558 2.413.792.95 1.433 2.031 2.262 2.944.769.851 2.442 1.069 3.451 1.403 1.528.506 2.411-1.757 1.289-2.718l-3.692-3.164c-1.209-1.038-2.895.2-2.451 1.683.304 1.012.203 2.032.24 3.07.052 1.424.641 2.716 1.358 3.917.351.59 1.163.829 1.777.609 1.607-.578 2.944-1.785 2.061-3.653a3.666 3.666 0 00-1.587-1.645c-.409-.222-1.844-.737-1.861-.765-1.041-1.734-3.573.026-2.529 1.755"/>
  <path clip-path="url(#b)" fill="#00AEEF" d="M66.399 129.537c-.336 2.985 1.615 6.424 4.636 3.677 2.387-2.171 2.552-5.872-.597-7.437-3.438-1.709-7.107.158-6.878 4.12.175 3.024 2.678 6.821 5.961 6.565 3.948-.308 4.678-5.164 2.617-7.855-1.706-2.234-6.36-4.409-8.091-1.06-1.372 2.655-.368 8.155 3.205 8.482 3.231.296 5.591-3.039 6.481-5.777 2.08-6.39-8.919-10.27-8.581-3.442.121 2.442 1.704 5.538 3.784 6.842 2.443 1.53 4.803-.818 4.743-3.387-.046-2.02-3.587-8.198 1.138-6.207 2.009.849 1.025 4.317.095 5.539-.49.644-1.342.428-1.259-.433.077-.794.659-1.524 1.238-2.01 2.396-2.017 2.884 2.273 1.776 3.854-1.359 1.936-2.482-.213-2.546-1.566-.065-1.351.586-3.174 2.021-3.376 2.606-.367 2.522 8.288-2.744 5.047-1.714-1.054-3.032 1.764-1.333 2.811 9.17 5.641 12.149-11.199 4.338-11.003-4.41.111-6.896 5.98-4.606 9.755 2.903 4.789 8.971.874 8.791-3.828-.16-4.152-3.992-6.746-7.458-4.294-2.79 1.974-3.609 6.112-.498 8.178 3.882 2.575 6.297-3.581 6.386-6.391.14-4.403-4.679-7.055-8.343-5.101-2.208 1.18-1.419 4.55-.88 6.439.202.71.92 2.076.81 2.735-.165.982-.217.626-.854-.185-.695-.886-1.13-1.93-1.431-3.003-.313-1.128-.309-1.103.482-.901 3.159.809 2.067 3.844.45 5.623-2.689 2.955-3.234-2.621-2.298-2.976 2.342-.896 4.743 4.597 2.099 4.386-1.507-.121-3.661-4.721-1.74-5.033 1.009-.165 2.885.2 2.365 1.554a2.567 2.567 0 01-.856 1.109c.572-.437.389 1.088.603-.816.225-1.996-2.8-2.642-3.026-.635"/>
  <path clip-path="url(#b)" fill="#2B3990" d="M61.16 125.961c1.491 2.312-.386 3.65-.221 5.92.127 1.753.748 3.412 2.133 4.522 1.546 1.238 3.564 1.001 4.804 2.812 1.208 1.768 1.883 4.116 2.657 6.094 2.333 5.964 4.113 12.1 6.246 18.134 2.499 7.071 5.197 14.053 7.122 21.312 3.758 14.168 5.31 28.809 9.451 42.893 3.243 11.031 8.363 23.152 19.257 28.391.866.417 1.505-.93.638-1.346-11.941-5.743-16.536-19.914-19.719-31.876-3.768-14.153-5.312-28.785-9.438-42.858-1.997-6.811-4.695-13.415-7.011-20.122-1.906-5.522-3.586-11.075-5.746-16.511-1.266-3.187-2.2-6.067-5.586-7.32-3.099-1.146-3.713-3.571-2.699-6.592.535-1.594.227-2.896-.674-4.292-.527-.817-1.741.024-1.214.839M75.556 120.581c.215 1.678.768 2.812 2.088 3.878 2.59 2.09 3.312 4.419 1.805 7.415-2.587 5.14 1.368 11.942 3.199 16.734 4.934 12.913 8.285 26.369 14.726 38.66 6.117 11.675 13.639 22.424 17.797 35.065 1.676 5.098 2.697 10.342 3.29 15.664.539 4.835 1.101 10.561-.734 15.15-.355.891.975 1.563 1.332.668 1.572-3.93 1.402-8.488 1.155-12.668a77.486 77.486 0 00-2.145-14.042c-3.132-12.62-9.735-23.545-16.154-34.677-3.529-6.118-6.723-12.393-9.152-19.039-2.555-6.987-4.622-14.144-7.175-21.133-2.228-6.099-7.499-14.394-4.302-20.719.86-1.703.648-3.308-.013-5.067-.954-2.538-3.881-3.144-4.243-5.975-.122-.958-1.597-.878-1.474.086"/>
  <path clip-path="url(#b)" fill="#2B3990" d="M61.06 124.591c-13.389 1.451-22.319-8.686-28.023-19.845-6.503-12.723-7.807-27.43-2.532-40.75 2.458-6.209 7.01-12.026 13.438-14.155 5.267-1.745 10.876.172 15.506 2.903 8.658 5.109 16.622 14.501 20.742 23.765 3.133 7.041 4.963 14.924 5.46 22.586.529 8.175-1.173 17.651-9.604 20.731-.892.325-.402 1.75.491 1.425 8.716-3.185 10.88-12.441 10.643-21.031-.237-8.563-2.464-17.757-6.199-25.493-7.673-15.897-29.967-37.693-46.18-20.515-5.79 6.135-8.19 15.105-8.895 23.414-.713 8.396.722 16.563 4.148 24.258 5.775 12.971 15.68 25.88 31.105 24.208.946-.103.844-1.605-.1-1.501M112.203 255.212c-.66 2.91-.824 6.377 1.394 8.703 1.524 1.599 3.943 1.861 5.93 1.246 1.98-.613 3.66-2.286 3.931-4.429.411-3.242-2.271-6.003-4.587-7.816-.755-.592-1.717.536-.955 1.133 1.831 1.435 4.275 3.64 4.104 6.252-.109 1.673-1.39 2.87-2.867 3.397-1.522.543-3.285.316-4.507-.824-1.93-1.803-1.506-5.09-.992-7.357.214-.946-1.238-1.244-1.451-.305"/>
</svg>
