<?xml version="1.0" encoding="utf-8"?>
<!-- Generator: Adobe Illustrator 16.0.0, SVG Export Plug-In . SVG Version: 6.00 Build 0)  -->
<!DOCTYPE svg PUBLIC "-//W3C//DTD SVG 1.1//EN" "http://www.w3.org/Graphics/SVG/1.1/DTD/svg11.dtd">
<svg version="1.1" id="Layer_1" xmlns="http://www.w3.org/2000/svg" xmlns:xlink="http://www.w3.org/1999/xlink" x="0px" y="0px"
	 width="161.992px" height="312.026px" viewBox="0 0 161.992 312.026" enable-background="new 0 0 161.992 312.026"
	 xml:space="preserve">
<g>
	<defs>
		<rect id="SVGID_5_" x="25.729" y="47.928" width="98.868" height="218.532"/>
	</defs>
	<clipPath id="SVGID_2_">
		<use xlink:href="#SVGID_5_"  overflow="visible"/>
	</clipPath>
	<path clip-path="url(#SVGID_2_)" fill="#27AAE1" d="M112.889,256.651c1.972,2.5,3.672,5.132,4.124,8.355
		c0.896-0.309,1.791-0.617,2.688-0.925c-3.398-4.509-3.597-10.498-7.222-14.936c-0.497,0.771-0.995,1.542-1.492,2.314
		c1.546,0.391,9.525,5.765,5.733,7.547c-0.656,0.308-3.622-5.107-0.468-5.729c3.235-0.636,4.107,4.994,3.739,7.114
		c-0.735,4.224-5.771,2.862-6.839-0.402c-1.432-4.38,4.252-6.926,7.276-4.209c1.94,1.743,1.362,4.582,0.034,6.425
		c-1.912,2.649-5.484,0.806-5.975-1.963c-0.556-3.14,4.797-7.722,6.189-3.712c0.636,1.831-0.644,3.487-2.148,4.196
		c-1.75,0.824-3.282,0.502-2.805-1.699c0.412-1.893-2.492-2.492-2.9-0.608c-0.994,4.572,2.772,6.64,6.687,5.156
		c3.613-1.369,5.97-6.756,2.854-9.95c-2.922-2.996-8.124-1.209-9.898,2.159c-2.213,4.199-0.108,10.656,5.265,10.674
		c5.296,0.017,8.347-6.163,6.141-10.826c-2.164-4.575-8.067-5.435-11.547-2.063c-3.173,3.073-2.841,7.961,0.314,10.996
		c3.083,2.965,8.197,1.386,9.846-2.24c1.759-3.867-0.144-10.293-4.313-11.792c-4.734-1.7-7.031,3.193-5.845,7.135
		c1.051,3.492,5.618,6.491,7.618,1.976c2.243-5.067-4.111-10.043-8.399-11.13c-1.201-0.304-2.335,1.284-1.493,2.313
		c3.607,4.414,3.807,10.406,7.221,14.936c0.832,1.104,2.907,0.645,2.688-0.925c-0.531-3.787-2.31-6.907-4.646-9.871
		C114.125,253.459,111.686,255.126,112.889,256.651"/>
	<path clip-path="url(#SVGID_2_)" fill="#27AAE1" d="M70.456,140.818c4.171,9.647,7.963,19.549,13.596,28.46
		c0.92,1.456,3.146,0.272,2.606-1.32c-4.246-12.524-6.455-26.069-13.742-37.333c-0.653-1.012-2.569-0.8-2.662,0.537
		c-0.464,6.604,1.78,13.111,4.229,19.169c2.598,6.426,5.863,12.563,9.067,18.695c0.836,1.601,3.002,0.212,2.606-1.32
		c-2.854-11.056-5.191-23.36-11.801-32.902c-0.896-1.295-2.662-0.512-2.688,0.925c-0.164,9.568,5.285,18.171,9.106,26.607
		c0.786,1.735,3.43,0.909,2.786-0.96c-3.32-9.64-6.65-19.398-11.847-28.212c-0.624-1.058-2.576-0.764-2.664,0.536
		c-0.227,3.325,0.749,6.401,1.818,9.525c0.549,1.6,3.024,1.144,2.868-0.563c-0.276-3.024-1.128-5.771-2.455-8.501
		c-0.844-1.737-3.248-0.955-2.787,0.959c4.454,18.5,12.449,35.843,18.879,53.688c6.081,16.877,7.177,35.389,15.669,51.383
		c2.177,4.099,4.697,7.892,6.693,12.107c1.405,2.969,3.412,5.769,4.254,8.914c0.522,1.95,3.094,2.301,4.686,1.839
		c2.576-0.747,4.175-2.978,4.11-5.753c-0.077-3.304-2.168-5.075-3.892-7.666c-1.334-2.003-0.392-4.726-0.011-6.841
		c0.387-2.154,0.414-4.454,0.476-6.646c0.238-8.376-2.625-15.942-6.766-23.107c-3.629-6.278-8.13-11.994-11.924-18.169
		c-4.132-6.728-6.31-14.365-9.738-21.452c-3.256-6.731-6.244-13.547-9.396-20.321c-2.595-5.581-6.621-12.306-6.22-18.669
		c-0.948,0.058-1.896,0.117-2.844,0.175c5.05,12.139,10.719,24.028,15.047,36.459c0.647,1.859,3.263,0.896,2.787-0.96
		c-3.237-12.633-8.784-24.436-13.06-36.719c-0.638-1.835-3.425-0.876-2.787,0.96c4.275,12.283,9.822,24.086,13.06,36.719
		c0.929-0.32,1.857-0.64,2.787-0.96c-4.328-12.43-9.997-24.32-15.047-36.459c-0.515-1.234-2.742-1.446-2.845,0.175
		c-0.413,6.556,2.921,12.938,5.624,18.721c3.557,7.607,6.928,15.269,10.587,22.834c3.699,7.647,6.104,15.606,10.65,22.843
		c4.486,7.141,9.822,13.729,13.481,21.38c1.849,3.865,3.148,7.999,3.517,12.267c0.415,4.813-0.336,9.355-0.935,14.076
		c-0.421,3.308,1.198,5.631,3.177,8.062c1.325,1.627,2.098,4.257,0.228,5.821c-2.129,1.783-2.031-0.487-2.544-1.661
		c-0.65-1.489-1.716-2.876-2.47-4.33c-1.084-2.092-2.03-4.257-3.073-6.367c-2.125-4.302-4.936-8.16-6.963-12.524
		c-3.782-8.143-5.636-17.051-7.584-25.761c-2.877-12.868-7.203-24.987-11.996-37.252c-4.842-12.39-9.712-24.807-12.832-37.762
		c-0.929,0.318-1.857,0.639-2.787,0.959c1.212,2.492,2.04,4.932,2.294,7.709c0.956-0.188,1.911-0.375,2.867-0.563
		c-0.873-2.547-1.89-5.226-1.705-7.956c-0.888,0.178-1.775,0.357-2.663,0.537c5.056,8.575,8.257,18.11,11.487,27.488
		c0.929-0.32,1.858-0.641,2.786-0.96c-3.699-8.166-9.104-16.558-8.944-25.814c-0.896,0.309-1.791,0.617-2.687,0.925
		c6.434,9.289,8.66,21.411,11.439,32.179c0.869-0.44,1.738-0.882,2.606-1.321c-2.947-5.642-5.881-11.285-8.367-17.153
		c-2.404-5.677-4.892-12.16-4.454-18.42c-0.888,0.179-1.775,0.358-2.664,0.537c7.121,11.007,9.231,24.366,13.381,36.61
		c0.869-0.441,1.738-0.881,2.606-1.322c-5.488-8.685-9.168-18.334-13.234-27.737C72.477,138.088,69.684,139.033,70.456,140.818"/>
	<path clip-path="url(#SVGID_2_)" fill="#27AAE1" d="M84.436,172.972c3.623,9.399,6.295,19.182,11.346,27.96
		c0.889,1.543,3.044,0.237,2.606-1.321c-3.635-12.933-8.73-25.452-14.987-37.328c-0.832-1.578-3.042-0.226-2.606,1.32
		c3.171,11.259,9.724,21.293,12.123,32.792c0.929-0.319,1.857-0.639,2.787-0.959c-3.764-7.588-5.936-15.813-9.355-23.548
		c-0.779-1.761-3.568-0.822-2.787,0.96c2.683,6.113,5.704,12.07,8.221,18.258c2.79,6.858,3.958,13.598,4.395,20.94
		c0.84,14.167,6.244,26.852,13.505,38.911c0.808-0.562,1.617-1.122,2.426-1.684c-6.188-9.599-10.554-21.011-10.375-32.546
		c-0.982,0.057-1.966,0.112-2.948,0.168c1.842,13.516,7.622,25.43,16.9,35.35c0.531-0.826,1.063-1.653,1.594-2.479
		c-4.262-1.648-8.092-4.759-10.117-8.985c-0.817-1.703-3.457-0.917-2.787,0.959c1.686,4.723,4.106,9.437,8.229,12.417
		c0.531-0.826,1.063-1.653,1.594-2.48c-5.549-3.597-8.488-10.609-10.76-16.583c-1.933-5.086-4.165-10.882-4.52-16.348
		c-0.347-5.331,0.104-10.67-0.326-16.004c-0.316-3.916-1.097-9.214-5.061-11.083c-1.049-0.494-2.131,0.296-2.112,1.43
		c0.15,9.304,3.276,18.237,5.475,27.203c2.193,8.941,4.014,18.148,9.1,25.988c0.724-0.658,1.446-1.317,2.17-1.975
		c-8.993-8.59-9.813-22.735-10.029-34.41c-0.982,0.057-1.965,0.112-2.948,0.167c0.276,8.571,0.671,17.42,5.267,24.953
		c0.898,1.472,3.156,0.265,2.607-1.32c-0.809-2.333-1.645-4.587-3.147-6.564c-0.87-1.146-2.81-0.624-2.688,0.926
		c0.227,2.868,1.322,5.152,2.987,7.467c0.792,1.103,2.989,0.632,2.687-0.925c-0.549-2.816-1.443-5.418-2.746-7.975
		c-0.693-1.363-2.827-0.474-2.687,0.925c0.679,6.81,5.579,12.117,9.01,17.716c0.898,1.466,3.164,0.266,2.606-1.322
		c-2.436-6.932-5.6-13.583-7.777-20.608c-2.391-7.709-2.294-15.943-3.84-23.83c-0.896,0.308-1.792,0.617-2.688,0.925
		c5.18,7.239,10.456,14.51,14.081,22.702c3.961,8.952,4.716,18.428,2.225,27.817c-0.441,1.66,2.104,2.502,2.782,0.973
		c10.607-23.91-10.797-45.689-21.962-64.947c-0.717-1.234-2.979-0.544-2.687,0.926c2.064,10.387,6.308,19.939,10.79,29.473
		c4.447,9.457,6.784,19.18,7.866,29.538c0.956-0.188,1.911-0.376,2.867-0.564c-3.696-14.88-2.157-30.868-10.37-44.44
		c-0.923-1.523-3.038-0.247-2.606,1.32c3.372,12.251,6.741,24.542,7.886,37.227c0.982-0.057,1.965-0.111,2.948-0.167
		c-1.192-10.842-2.552-21.526-7.491-31.411c-0.809,0.561-1.617,1.122-2.426,1.683c3.309,6.544,6.367,13.275,7.576,20.561
		c0.937,5.646-0.568,11.622,2.379,16.803c0.96,1.686,3.381-0.004,2.426-1.683c-1.651-2.903-1.421-6.166-1.381-9.378
		c0.035-2.841-0.341-5.738-0.955-8.517c-1.519-6.876-4.457-13.217-7.619-19.469c-0.875-1.731-3.281-0.027-2.426,1.683
		c4.67,9.348,5.844,19.66,6.969,29.896c0.211,1.925,3.123,1.769,2.948-0.167c-1.168-12.947-4.606-25.515-8.048-38.019
		c-0.868,0.44-1.737,0.881-2.606,1.321c7.987,13.199,6.406,29.212,10.011,43.718c0.413,1.664,3.041,1.103,2.866-0.563
		c-1.021-9.773-3.027-19.199-7.043-28.221c-4.492-10.092-9.438-19.856-11.612-30.79c-0.896,0.31-1.792,0.617-2.688,0.926
		c10.496,18.103,31.722,39.39,21.724,61.928c0.928,0.324,1.855,0.647,2.782,0.972c2.464-9.28,1.84-18.579-1.598-27.592
		c-3.512-9.203-9.51-17.29-15.182-25.219c-0.791-1.105-2.992-0.629-2.688,0.925c1.462,7.458,1.555,15.131,3.406,22.511
		c1.964,7.835,5.703,15.123,8.373,22.722c0.868-0.44,1.736-0.882,2.605-1.321c-3.101-5.062-7.875-10.052-8.487-16.201
		c-0.896,0.309-1.792,0.617-2.688,0.926c1.04,2.043,1.786,4.209,2.224,6.459c0.896-0.308,1.791-0.616,2.688-0.925
		c-1.331-1.85-2.282-3.633-2.465-5.952c-0.896,0.31-1.791,0.617-2.688,0.925c1.342,1.767,2.066,3.761,2.787,5.841
		c0.869-0.44,1.738-0.882,2.606-1.321c-4.286-7.026-4.488-15.461-4.745-23.438c-0.063-1.947-2.984-1.759-2.948,0.167
		c0.234,12.576,1.421,27.297,11.065,36.51c1.258,1.2,3.08-0.57,2.169-1.976c-4.914-7.573-6.654-16.615-8.739-25.264
		c-2.105-8.732-5.167-17.357-5.314-26.411c-0.703,0.477-1.407,0.954-2.111,1.43c4.026,1.899,3.546,9.813,3.621,13.457
		c0.094,4.608-0.616,9.679,0.496,14.21c1.505,6.136,3.391,12.229,5.897,18.03c2.379,5.505,5.555,11.017,10.651,14.321
		c1.42,0.921,2.966-1.487,1.594-2.479c-3.723-2.692-5.831-6.846-7.353-11.109c-0.93,0.318-1.858,0.639-2.787,0.959
		c2.371,4.946,6.575,8.766,11.628,10.719c1.606,0.622,2.776-1.215,1.594-2.479c-8.688-9.291-14.14-20.601-15.863-33.251
		c-0.264-1.938-2.918-1.762-2.948,0.168c-0.187,12.05,4.436,24.039,10.897,34.062c1.055,1.637,3.422-0.028,2.426-1.684
		c-3.66-6.076-6.881-12.356-9.326-19.032c-2.48-6.775-3.352-13.431-3.791-20.567c-0.396-6.467-1.704-12.423-4.012-18.49
		c-2.506-6.588-5.801-12.848-8.63-19.296c-0.929,0.32-1.858,0.641-2.787,0.96c3.42,7.734,5.592,15.959,9.355,23.547
		c0.865,1.747,3.186,0.954,2.787-0.959c-2.4-11.5-8.952-21.535-12.123-32.792c-0.869,0.44-1.738,0.881-2.606,1.321
		c6.128,11.631,11.067,23.941,14.626,36.605c0.869-0.441,1.738-0.882,2.607-1.322c-4.909-8.531-7.464-18.101-10.985-27.236
		C86.526,170.204,83.736,171.157,84.436,172.972"/>
	<path clip-path="url(#SVGID_2_)" fill="#27AAE1" d="M88.19,186.127c0.767,4.534,1.42,9.086,2.246,13.61
		c0.748,4.101,2.021,8.087,2.652,12.202c1.026,6.69,0.748,14.301,4.329,20.296c0.76,1.273,2.854,0.533,2.687-0.925
		c-0.873-7.571-2.93-14.953-3.609-22.552c-0.175-1.961-2.921-1.743-2.948,0.167c-0.029,2.094,0.191,4.136,0.476,6.21
		c0.264,1.912,3.188,1.764,2.948-0.167c-0.184-1.488-0.511-2.948-0.695-4.436c-0.236-1.916-3.092-1.776-2.947,0.168
		c0.213,2.882,0.675,5.736,0.889,8.617c0.982-0.056,1.965-0.111,2.948-0.168c-0.283-2.026-0.565-4.054-0.849-6.081
		c-0.265-1.904-3.133-1.778-2.947,0.167c0.322,3.4,0.733,6.784,1.412,10.138c0.956-0.188,1.911-0.376,2.867-0.564
		c-1.408-5.439-2.181-10.981-2.439-16.582c-0.983,0.056-1.966,0.112-2.948,0.168c1.317,9.259,1.252,19.377,6.554,27.483
		c0.927,1.415,3.213,0.278,2.606-1.321c-0.773-2.04-1.798-3.918-2.885-5.804c-0.636-1.101-2.523-0.728-2.664,0.537
		c-0.378,3.388,1.233,6.451,3.355,8.995c1.039,1.245,3.196,0.382,2.606-1.32c-0.667-1.926-1.406-3.765-2.383-5.553
		c-0.736-1.35-2.795-0.479-2.688,0.926c0.728,9.405,7.943,16.636,13.961,23.189c1.308,1.424,3.208-0.854,1.911-2.267
		c-5.418-5.901-12.269-12.605-12.924-21.091c-0.896,0.309-1.791,0.616-2.688,0.926c0.849,1.553,1.445,3.16,2.022,4.828
		c0.869-0.44,1.738-0.881,2.607-1.321c-1.535-1.84-3.162-4.175-2.882-6.703c-0.887,0.178-1.775,0.357-2.663,0.537
		c0.951,1.65,1.848,3.293,2.525,5.08c0.868-0.441,1.737-0.881,2.606-1.322c-4.971-7.599-4.798-17.286-6.032-25.968
		c-0.272-1.907-3.039-1.787-2.948,0.168c0.271,5.869,1.125,11.676,2.602,17.374c0.423,1.635,3.203,1.099,2.866-0.564
		c-0.678-3.353-1.089-6.736-1.412-10.136c-0.981,0.056-1.965,0.111-2.947,0.167c0.282,2.028,0.564,4.056,0.848,6.082
		c0.265,1.904,3.092,1.784,2.948-0.168c-0.214-2.881-0.676-5.735-0.89-8.617c-0.981,0.057-1.965,0.112-2.947,0.168
		c0.184,1.487,0.511,2.947,0.694,4.435c0.983-0.057,1.967-0.111,2.948-0.167c-0.285-2.075-0.505-4.116-0.476-6.21
		c-0.982,0.056-1.965,0.111-2.948,0.167c0.681,7.6,2.737,14.981,3.61,22.553c0.895-0.309,1.791-0.617,2.687-0.926
		c-3.365-5.634-2.968-13.31-3.935-19.613c-0.588-3.836-1.796-7.557-2.524-11.37c-0.863-4.517-1.479-9.078-2.246-13.609
		C90.817,184.06,87.868,184.215,88.19,186.127"/>
	<path clip-path="url(#SVGID_2_)" fill="#27AAE1" d="M32.426,77.007c0.004-0.086,0.008-0.17,0.012-0.254
		c-0.026,0.506-0.012,0.2-0.001,0.085c0.037-0.414,0.194-0.139-0.283,0.464c-0.212,0.146-0.424,0.291-0.636,0.437
		c0.002,0,0.003-0.001,0.005-0.002c-0.376-0.025-0.753-0.051-1.129-0.078c0.002,0.001,0.003,0.002,0.004,0.003
		c-0.19-0.168-0.383-0.337-0.574-0.506c-0.157-0.211-0.202-0.468-0.229-0.638c0.011,0.073,0.018,0.147,0.023,0.221
		c0.021,0.219,0.029,0.438,0.036,0.657c0.009,0.252,0.012,0.503,0.009,0.756c-0.001,0.114-0.004,0.229-0.009,0.345
		c-0.01,0.239,0.028-0.418,0.012-0.19c-0.004,0.043-0.009,0.085-0.014,0.127c-0.093,0.813,0.338,1.601,1.171,1.776
		c0.746,0.157,1.638-0.355,1.73-1.168c0.098-0.846,0.091-1.742,0.001-2.593c-0.021-0.202-0.036-0.426-0.12-0.607
		c-0.176-0.382-0.37-0.682-0.764-0.875c-0.48-0.236-1.053-0.199-1.487,0.102c-0.708,0.491-0.673,1.336-0.706,2.106
		c-0.036,0.819,0.842,1.46,1.577,1.418C31.927,78.541,32.39,77.823,32.426,77.007"/>
	<path clip-path="url(#SVGID_2_)" fill="#27AAE1" d="M33.167,78.406c0.229-1.095,0.304-2.263,0.691-3.315
		c-0.928-0.324-1.854-0.648-2.782-0.973c-0.351,1.395-0.701,2.791-1.053,4.186c0.976,0.074,1.95,0.147,2.926,0.222
		c0.014-2.367,0.524-4.466,1.48-6.605c0.794-1.773-1.724-2.988-2.664-1.336c-1.45,2.553-2.09,5.284-2.137,8.237
		c-0.031,1.965,2.851,1.719,2.949-0.168c0.095-1.849,0.391-3.518,1.13-5.21c0.778-1.781-1.72-2.988-2.664-1.336
		c-1.238,2.169-1.85,4.452-2.004,6.961c0.975,0.073,1.95,0.146,2.925,0.221c0.045-5.107,2.069-9.88,3.716-14.599
		c0.629-1.801-2.028-3.155-2.663-1.336c-1.83,5.238-3.951,10.436-4.001,16.102c-0.015,1.696,2.82,1.917,2.924,0.221
		c0.14-2.267,0.646-4.27,1.768-6.233c-0.888-0.445-1.776-0.891-2.664-1.336c-0.95,2.176-1.292,4.339-1.415,6.714
		c0.983-0.056,1.966-0.112,2.949-0.168c0.038-2.438,0.663-4.641,1.852-6.733c-0.888-0.445-1.775-0.891-2.664-1.336
		c-1.17,2.618-1.747,5.218-1.765,8.109c-0.011,1.789,2.531,1.786,2.924,0.221c0.351-1.396,0.702-2.791,1.053-4.187
		c0.411-1.64-2.195-2.568-2.782-0.973c-0.485,1.316-0.642,2.67-0.93,4.042C29.868,79.692,32.77,80.293,33.167,78.406"/>
	<path clip-path="url(#SVGID_2_)" fill="#00BBDF" d="M29.277,79.93c0.434,17.305,7.141,43.968,28.282,44.995
		c10.471,0.508,22.086-4.014,26.848-13.926c4.586-9.544,0.258-21.652-3.962-30.555c-4.56-9.611-10.9-19.672-20.192-25.132
		c-8.787-5.164-19.098-0.359-24.074,7.733c-11.209,18.23-3.699,47.997,17.291,55.584c8.29,2.994,17.141,0.488,23.222-5.601
		c6.874-6.886,7.52-17.793,4.905-26.817c-2.655-9.166-8.25-17.906-14.247-25.174c-4.961-6.007-11.646-12.263-19.725-12.559
		c-7.871-0.288-12.894,8.283-14.817,14.907c-2.349,8.073-1.285,17.229,0.381,25.362c3.031,14.815,12.592,35.784,30.337,34.636
		c39.052-2.528,14.237-84.647-18.563-68.726c-15.777,7.659-12.179,33.513-7.258,46.895c2.674,7.275,7.219,14.876,14.396,18.25
		c5.876,2.765,14.935,3.979,19.895-1.097c16.753-17.144-13.312-84.271-33.927-65.001c-5.541,5.179-5.837,15.234-5.62,22.313
		c0.292,9.517,2.806,19.412,7.78,27.579c3.902,6.406,11.615,12.426,19.186,12.697c6.403,0.23,9.591-6.345,10.87-11.708
		c3.783-15.852-1.696-39.201-13.803-50.501c-4.546-4.244-12.051-7.492-17.44-3.271c-5.413,4.235-5.959,13.197-6.119,19.545
		c-0.426,16.889,4.081,38.678,20.453,46.778c16.666,8.248,22.202-13.591,21.736-25.886c-0.574-15.1-9.324-36.218-27.105-35.512
		c-13.652,0.543-11.672,20.374-9.551,29.354c2.15,9.11,9.261,27.592,21.479,24.503c18.238-4.605,4.354-36.052-2.318-44.924
		c-3.665-4.871-13.854-10.511-17.576-2.796c-4.384,9.086-0.697,21.636,3.383,30.248c2.37,5,7.08,12.132,13.448,9.7
		c5.596-2.139,7.67-10.159,8.461-15.477c1.002-6.755,0.111-15.151-4.688-20.428c-3.551-3.903-10.4-7.059-15.039-3.37
		c-9.012,7.164-0.741,27.413,4.44,34.607c8.181,11.354,18.048,0.694,17.452-10.16c-0.393-7.13-5.053-13.832-10.113-18.49
		c-3.051-2.807-8.739-6.678-12.733-3.697c-5.412,4.035,0.16,15.905,2.09,20.181c1.968,4.36,6.153,11.725,11.8,8.79
		c4.752-2.47,4.672-11.1,4.03-15.541c-1.045-7.249-5.733-13.094-12.981-14.281c-0.656-0.107-1.417,0.175-1.683,0.839
		c-2.842,7.117-1.276,30.32,9.926,29.439c13.574-1.067-0.582-24.127-6.777-26.977c-0.74-0.34-1.723-0.095-2.057,0.708
		c-4.16,10.016-1.072,24.7,8.729,30.388c0.568,0.329,1.458,0.161,1.843-0.375c7.016-9.751,0.094-23.86-9.018-29.66
		c-0.735-0.468-1.696,0.017-2.057,0.709c-3.187,6.136-2.73,33.795,9.041,30.694c12.986-3.421-2.026-28.143-7.974-32.498
		c-0.69-0.507-1.586-0.53-2.174,0.15c-4.751,5.53-3.771,15.229-2.287,21.876c1.176,5.248,4.068,15.655,10.931,15.846
		c16.542,0.455,6.71-31.87,1.956-38.876c-3.069-4.518-9.861-6.818-12.991-1.021c-4.17,7.727-1.024,18.993,2.569,26.417
		c2.096,4.329,8.986,12.945,14.316,7.668c5.037-4.992,0.909-15.632-1.264-21.093c-2.287-5.747-5.872-13.388-12.887-13.511
		c-6.635-0.112-6.187,10.582-5.778,14.82c0.732,7.583,3.209,16.861,8.834,22.312c4.493,4.354,9.914,0.911,11.37-4.14
		c2.289-7.939-1.052-18.292-4.156-25.595c-2.081-4.899-6.188-12.368-12.485-11.674c-12.386,1.366,1.146,33.874,3.857,38.904
		c1.815,3.366,4.878,8.107,9.215,7.896c4.27-0.208,5.912-4.081,5.988-8.003c0.205-10.588-5.625-28.512-16.395-32.727
		c-0.72-0.281-1.761-0.147-2.057,0.708c-3.959,11.359,1.388,26.912,10.036,34.92c0.674,0.624,1.579,0.417,2.172-0.152
		c8.521-8.148-0.78-25.283-6.91-32.311c-0.998-1.146-2.83-0.692-2.803,0.965c0.124,7.858,2.639,16.059,7.643,22.196
		c0.946,1.161,2.9,0.681,2.804-0.965c-0.342-5.908-2.187-11.229-4.768-16.538c-0.722-1.483-3.184-1.317-2.991,0.589
		c0.37,3.705,0.85,7.401,1.223,11.108c0.996-0.196,1.994-0.392,2.991-0.588c-1.52-3.681-3.854-6.884-5.372-10.566
		c-0.64-1.55-3.313-1.248-2.992,0.588c0.901,5.188,1.914,10.175,4.222,14.952c0.585,1.212,2.849,1.572,2.967-0.183
		c0.327-4.771-0.549-9.441-1.24-14.16l-2.805,0.965c2.748,3.818,4.958,7.591,5.145,12.422l2.803-0.965
		c-2.77-3.502-4.696-7.056-4.87-11.629L50.576,78.8c1.81,3.063,2.977,6.319,4.134,9.663c0.907-0.458,1.814-0.919,2.72-1.378
		c-1.854-3.413-2.909-6.479-3.55-10.31c-0.845,0.425-1.688,0.847-2.534,1.27c1.997,2.139,2.51,5.105,3.321,7.773
		c0.592,1.94,3.499,0.934,2.909-1.002c-1.063-3.492-1.725-6.448-4.237-9.137c-0.896-0.962-2.752-0.031-2.534,1.271
		c0.716,4.285,2.02,8.073,4.095,11.889c0.863,1.591,3.287,0.257,2.719-1.378c-1.256-3.627-2.555-7.111-4.511-10.416
		c-0.827-1.401-2.86-0.504-2.804,0.965c0.195,5.143,2.258,9.224,5.414,13.208c0.95,1.202,2.866,0.653,2.804-0.965
		c-0.207-5.421-2.571-9.672-5.688-14.002c-0.851-1.181-3.042-0.649-2.803,0.965c0.645,4.407,1.595,8.886,1.289,13.351
		c0.989-0.063,1.979-0.122,2.968-0.184c-2.191-4.539-3.194-9.172-4.055-14.126c-0.996,0.198-1.995,0.393-2.991,0.588
		c1.518,3.683,3.852,6.885,5.372,10.566c0.653,1.584,3.176,1.25,2.992-0.588c-0.372-3.707-0.852-7.402-1.224-11.109
		c-0.996,0.197-1.995,0.393-2.991,0.589c2.464,5.063,4.271,10.036,4.601,15.711l2.803-0.965c-4.683-5.744-6.981-13.26-7.099-20.617
		l-2.803,0.966c5.201,5.966,14.375,21.526,7.089,28.495c0.726-0.053,1.448-0.102,2.173-0.152
		c-7.506-6.95-12.711-21.222-9.249-31.161l-2.056,0.708c8.668,3.392,12.942,16.803,14.334,25.185
		c0.463,2.786,1.312,9.946-3.136,9.572c-3.538-0.297-6.027-6.123-7.353-8.847c-3.932-8.087-6.828-17.777-6.685-26.807
		c0.063-3.94,1.416-5.726,5.126-3.858c3.785,1.906,5.879,8.132,7.247,11.783c1.192,3.187,7.424,27.677-2.24,24.054
		c-7.351-2.755-9.291-18.836-9.342-25.271c-0.034-4.28,1.242-8.813,6.197-6.353c3.612,1.795,5.784,8.122,7.15,11.552
		c1.712,4.3,3.184,9.224,2.753,13.881c-0.717,7.789-8.299,0.102-10.046-2.864c-2.341-3.979-9.632-28.178,0.84-26.439
		c7.774,1.289,9.811,19.164,10.14,24.946c0.202,3.545,0.224,8.465-2.642,10.956c-4.035,3.51-7.328-1.72-8.878-5.102
		c-3.08-6.719-5.893-20.052-0.576-26.236c-0.724,0.052-1.449,0.102-2.173,0.151c5.729,4.198,14.272,18.456,11.222,25.599
		c-1.752,4.099-5.514-0.063-6.487-2.146c-1.265-2.711-1.684-5.82-2.021-8.751c-0.48-4.188-1-10.027,0.995-13.869l-2.058,0.709
		c7.026,4.474,12.4,14.697,9.16,22.925c-1.037,2.637-6.658-8.412-6.968-9.365c-1.602-4.913-1.598-10.596,0.368-15.328l-2.058,0.708
		c4.19,1.927,7.205,7.261,9.079,11.301c1.11,2.396,2.012,5.35,1.039,7.904c-2.039,5.355-6.507-0.745-7.496-3.049
		c-1.991-4.64-2.448-10.05-2.422-15.032c0.015-2.337-0.327-4.11,1.234-3.723c2.826,0.701,4.927,2.924,6.412,5.341
		c2.246,3.649,2.567,8.523,1.972,12.639c-0.603,4.173-3.057,8.049-6.749,3.756c-2.925-3.405-12.989-27.177-1.264-21.132
		c7.592,3.914,13.918,14.018,12.77,22.668c-0.39,2.949-2.597,8.04-5.947,8.546c-2.83,0.428-5.287-3.132-6.642-5.138
		c-4.106-6.075-6.319-14.091-6.481-21.369c-0.192-8.663,6.483-11.278,12.826-5.152c6.166,5.955,5.275,17.626,2.56,24.849
		c-1.01,2.685-2.899,6.27-6.007,6.723c-4.733,0.688-8.14-7.663-9.544-10.865c-2.454-5.601-3.609-11.668-3.702-17.751
		c-0.045-2.978,0.354-6.808,2.772-8.779c2.835-2.313,7.817,1.281,9.878,3.355c7.528,7.577,12.37,22.686,11.386,33.183
		c-0.758,8.067-8.663,10.567-14.185,5.479c-5.341-4.923-8.111-12.857-9.849-19.73c-1.687-6.662-2.634-14.967,0.636-21.217
		c4.08-7.8,14.871-2.78,19.598,1.583c7.455,6.88,10.111,18.373,10.481,28.119c0.289,7.615-1.129,19.63-9.284,22.683
		c-8.995,3.368-18.028-7.771-21.176-14.977c-4.08-9.336-5.69-19.995-5.619-30.102c0.048-6.844,1.493-20.154,11.104-17.942
		c9.86,2.27,14.991,13.99,17.78,22.679c3.021,9.402,4.455,20.301,2.152,29.95c-2.822,11.83-12.665,8.173-19.896,2.226
		c-7.911-6.506-10.592-19.13-11.466-28.786c-0.66-7.294-0.737-21.553,7.84-24.345c8.338-2.715,16.831,8.825,20.337,15.099
		c4.682,8.382,7.788,18.005,9.235,27.474c1.065,6.964,1.726,18.165-5.825,21.634c-8.988,4.131-18.89-3.311-23.398-10.741
		c-7.978-13.146-14.195-49.713,8.411-51.468c10.645-0.829,18.381,10.446,22.435,19c4.566,9.632,6.816,21.237,4.313,31.658
		c-2.466,10.258-13.355,16.354-23.235,12.508c-8.858-3.448-14.005-13.696-17.087-22.144c-3.362-9.212-4.957-19.613-3.62-29.327
		c1.374-9.981,8.584-19.546,19.059-14.188c9.18,4.695,15.801,15.255,20.519,24.146c5.429,10.227,8.168,22.811,0.454,32.487
		c-6.188,7.764-16.876,8.112-25.092,3.523c-9.821-5.487-14.612-16.896-15.682-27.642c-1.115-11.192,2.594-24.08,13.351-28.878
		c10.648-4.749,20.229,8.192,25.186,15.959c5.397,8.455,9.995,18.389,10.283,28.558c0.367,13.03-11.899,19.593-23.218,20.225
		c-20.853,1.163-27.179-25.894-27.586-42.094C32.301,77.726,29.226,77.917,29.277,79.93"/>
	<path clip-path="url(#SVGID_2_)" fill="#E6E7E8" d="M73.883,128.13c0.325,0.542,0.828,0.855,1.384,1.104
		c0.324,0.144,0.667,0.252,0.998,0.383c0.225,0.091,0.442,0.197,0.654,0.319c0.503-0.65,0.457-0.807-0.14-0.472
		c0.591,0.204,1.185,0.406,1.776,0.609c-1.176-1.967-0.583-4.107-1.221-6.234c-0.817,0.562-1.634,1.123-2.451,1.684
		c1.23,1.056,2.461,2.109,3.692,3.164l1.289-2.719c-0.564-0.185-1.903-0.571-2.043-0.695c0.218,0.192-0.304-0.495-0.384-0.61
		c-0.408-0.604-0.873-1.167-1.34-1.725c-0.52,0.805-1.038,1.608-1.558,2.414c1.553,0.336,3.187,0.758,4.502,1.719
		c0.136,0.104,0.265,0.218,0.384,0.341c0.185,0.222,0.549-0.907,0.082-0.739c-0.707,0.253-1.641,0.113-2.371,0.067
		c0.072,1.046,0.145,2.088,0.215,3.133c0.409-0.021,0.818-0.027,1.229-0.013c0.784,0.242,0.805-0.168,0.063-1.234
		c-0.126,0.356-0.533,0.698-0.776,0.978c-0.681,0.775-1.316,1.577-1.546,2.615c-0.438,1.975,2.593,2.599,3.026,0.637
		c0.307-1.375,2.106-2.014,2.284-3.567c0.297-2.555-2.813-2.599-4.495-2.548c-2.036,0.061-1.713,3.013,0.215,3.133
		c1.979,0.125,5.838-0.202,5.07-3.239c-0.713-2.822-4.974-3.851-7.298-4.354c-1.231-0.268-2.472,1.317-1.558,2.413
		c0.792,0.95,1.433,2.031,2.262,2.944c0.769,0.851,2.442,1.069,3.451,1.403c1.528,0.506,2.411-1.757,1.289-2.718
		c-1.229-1.054-2.461-2.11-3.692-3.164c-1.209-1.038-2.895,0.2-2.451,1.683c0.304,1.012,0.203,2.032,0.24,3.07
		c0.052,1.424,0.641,2.716,1.358,3.917c0.351,0.59,1.163,0.829,1.777,0.609c1.607-0.578,2.944-1.785,2.061-3.653
		c-0.334-0.706-0.904-1.279-1.587-1.645c-0.409-0.222-1.844-0.737-1.861-0.765C75.371,124.641,72.839,126.401,73.883,128.13"/>
	<path clip-path="url(#SVGID_2_)" fill="#00AEEF" d="M66.399,129.537c-0.336,2.985,1.615,6.424,4.636,3.677
		c2.387-2.171,2.552-5.872-0.597-7.437c-3.438-1.709-7.107,0.158-6.878,4.12c0.175,3.024,2.678,6.821,5.961,6.565
		c3.948-0.308,4.678-5.164,2.617-7.855c-1.706-2.234-6.36-4.409-8.091-1.06c-1.372,2.655-0.368,8.155,3.205,8.482
		c3.231,0.296,5.591-3.039,6.481-5.777c2.08-6.39-8.919-10.27-8.581-3.442c0.121,2.442,1.704,5.538,3.784,6.842
		c2.443,1.53,4.803-0.818,4.743-3.387c-0.046-2.02-3.587-8.198,1.138-6.207c2.009,0.849,1.025,4.317,0.095,5.539
		c-0.49,0.644-1.342,0.428-1.259-0.433c0.077-0.794,0.659-1.524,1.238-2.01c2.396-2.017,2.884,2.273,1.776,3.854
		c-1.359,1.936-2.482-0.213-2.546-1.566c-0.065-1.351,0.586-3.174,2.021-3.376c2.606-0.367,2.522,8.288-2.744,5.047
		c-1.714-1.054-3.032,1.764-1.333,2.811c9.17,5.641,12.149-11.199,4.338-11.003c-4.41,0.111-6.896,5.98-4.606,9.755
		c2.903,4.789,8.971,0.874,8.791-3.828c-0.16-4.152-3.992-6.746-7.458-4.294c-2.79,1.974-3.609,6.112-0.498,8.178
		c3.882,2.575,6.297-3.581,6.386-6.391c0.14-4.403-4.679-7.055-8.343-5.101c-2.208,1.18-1.419,4.55-0.88,6.439
		c0.202,0.71,0.92,2.076,0.81,2.735c-0.165,0.982-0.217,0.626-0.854-0.185c-0.695-0.886-1.13-1.93-1.431-3.003
		c-0.313-1.128-0.309-1.103,0.482-0.901c3.159,0.809,2.067,3.844,0.45,5.623c-2.689,2.955-3.234-2.621-2.298-2.976
		c2.342-0.896,4.743,4.597,2.099,4.386c-1.507-0.121-3.661-4.721-1.74-5.033c1.009-0.165,2.885,0.2,2.365,1.554
		c-0.173,0.449-0.483,0.826-0.856,1.109c0.572-0.437,0.389,1.088,0.603-0.816C69.65,128.176,66.625,127.53,66.399,129.537"/>
	<path clip-path="url(#SVGID_2_)" fill="#2B3990" d="M61.16,125.961c1.491,2.312-0.386,3.65-0.221,5.92
		c0.127,1.753,0.748,3.412,2.133,4.522c1.546,1.238,3.564,1.001,4.804,2.812c1.208,1.768,1.883,4.116,2.657,6.094
		c2.333,5.964,4.113,12.1,6.246,18.134c2.499,7.071,5.197,14.053,7.122,21.312c3.758,14.168,5.31,28.809,9.451,42.893
		c3.243,11.031,8.363,23.152,19.257,28.391c0.866,0.417,1.505-0.93,0.638-1.346c-11.941-5.743-16.536-19.914-19.719-31.876
		c-3.768-14.153-5.312-28.785-9.438-42.858c-1.997-6.811-4.695-13.415-7.011-20.122c-1.906-5.522-3.586-11.075-5.746-16.511
		c-1.266-3.187-2.2-6.067-5.586-7.32c-3.099-1.146-3.713-3.571-2.699-6.592c0.535-1.594,0.227-2.896-0.674-4.292
		C61.847,124.305,60.633,125.146,61.16,125.961"/>
	<path clip-path="url(#SVGID_2_)" fill="#2B3990" d="M75.556,120.581c0.215,1.678,0.768,2.812,2.088,3.878
		c2.59,2.09,3.312,4.419,1.805,7.415c-2.587,5.14,1.368,11.942,3.199,16.734c4.934,12.913,8.285,26.369,14.726,38.66
		c6.117,11.675,13.639,22.424,17.797,35.065c1.676,5.098,2.697,10.342,3.29,15.664c0.539,4.835,1.101,10.561-0.734,15.15
		c-0.355,0.891,0.975,1.563,1.332,0.668c1.572-3.93,1.402-8.488,1.155-12.668c-0.278-4.713-1.006-9.453-2.145-14.042
		c-3.132-12.62-9.735-23.545-16.154-34.677c-3.529-6.118-6.723-12.393-9.152-19.039c-2.555-6.987-4.622-14.144-7.175-21.133
		c-2.228-6.099-7.499-14.394-4.302-20.719c0.86-1.703,0.648-3.308-0.013-5.067c-0.954-2.538-3.881-3.144-4.243-5.975
		C76.908,119.537,75.433,119.617,75.556,120.581"/>
	<path clip-path="url(#SVGID_2_)" fill="#2B3990" d="M61.06,124.591c-13.389,1.451-22.319-8.686-28.023-19.845
		c-6.503-12.723-7.807-27.43-2.532-40.75c2.458-6.209,7.01-12.026,13.438-14.155c5.267-1.745,10.876,0.172,15.506,2.903
		c8.658,5.109,16.622,14.501,20.742,23.765c3.133,7.041,4.963,14.924,5.46,22.586c0.529,8.175-1.173,17.651-9.604,20.731
		c-0.892,0.325-0.402,1.75,0.491,1.425c8.716-3.185,10.88-12.441,10.643-21.031c-0.237-8.563-2.464-17.757-6.199-25.493
		c-7.673-15.897-29.967-37.693-46.18-20.515c-5.79,6.135-8.19,15.105-8.895,23.414c-0.713,8.396,0.722,16.563,4.148,24.258
		c5.775,12.971,15.68,25.88,31.105,24.208C62.106,125.989,62.004,124.487,61.06,124.591"/>
	<path clip-path="url(#SVGID_2_)" fill="#2B3990" d="M112.203,255.212c-0.66,2.91-0.824,6.377,1.394,8.703
		c1.524,1.599,3.943,1.861,5.93,1.246c1.98-0.613,3.66-2.286,3.931-4.429c0.411-3.242-2.271-6.003-4.587-7.816
		c-0.755-0.592-1.717,0.536-0.955,1.133c1.831,1.435,4.275,3.64,4.104,6.252c-0.109,1.673-1.39,2.87-2.867,3.397
		c-1.522,0.543-3.285,0.316-4.507-0.824c-1.93-1.803-1.506-5.09-0.992-7.357C113.868,254.571,112.416,254.273,112.203,255.212"/>
</g>
</svg>
