<svg xmlns="http://www.w3.org/2000/svg" width="138" height="269.501">
  <defs>
    <path id="a" transform="rotate(153.24 263.695 -137.002)" d="M139.267-257.138h248.874v240.283H139.267z"/>
  </defs>
  <path fill="#00AEEF" d="M70.258 198.989l-13.827 13.828c-.625.626-.167 1.73.717 1.73h27.657c.885 0 1.343-1.104.717-1.73l-13.83-13.828c-.926-.926-2.358.508-1.434 1.434l13.831 13.828.716-1.73H57.147l.718 1.73 13.826-13.828c.926-.926-.508-2.36-1.433-1.434"/>
  <path fill="#00AEEF" d="M68.806 131.46c.033 23.02 2.113 46.016 1.081 69.039-.038.872 1.313.868 1.352 0 1.032-23.023-1.048-46.02-1.081-69.039-.002-.871-1.353-.871-1.352 0"/>
  <path fill="#00AEEF" d="M69.868 200.149c-1.679 2.795-4.216 5.13-6.505 7.419-1.07 1.07-2.157 2.122-3.227 3.193-.392.394-1.003.868-1.17 1.426-.093.306.063.591.311.763l.022.016c.717.5 1.392-.672.683-1.166l-.023-.016.31.762c.084-.275 1.246-1.25 1.627-1.627 1.066-1.056 2.139-2.105 3.196-3.17 2.116-2.129 4.387-4.328 5.943-6.918.45-.748-.719-1.428-1.167-.682"/>
  <path fill="#00AEEF" d="M69.974 201.509c3.618 3.67 6.777 7.832 10.948 10.916.701.52 1.374-.654.682-1.166-4.067-3.01-7.146-7.126-10.675-10.705-.613-.622-1.568.334-.955.955"/>
  <path fill="#00AEEF" d="M58.56 214.14c7.759-.022 15.509-.492 23.243-1.082.863-.065.869-1.416 0-1.351-7.734.589-15.484 1.06-23.243 1.081-.872.002-.872 1.354 0 1.352"/>
  <path fill="#00AEEF" d="M59.703 212.319c.764.874 1.29 1.563 2.46 1.795.427.086.856-.188.856-.65v-2.703c-.443.06-.885.119-1.327.18l.54 2.162c.115.462.802.695 1.129.298 1.727-2.093 2.823-2.36 2.901-5.342-.443.06-.885.118-1.327.179.466 1.362 1.455 4.098 3.38 3.078 1.864-.988.593-4.46.018-5.761-.253-.568-1.08-.345-1.235.161-.865 2.828-.594 4.633 1.148 7.008.282.384.906.486 1.167 0 1.655-3.086 1.655-6.245 0-9.331-.282-.528-1.077-.384-1.234.162-1.014 3.519-.48 6.747 1.689 9.709.267.364.936.509 1.166 0 1.586-3.479 1.758-7.212-.54-10.411-.332-.463-1.06-.438-1.234.161-.963 3.292-.525 6.194 1.148 9.169a.671.671 0 00.584.335c4.269-.164 1.708-7.638.583-9.665-.26-.469-1.153-.438-1.234.161-.435 3.19-.234 6.517 2.336 8.765.447.391 1.127.131 1.152-.477.078-1.815.48-3.588.541-5.406h-1.35c.042 2.246.69 3.3 1.714 5.206.343.64 1.2.282 1.258-.341.08-.852.313-1.695.518-2.523-.443-.061-.885-.119-1.327-.179v2.162c0 .353.307.694.675.675 1.286-.068.878-.751 1.222-1.656l-1.234.162c.247.564.361 1.293.419 1.9.029.308.186.559.496.65 1.092.325 1.571-.629 1.912-1.553l-1.327-.179c.013 1.153.18 1.991.633 3.043.154.358.624.384.924.243 1.02-.481.857-1.043 1.622-1.623.686-.518.013-1.692-.682-1.166-.642.486-.883 1.273-1.622 1.621.308.082.616.162.924.242a4.853 4.853 0 01-.448-2.36c-.009-.798-1.07-.876-1.327-.181-.188.512.32 1.492.115.322a7.124 7.124 0 00-.472-1.643c-.26-.596-1.055-.315-1.234.162-.045.117-.147.675.08.662l.676.677v-2.162c0-.759-1.142-.929-1.327-.181-.233.951-.474 1.906-.564 2.883.42-.113.839-.227 1.259-.342-.891-1.66-1.492-2.53-1.529-4.523-.016-.872-1.321-.869-1.351 0-.062 1.818-.463 3.591-.541 5.406l1.153-.479c-2.193-1.92-2.358-4.73-1.988-7.451l-1.235.162c.614 1.106 1.089 2.215 1.406 3.442a7.044 7.044 0 01-.092 3.244c-.062.997-.248 1.178-.563.543-1.313-2.337-1.335-4.873-.598-7.392l-1.235.162c2.015 2.807 1.938 5.984.541 9.047h1.166c-1.965-2.683-2.476-5.463-1.553-8.668l-1.235.162c1.422 2.65 1.422 5.315 0 7.967h1.167c-1.482-2.02-1.759-3.531-1.013-5.967-.412.055-.823.108-1.235.161.391.769.625 1.579.703 2.435l.001.567c-1.097.384-1.64-.069-1.631-1.36-.245-.715-1.307-.602-1.327.181-.063 2.427-1.156 2.75-2.505 4.387l1.129.298c-.18-.721-.359-1.441-.541-2.162-.187-.748-1.326-.578-1.326.18v2.703c.284-.217.569-.436.854-.651-.939-.187-1.316-.821-1.864-1.448-.576-.657-1.528.304-.958.956"/>
  <path fill="#EC008C" d="M43.782 130.938c17.863-1.336 35.807-.934 53.699-.533.575.014.708-.883.124-.896-17.97-.401-35.991-.812-53.932.533-.582.043-.472.94.109.896M56.287 96.644c9.484-.856 18.981-.844 28.453-.834.303 0 .388-.448.079-.449-9.511-.01-19.051-.023-28.574.836-.31.027-.266.474.042.447"/>
  <path fill="#EC008C" d="M43.881 129.677c3.511-11.22 8.109-22.115 12.693-32.98.147-.348-.371-.62-.521-.266-4.604 10.91-9.229 21.852-12.752 33.119-.113.367.467.49.58.127M83.59 95.714c5.442 10.971 9.89 22.564 14.325 34.123.143.37.7.16.555-.217-4.454-11.607-8.918-23.253-14.384-34.27-.178-.359-.672.007-.496.364M76.401 112.955c.305-4.046-2.936-7.722-7.023-7.753-4.158-.031-7.758 4.439-6.625 8.467.324 1.153.898 2.156 1.644 3.09.888 1.114 1.746 1.717 1.927 3.221.2 1.656-.007 3.467 1.802 4.236 1.788.762 3.596.078 4.184-1.75.293-.912.351-1.896.52-2.834.104-.588.27-1.166.573-1.684.319-.541.926-.88 1.343-1.35.867-.974 1.376-2.382 1.655-3.643.087-.39-.527-.473-.613-.084-.152.688-.407 1.353-.696 1.993-.521 1.158-1.487 1.721-2.177 2.701-.976 1.385-.749 3.326-1.249 4.881-.385 1.197-1.36 1.5-2.529 1.375-1.27-.137-1.881-.876-2.053-2.078-.227-1.57-.023-3.109-1.224-4.333-1.751-1.782-3.052-3.873-2.597-6.464.378-2.154 2.169-3.883 4.111-4.71 4.28-1.825 8.735 2.337 8.413 6.635-.028.396.585.483.614.084"/>
  <path fill="#EC008C" d="M70.67 124.532c-.052.65-.053 1.381-.68 1.738-.231.132-.233.578-.489.643-.317.079-.425.053-.516-.197-.078-.211-.301-.324-.437-.49-.415-.51-.255-1.467-.202-2.049.018-.197-.289-.242-.307-.043-.065.713-.174 1.586.224 2.227.08.128.204.229.317.326.141.119.087.336.209.432.234.184.602.139.866.072.397-.098.269-.544.613-.723.649-.334.658-1.269.707-1.894.017-.198-.29-.241-.305-.042"/>
  <path fill="#EC008C" d="M69.904 124.078c-.295-2.262 1.048-4.29 1.786-6.344.33-.919.975-2.604.061-3.413-2.042-1.805-3.844 1.717-2.161 3.18.653.568 1.211-.52 1.315-1.027.197-.969.262-2.442-.585-3.141-1.553-1.281-3.059 3.096-1.938 4.279.057.059.146.089.217.032 1.134-.921 1.92-3.392.284-4.323-1.543-.878-3.255 1.029-2.785 2.568.313 1.021.9 1.929 1.432 2.845.586 1.01.72 1.729.755 2.864.009.281.01 3.426.902 2.654.15-.131-.033-.381-.185-.25-.181.157-.354-1.352-.363-1.457-.046-.611-.055-1.226-.071-1.836-.027-1.004-.594-1.826-1.087-2.672-.384-.656-.757-1.313-1.021-2.025-.539-1.45 1.243-3.582 2.568-2.148.713.771.51 2.063.025 2.875-.886 1.486-.834-.96-.671-1.544.187-.672.627-1.532 1.371-1.692 1.031-.222.97 1.953.928 2.448-.074.888-.825 1.958-1.365.644-.387-.938.211-2.563 1.375-2.481 2.368.165.563 4.002.094 5.097-.687 1.598-1.421 3.125-1.188 4.905.025.197.332.16.307-.038"/>
  <path fill="#00AEEF" d="M51.85 131.975c-.098.399-.173.81-.085 1.22.059.268.469.154.41-.113-.071-.33.006-.672.085-.994.066-.267-.345-.38-.41-.113M51.64 134.84c.006.513.079 1.021.085 1.532.004.275.429.275.426 0-.006-.512-.079-1.02-.085-1.532-.004-.275-.429-.275-.426 0M51.64 137.661v1.361c0 .273.426.273.426 0v-1.361c-.001-.275-.426-.275-.426 0M51.749 141.609c-.099.4-.174.81-.086 1.22.059.269.469.154.41-.113-.069-.33.006-.67.085-.993.067-.267-.344-.379-.409-.114M51.538 144.239c.006.512.079 1.021.085 1.532.004.274.429.274.426 0-.006-.512-.079-1.021-.086-1.532-.003-.273-.428-.275-.425 0M51.538 147.39v1.361c0 .274.425.274.425 0v-1.361c0-.276-.425-.276-.425 0M51.371 151.104c-1.695.609-1.05 3.116.639 3.16 1.979.051 2.093-2.896.307-3.344-.423-.105-.602.546-.18.65 1.088.273 1.059 1.945-.127 2.018-.924.057-1.404-1.493-.46-1.833.407-.145.231-.798-.179-.651"/>
</svg>