<svg xmlns="http://www.w3.org/2000/svg" viewBox="0 0 595.28 341.6">
  <g fill="#808285">
    <path d="M236.25 103.47c4.44 0 4.45-6.9 0-6.9-4.43 0-4.44 6.9 0 6.9M389.2 112.85c4.43 0 4.44-6.89 0-6.89s-4.45 6.9 0 6.9"/>
    <path d="M508 178.1c-3.6 7.28-14.35 11.26-16.26.6-.55-3.08-.5-6.44-.75-9.56-.5-6.47-1.02-13.15-3.63-19.18-2.57-5.92-7.48-8.8-14.32-6.99-10.96 2.9-17.29 16.33-21.73 28.67.02-4.34.11-8.69.22-13.05.11-4.83 1.02-10.94-2.72-14.86-6.69-6.99-13.4.14-16.86 6.1-6.29 10.84-10.8 27.66-22.96 33.31-10.41 4.84-17.27-7.46-19.12-16.16-1.87-8.79.24-18.34.63-27.19.17-3.83-5.74-3.8-5.94 0-.96 18.1-11.47 34.97-24.06 47.46-9.86 9.77-29.52 24.59-44.11 15.83-9.4-5.65-15.66-17.86-19.6-29.54 4.21-2.88 8.11-5.93 11.54-8.74 19.05-15.6 36.36-40 42.9-63.8 4.3-15.64 5.54-38.09-9.26-48.91-11.09-8.12-28.1-6.9-38.5 1.71-12 9.94-16.5 26.95-18.64 41.7-3.44 23.57-3.17 51.9 4.99 76.25-7 4.29-14.42 7.21-21.97 7.6-22.63 1.15-30.46-25.6-28.78-44.07.3-3.3-5.26-4.1-5.84-.8-1.96 11.2-6.1 21.65-11.83 31.46-3.01 5.17-7.49 13.77-12.77 16.92-17.56 10.5-18.64-29.54-23.73-37.63-5.7-9.08-15.34-2.6-20.7 3.16-7.91 8.5-11.55 20.04-15.33 30.97-1.33-5.6-.68-13.31-1.24-17.78-.58-4.63-1.37-9.3-3.38-13.56-2.64-5.61-8.38-8.2-14.79-6.16-5.86 1.86-11.64 9.9-14.65 15.06-2.34 4-4.18 8.31-5.83 12.72l-.11-10.8c-.05-5.49 1.28-13.86-4.12-17.6-10.66-7.36-17.43 10.27-20.63 17.12-1.61 3.44 3.5 6.46 5.13 3 1.39-2.97 2.86-5.9 4.47-8.76 1.02-1.8 3.2-7.04 5.97-6.66 3.72.52 3.19 6.3 3.22 8.66.12 10.68.25 21.36.2 32.04-.01 3.52 4.7 3.81 5.84.79 4.23-11.3 8.92-34.54 22.18-39.4 14.82-5.45 9 32.42 15.68 40.29 1.21 1.43 2.83 1.14 3.88.14.8-.26 1.51-.85 1.88-1.83 3.13-8.35 5.65-17.2 9.72-25.16 2.29-4.48 7.9-13.93 13.5-14.6 8.16-.98 10.53 29.08 14.62 35.5 15.76 24.69 34.55-7.78 43.5-30.4 2.12 12.02 7.66 23.99 17.6 29.81 12.97 7.6 27.57 2.7 40.17-4.93 3.58 9.15 8.37 17.62 14.63 24.9 14.16 16.48 35.56 8.35 50.3-3.18 11.15-8.73 21.12-20.47 27.33-33.7.69 6.3 2.6 12.39 7.04 18.11 5.95 7.66 14.6 9.65 22.8 4.17 9.89-6.6 15.04-18.3 20.2-28.53 1.28-2.53 2.5-5.51 4.26-7.76 5.69-7.26 7.46.05 7.39 5.87-.13 10.42-.58 20.72.29 31.13a2.99 2.99 0 005.83.8c3.96-10.58 6.84-22.98 14-31.97 2.76-3.46 6.38-7.94 11.09-7.75 7.3.3 7.4 11.16 7.97 17.02.76 7.9-.82 21.73 8.16 26.02 8.5 4.06 16.79-4.07 20.16-10.88 1.7-3.41-3.43-6.43-5.13-3m-214.85-17.83a191.6 191.6 0 01-4.07-42.57c.26-21.27 3.7-62.7 32.1-64.96 18.3-1.46 27.17 12.7 26.94 29.46-.3 22.85-12.82 42.7-26.67 59.89-6.8 8.43-15.95 18.53-26.32 26.09a127.2 127.2 0 01-1.98-7.9"/>
  </g>
  <g fill="#808285">
    <path d="M91.4 266.18v.25c0 1.18.39 2.12 1.14 2.82.8.75 1.86 1.12 3.2 1.1a5.84 5.84 0 003.4-1.13c.2-.14.37-.2.52-.21.32 0 .56.15.73.47l.36.72c.08.17.12.36.12.55 0 .2-.09.4-.26.62-.17.21-.4.4-.68.58-.29.18-.61.33-.99.46a11.64 11.64 0 01-3.62.62c-.86.01-1.73-.14-2.6-.46a6.36 6.36 0 01-2.28-1.4c-1.38-1.33-2.09-3.12-2.11-5.4-.04-3.97 1.33-6.46 4.12-7.46a8.28 8.28 0 012.7-.48c.92-.01 1.71.08 2.36.27.65.19 1.22.47 1.7.86 1 .8 1.51 1.94 1.53 3.4a3.68 3.68 0 01-1.72 3.3 7.35 7.35 0 01-4.04 1.04c-1.03.01-2.22-.16-3.58-.52zm6.3-3.83c0-1.23-.84-1.84-2.49-1.82-1.57.02-2.67.6-3.28 1.77-.22.4-.36.9-.42 1.5a6.3 6.3 0 002.83.52c2.26-.02 3.38-.68 3.37-1.97zM114.22 259.77l-.1-9.32c0-.23.06-.42.19-.58.13-.16.3-.24.5-.24l1.79-.02c.2 0 .36.07.49.23s.2.35.2.57l.18 16.54c.02 1.74.17 3.17.46 4.31.02.12.04.28.04.46a.7.7 0 01-.23.51.84.84 0 01-.61.24h-.64c-.5.01-.84-.19-1.02-.6a9.44 9.44 0 01-.58-2.07 5.12 5.12 0 01-3.3 2.83c-.52.16-1.16.24-1.93.24-.77.01-1.54-.18-2.3-.57a5.9 5.9 0 01-1.96-1.59 8.34 8.34 0 01-1.7-5.24 8.81 8.81 0 011.53-5.41 5.4 5.4 0 014.55-2.38c1.91-.02 3.39.68 4.44 2.1zm-7.22 5.75c0 .59.09 1.16.24 1.72.14.56.37 1.05.66 1.49a3.08 3.08 0 002.73 1.46 3.57 3.57 0 002.74-1.4 4.88 4.88 0 001.23-3.36 5.56 5.56 0 00-1.27-3.75 3.68 3.68 0 00-2.9-1.33c-1.2.02-2.1.6-2.7 1.72a7.2 7.2 0 00-.73 3.45zM135.34 271.4c0 .58-.26.88-.79.89h-.58c-.51 0-.86-.2-1.02-.6-.2-.48-.4-1.13-.6-1.97a4.3 4.3 0 01-1.82 2.15c-.86.53-1.94.8-3.22.82-1.69.01-2.94-.5-3.75-1.55-.81-1.04-1.23-2.59-1.25-4.64l-.08-7.78c0-.24.07-.45.22-.6.14-.17.36-.26.63-.26l1.42-.02c.57 0 .85.28.86.85l.08 7.63c.02 2.06.52 3.24 1.47 3.55a3.48 3.48 0 002.42-.17c.45-.2.85-.47 1.21-.8.8-.76 1.2-1.62 1.19-2.58l-.09-7.7c0-.24.07-.45.22-.61.14-.17.37-.25.69-.25l1.35-.02c.3 0 .53.08.66.24a.9.9 0 01.22.6l.08 8.07a20 20 0 00.44 4.38c.02.1.04.22.04.37zM150.72 269.48l1.09-.22c.3 0 .49.2.57.6l.19.93.02.27c0 .15-.05.3-.16.46-.1.17-.25.3-.43.42-.4.26-.9.39-1.5.4-1.21 0-2.23-.57-3.05-1.74-.15-.2-.32-.46-.5-.77l-1.81-3.13-.77 1.07a11.56 11.56 0 00-1.87 3.59c-.06.23-.14.43-.24.6-.1.16-.3.24-.56.25h-1.03a.61.61 0 01-.49-.22.9.9 0 01-.2-.6l-.23-21.22c0-.23.06-.43.19-.58s.3-.24.48-.24l1.78-.02c.2 0 .36.08.5.23.12.15.19.35.2.58l.15 10.87c0 .95-.06 2.04-.2 3.29l-.26 2.45v.06c0 .07.02.1.06.1.07 0 .18-.11.3-.34 1.68-3.12 3.8-6.1 6.34-8.96.25-.27.48-.4.7-.4.32 0 .61.13.87.4l.6.64c.28.34.42.6.43.76.02.29-.1.55-.33.77l-2.3 2.31c-.78.82-1.52 1.67-2.23 2.57l.99 1.65c1.24 2.12 2.14 3.18 2.7 3.17zM167.02 271.25c0 .46-.22.69-.66.7h-1.25c-.34.01-.54-.05-.61-.19a.98.98 0 01-.12-.36 20.06 20.06 0 00-.29-1.76 4.92 4.92 0 01-3.13 2.48 6.41 6.41 0 01-3.51-.06 4.89 4.89 0 01-1.64-.88 4.37 4.37 0 01-1.63-3.5 4.22 4.22 0 011.71-3.67 6.3 6.3 0 013.7-1.06c1.52-.02 2.8.41 3.86 1.29.03-.3.03-.66.03-1.1 0-.44-.1-.88-.27-1.31a2.9 2.9 0 00-.75-1.1 4 4 0 00-2.74-.83 6.77 6.77 0 00-3.2.9c-.2.12-.38.17-.53.17-.23 0-.46-.22-.68-.67-.24-.46-.36-.8-.36-1 0-.38.28-.75.84-1.1a8.2 8.2 0 014.34-1.06 6.18 6.18 0 014.11 1.31c1.3 1.07 1.95 2.6 1.97 4.57.01.88-.12 1.98-.39 3.32.75 2.07 1.15 3.71 1.2 4.91zm-8.7-5.38c-.35.27-.6.53-.75.79s-.22.56-.21.91c0 .35.07.66.2.93.12.27.3.5.53.67.47.36 1 .54 1.6.54a3.59 3.59 0 002.42-.76c.59-.48.88-.97.87-1.49-.06-.64-.42-1.14-1.08-1.5-.6-.34-1.3-.5-2.11-.5a2.4 2.4 0 00-1.47.41zM180.33 262.98c-.7.01-1.06-.33-1.07-1.03 0-.8-.26-1.4-.75-1.82-.42-.37-1-.55-1.7-.54a3.25 3.25 0 00-2.88 1.6 5.9 5.9 0 00-.82 3.23c.03 2.34.76 3.87 2.2 4.59.51.26 1.09.39 1.71.38a4.89 4.89 0 002.63-.68c.31-.17.59-.32.82-.47.24-.14.43-.2.59-.2.3-.01.55.13.74.41l.29.47c.13.23.2.44.2.65 0 .21-.08.43-.25.66-.17.23-.4.44-.69.64-.28.19-.61.37-.98.52-.37.16-.75.3-1.14.42a7.8 7.8 0 01-5.2-.18 6.34 6.34 0 01-3.66-3.93c-.34-.95-.51-2-.52-3.17a8.9 8.9 0 01.49-3.15c.34-.94.81-1.73 1.42-2.38a6.67 6.67 0 015-2.04c1.82-.02 3.22.44 4.2 1.39.83.8 1.25 1.82 1.26 3.05.02 1.04-.51 1.57-1.58 1.58h-.3zM197.1 257.06c.54 0 .82.26.83.8 0 .63-.31 2.03-.94 4.18l-.77 2.48c-1.83 5.42-4.11 9.89-6.86 13.4l-.26.33c-.39.51-.79.77-1.2.78-.44 0-.95-.3-1.53-.9a.83.83 0 01-.26-.6c0-.35.2-.74.57-1.14a19.34 19.34 0 001.98-2.43c.52-.73 1-1.5 1.42-2.32-1.38-3.6-2.22-5.77-2.51-6.48l-1.45-3.48-1.01-2.24c-.38-.86-.57-1.38-.57-1.56s.07-.35.23-.48.38-.2.67-.21l1.63-.02c.38 0 .67.21.88.64.16.31.38.84.65 1.56a284 284 0 011.23 3.51l1.08 3.4.24.83.12.46.1.4.12.48c.04.17.09.26.14.26.05 0 .11-.06.17-.16.07-.1.13-.24.2-.4l.21-.55c.87-2.3 1.68-5.53 2.44-9.67.1-.56.42-.84.96-.85l1.48-.02zM200.83 276.22c.89-.01 1.32-.83 1.3-2.46l-.17-15.9c0-.25.06-.45.2-.61a.6.6 0 01.48-.25l1.77-.02c.19 0 .35.08.49.24.14.15.2.36.21.6l.17 15.4c.02 1.82-.34 3.23-1.07 4.22a3.4 3.4 0 01-2.86 1.45c-1 .01-1.8-.2-2.4-.64-.32-.27-.49-.54-.49-.82 0-.14.05-.4.15-.76.1-.37.2-.63.3-.78.1-.16.23-.24.39-.24s.3.03.4.09c.12.06.23.12.34.2.31.19.58.28.8.28zm2.63-21.72c-.58.01-1.08-.19-1.5-.59-.42-.39-.63-.88-.64-1.49 0-.58.2-1.08.6-1.5.4-.4.9-.6 1.5-.6.92-.02 1.57.4 1.95 1.24a2 2 0 01.17.82c0 .6-.2 1.1-.6 1.5-.41.41-.9.62-1.48.63zM210.18 257.85c0-.62.29-.93.88-.94h.7c.49 0 .82.17 1 .53.24.51.45 1.19.64 2.03a5.32 5.32 0 013.42-2.75c.48-.13 1.08-.2 1.8-.21.72 0 1.38.14 2 .44.61.3 1.1.7 1.46 1.24.66.96 1 2.4 1.02 4.28l.09 8.01c0 .24-.07.45-.23.61-.15.17-.38.25-.68.25l-1.26.02c-.33 0-.57-.08-.73-.24a.85.85 0 01-.24-.6l-.08-8.03c-.03-2.2-.85-3.29-2.46-3.27-.95 0-1.8.41-2.58 1.21a4.11 4.11 0 00-1.22 2.98l.08 7.17c0 .24-.07.45-.22.61-.14.17-.37.25-.67.26h-1.33c-.3.01-.52-.07-.68-.23a.85.85 0 01-.24-.6l-.09-7.92a26.06 26.06 0 00-.38-4.85zM230.02 264.7l-.02.24c.02 1.18.4 2.12 1.16 2.83a4.39 4.39 0 003.2 1.1 5.84 5.84 0 003.39-1.14c.2-.14.37-.2.52-.2.32-.01.57.14.73.46l.36.72c.08.17.12.35.12.55 0 .2-.08.4-.26.62-.17.21-.4.4-.68.58-.28.18-.61.33-.98.46a11.65 11.65 0 01-3.62.62c-.87.01-1.74-.14-2.61-.46a6.36 6.36 0 01-2.28-1.4c-1.38-1.33-2.08-3.12-2.1-5.4-.05-3.97 1.32-6.46 4.12-7.46a8.25 8.25 0 012.7-.49c.92 0 1.7.08 2.36.28a4.17 4.17 0 013.22 4.26 3.68 3.68 0 01-1.72 3.3 7.36 7.36 0 01-4.04 1.04c-1.03.01-2.22-.16-3.57-.52zm6.3-3.84c-.01-1.23-.84-1.83-2.5-1.82-1.57.02-2.66.6-3.28 1.77-.22.4-.36.9-.42 1.5.74.36 1.69.53 2.83.52 2.26-.02 3.38-.68 3.37-1.97zM242.18 269.84a2.12 2.12 0 010-1.58c.11-.26.26-.5.44-.7.4-.42.84-.64 1.32-.64.49 0 .87.06 1.16.21.28.15.52.35.72.6.4.53.6 1.12.6 1.8a8.5 8.5 0 01-.62 3.3c-.37.91-.86 1.76-1.48 2.56l-.27.31c-.37.44-.67.65-.9.66a.9.9 0 01-.61-.22l-.47-.39c-.16-.12-.24-.26-.24-.41 0-.24.11-.49.35-.75.23-.25.45-.54.64-.87a5.72 5.72 0 00.86-2.54 2.14 2.14 0 01-1.5-1.34zM266.06 258.14l-.1-9.32c0-.23.06-.42.2-.58.13-.16.3-.24.5-.24l1.78-.02c.2 0 .36.07.5.23.13.16.2.35.2.57l.17 16.54c.02 1.73.17 3.17.46 4.31.03.12.04.28.05.46a.7.7 0 01-.24.51.84.84 0 01-.6.24h-.64c-.5.01-.85-.19-1.03-.6a9.45 9.45 0 01-.57-2.07 5.12 5.12 0 01-3.31 2.83c-.52.15-1.16.23-1.93.24-.77.01-1.54-.18-2.3-.57a5.88 5.88 0 01-1.96-1.59 8.34 8.34 0 01-1.7-5.24 8.81 8.81 0 011.53-5.4 5.4 5.4 0 014.56-2.4 5.12 5.12 0 014.43 2.1zm-7.21 5.75c0 .59.08 1.16.23 1.72.15.56.37 1.05.67 1.49.66.99 1.57 1.48 2.72 1.46a3.57 3.57 0 002.75-1.4 4.88 4.88 0 001.23-3.36 5.57 5.57 0 00-1.27-3.75 3.68 3.68 0 00-2.9-1.33c-1.2.02-2.1.59-2.7 1.72-.5.95-.75 2.1-.73 3.45zM273.69 257.17c0-.62.26-.93.8-.94h.7c.47-.01.8.2 1.01.6a8.36 8.36 0 01.67 2.51c.01 0 .04-.15.08-.44.04-.3.16-.65.36-1.08.2-.43.45-.8.75-1.09.6-.58 1.35-.87 2.23-.88 1-.01 1.68.14 2.07.46.18.15.26.35.23.6l-.2 1.63c-.04.44-.26.66-.65.67-.2 0-.43-.04-.7-.1a5.4 5.4 0 00-1.27-.2c-.3 0-.63.14-.97.42-.35.27-.64.61-.88 1.02-.5.85-.75 1.75-.74 2.7l.08 6.85c0 .24-.07.45-.2.61-.14.17-.33.25-.6.25l-1.49.02c-.28 0-.48-.08-.63-.24a.89.89 0 01-.22-.6l-.1-8.9a18.9 18.9 0 00-.17-2.99c-.1-.48-.16-.78-.16-.88zM287.26 264.08l-.01.24c.01 1.18.4 2.12 1.15 2.83a4.4 4.4 0 003.2 1.1 5.84 5.84 0 003.4-1.13c.19-.14.36-.21.52-.21.32 0 .56.15.73.47l.35.71c.08.18.12.36.12.56 0 .2-.08.4-.25.61-.18.22-.4.41-.69.59-.28.17-.6.32-.98.46a11.66 11.66 0 01-3.62.62c-.86 0-1.73-.15-2.61-.47a6.35 6.35 0 01-2.28-1.4c-1.38-1.32-2.08-3.12-2.1-5.38-.05-3.99 1.32-6.48 4.12-7.48a8.25 8.25 0 012.7-.48c.92 0 1.7.08 2.36.27.65.2 1.21.48 1.69.86 1 .8 1.52 1.94 1.53 3.4a3.68 3.68 0 01-1.72 3.31 7.36 7.36 0 01-4.04 1.04c-1.03 0-2.22-.17-3.57-.52zm6.3-3.83c-.01-1.23-.84-1.84-2.5-1.82-1.57.01-2.66.6-3.28 1.76-.22.4-.36.9-.42 1.5.74.36 1.69.54 2.83.53 2.26-.03 3.39-.69 3.37-1.98zM319.92 255.75c.56-.01.84.24.85.76 0 2.07-.4 4.52-1.19 7.35a15.77 15.77 0 01-2.43 5.3c-.67.89-1.41 1.34-2.21 1.34-.8.01-1.43-.17-1.86-.56a3.15 3.15 0 01-.92-1.68l-1.02-3.95-.52-1.78-.33-1.1a15.13 15.13 0 00-.17.84l-.26 1.13c-.49 1.83-.87 3.06-1.14 3.69s-.5 1.12-.7 1.47c-.2.35-.42.68-.69.98-.6.7-1.28 1.06-2.02 1.07-1.55.01-2.52-.8-2.92-2.44a92.1 92.1 0 00-1.54-5.48l-1.77-5.42c-.06-.17-.1-.34-.1-.52 0-.52.29-.79.87-.8h1.52c.52-.01.87.3 1.07.95.52 1.76.98 3.48 1.37 5.18l1.17 5.07c.08.32.2.48.36.48.18 0 .36-.18.52-.51a26.97 26.97 0 001.07-2.8 59.86 59.86 0 00.97-3.55c.28-1.2.5-2.31.67-3.36l.09-.54c.1-.52.54-.78 1.34-.79.53 0 .88.03 1.05.1.33.14.6.5.82 1.06.23.57.46 1.27.72 2.1.26.84.51 1.7.75 2.58.6 2.27 1.05 4.02 1.34 5.24.06.25.15.38.27.37.17 0 .37-.22.61-.68.25-.45.5-1.08.76-1.88a30.84 30.84 0 001.29-8.35c0-.44.18-.71.56-.82.1-.02.18-.04.27-.04l1.48-.01zM324.56 256.62c0-.62.29-.93.88-.93l.7-.01c.49 0 .82.17 1 .53.24.51.45 1.19.64 2.03a5.32 5.32 0 013.42-2.75c.48-.13 1.08-.2 1.8-.2s1.38.13 2 .43c.61.3 1.1.71 1.46 1.24.66.96 1 2.4 1.02 4.29l.09 8c0 .25-.07.45-.23.61-.15.17-.38.25-.68.25l-1.26.02c-.33 0-.57-.08-.73-.24a.85.85 0 01-.24-.6l-.08-8.03c-.03-2.2-.85-3.29-2.46-3.27-.95 0-1.81.41-2.58 1.21a4.11 4.11 0 00-1.22 2.98l.07 7.18c0 .24-.06.44-.2.6-.15.17-.38.25-.68.26h-1.32c-.3.01-.53-.07-.7-.23a.85.85 0 01-.23-.6l-.08-7.92a26.42 26.42 0 00-.4-4.85zM343.69 253c-.59 0-1.09-.2-1.5-.6-.42-.38-.63-.88-.64-1.48 0-.58.2-1.09.6-1.5.4-.4.9-.6 1.5-.61.91-.01 1.56.4 1.94 1.24.12.25.18.52.18.82 0 .6-.2 1.1-.6 1.5-.41.41-.9.62-1.48.63zm1.66 13.47c0 .61.2.92.6.91.15 0 .3-.04.47-.12.34-.15.56-.22.68-.22.18 0 .33.12.44.36l.41.9c.08.15.11.29.11.41 0 .37-.3.72-.94 1.05a4.22 4.22 0 01-3.2.3 2.07 2.07 0 01-.9-.63c-.51-.62-.77-1.62-.79-3.01l-.1-10.06a.9.9 0 01.2-.61c.13-.17.3-.25.48-.25l1.73-.02c.2 0 .36.08.5.24.13.16.2.36.2.6l.1 10.15zM362.8 269.15c0 .46-.22.69-.67.7h-1.25c-.33 0-.53-.06-.6-.19a.96.96 0 01-.12-.36l-.06-.4c-.06-.41-.13-.87-.23-1.36a4.91 4.91 0 01-3.14 2.48 6.36 6.36 0 01-3.5-.06 4.94 4.94 0 01-1.64-.88 4.38 4.38 0 01-1.64-3.5 4.22 4.22 0 011.72-3.67 6.3 6.3 0 013.7-1.06c1.51-.02 2.8.41 3.86 1.28.02-.29.03-.65.02-1.1 0-.43-.1-.87-.27-1.3-.18-.44-.42-.8-.74-1.1a4 4 0 00-2.75-.83 6.78 6.78 0 00-3.19.9c-.2.11-.38.17-.54.17-.23 0-.46-.22-.68-.67-.23-.47-.35-.8-.35-1 0-.38.27-.75.83-1.11a8.2 8.2 0 014.34-1.05 6.2 6.2 0 014.12 1.3c1.29 1.08 1.95 2.6 1.97 4.58 0 .88-.12 1.98-.4 3.32a17.5 17.5 0 011.2 4.91zm-8.7-5.38c-.35.26-.6.53-.75.79a2.2 2.2 0 00-.02 1.84c.13.26.3.49.53.67.48.36 1.01.54 1.6.53a3.59 3.59 0 002.42-.76c.6-.47.88-.96.88-1.48-.06-.64-.42-1.15-1.09-1.5-.6-.35-1.3-.5-2.1-.5a2.4 2.4 0 00-1.47.4zM366.37 256.17c0-.62.29-.93.88-.93l.71-.01c.48 0 .81.17.99.53.25.51.46 1.19.64 2.03a5.32 5.32 0 013.43-2.75c.48-.13 1.08-.2 1.8-.2.71-.01 1.38.13 2 .43.6.3 1.1.71 1.45 1.24.67.97 1 2.4 1.03 4.29l.08 8c0 .25-.07.45-.22.61-.15.17-.38.25-.68.26l-1.27.01c-.33 0-.57-.07-.72-.24a.84.84 0 01-.24-.6l-.09-8.02c-.02-2.2-.84-3.3-2.46-3.28-.95.01-1.8.42-2.58 1.21a4.1 4.1 0 00-1.22 2.98l.08 7.18c0 .24-.07.44-.21.6-.15.17-.37.25-.67.26l-1.33.01c-.3 0-.53-.08-.69-.24a.85.85 0 01-.24-.6l-.08-7.92a26.38 26.38 0 00-.39-4.85zM386.21 263.02l-.01.24c.01 1.18.4 2.12 1.15 2.83a4.4 4.4 0 003.2 1.1 5.85 5.85 0 003.4-1.13c.19-.14.37-.21.52-.22.32 0 .56.16.73.47l.35.72c.08.17.12.36.12.56 0 .2-.08.4-.25.61-.18.21-.4.4-.69.58-.28.18-.6.33-.98.47a11.59 11.59 0 01-3.63.62 7.36 7.36 0 01-2.6-.47 6.35 6.35 0 01-2.28-1.4c-1.38-1.32-2.08-3.12-2.1-5.39-.05-3.98 1.33-6.47 4.12-7.47a8.26 8.26 0 012.7-.48c.92-.01 1.7.08 2.36.27.65.19 1.22.47 1.7.86 1 .8 1.51 1.94 1.53 3.4a3.68 3.68 0 01-1.72 3.3 7.36 7.36 0 01-4.04 1.04c-1.03.01-2.23-.16-3.58-.51zm6.3-3.84c0-1.23-.84-1.83-2.5-1.82-1.56.02-2.66.61-3.27 1.77-.22.4-.36.9-.43 1.5.75.36 1.7.54 2.84.52 2.26-.02 3.38-.68 3.37-1.97zM408.84 266.81l1.56-.14 4.74-.06c.2 0 .37.06.52.19a.6.6 0 01.21.45l.01.93c0 .45-.06.72-.2.83-.23.17-.59.26-1.08.27l-8.44.09c-.55 0-.94-.26-1.16-.79-.08-.18-.12-.4-.12-.64 0-.38.23-.93.71-1.65l5-7.35 1.05-1.43c.05-.07.08-.12.08-.16 0-.04-.06-.06-.17-.06l-1.88.15-3.68.04c-.41 0-.68-.06-.8-.18-.21-.2-.32-.53-.32-1l-.01-.84c0-.17.06-.32.2-.44.14-.13.3-.2.5-.2l8.77-.09c.35 0 .61.1.77.3.26.32.4.62.4.92a2.37 2.37 0 01-.3 1.22l-.28.44c-.1.14-.2.27-.27.4L410 265.2l-1.2 1.43c-.03.04-.04.08-.04.12 0 .04.03.06.09.06zM431.03 268.42c0 .45-.22.68-.67.69l-1.25.01c-.33 0-.53-.06-.6-.2a.95.95 0 01-.12-.35l-.06-.4a20.8 20.8 0 00-.23-1.36 4.9 4.9 0 01-3.14 2.47 6.37 6.37 0 01-3.5-.06 4.9 4.9 0 01-1.64-.88 4.37 4.37 0 01-1.64-3.5 4.22 4.22 0 011.72-3.67 6.3 6.3 0 013.7-1.06c1.51-.01 2.8.42 3.86 1.29.02-.3.03-.66.02-1.1 0-.43-.1-.87-.27-1.3s-.42-.8-.75-1.1a4 4 0 00-2.74-.83 6.78 6.78 0 00-3.19.9c-.2.11-.38.17-.54.17-.23 0-.46-.22-.68-.67-.24-.47-.35-.8-.36-1 0-.38.28-.75.84-1.11a8.18 8.18 0 014.34-1.05 6.19 6.19 0 014.11 1.3c1.3 1.08 1.95 2.6 1.97 4.58.01.87-.11 1.98-.39 3.32.76 2.07 1.16 3.7 1.2 4.9zm-8.7-5.38c-.35.26-.6.52-.75.78-.15.26-.22.57-.21.92 0 .34.06.65.2.92.12.27.3.5.52.67.48.37 1.01.55 1.6.54a4.3 4.3 0 001.45-.22c.38-.14.7-.32.97-.54.6-.47.88-.96.88-1.48-.06-.64-.42-1.15-1.09-1.51-.6-.34-1.3-.5-2.1-.5-.63.01-1.12.15-1.47.42zM435.77 269.05c-.52 0-.78-.32-.78-.98l-.23-21.04c0-.23.06-.43.19-.6a.6.6 0 01.48-.25l1.76-.02c.2 0 .36.08.5.24.13.17.2.36.2.6l.1 9.42a5.49 5.49 0 014.7-2.32 4.98 4.98 0 014.33 2.03c.92 1.25 1.39 2.92 1.4 5 .03 2.45-.53 4.42-1.7 5.92a5.4 5.4 0 01-4.38 2.24c-.97 0-1.86-.2-2.69-.63a4.94 4.94 0 01-2.01-1.97c-.01.27-.03.53-.06.8-.03.25-.05.5-.05.74-.03.53-.38.8-1.04.81l-.72.01zm3.15-10.78c-.35.44-.62.96-.8 1.55a6.02 6.02 0 00.04 3.7c.2.6.46 1.13.8 1.6.76 1.02 1.68 1.53 2.77 1.52a2.97 2.97 0 002.73-1.63c.49-.89.72-2.04.71-3.44-.02-2.31-.64-3.8-1.83-4.44a3.04 3.04 0 00-1.51-.33c-.6 0-1.14.14-1.64.4s-.92.62-1.27 1.07zM464.05 268.06c0 .46-.22.69-.67.7h-1.25c-.33.01-.53-.05-.6-.19a.96.96 0 01-.12-.36l-.06-.39c-.06-.42-.14-.88-.24-1.36a4.91 4.91 0 01-3.13 2.47 6.42 6.42 0 01-3.5-.06 4.92 4.92 0 01-1.64-.88 4.37 4.37 0 01-1.64-3.5 4.22 4.22 0 011.71-3.67 6.3 6.3 0 013.7-1.06c1.52-.02 2.8.41 3.87 1.29.02-.3.03-.66.02-1.1 0-.44-.1-.88-.27-1.31s-.42-.8-.75-1.1a4 4 0 00-2.74-.83 6.79 6.79 0 00-3.19.9c-.2.12-.38.17-.54.18-.23 0-.46-.23-.68-.68a2.7 2.7 0 01-.36-1c0-.38.28-.75.84-1.1a8.19 8.19 0 014.34-1.06 6.19 6.19 0 014.12 1.3c1.29 1.08 1.94 2.6 1.97 4.58 0 .88-.12 1.98-.4 3.32a17.53 17.53 0 011.2 4.91zm-8.7-5.38c-.35.27-.6.53-.75.79-.15.26-.22.56-.22.91s.07.66.2.93.3.5.53.67c.48.36 1.01.54 1.6.54a4.3 4.3 0 001.45-.22c.37-.15.7-.33.97-.54.6-.47.88-.97.88-1.48-.06-.65-.42-1.15-1.09-1.51-.6-.34-1.3-.5-2.1-.5-.63 0-1.12.14-1.47.41zM487.11 253.95c.56 0 .84.25.85.76 0 2.08-.39 4.53-1.18 7.36a15.8 15.8 0 01-2.44 5.3c-.67.88-1.4 1.33-2.2 1.34-.81 0-1.43-.18-1.87-.56a3.15 3.15 0 01-.92-1.68 173.1 173.1 0 00-1.02-3.95l-.5-1.8-.34-1.1-.07.35-.1.5-.26 1.13a31.48 31.48 0 01-1.14 3.7c-.28.62-.5 1.11-.7 1.46-.2.35-.43.68-.69.98-.61.7-1.29 1.06-2.03 1.07-1.54.02-2.52-.8-2.91-2.43a92.6 92.6 0 00-1.54-5.48l-1.78-5.42c-.06-.18-.1-.35-.1-.52 0-.52.29-.79.87-.8l1.53-.01c.51 0 .87.31 1.07.96.52 1.75.98 3.48 1.37 5.18l1.16 5.07c.08.32.2.47.37.47.18 0 .35-.17.51-.5a27.25 27.25 0 001.07-2.8 54.85 54.85 0 00.97-3.55c.28-1.2.5-2.32.68-3.36l.08-.54c.1-.52.55-.78 1.35-.8.52 0 .87.03 1.04.1.33.14.6.5.83 1.07.22.57.46 1.27.72 2.1l.75 2.57c.6 2.27 1.04 4.02 1.33 5.25.06.25.15.37.27.37.17 0 .37-.23.62-.68.24-.46.5-1.09.75-1.89.26-.8.48-1.66.67-2.58.38-1.87.59-3.79.62-5.76 0-.44.18-.72.56-.82.1-.03.18-.04.27-.04l1.48-.02zM502.72 265.7l1.08-.22c.3 0 .5.2.57.6l.2.93.01.28c0 .14-.05.3-.15.45-.11.17-.25.3-.43.42-.4.26-.9.39-1.5.4-1.22 0-2.24-.57-3.06-1.74-.15-.2-.31-.45-.5-.77l-1.81-3.13-.76 1.07a11.53 11.53 0 00-1.87 3.6c-.06.22-.14.42-.25.59-.1.16-.3.25-.56.25l-1.03.01a.61.61 0 01-.49-.23.9.9 0 01-.2-.6l-.23-21.22c0-.23.06-.42.2-.58.13-.16.29-.23.47-.24l1.78-.02c.2 0 .37.08.5.23.13.15.2.35.2.58l.15 10.87c.01.95-.05 2.04-.2 3.3l-.25 2.45v.05c0 .07.01.1.05.1.08 0 .18-.11.3-.34 1.68-3.12 3.8-6.1 6.35-8.95.24-.27.48-.41.69-.41.33 0 .62.13.88.4l.59.64c.29.34.43.6.43.76.02.29-.09.55-.32.78l-2.3 2.3c-.78.82-1.53 1.68-2.23 2.57l.98 1.65c1.25 2.12 2.15 3.18 2.7 3.17zM508.72 251.23c-.59 0-1.09-.2-1.5-.6-.42-.38-.63-.88-.64-1.48 0-.59.2-1.09.6-1.5.4-.4.9-.6 1.5-.61.91-.01 1.56.4 1.94 1.24.11.25.17.52.18.82 0 .6-.2 1.1-.6 1.5-.41.41-.9.62-1.48.63zm1.65 13.47c0 .61.21.92.62.91.14 0 .29-.04.46-.12.33-.15.56-.23.68-.23.18 0 .33.12.44.37l.41.9c.07.15.11.28.11.41 0 .37-.31.72-.94 1.04a4.2 4.2 0 01-3.2.3 2.08 2.08 0 01-.9-.63c-.51-.6-.77-1.61-.79-3l-.1-10.07a.9.9 0 01.2-.6c.13-.17.3-.25.48-.25l1.73-.02c.2 0 .36.08.5.24s.19.36.2.6l.1 10.15z"/>
  </g>
</svg>