<?xml version="1.0" encoding="UTF-8" standalone="no"?>
<svg
   xmlns:dc="http://purl.org/dc/elements/1.1/"
   xmlns:cc="http://creativecommons.org/ns#"
   xmlns:rdf="http://www.w3.org/1999/02/22-rdf-syntax-ns#"
   xmlns:svg="http://www.w3.org/2000/svg"
   xmlns="http://www.w3.org/2000/svg"
   xmlns:sodipodi="http://sodipodi.sourceforge.net/DTD/sodipodi-0.dtd"
   xmlns:inkscape="http://www.inkscape.org/namespaces/inkscape"
   version="1.1"
   id="svg878"
   xml:space="preserve"
   width="109.6"
   height="111.77333"
   viewBox="0 0 109.6 111.77333"
   sodipodi:docname="festiwal kolorów-04.svg"
   inkscape:version="1.0.1 (3bc2e813f5, 2020-09-07)"><metadata
     id="metadata884"><rdf:RDF><cc:Work
         rdf:about=""><dc:format>image/svg+xml</dc:format><dc:type
           rdf:resource="http://purl.org/dc/dcmitype/StillImage" /><dc:title></dc:title></cc:Work></rdf:RDF></metadata><defs
     id="defs882" /><sodipodi:namedview
     pagecolor="#ffffff"
     bordercolor="#666666"
     borderopacity="1"
     objecttolerance="10"
     gridtolerance="10"
     guidetolerance="10"
     inkscape:pageopacity="0"
     inkscape:pageshadow="2"
     inkscape:window-width="838"
     inkscape:window-height="480"
     id="namedview880"
     showgrid="false"
     inkscape:zoom="8.0520102"
     inkscape:cx="54.799999"
     inkscape:cy="55.886665"
     inkscape:window-x="260"
     inkscape:window-y="197"
     inkscape:window-maximized="0"
     inkscape:current-layer="g886" /><g
     id="g886"
     inkscape:groupmode="layer"
     inkscape:label="ink_ext_XXXXXX"
     transform="matrix(1.3333333,0,0,-1.3333333,0,111.77333)"><g
       id="g888"
       transform="scale(0.1)"><path
         d="M 453.75,818.809 C 290.84,830.301 82.4531,743.953 27.2656,491.328 -23.0469,260.586 132.297,76.3477 310.352,28.5234 535.371,-35.9453 756.184,186.16 798.984,401.809 840.305,599.813 644.219,807.93 453.75,818.809"
         style="fill:#ec1d27;fill-opacity:1;fill-rule:nonzero;stroke:none"
         id="path890" /><path
         d="M 453.75,837.559 C 265.203,848.523 99.8633,742.031 30.1367,567.18 -54.4531,355.051 45.0586,119.375 253.027,28.6914 c 218.899,-95.4492 433.047,61.875 526.719,256.6526 46.094,95.847 59.551,203.711 14.524,302.554 -44.985,98.743 -128.567,183.469 -230.207,223.77 -35.86,14.219 -71.895,22.785 -110.313,25.891 -24.121,1.953 -23.926,-35.567 0,-37.5 C 561.105,791.367 655.723,727.441 719.48,642.852 784.91,556.047 798.867,455.215 766.594,352.91 704.855,157.195 502.063,-14.2305 291.211,53.9648 200.012,83.457 124.766,152.488 78.5938,235.129 25.2148,330.645 28.0547,442.48 61.4258,543.816 116.738,711.75 281.047,810.105 453.75,800.059 c 24.172,-1.407 24.031,36.101 0,37.5 v 0"
         style="fill:#ec1d27;fill-opacity:1;fill-rule:nonzero;stroke:none"
         id="path892" /></g></g></svg>
